<?xml version="1.0" encoding="UTF-8" standalone="no"?>
<!DOCTYPE svg PUBLIC "-//W3C//DTD SVG 1.1//EN"
 "http://www.w3.org/Graphics/SVG/1.1/DTD/svg11.dtd">
<!-- Generated by graphviz version 12.2.1 (20241206.2353)
 -->
<!-- Title: Intelligent Application Pages: 1 -->
<svg width="1892pt" height="447pt"
 viewBox="0.00 0.00 1892.00 447.00" xmlns="http://www.w3.org/2000/svg" xmlns:xlink="http://www.w3.org/1999/xlink">
<g id="graph0" class="graph" transform="scale(1 1) rotate(0) translate(4 443)">
<title>Intelligent Application</title>
<polygon fill="white" stroke="none" points="-4,4 -4,-443 1888,-443 1888,4 -4,4"/>
<!-- Wikipedia -->
<g id="node1" class="node">
<title>Wikipedia</title>
<g id="a_node1"><a xlink:href="https://en.wikipedia.org/" xlink:title=" &lt;i&gt;&lt;u&gt;Concept Defined in Wikipedia&lt;/u&gt;&lt;/i&gt; ">
<polygon fill="lightyellow" stroke="black" points="190.25,-125 2.5,-125 2.5,-89 190.25,-89 190.25,-125"/>
<text text-anchor="start" x="10.5" y="-102.95" font-family="Times New Roman,serif" font-size="14.00"> </text>
<text text-anchor="start" x="14.25" y="-102.95" font-family="Times New Roman,serif" font-style="italic" text-decoration="underline" font-size="14.00">Concept Defined in Wikipedia</text>
<text text-anchor="start" x="178.5" y="-102.95" font-family="Times New Roman,serif" font-size="14.00"> </text>
</a>
</g>
</g>
<!-- This Paper -->
<g id="node2" class="node">
<title>This Paper</title>
<polygon fill="lightblue" stroke="black" points="188.75,-183 4,-183 4,-147 188.75,-147 188.75,-183"/>
<polygon fill="none" stroke="black" points="192.75,-187 0,-187 0,-143 192.75,-143 192.75,-187"/>
<text text-anchor="start" x="12" y="-160.95" font-family="Times New Roman,serif" font-size="14.00"> </text>
<text text-anchor="start" x="15.75" y="-160.95" font-family="Times New Roman,serif" font-style="italic" font-size="14.00">Concept defined in this paper</text>
<text text-anchor="start" x="177" y="-160.95" font-family="Times New Roman,serif" font-size="14.00"> </text>
</g>
<!-- Decision -->
<g id="node3" class="node">
<title>Decision</title>
<polygon fill="lightblue" stroke="black" points="1010.25,-374 938.75,-374 938.75,-338 1010.25,-338 1010.25,-374"/>
<polygon fill="none" stroke="black" points="1014.25,-378 934.75,-378 934.75,-334 1014.25,-334 1014.25,-378"/>
<text text-anchor="start" x="946.75" y="-351.95" font-family="Times New Roman,serif" font-size="14.00"> </text>
<text text-anchor="start" x="950.5" y="-351.95" font-family="Times New Roman,serif" font-style="italic" font-size="14.00">Decision</text>
<text text-anchor="start" x="998.5" y="-351.95" font-family="Times New Roman,serif" font-size="14.00"> </text>
</g>
<!-- DecisionChain -->
<g id="node4" class="node">
<title>DecisionChain</title>
<polygon fill="lightblue" stroke="black" points="1439.25,-324 1334.75,-324 1334.75,-288 1439.25,-288 1439.25,-324"/>
<polygon fill="none" stroke="black" points="1443.25,-328 1330.75,-328 1330.75,-284 1443.25,-284 1443.25,-328"/>
<text text-anchor="start" x="1342.75" y="-301.95" font-family="Times New Roman,serif" font-size="14.00"> </text>
<text text-anchor="start" x="1346.5" y="-301.95" font-family="Times New Roman,serif" font-style="italic" font-size="14.00">DecisionChain</text>
<text text-anchor="start" x="1427.5" y="-301.95" font-family="Times New Roman,serif" font-size="14.00"> </text>
</g>
<!-- Decision&#45;&gt;DecisionChain -->
<g id="edge12" class="edge">
<title>Decision&#45;&gt;DecisionChain</title>
<path fill="none" stroke="black" d="M1014.49,-351.25C1084.59,-342.71 1232.65,-324.68 1319.2,-314.14"/>
<polygon fill="black" stroke="black" points="1319.46,-317.63 1328.97,-312.95 1318.62,-310.68 1319.46,-317.63"/>
<text text-anchor="middle" x="1238.88" y="-335.7" font-family="Times New Roman,serif" font-size="14.00">are connected together as a</text>
</g>
<!-- DAG -->
<g id="node20" class="node">
<title>DAG</title>
<g id="a_node20"><a xlink:href="https://en.wikipedia.org/wiki/Directed_acyclic_graph" xlink:title=" &lt;i&gt;&lt;u&gt;Directed Acyclic Graph&lt;/u&gt;&lt;/i&gt; ">
<polygon fill="lightyellow" stroke="black" points="1718,-324 1565.5,-324 1565.5,-288 1718,-288 1718,-324"/>
<text text-anchor="start" x="1573.5" y="-301.95" font-family="Times New Roman,serif" font-size="14.00"> </text>
<text text-anchor="start" x="1577.25" y="-301.95" font-family="Times New Roman,serif" font-style="italic" text-decoration="underline" font-size="14.00">Directed Acyclic Graph</text>
<text text-anchor="start" x="1706.25" y="-301.95" font-family="Times New Roman,serif" font-size="14.00"> </text>
</a>
</g>
</g>
<!-- DecisionChain&#45;&gt;DAG -->
<g id="edge13" class="edge">
<title>DecisionChain&#45;&gt;DAG</title>
<path fill="none" stroke="black" d="M1443.47,-306C1475.86,-306 1517.45,-306 1554.08,-306"/>
<polygon fill="black" stroke="black" points="1553.76,-309.5 1563.76,-306 1553.76,-302.5 1553.76,-309.5"/>
<text text-anchor="middle" x="1504.38" y="-309.2" font-family="Times New Roman,serif" font-size="14.00">uses as a model</text>
</g>
<!-- FrederickWinslowTaylor -->
<g id="node5" class="node">
<title>FrederickWinslowTaylor</title>
<g id="a_node5"><a xlink:href="https://en.wikipedia.org/wiki/Frederick_Winslow_Taylor" xlink:title=" &lt;i&gt;&lt;u&gt;Frederick Winslow Taylor&lt;/u&gt;&lt;/i&gt; ">
<polygon fill="lightyellow" stroke="black" points="1057.5,-316 891.5,-316 891.5,-280 1057.5,-280 1057.5,-316"/>
<text text-anchor="start" x="899.5" y="-293.95" font-family="Times New Roman,serif" font-size="14.00"> </text>
<text text-anchor="start" x="903.25" y="-293.95" font-family="Times New Roman,serif" font-style="italic" text-decoration="underline" font-size="14.00">Frederick Winslow Taylor</text>
<text text-anchor="start" x="1045.75" y="-293.95" font-family="Times New Roman,serif" font-size="14.00"> </text>
</a>
</g>
</g>
<!-- PrinciplesOfScientificManagement -->
<g id="node6" class="node">
<title>PrinciplesOfScientificManagement</title>
<g id="a_node6"><a xlink:href="https://en.wikipedia.org/wiki/The_Principles_of_Scientific_Management" xlink:title=" &lt;i&gt;&lt;u&gt;The Principles of Scientific Management&lt;/u&gt;&lt;/i&gt; ">
<polygon fill="lightyellow" stroke="black" points="601.75,-305 355.5,-305 355.5,-269 601.75,-269 601.75,-305"/>
<text text-anchor="start" x="363.5" y="-282.95" font-family="Times New Roman,serif" font-size="14.00"> </text>
<text text-anchor="start" x="367.25" y="-282.95" font-family="Times New Roman,serif" font-style="italic" text-decoration="underline" font-size="14.00">The Principles of Scientific Management</text>
<text text-anchor="start" x="590" y="-282.95" font-family="Times New Roman,serif" font-size="14.00"> </text>
</a>
</g>
</g>
<!-- PrinciplesOfScientificManagement&#45;&gt;FrederickWinslowTaylor -->
<g id="edge15" class="edge">
<title>PrinciplesOfScientificManagement&#45;&gt;FrederickWinslowTaylor</title>
<path fill="none" stroke="black" d="M602.02,-289.73C687.93,-291.64 801.06,-294.16 879.81,-295.91"/>
<polygon fill="black" stroke="black" points="879.59,-299.41 889.66,-296.13 879.74,-292.41 879.59,-299.41"/>
<text text-anchor="middle" x="701.88" y="-296.69" font-family="Times New Roman,serif" font-size="14.00">was developed early 1900s by</text>
</g>
<!-- Worker -->
<g id="node7" class="node">
<title>Worker</title>
<g id="a_node7"><a xlink:href="https://en.wikipedia.org/wiki/The_Principles_of_Scientific_Management" xlink:title=" &lt;i&gt;&lt;u&gt;Worker&lt;/u&gt;&lt;/i&gt; ">
<polygon fill="lightyellow" stroke="black" points="128,-324 64.75,-324 64.75,-288 128,-288 128,-324"/>
<text text-anchor="start" x="72.75" y="-301.95" font-family="Times New Roman,serif" font-size="14.00"> </text>
<text text-anchor="start" x="76.5" y="-301.95" font-family="Times New Roman,serif" font-style="italic" text-decoration="underline" font-size="14.00">Worker</text>
<text text-anchor="start" x="116.25" y="-301.95" font-family="Times New Roman,serif" font-size="14.00"> </text>
</a>
</g>
</g>
<!-- Worker&#45;&gt;PrinciplesOfScientificManagement -->
<g id="edge16" class="edge">
<title>Worker&#45;&gt;PrinciplesOfScientificManagement</title>
<path fill="none" stroke="black" d="M128.03,-300.01C150.76,-295.88 182.56,-290.74 210.75,-288.5 254,-285.06 301.31,-283.94 343.93,-283.89"/>
<polygon fill="black" stroke="black" points="343.72,-287.39 353.72,-283.9 343.73,-280.39 343.72,-287.39"/>
<text text-anchor="middle" x="274.12" y="-291.7" font-family="Times New Roman,serif" font-size="14.00">do&#45;role defined in</text>
</g>
<!-- Algorithm -->
<g id="node18" class="node">
<title>Algorithm</title>
<g id="a_node18"><a xlink:href="https://en.wikipedia.org/wiki/Algorithm" xlink:title=" &lt;i&gt;&lt;u&gt;Algorithm&lt;/u&gt;&lt;/i&gt; ">
<polygon fill="lightyellow" stroke="black" points="517.75,-385 439.5,-385 439.5,-349 517.75,-349 517.75,-385"/>
<text text-anchor="start" x="447.5" y="-362.95" font-family="Times New Roman,serif" font-size="14.00"> </text>
<text text-anchor="start" x="451.25" y="-362.95" font-family="Times New Roman,serif" font-style="italic" text-decoration="underline" font-size="14.00">Algorithm</text>
<text text-anchor="start" x="506" y="-362.95" font-family="Times New Roman,serif" font-size="14.00"> </text>
</a>
</g>
</g>
<!-- Worker&#45;&gt;Algorithm -->
<g id="edge18" class="edge">
<title>Worker&#45;&gt;Algorithm</title>
<path fill="none" stroke="black" d="M128.49,-310.99C194.34,-321.56 348.25,-346.25 427.9,-359.02"/>
<polygon fill="black" stroke="black" points="427.17,-362.45 437.6,-360.58 428.28,-355.54 427.17,-362.45"/>
<text text-anchor="middle" x="274.12" y="-346.96" font-family="Times New Roman,serif" font-size="14.00">could be seen as (???)</text>
</g>
<!-- Manager -->
<g id="node8" class="node">
<title>Manager</title>
<g id="a_node8"><a xlink:href="https://en.wikipedia.org/wiki/The_Principles_of_Scientific_Management" xlink:title=" &lt;i&gt;&lt;u&gt;Manager&lt;/u&gt;&lt;/i&gt; ">
<polygon fill="lightyellow" stroke="black" points="133.25,-241 59.5,-241 59.5,-205 133.25,-205 133.25,-241"/>
<text text-anchor="start" x="67.5" y="-218.95" font-family="Times New Roman,serif" font-size="14.00"> </text>
<text text-anchor="start" x="71.25" y="-218.95" font-family="Times New Roman,serif" font-style="italic" text-decoration="underline" font-size="14.00">Manager</text>
<text text-anchor="start" x="121.5" y="-218.95" font-family="Times New Roman,serif" font-size="14.00"> </text>
</a>
</g>
</g>
<!-- Manager&#45;&gt;PrinciplesOfScientificManagement -->
<g id="edge17" class="edge">
<title>Manager&#45;&gt;PrinciplesOfScientificManagement</title>
<path fill="none" stroke="black" d="M133.49,-229.08C184.29,-237.63 279.29,-253.62 356.62,-266.63"/>
<polygon fill="black" stroke="black" points="355.96,-270.07 366.41,-268.28 357.12,-263.17 355.96,-270.07"/>
<text text-anchor="middle" x="274.12" y="-265.81" font-family="Times New Roman,serif" font-size="14.00">manage&#45;role defined in</text>
</g>
<!-- IntelligentAgent -->
<g id="node12" class="node">
<title>IntelligentAgent</title>
<g id="a_node12"><a xlink:href="https://en.wikipedia.org/wiki/Intelligent_agent" xlink:title=" &lt;i&gt;&lt;u&gt;Intelligent Agent&lt;/u&gt;&lt;/i&gt; ">
<polygon fill="lightyellow" stroke="black" points="535.38,-211 421.88,-211 421.88,-175 535.38,-175 535.38,-211"/>
<text text-anchor="start" x="429.88" y="-188.95" font-family="Times New Roman,serif" font-size="14.00"> </text>
<text text-anchor="start" x="433.62" y="-188.95" font-family="Times New Roman,serif" font-style="italic" text-decoration="underline" font-size="14.00">Intelligent Agent</text>
<text text-anchor="start" x="523.62" y="-188.95" font-family="Times New Roman,serif" font-size="14.00"> </text>
</a>
</g>
</g>
<!-- Manager&#45;&gt;IntelligentAgent -->
<g id="edge19" class="edge">
<title>Manager&#45;&gt;IntelligentAgent</title>
<path fill="none" stroke="black" d="M133.52,-216.85C155.74,-213.3 184.82,-209.04 210.75,-206.5 278.39,-199.88 356.01,-196.42 410.04,-194.66"/>
<polygon fill="black" stroke="black" points="410.14,-198.16 420.03,-194.35 409.92,-191.17 410.14,-198.16"/>
<text text-anchor="middle" x="274.12" y="-209.7" font-family="Times New Roman,serif" font-size="14.00">could be seen as (???)</text>
</g>
<!-- DecisionTree -->
<g id="node9" class="node">
<title>DecisionTree</title>
<g id="a_node9"><a xlink:href="https://en.wikipedia.org/wiki/Decision_tree" xlink:title=" &lt;i&gt;&lt;u&gt;Decision Tree&lt;/u&gt;&lt;/i&gt; ">
<polygon fill="lightyellow" stroke="black" points="146,-439 46.75,-439 46.75,-403 146,-403 146,-439"/>
<text text-anchor="start" x="54.75" y="-416.95" font-family="Times New Roman,serif" font-size="14.00"> </text>
<text text-anchor="start" x="58.5" y="-416.95" font-family="Times New Roman,serif" font-style="italic" text-decoration="underline" font-size="14.00">Decision Tree</text>
<text text-anchor="start" x="134.25" y="-416.95" font-family="Times New Roman,serif" font-size="14.00"> </text>
</a>
</g>
</g>
<!-- DecisionTree&#45;&gt;Algorithm -->
<g id="edge9" class="edge">
<title>DecisionTree&#45;&gt;Algorithm</title>
<path fill="none" stroke="black" d="M146.15,-414.47C194.68,-407.94 271.27,-397.51 337.5,-388 367.65,-383.67 401.41,-378.62 428.24,-374.55"/>
<polygon fill="black" stroke="black" points="428.42,-378.06 437.79,-373.1 427.37,-371.14 428.42,-378.06"/>
<text text-anchor="middle" x="274.12" y="-408.59" font-family="Times New Roman,serif" font-size="14.00">is an</text>
</g>
<!-- ArtificialNeuralNetwork -->
<g id="node10" class="node">
<title>ArtificialNeuralNetwork</title>
<g id="a_node10"><a xlink:href="https://en.wikipedia.org/wiki/Neural_network_(machine_learning)" xlink:title=" &lt;i&gt;&lt;u&gt;Artificial Neural Network&lt;/u&gt;&lt;/i&gt; ">
<polygon fill="lightyellow" stroke="black" points="177.88,-385 14.88,-385 14.88,-349 177.88,-349 177.88,-385"/>
<text text-anchor="start" x="22.88" y="-362.95" font-family="Times New Roman,serif" font-size="14.00"> </text>
<text text-anchor="start" x="26.62" y="-362.95" font-family="Times New Roman,serif" font-style="italic" text-decoration="underline" font-size="14.00">Artificial Neural Network</text>
<text text-anchor="start" x="166.12" y="-362.95" font-family="Times New Roman,serif" font-size="14.00"> </text>
</a>
</g>
</g>
<!-- ArtificialNeuralNetwork&#45;&gt;Algorithm -->
<g id="edge10" class="edge">
<title>ArtificialNeuralNetwork&#45;&gt;Algorithm</title>
<path fill="none" stroke="black" d="M178.02,-367C253.75,-367 364.63,-367 428.11,-367"/>
<polygon fill="black" stroke="black" points="427.88,-370.5 437.88,-367 427.88,-363.5 427.88,-370.5"/>
<text text-anchor="middle" x="274.12" y="-370.2" font-family="Times New Roman,serif" font-size="14.00">is an</text>
</g>
<!-- SoftwareAgent -->
<g id="node11" class="node">
<title>SoftwareAgent</title>
<g id="a_node11"><a xlink:href="https://en.wikipedia.org/wiki/Software_agent" xlink:title=" &lt;i&gt;&lt;u&gt;Software Agent&lt;/u&gt;&lt;/i&gt; ">
<polygon fill="lightyellow" stroke="black" points="1027.5,-114 921.5,-114 921.5,-78 1027.5,-78 1027.5,-114"/>
<text text-anchor="start" x="929.5" y="-91.95" font-family="Times New Roman,serif" font-size="14.00"> </text>
<text text-anchor="start" x="933.25" y="-91.95" font-family="Times New Roman,serif" font-style="italic" text-decoration="underline" font-size="14.00">Software Agent</text>
<text text-anchor="start" x="1015.75" y="-91.95" font-family="Times New Roman,serif" font-size="14.00"> </text>
</a>
</g>
</g>
<!-- IntelligentAgent&#45;&gt;DecisionChain -->
<g id="edge14" class="edge">
<title>IntelligentAgent&#45;&gt;DecisionChain</title>
<path fill="none" stroke="black" d="M535.73,-190.74C674.54,-185.62 1031.21,-175.4 1147,-200.5 1217,-215.67 1291.58,-252.27 1338.46,-278.09"/>
<polygon fill="black" stroke="black" points="1336.55,-281.03 1346.99,-282.85 1339.96,-274.92 1336.55,-281.03"/>
<text text-anchor="middle" x="974.5" y="-203.7" font-family="Times New Roman,serif" font-size="14.00">needs to have access via DPI: Decision Programming Interface</text>
</g>
<!-- IntelligentAgent&#45;&gt;SoftwareAgent -->
<g id="edge1" class="edge">
<title>IntelligentAgent&#45;&gt;SoftwareAgent</title>
<path fill="none" stroke="black" d="M535.64,-178.85C561.19,-172.69 591.89,-165.71 619.75,-160.5 692.23,-146.93 711.42,-150.03 784,-137 826.19,-129.43 873.29,-119.25 909.98,-110.92"/>
<polygon fill="black" stroke="black" points="910.57,-114.38 919.54,-108.74 909.01,-107.55 910.57,-114.38"/>
<text text-anchor="middle" x="701.88" y="-163.7" font-family="Times New Roman,serif" font-size="14.00">one example of an</text>
</g>
<!-- BeliefDesireIntention -->
<g id="node16" class="node">
<title>BeliefDesireIntention</title>
<g id="a_node16"><a xlink:href="https://en.wikipedia.org/wiki/Belief%E2%80%93desire%E2%80%93intention_software_model" xlink:title=" &lt;i&gt;&lt;u&gt;Belief Desire Intention&lt;/u&gt;&lt;/i&gt; ">
<polygon fill="lightyellow" stroke="black" points="1048.12,-262 900.88,-262 900.88,-226 1048.12,-226 1048.12,-262"/>
<text text-anchor="start" x="908.88" y="-239.95" font-family="Times New Roman,serif" font-size="14.00"> </text>
<text text-anchor="start" x="912.62" y="-239.95" font-family="Times New Roman,serif" font-style="italic" text-decoration="underline" font-size="14.00">Belief Desire Intention</text>
<text text-anchor="start" x="1036.38" y="-239.95" font-family="Times New Roman,serif" font-size="14.00"> </text>
</a>
</g>
</g>
<!-- IntelligentAgent&#45;&gt;BeliefDesireIntention -->
<g id="edge5" class="edge">
<title>IntelligentAgent&#45;&gt;BeliefDesireIntention</title>
<path fill="none" stroke="black" d="M535.8,-198.8C622.22,-207.72 788.34,-224.88 889.22,-235.3"/>
<polygon fill="black" stroke="black" points="888.78,-238.77 899.08,-236.32 889.5,-231.81 888.78,-238.77"/>
<text text-anchor="middle" x="701.88" y="-226.27" font-family="Times New Roman,serif" font-size="14.00">can use paradigm</text>
</g>
<!-- AutonomousAgent -->
<g id="node13" class="node">
<title>AutonomousAgent</title>
<g id="a_node13"><a xlink:href="https://en.wikipedia.org/wiki/Autonomous_agent" xlink:title=" &lt;i&gt;&lt;u&gt;Autonomous Agent&lt;/u&gt;&lt;/i&gt; ">
<polygon fill="lightyellow" stroke="black" points="541.38,-90 415.88,-90 415.88,-54 541.38,-54 541.38,-90"/>
<text text-anchor="start" x="423.88" y="-67.95" font-family="Times New Roman,serif" font-size="14.00"> </text>
<text text-anchor="start" x="427.62" y="-67.95" font-family="Times New Roman,serif" font-style="italic" text-decoration="underline" font-size="14.00">Autonomous Agent</text>
<text text-anchor="start" x="529.62" y="-67.95" font-family="Times New Roman,serif" font-size="14.00"> </text>
</a>
</g>
</g>
<!-- AutonomousAgent&#45;&gt;SoftwareAgent -->
<g id="edge2" class="edge">
<title>AutonomousAgent&#45;&gt;SoftwareAgent</title>
<path fill="none" stroke="black" d="M541.75,-72.76C603.29,-73.74 700.21,-75.91 784,-80.5 826.12,-82.81 873.4,-86.67 910.2,-89.97"/>
<polygon fill="black" stroke="black" points="909.49,-93.42 919.76,-90.83 910.12,-86.45 909.49,-93.42"/>
<text text-anchor="middle" x="701.88" y="-83.7" font-family="Times New Roman,serif" font-size="14.00">one example of an</text>
</g>
<!-- MultiAgentSystem -->
<g id="node14" class="node">
<title>MultiAgentSystem</title>
<g id="a_node14"><a xlink:href="https://en.wikipedia.org/wiki/Multi-agent_system" xlink:title=" &lt;i&gt;&lt;u&gt;Multi&#45;Agent System (MAS)&lt;/u&gt;&lt;/i&gt; ">
<polygon fill="lightyellow" stroke="black" points="563.88,-36 393.38,-36 393.38,0 563.88,0 563.88,-36"/>
<text text-anchor="start" x="401.38" y="-13.95" font-family="Times New Roman,serif" font-size="14.00"> </text>
<text text-anchor="start" x="405.12" y="-13.95" font-family="Times New Roman,serif" font-style="italic" text-decoration="underline" font-size="14.00">Multi&#45;Agent System (MAS)</text>
<text text-anchor="start" x="552.12" y="-13.95" font-family="Times New Roman,serif" font-size="14.00"> </text>
</a>
</g>
</g>
<!-- MultiAgentSystem&#45;&gt;SoftwareAgent -->
<g id="edge4" class="edge">
<title>MultiAgentSystem&#45;&gt;SoftwareAgent</title>
<path fill="none" stroke="black" d="M564.24,-25.94C625.49,-32.22 710.14,-42.01 784,-54.5 826.28,-61.65 873.38,-71.95 910.05,-80.5"/>
<polygon fill="black" stroke="black" points="909.07,-83.87 919.6,-82.75 910.67,-77.05 909.07,-83.87"/>
<text text-anchor="middle" x="701.88" y="-57.7" font-family="Times New Roman,serif" font-size="14.00">one example of an</text>
</g>
<!-- MobileAgent -->
<g id="node15" class="node">
<title>MobileAgent</title>
<g id="a_node15"><a xlink:href="https://en.wikipedia.org/wiki/Mobile_agent" xlink:title=" &lt;i&gt;&lt;u&gt;Mobile Agent&lt;/u&gt;&lt;/i&gt; ">
<polygon fill="lightyellow" stroke="black" points="527.12,-144 430.12,-144 430.12,-108 527.12,-108 527.12,-144"/>
<text text-anchor="start" x="438.12" y="-121.95" font-family="Times New Roman,serif" font-size="14.00"> </text>
<text text-anchor="start" x="441.88" y="-121.95" font-family="Times New Roman,serif" font-style="italic" text-decoration="underline" font-size="14.00">Mobile Agent</text>
<text text-anchor="start" x="515.38" y="-121.95" font-family="Times New Roman,serif" font-size="14.00"> </text>
</a>
</g>
</g>
<!-- MobileAgent&#45;&gt;SoftwareAgent -->
<g id="edge3" class="edge">
<title>MobileAgent&#45;&gt;SoftwareAgent</title>
<path fill="none" stroke="black" d="M527.43,-123.1C616.85,-117.66 809.41,-105.97 909.76,-99.87"/>
<polygon fill="black" stroke="black" points="909.95,-103.37 919.72,-99.27 909.53,-96.38 909.95,-103.37"/>
<text text-anchor="middle" x="701.88" y="-120.34" font-family="Times New Roman,serif" font-size="14.00">one example of an</text>
</g>
<!-- Mathematics -->
<g id="node17" class="node">
<title>Mathematics</title>
<g id="a_node17"><a xlink:href="https://en.wikipedia.org/wiki/Mathematics" xlink:title=" &lt;i&gt;&lt;u&gt;Mathematics&lt;/u&gt;&lt;/i&gt; ">
<polygon fill="lightyellow" stroke="black" points="1884,-378 1790,-378 1790,-342 1884,-342 1884,-378"/>
<text text-anchor="start" x="1798" y="-355.95" font-family="Times New Roman,serif" font-size="14.00"> </text>
<text text-anchor="start" x="1801.75" y="-355.95" font-family="Times New Roman,serif" font-style="italic" text-decoration="underline" font-size="14.00">Mathematics</text>
<text text-anchor="start" x="1872.25" y="-355.95" font-family="Times New Roman,serif" font-size="14.00"> </text>
</a>
</g>
</g>
<!-- Algorithm&#45;&gt;Decision -->
<g id="edge11" class="edge">
<title>Algorithm&#45;&gt;Decision</title>
<path fill="none" stroke="black" d="M517.97,-366.15C606.28,-364.18 824.02,-359.33 923.03,-357.12"/>
<polygon fill="black" stroke="black" points="923.07,-360.62 932.99,-356.9 922.91,-353.63 923.07,-360.62"/>
<text text-anchor="middle" x="701.88" y="-366.95" font-family="Times New Roman,serif" font-size="14.00">can make or suggest one</text>
</g>
<!-- Algorithm&#45;&gt;Mathematics -->
<g id="edge7" class="edge">
<title>Algorithm&#45;&gt;Mathematics</title>
<path fill="none" stroke="black" d="M518.22,-372.3C546.33,-376.01 585.34,-380.85 619.75,-384 776.62,-398.38 815.97,-406 973.5,-406 973.5,-406 973.5,-406 1642.75,-406 1689.52,-406 1740.97,-393.09 1779.01,-380.95"/>
<polygon fill="black" stroke="black" points="1780.02,-384.3 1788.43,-377.86 1777.84,-377.65 1780.02,-384.3"/>
<text text-anchor="middle" x="1387" y="-409.2" font-family="Times New Roman,serif" font-size="14.00">part of</text>
</g>
<!-- MathematicalModel -->
<g id="node19" class="node">
<title>MathematicalModel</title>
<g id="a_node19"><a xlink:href="https://en.wikipedia.org/wiki/Mathematical_model" xlink:title=" &lt;i&gt;&lt;u&gt;Mathematical Model&lt;/u&gt;&lt;/i&gt; ">
<polygon fill="lightyellow" stroke="black" points="1710.88,-378 1572.62,-378 1572.62,-342 1710.88,-342 1710.88,-378"/>
<text text-anchor="start" x="1580.62" y="-355.95" font-family="Times New Roman,serif" font-size="14.00"> </text>
<text text-anchor="start" x="1584.38" y="-355.95" font-family="Times New Roman,serif" font-style="italic" text-decoration="underline" font-size="14.00">Mathematical Model</text>
<text text-anchor="start" x="1699.12" y="-355.95" font-family="Times New Roman,serif" font-size="14.00"> </text>
</a>
</g>
</g>
<!-- MathematicalModel&#45;&gt;Mathematics -->
<g id="edge8" class="edge">
<title>MathematicalModel&#45;&gt;Mathematics</title>
<path fill="none" stroke="black" d="M1711.15,-360C1733.05,-360 1757.06,-360 1778.13,-360"/>
<polygon fill="black" stroke="black" points="1777.99,-363.5 1787.99,-360 1777.99,-356.5 1777.99,-363.5"/>
<text text-anchor="middle" x="1754" y="-363.2" font-family="Times New Roman,serif" font-size="14.00">part of</text>
</g>
<!-- DAG&#45;&gt;Mathematics -->
<g id="edge6" class="edge">
<title>DAG&#45;&gt;Mathematics</title>
<path fill="none" stroke="black" d="M1716.76,-324.42C1734.88,-329.14 1754.19,-334.34 1772,-339.5 1774.23,-340.15 1776.51,-340.82 1778.8,-341.5"/>
<polygon fill="black" stroke="black" points="1777.57,-344.79 1788.16,-344.36 1779.61,-338.09 1777.57,-344.79"/>
<text text-anchor="middle" x="1754" y="-342.7" font-family="Times New Roman,serif" font-size="14.00">part of</text>
</g>
</g>
</svg>
