<?xml version="1.0" encoding="UTF-8" standalone="no"?>
<!DOCTYPE svg PUBLIC "-//W3C//DTD SVG 1.1//EN"
 "http://www.w3.org/Graphics/SVG/1.1/DTD/svg11.dtd">
<!-- Generated by graphviz version 12.2.1 (20241206.2353)
 -->
<!-- Title: Intelligent Application Pages: 1 -->
<svg width="1932pt" height="534pt"
 viewBox="0.00 0.00 1931.95 534.00" xmlns="http://www.w3.org/2000/svg" xmlns:xlink="http://www.w3.org/1999/xlink">
<g id="graph0" class="graph" transform="scale(1 1) rotate(0) translate(4 530)">
<title>Intelligent Application</title>
<polygon fill="white" stroke="none" points="-4,4 -4,-530 1927.95,-530 1927.95,4 -4,4"/>
<!-- Wikipedia -->
<g id="node1" class="node">
<title>Wikipedia</title>
<g id="a_node1"><a xlink:href="https://en.wikipedia.org/" xlink:title=" &lt;i&gt;&lt;u&gt;Concept Defined in Wikipedia&lt;/u&gt;&lt;/i&gt; ">
<polygon fill="lightyellow" stroke="black" points="210.23,-159 22.48,-159 22.48,-123 210.23,-123 210.23,-159"/>
<text text-anchor="start" x="30.48" y="-136.95" font-family="Times New Roman,serif" font-size="14.00"> </text>
<text text-anchor="start" x="34.23" y="-136.95" font-family="Times New Roman,serif" font-style="italic" text-decoration="underline" font-size="14.00">Concept Defined in Wikipedia</text>
<text text-anchor="start" x="198.48" y="-136.95" font-family="Times New Roman,serif" font-size="14.00"> </text>
</a>
</g>
</g>
<!-- Github -->
<g id="node2" class="node">
<title>Github</title>
<g id="a_node2"><a xlink:href="https://github.com/" xlink:title=" &lt;i&gt;&lt;u&gt;Concept Defined in Github&lt;/u&gt;&lt;/i&gt; ">
<ellipse fill="lightgreen" stroke="black" cx="116.35" cy="-195" rx="116.35" ry="18"/>
<text text-anchor="start" x="39.1" y="-190.95" font-family="Times New Roman,serif" font-size="14.00"> </text>
<text text-anchor="start" x="42.85" y="-190.95" font-family="Times New Roman,serif" font-style="italic" text-decoration="underline" font-size="14.00">Concept Defined in Github</text>
<text text-anchor="start" x="189.85" y="-190.95" font-family="Times New Roman,serif" font-size="14.00"> </text>
</a>
</g>
</g>
<!-- This Paper -->
<g id="node3" class="node">
<title>This Paper</title>
<polygon fill="lightblue" stroke="black" points="208.73,-271 23.98,-271 23.98,-235 208.73,-235 208.73,-271"/>
<polygon fill="none" stroke="black" points="212.73,-275 19.98,-275 19.98,-231 212.73,-231 212.73,-275"/>
<text text-anchor="start" x="31.98" y="-248.95" font-family="Times New Roman,serif" font-size="14.00"> </text>
<text text-anchor="start" x="35.73" y="-248.95" font-family="Times New Roman,serif" font-style="italic" font-size="14.00">Concept defined in this paper</text>
<text text-anchor="start" x="196.98" y="-248.95" font-family="Times New Roman,serif" font-size="14.00"> </text>
</g>
<!-- Decision -->
<g id="node4" class="node">
<title>Decision</title>
<polygon fill="lightblue" stroke="black" points="1050.2,-457 978.7,-457 978.7,-421 1050.2,-421 1050.2,-457"/>
<polygon fill="none" stroke="black" points="1054.2,-461 974.7,-461 974.7,-417 1054.2,-417 1054.2,-461"/>
<text text-anchor="start" x="986.7" y="-434.95" font-family="Times New Roman,serif" font-size="14.00"> </text>
<text text-anchor="start" x="990.45" y="-434.95" font-family="Times New Roman,serif" font-style="italic" font-size="14.00">Decision</text>
<text text-anchor="start" x="1038.45" y="-434.95" font-family="Times New Roman,serif" font-size="14.00"> </text>
</g>
<!-- DecisionChain -->
<g id="node5" class="node">
<title>DecisionChain</title>
<polygon fill="lightblue" stroke="black" points="1479.2,-407 1374.7,-407 1374.7,-371 1479.2,-371 1479.2,-407"/>
<polygon fill="none" stroke="black" points="1483.2,-411 1370.7,-411 1370.7,-367 1483.2,-367 1483.2,-411"/>
<text text-anchor="start" x="1382.7" y="-384.95" font-family="Times New Roman,serif" font-size="14.00"> </text>
<text text-anchor="start" x="1386.45" y="-384.95" font-family="Times New Roman,serif" font-style="italic" font-size="14.00">DecisionChain</text>
<text text-anchor="start" x="1467.45" y="-384.95" font-family="Times New Roman,serif" font-size="14.00"> </text>
</g>
<!-- Decision&#45;&gt;DecisionChain -->
<g id="edge7" class="edge">
<title>Decision&#45;&gt;DecisionChain</title>
<path fill="none" stroke="black" d="M1054.44,-434.25C1124.54,-425.71 1272.61,-407.68 1359.15,-397.14"/>
<polygon fill="black" stroke="black" points="1359.42,-400.63 1368.92,-395.95 1358.57,-393.68 1359.42,-400.63"/>
<text text-anchor="middle" x="1278.83" y="-418.7" font-family="Times New Roman,serif" font-size="14.00">are connected together as a</text>
</g>
<!-- DAG -->
<g id="node23" class="node">
<title>DAG</title>
<g id="a_node23"><a xlink:href="https://en.wikipedia.org/wiki/Directed_acyclic_graph" xlink:title=" &lt;i&gt;&lt;u&gt;Directed Acyclic Graph&lt;/u&gt;&lt;/i&gt; ">
<polygon fill="lightyellow" stroke="black" points="1757.95,-407 1605.45,-407 1605.45,-371 1757.95,-371 1757.95,-407"/>
<text text-anchor="start" x="1613.45" y="-384.95" font-family="Times New Roman,serif" font-size="14.00"> </text>
<text text-anchor="start" x="1617.2" y="-384.95" font-family="Times New Roman,serif" font-style="italic" text-decoration="underline" font-size="14.00">Directed Acyclic Graph</text>
<text text-anchor="start" x="1746.2" y="-384.95" font-family="Times New Roman,serif" font-size="14.00"> </text>
</a>
</g>
</g>
<!-- DecisionChain&#45;&gt;DAG -->
<g id="edge8" class="edge">
<title>DecisionChain&#45;&gt;DAG</title>
<path fill="none" stroke="black" d="M1483.42,-389C1515.82,-389 1557.4,-389 1594.04,-389"/>
<polygon fill="black" stroke="black" points="1593.72,-392.5 1603.72,-389 1593.72,-385.5 1593.72,-392.5"/>
<text text-anchor="middle" x="1544.33" y="-392.2" font-family="Times New Roman,serif" font-size="14.00">uses as a model</text>
</g>
<!-- AIDesignPatterns -->
<g id="node6" class="node">
<title>AIDesignPatterns</title>
<polygon fill="lightblue" stroke="black" points="1078.33,-217 950.58,-217 950.58,-181 1078.33,-181 1078.33,-217"/>
<polygon fill="none" stroke="black" points="1082.33,-221 946.58,-221 946.58,-177 1082.33,-177 1082.33,-221"/>
<text text-anchor="start" x="958.58" y="-194.95" font-family="Times New Roman,serif" font-size="14.00"> </text>
<text text-anchor="start" x="962.33" y="-194.95" font-family="Times New Roman,serif" font-style="italic" font-size="14.00">AI Design Patterns</text>
<text text-anchor="start" x="1066.58" y="-194.95" font-family="Times New Roman,serif" font-size="14.00"> </text>
</g>
<!-- AgenticRAGSurvey -->
<g id="node7" class="node">
<title>AgenticRAGSurvey</title>
<g id="a_node7"><a xlink:href="https://github.com/asinghcsu/AgenticRAG-Survey" xlink:title=" &lt;i&gt;&lt;u&gt;Agentic RAG Survey&lt;/u&gt;&lt;/i&gt; ">
<ellipse fill="lightgreen" stroke="black" cx="518.58" cy="-190" rx="92.3" ry="18"/>
<text text-anchor="start" x="458.95" y="-185.95" font-family="Times New Roman,serif" font-size="14.00"> </text>
<text text-anchor="start" x="462.7" y="-185.95" font-family="Times New Roman,serif" font-style="italic" text-decoration="underline" font-size="14.00">Agentic RAG Survey</text>
<text text-anchor="start" x="574.45" y="-185.95" font-family="Times New Roman,serif" font-size="14.00"> </text>
</a>
</g>
</g>
<!-- AgenticRAGSurvey&#45;&gt;AIDesignPatterns -->
<g id="edge10" class="edge">
<title>AgenticRAGSurvey&#45;&gt;AIDesignPatterns</title>
<path fill="none" stroke="black" d="M610.74,-191.66C703.79,-193.36 846.73,-195.96 934.92,-197.57"/>
<polygon fill="black" stroke="black" points="934.62,-201.06 944.68,-197.75 934.75,-194.07 934.62,-201.06"/>
<text text-anchor="middle" x="741.83" y="-198.51" font-family="Times New Roman,serif" font-size="14.00">example of emerging</text>
</g>
<!-- SoftwareAgent -->
<g id="node14" class="node">
<title>SoftwareAgent</title>
<g id="a_node14"><a xlink:href="https://en.wikipedia.org/wiki/Software_agent" xlink:title=" &lt;i&gt;&lt;u&gt;Software Agent&lt;/u&gt;&lt;/i&gt; ">
<polygon fill="lightyellow" stroke="black" points="1067.45,-137 961.45,-137 961.45,-101 1067.45,-101 1067.45,-137"/>
<text text-anchor="start" x="969.45" y="-114.95" font-family="Times New Roman,serif" font-size="14.00"> </text>
<text text-anchor="start" x="973.2" y="-114.95" font-family="Times New Roman,serif" font-style="italic" text-decoration="underline" font-size="14.00">Software Agent</text>
<text text-anchor="start" x="1055.7" y="-114.95" font-family="Times New Roman,serif" font-size="14.00"> </text>
</a>
</g>
</g>
<!-- AgenticRAGSurvey&#45;&gt;SoftwareAgent -->
<g id="edge11" class="edge">
<title>AgenticRAGSurvey&#45;&gt;SoftwareAgent</title>
<path fill="none" stroke="black" d="M594.05,-179.29C690.96,-165.36 858.64,-141.26 949.87,-128.14"/>
<polygon fill="black" stroke="black" points="950.24,-131.62 959.64,-126.74 949.25,-124.69 950.24,-131.62"/>
<text text-anchor="middle" x="741.83" y="-172.22" font-family="Times New Roman,serif" font-size="14.00">has FUZZY connection</text>
</g>
<!-- FrederickWinslowTaylor -->
<g id="node8" class="node">
<title>FrederickWinslowTaylor</title>
<g id="a_node8"><a xlink:href="https://en.wikipedia.org/wiki/Frederick_Winslow_Taylor" xlink:title=" &lt;i&gt;&lt;u&gt;Frederick Winslow Taylor&lt;/u&gt;&lt;/i&gt; ">
<polygon fill="lightyellow" stroke="black" points="1097.45,-399 931.45,-399 931.45,-363 1097.45,-363 1097.45,-399"/>
<text text-anchor="start" x="939.45" y="-376.95" font-family="Times New Roman,serif" font-size="14.00"> </text>
<text text-anchor="start" x="943.2" y="-376.95" font-family="Times New Roman,serif" font-style="italic" text-decoration="underline" font-size="14.00">Frederick Winslow Taylor</text>
<text text-anchor="start" x="1085.7" y="-376.95" font-family="Times New Roman,serif" font-size="14.00"> </text>
</a>
</g>
</g>
<!-- PrinciplesOfScientificManagement -->
<g id="node9" class="node">
<title>PrinciplesOfScientificManagement</title>
<g id="a_node9"><a xlink:href="https://en.wikipedia.org/wiki/The_Principles_of_Scientific_Management" xlink:title=" &lt;i&gt;&lt;u&gt;The Principles of Scientific Management&lt;/u&gt;&lt;/i&gt; ">
<polygon fill="lightyellow" stroke="black" points="641.7,-392 395.45,-392 395.45,-356 641.7,-356 641.7,-392"/>
<text text-anchor="start" x="403.45" y="-369.95" font-family="Times New Roman,serif" font-size="14.00"> </text>
<text text-anchor="start" x="407.2" y="-369.95" font-family="Times New Roman,serif" font-style="italic" text-decoration="underline" font-size="14.00">The Principles of Scientific Management</text>
<text text-anchor="start" x="629.95" y="-369.95" font-family="Times New Roman,serif" font-size="14.00"> </text>
</a>
</g>
</g>
<!-- PrinciplesOfScientificManagement&#45;&gt;FrederickWinslowTaylor -->
<g id="edge17" class="edge">
<title>PrinciplesOfScientificManagement&#45;&gt;FrederickWinslowTaylor</title>
<path fill="none" stroke="black" d="M641.98,-375.73C727.88,-376.95 841.02,-378.56 919.77,-379.67"/>
<polygon fill="black" stroke="black" points="919.57,-383.17 929.61,-379.81 919.66,-376.17 919.57,-383.17"/>
<text text-anchor="middle" x="741.83" y="-381.33" font-family="Times New Roman,serif" font-size="14.00">was developed early 1900s by</text>
</g>
<!-- Worker -->
<g id="node10" class="node">
<title>Worker</title>
<g id="a_node10"><a xlink:href="https://en.wikipedia.org/wiki/The_Principles_of_Scientific_Management" xlink:title=" &lt;i&gt;&lt;u&gt;Worker&lt;/u&gt;&lt;/i&gt; ">
<polygon fill="lightyellow" stroke="black" points="147.98,-411 84.73,-411 84.73,-375 147.98,-375 147.98,-411"/>
<text text-anchor="start" x="92.73" y="-388.95" font-family="Times New Roman,serif" font-size="14.00"> </text>
<text text-anchor="start" x="96.48" y="-388.95" font-family="Times New Roman,serif" font-style="italic" text-decoration="underline" font-size="14.00">Worker</text>
<text text-anchor="start" x="136.23" y="-388.95" font-family="Times New Roman,serif" font-size="14.00"> </text>
</a>
</g>
</g>
<!-- Worker&#45;&gt;PrinciplesOfScientificManagement -->
<g id="edge18" class="edge">
<title>Worker&#45;&gt;PrinciplesOfScientificManagement</title>
<path fill="none" stroke="black" d="M148.23,-387.84C175.19,-383.59 215.41,-377.91 250.7,-375.5 293.98,-372.55 341.31,-371.56 383.92,-371.48"/>
<polygon fill="black" stroke="black" points="383.72,-374.98 393.72,-371.49 383.72,-367.98 383.72,-374.98"/>
<text text-anchor="middle" x="314.08" y="-378.7" font-family="Times New Roman,serif" font-size="14.00">do&#45;role defined in</text>
</g>
<!-- Algorithm -->
<g id="node21" class="node">
<title>Algorithm</title>
<g id="a_node21"><a xlink:href="https://en.wikipedia.org/wiki/Algorithm" xlink:title=" &lt;i&gt;&lt;u&gt;Algorithm&lt;/u&gt;&lt;/i&gt; ">
<polygon fill="lightyellow" stroke="black" points="557.7,-472 479.45,-472 479.45,-436 557.7,-436 557.7,-472"/>
<text text-anchor="start" x="487.45" y="-449.95" font-family="Times New Roman,serif" font-size="14.00"> </text>
<text text-anchor="start" x="491.2" y="-449.95" font-family="Times New Roman,serif" font-style="italic" text-decoration="underline" font-size="14.00">Algorithm</text>
<text text-anchor="start" x="545.95" y="-449.95" font-family="Times New Roman,serif" font-size="14.00"> </text>
</a>
</g>
</g>
<!-- Worker&#45;&gt;Algorithm -->
<g id="edge20" class="edge">
<title>Worker&#45;&gt;Algorithm</title>
<path fill="none" stroke="black" d="M148.42,-397.74C217.45,-408.26 384.04,-433.65 467.77,-446.41"/>
<polygon fill="black" stroke="black" points="467.11,-449.85 477.52,-447.9 468.17,-442.93 467.11,-449.85"/>
<text text-anchor="middle" x="314.08" y="-435.73" font-family="Times New Roman,serif" font-size="14.00">could be seen as (???)</text>
</g>
<!-- Manager -->
<g id="node11" class="node">
<title>Manager</title>
<g id="a_node11"><a xlink:href="https://en.wikipedia.org/wiki/The_Principles_of_Scientific_Management" xlink:title=" &lt;i&gt;&lt;u&gt;Manager&lt;/u&gt;&lt;/i&gt; ">
<polygon fill="lightyellow" stroke="black" points="153.23,-329 79.48,-329 79.48,-293 153.23,-293 153.23,-329"/>
<text text-anchor="start" x="87.48" y="-306.95" font-family="Times New Roman,serif" font-size="14.00"> </text>
<text text-anchor="start" x="91.23" y="-306.95" font-family="Times New Roman,serif" font-style="italic" text-decoration="underline" font-size="14.00">Manager</text>
<text text-anchor="start" x="141.48" y="-306.95" font-family="Times New Roman,serif" font-size="14.00"> </text>
</a>
</g>
</g>
<!-- Manager&#45;&gt;PrinciplesOfScientificManagement -->
<g id="edge19" class="edge">
<title>Manager&#45;&gt;PrinciplesOfScientificManagement</title>
<path fill="none" stroke="black" d="M153.55,-316.58C203.8,-324.34 297.55,-338.87 377.45,-351.5 382.11,-352.24 386.85,-352.99 391.64,-353.75"/>
<polygon fill="black" stroke="black" points="390.96,-357.18 401.38,-355.3 392.06,-350.27 390.96,-357.18"/>
<text text-anchor="middle" x="314.08" y="-354.7" font-family="Times New Roman,serif" font-size="14.00">manage&#45;role defined in</text>
</g>
<!-- IntelligentAgent -->
<g id="node15" class="node">
<title>IntelligentAgent</title>
<g id="a_node15"><a xlink:href="https://en.wikipedia.org/wiki/Intelligent_agent" xlink:title=" &lt;i&gt;&lt;u&gt;Intelligent Agent&lt;/u&gt;&lt;/i&gt; ">
<polygon fill="lightyellow" stroke="black" points="575.33,-301 461.83,-301 461.83,-265 575.33,-265 575.33,-301"/>
<text text-anchor="start" x="469.83" y="-278.95" font-family="Times New Roman,serif" font-size="14.00"> </text>
<text text-anchor="start" x="473.58" y="-278.95" font-family="Times New Roman,serif" font-style="italic" text-decoration="underline" font-size="14.00">Intelligent Agent</text>
<text text-anchor="start" x="563.58" y="-278.95" font-family="Times New Roman,serif" font-size="14.00"> </text>
</a>
</g>
</g>
<!-- Manager&#45;&gt;IntelligentAgent -->
<g id="edge21" class="edge">
<title>Manager&#45;&gt;IntelligentAgent</title>
<path fill="none" stroke="black" d="M153.48,-305.35C180.25,-301.39 217.66,-296.31 250.7,-293.5 318.39,-287.74 396,-285.13 450.02,-283.96"/>
<polygon fill="black" stroke="black" points="450.07,-287.46 460,-283.75 449.93,-280.46 450.07,-287.46"/>
<text text-anchor="middle" x="314.08" y="-296.7" font-family="Times New Roman,serif" font-size="14.00">could be seen as (???)</text>
</g>
<!-- DecisionTree -->
<g id="node12" class="node">
<title>DecisionTree</title>
<g id="a_node12"><a xlink:href="https://en.wikipedia.org/wiki/Decision_tree" xlink:title=" &lt;i&gt;&lt;u&gt;Decision Tree&lt;/u&gt;&lt;/i&gt; ">
<polygon fill="lightyellow" stroke="black" points="165.98,-526 66.73,-526 66.73,-490 165.98,-490 165.98,-526"/>
<text text-anchor="start" x="74.73" y="-503.95" font-family="Times New Roman,serif" font-size="14.00"> </text>
<text text-anchor="start" x="78.48" y="-503.95" font-family="Times New Roman,serif" font-style="italic" text-decoration="underline" font-size="14.00">Decision Tree</text>
<text text-anchor="start" x="154.23" y="-503.95" font-family="Times New Roman,serif" font-size="14.00"> </text>
</a>
</g>
</g>
<!-- DecisionTree&#45;&gt;Algorithm -->
<g id="edge4" class="edge">
<title>DecisionTree&#45;&gt;Algorithm</title>
<path fill="none" stroke="black" d="M166.29,-502.12C218.61,-495.77 303.96,-485.17 377.45,-475 407.62,-470.83 441.38,-465.78 468.21,-461.68"/>
<polygon fill="black" stroke="black" points="468.4,-465.19 477.75,-460.21 467.34,-458.27 468.4,-465.19"/>
<text text-anchor="middle" x="314.08" y="-494.15" font-family="Times New Roman,serif" font-size="14.00">is an</text>
</g>
<!-- ArtificialNeuralNetwork -->
<g id="node13" class="node">
<title>ArtificialNeuralNetwork</title>
<g id="a_node13"><a xlink:href="https://en.wikipedia.org/wiki/Neural_network_(machine_learning)" xlink:title=" &lt;i&gt;&lt;u&gt;Artificial Neural Network&lt;/u&gt;&lt;/i&gt; ">
<polygon fill="lightyellow" stroke="black" points="197.85,-472 34.85,-472 34.85,-436 197.85,-436 197.85,-472"/>
<text text-anchor="start" x="42.85" y="-449.95" font-family="Times New Roman,serif" font-size="14.00"> </text>
<text text-anchor="start" x="46.6" y="-449.95" font-family="Times New Roman,serif" font-style="italic" text-decoration="underline" font-size="14.00">Artificial Neural Network</text>
<text text-anchor="start" x="186.1" y="-449.95" font-family="Times New Roman,serif" font-size="14.00"> </text>
</a>
</g>
</g>
<!-- ArtificialNeuralNetwork&#45;&gt;Algorithm -->
<g id="edge5" class="edge">
<title>ArtificialNeuralNetwork&#45;&gt;Algorithm</title>
<path fill="none" stroke="black" d="M198.34,-454C279.1,-454 400.54,-454 467.98,-454"/>
<polygon fill="black" stroke="black" points="467.61,-457.5 477.61,-454 467.61,-450.5 467.61,-457.5"/>
<text text-anchor="middle" x="314.08" y="-457.2" font-family="Times New Roman,serif" font-size="14.00">is an</text>
</g>
<!-- IntelligentAgent&#45;&gt;DecisionChain -->
<g id="edge9" class="edge">
<title>IntelligentAgent&#45;&gt;DecisionChain</title>
<path fill="none" stroke="black" d="M575.74,-290.98C601.32,-294.42 632,-298.26 659.7,-301 893.46,-324.08 954.38,-304.56 1186.95,-337.5 1245.7,-345.82 1311.56,-360.41 1359.24,-371.94"/>
<polygon fill="black" stroke="black" points="1358.33,-375.32 1368.87,-374.29 1359.99,-368.52 1358.33,-375.32"/>
<text text-anchor="middle" x="1014.45" y="-340.7" font-family="Times New Roman,serif" font-size="14.00">needs to have access via DPI: Decision Programming Interface</text>
</g>
<!-- IntelligentAgent&#45;&gt;SoftwareAgent -->
<g id="edge12" class="edge">
<title>IntelligentAgent&#45;&gt;SoftwareAgent</title>
<path fill="none" stroke="black" d="M575.68,-272.08C661.01,-255.28 814.54,-224.16 823.95,-216 841.17,-201.07 825.21,-183.45 841.95,-168 871.22,-141 914.35,-128.76 950.04,-123.27"/>
<polygon fill="black" stroke="black" points="950.41,-126.75 959.84,-121.92 949.45,-119.81 950.41,-126.75"/>
<text text-anchor="middle" x="741.83" y="-256.95" font-family="Times New Roman,serif" font-size="14.00">one example of an</text>
</g>
<!-- BeliefDesireIntention -->
<g id="node19" class="node">
<title>BeliefDesireIntention</title>
<g id="a_node19"><a xlink:href="https://en.wikipedia.org/wiki/Belief%E2%80%93desire%E2%80%93intention_software_model" xlink:title=" &lt;i&gt;&lt;u&gt;Belief Desire Intention&lt;/u&gt;&lt;/i&gt; ">
<polygon fill="lightyellow" stroke="black" points="1088.08,-292 940.83,-292 940.83,-256 1088.08,-256 1088.08,-292"/>
<text text-anchor="start" x="948.83" y="-269.95" font-family="Times New Roman,serif" font-size="14.00"> </text>
<text text-anchor="start" x="952.58" y="-269.95" font-family="Times New Roman,serif" font-style="italic" text-decoration="underline" font-size="14.00">Belief Desire Intention</text>
<text text-anchor="start" x="1076.33" y="-269.95" font-family="Times New Roman,serif" font-size="14.00"> </text>
</a>
</g>
</g>
<!-- IntelligentAgent&#45;&gt;BeliefDesireIntention -->
<g id="edge16" class="edge">
<title>IntelligentAgent&#45;&gt;BeliefDesireIntention</title>
<path fill="none" stroke="black" d="M575.75,-281.98C662.17,-280.4 828.29,-277.37 929.18,-275.54"/>
<polygon fill="black" stroke="black" points="929.09,-279.04 939.03,-275.36 928.97,-272.04 929.09,-279.04"/>
<text text-anchor="middle" x="741.83" y="-283.54" font-family="Times New Roman,serif" font-size="14.00">can use paradigm</text>
</g>
<!-- AutonomousAgent -->
<g id="node16" class="node">
<title>AutonomousAgent</title>
<g id="a_node16"><a xlink:href="https://en.wikipedia.org/wiki/Autonomous_agent" xlink:title=" &lt;i&gt;&lt;u&gt;Autonomous Agent&lt;/u&gt;&lt;/i&gt; ">
<polygon fill="lightyellow" stroke="black" points="581.33,-144 455.83,-144 455.83,-108 581.33,-108 581.33,-144"/>
<text text-anchor="start" x="463.83" y="-121.95" font-family="Times New Roman,serif" font-size="14.00"> </text>
<text text-anchor="start" x="467.58" y="-121.95" font-family="Times New Roman,serif" font-style="italic" text-decoration="underline" font-size="14.00">Autonomous Agent</text>
<text text-anchor="start" x="569.58" y="-121.95" font-family="Times New Roman,serif" font-size="14.00"> </text>
</a>
</g>
</g>
<!-- AutonomousAgent&#45;&gt;SoftwareAgent -->
<g id="edge13" class="edge">
<title>AutonomousAgent&#45;&gt;SoftwareAgent</title>
<path fill="none" stroke="black" d="M581.65,-123.1C605.98,-122.08 634.14,-121.06 659.7,-120.5 761.05,-118.3 878.77,-118.31 949.62,-118.6"/>
<polygon fill="black" stroke="black" points="949.47,-122.1 959.49,-118.64 949.5,-115.1 949.47,-122.1"/>
<text text-anchor="middle" x="741.83" y="-123.7" font-family="Times New Roman,serif" font-size="14.00">one example of an</text>
</g>
<!-- MultiAgentSystem -->
<g id="node17" class="node">
<title>MultiAgentSystem</title>
<g id="a_node17"><a xlink:href="https://en.wikipedia.org/wiki/Multi-agent_system" xlink:title=" &lt;i&gt;&lt;u&gt;Multi&#45;Agent System (MAS)&lt;/u&gt;&lt;/i&gt; ">
<polygon fill="lightyellow" stroke="black" points="603.83,-90 433.33,-90 433.33,-54 603.83,-54 603.83,-90"/>
<text text-anchor="start" x="441.33" y="-67.95" font-family="Times New Roman,serif" font-size="14.00"> </text>
<text text-anchor="start" x="445.08" y="-67.95" font-family="Times New Roman,serif" font-style="italic" text-decoration="underline" font-size="14.00">Multi&#45;Agent System (MAS)</text>
<text text-anchor="start" x="592.08" y="-67.95" font-family="Times New Roman,serif" font-size="14.00"> </text>
</a>
</g>
</g>
<!-- MultiAgentSystem&#45;&gt;SoftwareAgent -->
<g id="edge15" class="edge">
<title>MultiAgentSystem&#45;&gt;SoftwareAgent</title>
<path fill="none" stroke="black" d="M604.25,-78.89C665.34,-83.98 749.78,-91.26 823.95,-98.5 866.04,-102.61 913.32,-107.72 950.13,-111.82"/>
<polygon fill="black" stroke="black" points="949.37,-115.25 959.7,-112.88 950.15,-108.3 949.37,-115.25"/>
<text text-anchor="middle" x="741.83" y="-101.7" font-family="Times New Roman,serif" font-size="14.00">one example of an</text>
</g>
<!-- MobileAgent -->
<g id="node18" class="node">
<title>MobileAgent</title>
<g id="a_node18"><a xlink:href="https://en.wikipedia.org/wiki/Mobile_agent" xlink:title=" &lt;i&gt;&lt;u&gt;Mobile Agent&lt;/u&gt;&lt;/i&gt; ">
<polygon fill="lightyellow" stroke="black" points="567.08,-36 470.08,-36 470.08,0 567.08,0 567.08,-36"/>
<text text-anchor="start" x="478.08" y="-13.95" font-family="Times New Roman,serif" font-size="14.00"> </text>
<text text-anchor="start" x="481.83" y="-13.95" font-family="Times New Roman,serif" font-style="italic" text-decoration="underline" font-size="14.00">Mobile Agent</text>
<text text-anchor="start" x="555.33" y="-13.95" font-family="Times New Roman,serif" font-size="14.00"> </text>
</a>
</g>
</g>
<!-- MobileAgent&#45;&gt;SoftwareAgent -->
<g id="edge14" class="edge">
<title>MobileAgent&#45;&gt;SoftwareAgent</title>
<path fill="none" stroke="black" d="M567.39,-23.1C627.65,-30 734.2,-43.75 823.95,-63.5 866.77,-72.92 914.09,-86.78 950.74,-98.29"/>
<polygon fill="black" stroke="black" points="949.23,-101.48 959.82,-101.17 951.34,-94.81 949.23,-101.48"/>
<text text-anchor="middle" x="741.83" y="-66.7" font-family="Times New Roman,serif" font-size="14.00">one example of an</text>
</g>
<!-- Mathematics -->
<g id="node20" class="node">
<title>Mathematics</title>
<g id="a_node20"><a xlink:href="https://en.wikipedia.org/wiki/Mathematics" xlink:title=" &lt;i&gt;&lt;u&gt;Mathematics&lt;/u&gt;&lt;/i&gt; ">
<polygon fill="lightyellow" stroke="black" points="1923.95,-461 1829.95,-461 1829.95,-425 1923.95,-425 1923.95,-461"/>
<text text-anchor="start" x="1837.95" y="-438.95" font-family="Times New Roman,serif" font-size="14.00"> </text>
<text text-anchor="start" x="1841.7" y="-438.95" font-family="Times New Roman,serif" font-style="italic" text-decoration="underline" font-size="14.00">Mathematics</text>
<text text-anchor="start" x="1912.2" y="-438.95" font-family="Times New Roman,serif" font-size="14.00"> </text>
</a>
</g>
</g>
<!-- Algorithm&#45;&gt;Decision -->
<g id="edge6" class="edge">
<title>Algorithm&#45;&gt;Decision</title>
<path fill="none" stroke="black" d="M557.92,-452.84C646.23,-450.15 863.97,-443.54 962.98,-440.53"/>
<polygon fill="black" stroke="black" points="963.05,-444.03 972.94,-440.23 962.84,-437.04 963.05,-444.03"/>
<text text-anchor="middle" x="741.83" y="-452.77" font-family="Times New Roman,serif" font-size="14.00">can make or suggest one</text>
</g>
<!-- Algorithm&#45;&gt;Mathematics -->
<g id="edge2" class="edge">
<title>Algorithm&#45;&gt;Mathematics</title>
<path fill="none" stroke="black" d="M558.18,-459.04C586.28,-462.55 625.3,-467.11 659.7,-470 816.6,-483.16 856,-489 1013.45,-489 1013.45,-489 1013.45,-489 1682.7,-489 1729.47,-489 1780.92,-476.09 1818.97,-463.95"/>
<polygon fill="black" stroke="black" points="1819.97,-467.3 1828.39,-460.86 1817.79,-460.65 1819.97,-467.3"/>
<text text-anchor="middle" x="1426.95" y="-492.2" font-family="Times New Roman,serif" font-size="14.00">part of</text>
</g>
<!-- MathematicalModel -->
<g id="node22" class="node">
<title>MathematicalModel</title>
<g id="a_node22"><a xlink:href="https://en.wikipedia.org/wiki/Mathematical_model" xlink:title=" &lt;i&gt;&lt;u&gt;Mathematical Model&lt;/u&gt;&lt;/i&gt; ">
<polygon fill="lightyellow" stroke="black" points="1750.83,-461 1612.58,-461 1612.58,-425 1750.83,-425 1750.83,-461"/>
<text text-anchor="start" x="1620.58" y="-438.95" font-family="Times New Roman,serif" font-size="14.00"> </text>
<text text-anchor="start" x="1624.33" y="-438.95" font-family="Times New Roman,serif" font-style="italic" text-decoration="underline" font-size="14.00">Mathematical Model</text>
<text text-anchor="start" x="1739.08" y="-438.95" font-family="Times New Roman,serif" font-size="14.00"> </text>
</a>
</g>
</g>
<!-- MathematicalModel&#45;&gt;Mathematics -->
<g id="edge3" class="edge">
<title>MathematicalModel&#45;&gt;Mathematics</title>
<path fill="none" stroke="black" d="M1751.11,-443C1773,-443 1797.02,-443 1818.08,-443"/>
<polygon fill="black" stroke="black" points="1817.94,-446.5 1827.94,-443 1817.94,-439.5 1817.94,-446.5"/>
<text text-anchor="middle" x="1793.95" y="-446.2" font-family="Times New Roman,serif" font-size="14.00">part of</text>
</g>
<!-- DAG&#45;&gt;Mathematics -->
<g id="edge1" class="edge">
<title>DAG&#45;&gt;Mathematics</title>
<path fill="none" stroke="black" d="M1756.72,-407.42C1774.84,-412.14 1794.14,-417.34 1811.95,-422.5 1814.18,-423.15 1816.46,-423.82 1818.75,-424.5"/>
<polygon fill="black" stroke="black" points="1817.52,-427.79 1828.11,-427.36 1819.57,-421.09 1817.52,-427.79"/>
<text text-anchor="middle" x="1793.95" y="-425.7" font-family="Times New Roman,serif" font-size="14.00">part of</text>
</g>
</g>
</svg>
