<?xml version="1.0" encoding="UTF-8" standalone="no"?>
<!DOCTYPE svg PUBLIC "-//W3C//DTD SVG 1.1//EN"
 "http://www.w3.org/Graphics/SVG/1.1/DTD/svg11.dtd">
<!-- Generated by graphviz version 9.0.0 (20230911.1827)
 -->
<!-- Title: Intelligent Application Pages: 1 -->
<svg width="1967pt" height="1001pt"
 viewBox="0.00 0.00 1967.25 1001.00" xmlns="http://www.w3.org/2000/svg" xmlns:xlink="http://www.w3.org/1999/xlink">
<g id="graph0" class="graph" transform="scale(1 1) rotate(0) translate(4 997)">
<title>Intelligent Application</title>
<polygon fill="white" stroke="none" points="-4,4 -4,-997 1963.25,-997 1963.25,4 -4,4"/>
<!-- Wikipedia -->
<g id="node1" class="node">
<title>Wikipedia</title>
<g id="a_node1"><a xlink:href="https://en.wikipedia.org/" xlink:title=" &lt;i&gt;&lt;u&gt;Concept Defined in Wikipedia&lt;/u&gt;&lt;/i&gt; ">
<polygon fill="lightyellow" stroke="black" points="198.5,-136 2.5,-136 2.5,-100 198.5,-100 198.5,-136"/>
<text text-anchor="start" x="10.5" y="-113.58" font-family="Times New Roman,serif" font-size="14.00"> </text>
<text text-anchor="start" x="14.25" y="-113.58" font-family="Times New Roman,serif" font-style="italic" text-decoration="underline" font-size="14.00">Concept Defined in Wikipedia</text>
<text text-anchor="start" x="186.75" y="-113.58" font-family="Times New Roman,serif" font-size="14.00"> </text>
</a>
</g>
</g>
<!-- Feature -->
<g id="node2" class="node">
<title>Feature</title>
<ellipse fill="lightblue" stroke="black" cx="100.5" cy="-172" rx="83" ry="18"/>
<text text-anchor="start" x="46.12" y="-167.57" font-family="Times New Roman,serif" font-size="14.00"> </text>
<text text-anchor="start" x="49.88" y="-167.57" font-family="Times New Roman,serif" font-style="italic" font-size="14.00">Ellipse = Feature</text>
<text text-anchor="start" x="151.12" y="-167.57" font-family="Times New Roman,serif" font-size="14.00"> </text>
</g>
<!-- This Paper -->
<g id="node3" class="node">
<title>This Paper</title>
<polygon fill="lightblue" stroke="black" points="197,-248 4,-248 4,-212 197,-212 197,-248"/>
<polygon fill="none" stroke="black" points="201,-252 0,-252 0,-208 201,-208 201,-252"/>
<text text-anchor="start" x="12" y="-225.57" font-family="Times New Roman,serif" font-size="14.00"> </text>
<text text-anchor="start" x="15.75" y="-225.57" font-family="Times New Roman,serif" font-style="italic" font-size="14.00">Concept defined in this paper</text>
<text text-anchor="start" x="185.25" y="-225.57" font-family="Times New Roman,serif" font-size="14.00"> </text>
</g>
<!-- IntelligentApplication -->
<g id="node4" class="node">
<title>IntelligentApplication</title>
<polygon fill="lightblue" stroke="black" points="169.25,-310 31.75,-310 31.75,-274 169.25,-274 169.25,-310"/>
<polygon fill="none" stroke="black" points="173.25,-314 27.75,-314 27.75,-270 173.25,-270 173.25,-314"/>
<text text-anchor="middle" x="100.5" y="-286.57" font-family="Times New Roman,serif" font-size="14.00">Intelligent Application</text>
</g>
<!-- IntelligentCapability -->
<g id="node5" class="node">
<title>IntelligentCapability</title>
<polygon fill="lightblue" stroke="black" points="570.5,-604 441.25,-604 441.25,-568 570.5,-568 570.5,-604"/>
<polygon fill="none" stroke="black" points="574.5,-608 437.25,-608 437.25,-564 574.5,-564 574.5,-608"/>
<text text-anchor="middle" x="505.88" y="-580.58" font-family="Times New Roman,serif" font-size="14.00">Intelligent Capability</text>
</g>
<!-- IntelligentApplication&#45;&gt;IntelligentCapability -->
<g id="edge8" class="edge">
<title>IntelligentApplication&#45;&gt;IntelligentCapability</title>
<path fill="none" stroke="black" d="M117.06,-314.01C137.91,-342.39 177.16,-392.12 219,-426 289.2,-482.84 382.32,-530.73 442.91,-558.9"/>
<polygon fill="black" stroke="black" points="441.16,-561.95 451.71,-562.96 444.09,-555.6 441.16,-561.95"/>
<text text-anchor="middle" x="319.12" y="-548.45" font-family="Times New Roman,serif" font-size="14.00">has at least one</text>
</g>
<!-- TeachingMethod -->
<g id="node6" class="node">
<title>TeachingMethod</title>
<polygon fill="lightblue" stroke="black" points="898.62,-430 784.38,-430 784.38,-394 898.62,-394 898.62,-430"/>
<polygon fill="none" stroke="black" points="902.62,-434 780.38,-434 780.38,-390 902.62,-390 902.62,-434"/>
<text text-anchor="middle" x="841.5" y="-406.57" font-family="Times New Roman,serif" font-size="14.00">Teaching Method</text>
</g>
<!-- IntelligentApplication&#45;&gt;TeachingMethod -->
<g id="edge9" class="edge">
<title>IntelligentApplication&#45;&gt;TeachingMethod</title>
<path fill="none" stroke="black" d="M131.2,-314.24C153.99,-330.07 186.89,-350.35 219,-361 409.69,-424.25 650.49,-422.6 768.56,-416.9"/>
<polygon fill="black" stroke="black" points="768.62,-420.41 778.43,-416.4 768.26,-413.42 768.62,-420.41"/>
<text text-anchor="middle" x="505.88" y="-419.45" font-family="Times New Roman,serif" font-size="14.00">has at least one</text>
</g>
<!-- Math -->
<g id="node8" class="node">
<title>Math</title>
<polygon fill="lightblue" stroke="black" points="532.88,-372 478.88,-372 478.88,-336 532.88,-336 532.88,-372"/>
<polygon fill="none" stroke="black" points="536.88,-376 474.88,-376 474.88,-332 536.88,-332 536.88,-376"/>
<text text-anchor="middle" x="505.88" y="-348.57" font-family="Times New Roman,serif" font-size="14.00">Math</text>
</g>
<!-- IntelligentApplication&#45;&gt;Math -->
<g id="edge1" class="edge">
<title>IntelligentApplication&#45;&gt;Math</title>
<path fill="none" stroke="black" d="M173.54,-304.53C188.55,-307.06 204.29,-309.67 219,-312 305.73,-325.75 407.51,-340.33 463.21,-348.18"/>
<polygon fill="black" stroke="black" points="462.49,-351.61 472.88,-349.54 463.46,-344.68 462.49,-351.61"/>
<text text-anchor="middle" x="319.12" y="-343.45" font-family="Times New Roman,serif" font-size="14.00">models intelligence with</text>
</g>
<!-- Philosophy -->
<g id="node9" class="node">
<title>Philosophy</title>
<polygon fill="lightblue" stroke="black" points="545.38,-310 466.38,-310 466.38,-274 545.38,-274 545.38,-310"/>
<polygon fill="none" stroke="black" points="549.38,-314 462.38,-314 462.38,-270 549.38,-270 549.38,-314"/>
<text text-anchor="middle" x="505.88" y="-286.57" font-family="Times New Roman,serif" font-size="14.00">Philosophy</text>
</g>
<!-- IntelligentApplication&#45;&gt;Philosophy -->
<g id="edge2" class="edge">
<title>IntelligentApplication&#45;&gt;Philosophy</title>
<path fill="none" stroke="black" d="M173.62,-292C253.04,-292 378.95,-292 450.49,-292"/>
<polygon fill="black" stroke="black" points="450.4,-295.5 460.4,-292 450.4,-288.5 450.4,-295.5"/>
<text text-anchor="middle" x="319.12" y="-294.45" font-family="Times New Roman,serif" font-size="14.00">models world using</text>
</g>
<!-- ComputerProgram -->
<g id="node23" class="node">
<title>ComputerProgram</title>
<g id="a_node23"><a xlink:href="https://en.wikipedia.org/wiki/Computer_program" xlink:title=" &lt;i&gt;&lt;u&gt;Computer Program&lt;/u&gt;&lt;/i&gt; ">
<polygon fill="lightyellow" stroke="black" points="573.88,-252 437.88,-252 437.88,-216 573.88,-216 573.88,-252"/>
<text text-anchor="start" x="445.88" y="-229.57" font-family="Times New Roman,serif" font-size="14.00"> </text>
<text text-anchor="start" x="449.62" y="-229.57" font-family="Times New Roman,serif" font-style="italic" text-decoration="underline" font-size="14.00">Computer Program</text>
<text text-anchor="start" x="562.12" y="-229.57" font-family="Times New Roman,serif" font-size="14.00"> </text>
</a>
</g>
</g>
<!-- IntelligentApplication&#45;&gt;ComputerProgram -->
<g id="edge6" class="edge">
<title>IntelligentApplication&#45;&gt;ComputerProgram</title>
<path fill="none" stroke="black" d="M173.52,-279.5C188.54,-277.01 204.27,-274.47 219,-272.25 288.98,-261.69 368.82,-251.13 426.3,-243.79"/>
<polygon fill="black" stroke="black" points="426.51,-247.29 435.99,-242.56 425.63,-240.35 426.51,-247.29"/>
<text text-anchor="middle" x="319.12" y="-274.45" font-family="Times New Roman,serif" font-size="14.00">is EXACTLY a</text>
</g>
<!-- Software -->
<g id="node24" class="node">
<title>Software</title>
<g id="a_node24"><a xlink:href="https://en.wikipedia.org/wiki/Software" xlink:title=" &lt;i&gt;&lt;u&gt;Software&lt;/u&gt;&lt;/i&gt; ">
<polygon fill="lightyellow" stroke="black" points="542.75,-198 469,-198 469,-162 542.75,-162 542.75,-198"/>
<text text-anchor="start" x="477" y="-175.57" font-family="Times New Roman,serif" font-size="14.00"> </text>
<text text-anchor="start" x="480.75" y="-175.57" font-family="Times New Roman,serif" font-style="italic" text-decoration="underline" font-size="14.00">Software</text>
<text text-anchor="start" x="531" y="-175.57" font-family="Times New Roman,serif" font-size="14.00"> </text>
</a>
</g>
</g>
<!-- IntelligentApplication&#45;&gt;Software -->
<g id="edge5" class="edge">
<title>IntelligentApplication&#45;&gt;Software</title>
<path fill="none" stroke="black" d="M173.63,-277.23C183.51,-273.09 193,-267.79 201,-261 214.57,-249.5 204.63,-235.74 219,-225.25 289.72,-173.61 396.63,-171.31 457.69,-175.1"/>
<polygon fill="black" stroke="black" points="457.17,-178.57 467.39,-175.79 457.67,-171.59 457.17,-178.57"/>
<text text-anchor="middle" x="319.12" y="-227.45" font-family="Times New Roman,serif" font-size="14.00">is implemented as</text>
</g>
<!-- Device -->
<g id="node25" class="node">
<title>Device</title>
<g id="a_node25"><a xlink:href="https://en.wikipedia.org/wiki/Device" xlink:title=" &lt;i&gt;&lt;u&gt;Device&lt;/u&gt;&lt;/i&gt; ">
<polygon fill="lightyellow" stroke="black" points="536.75,-144 475,-144 475,-108 536.75,-108 536.75,-144"/>
<text text-anchor="start" x="483" y="-121.58" font-family="Times New Roman,serif" font-size="14.00"> </text>
<text text-anchor="start" x="486.75" y="-121.58" font-family="Times New Roman,serif" font-style="italic" text-decoration="underline" font-size="14.00">Device</text>
<text text-anchor="start" x="525" y="-121.58" font-family="Times New Roman,serif" font-size="14.00"> </text>
</a>
</g>
</g>
<!-- IntelligentApplication&#45;&gt;Device -->
<g id="edge7" class="edge">
<title>IntelligentApplication&#45;&gt;Device</title>
<path fill="none" stroke="black" d="M173.62,-280.14C183.99,-275.63 193.63,-269.45 201,-261 232.91,-224.41 183.48,-186.35 219,-153.25 285.3,-91.46 401.59,-103.68 463.44,-115.96"/>
<polygon fill="black" stroke="black" points="462.71,-119.39 473.22,-118.01 464.14,-112.53 462.71,-119.39"/>
<text text-anchor="middle" x="319.12" y="-155.45" font-family="Times New Roman,serif" font-size="14.00">can be accessed from EXACTLY a</text>
</g>
<!-- IntelligentCapability&#45;&gt;TeachingMethod -->
<g id="edge10" class="edge">
<title>IntelligentCapability&#45;&gt;TeachingMethod</title>
<path fill="none" stroke="black" d="M516.63,-563.6C529.76,-536.18 555.79,-490.44 592.5,-466.25 621.1,-447.4 706.38,-431.45 768.98,-421.81"/>
<polygon fill="black" stroke="black" points="769.13,-425.33 778.49,-420.38 768.08,-418.41 769.13,-425.33"/>
<text text-anchor="middle" x="662.62" y="-468.45" font-family="Times New Roman,serif" font-size="14.00">uses one or many</text>
</g>
<!-- SoundToMath -->
<g id="node10" class="node">
<title>SoundToMath</title>
<polygon fill="lightblue" stroke="black" points="891.5,-492 791.5,-492 791.5,-456 891.5,-456 891.5,-492"/>
<polygon fill="none" stroke="black" points="895.5,-496 787.5,-496 787.5,-452 895.5,-452 895.5,-496"/>
<text text-anchor="middle" x="841.5" y="-468.57" font-family="Times New Roman,serif" font-size="14.00">Sound to Math</text>
</g>
<!-- IntelligentCapability&#45;&gt;SoundToMath -->
<g id="edge22" class="edge">
<title>IntelligentCapability&#45;&gt;SoundToMath</title>
<path fill="none" stroke="black" d="M532.52,-563.51C548.7,-550.46 570.61,-534.78 592.5,-525.25 651.72,-499.48 724.63,-486.41 776.02,-479.95"/>
<polygon fill="black" stroke="black" points="776.28,-483.44 785.8,-478.78 775.45,-476.49 776.28,-483.44"/>
<text text-anchor="middle" x="662.62" y="-527.45" font-family="Times New Roman,serif" font-size="14.00">is parent to</text>
</g>
<!-- TextToSpeech -->
<g id="node11" class="node">
<title>TextToSpeech</title>
<polygon fill="lightblue" stroke="black" points="891.12,-786 791.88,-786 791.88,-750 891.12,-750 891.12,-786"/>
<polygon fill="none" stroke="black" points="895.12,-790 787.88,-790 787.88,-746 895.12,-746 895.12,-790"/>
<text text-anchor="middle" x="841.5" y="-762.58" font-family="Times New Roman,serif" font-size="14.00">Text to speech</text>
</g>
<!-- IntelligentCapability&#45;&gt;TextToSpeech -->
<g id="edge15" class="edge">
<title>IntelligentCapability&#45;&gt;TextToSpeech</title>
<path fill="none" stroke="black" d="M516.02,-608.13C528.84,-636.29 554.88,-684.37 592.5,-710 647.31,-747.34 723.03,-760.84 776.34,-765.61"/>
<polygon fill="black" stroke="black" points="775.94,-769.09 786.19,-766.41 776.5,-762.11 775.94,-769.09"/>
<text text-anchor="middle" x="662.62" y="-761.45" font-family="Times New Roman,serif" font-size="14.00">enables</text>
</g>
<!-- Recommender -->
<g id="node15" class="node">
<title>Recommender</title>
<polygon fill="lightblue" stroke="black" points="928.25,-724 754.75,-724 754.75,-688 928.25,-688 928.25,-724"/>
<polygon fill="none" stroke="black" points="932.25,-728 750.75,-728 750.75,-684 932.25,-684 932.25,-728"/>
<text text-anchor="middle" x="841.5" y="-700.58" font-family="Times New Roman,serif" font-size="14.00">Generate Recommendations</text>
</g>
<!-- IntelligentCapability&#45;&gt;Recommender -->
<g id="edge16" class="edge">
<title>IntelligentCapability&#45;&gt;Recommender</title>
<path fill="none" stroke="black" d="M532.17,-608.47C548.38,-621.77 570.46,-637.94 592.5,-648 638.58,-669.03 693.08,-682.86 739.24,-691.71"/>
<polygon fill="black" stroke="black" points="738.51,-695.14 748.98,-693.52 739.79,-688.25 738.51,-695.14"/>
<text text-anchor="middle" x="662.62" y="-692.45" font-family="Times New Roman,serif" font-size="14.00">enables</text>
</g>
<!-- GenerativeCapability -->
<g id="node16" class="node">
<title>GenerativeCapability</title>
<polygon fill="lightblue" stroke="black" points="909.12,-871 773.88,-871 773.88,-835 909.12,-835 909.12,-871"/>
<polygon fill="none" stroke="black" points="913.12,-875 769.88,-875 769.88,-831 913.12,-831 913.12,-875"/>
<text text-anchor="middle" x="841.5" y="-847.58" font-family="Times New Roman,serif" font-size="14.00">Generative Capability</text>
</g>
<!-- IntelligentCapability&#45;&gt;GenerativeCapability -->
<g id="edge18" class="edge">
<title>IntelligentCapability&#45;&gt;GenerativeCapability</title>
<path fill="none" stroke="black" d="M510.53,-608.38C518.26,-648.52 540.07,-732.87 592.5,-779 638.3,-819.3 705.29,-837.67 758.1,-846.03"/>
<polygon fill="black" stroke="black" points="757.58,-849.49 767.99,-847.5 758.61,-842.57 757.58,-849.49"/>
<text text-anchor="middle" x="662.62" y="-842.45" font-family="Times New Roman,serif" font-size="14.00">is parent to</text>
</g>
<!-- FeatureX -->
<g id="node21" class="node">
<title>FeatureX</title>
<ellipse fill="lightblue" stroke="black" cx="841.5" cy="-644" rx="47.07" ry="18"/>
<ellipse fill="none" stroke="black" cx="841.5" cy="-644" rx="51.07" ry="22"/>
<text text-anchor="middle" x="841.5" y="-638.58" font-family="Times New Roman,serif" font-size="14.00">Feature X</text>
</g>
<!-- IntelligentCapability&#45;&gt;FeatureX -->
<g id="edge17" class="edge">
<title>IntelligentCapability&#45;&gt;FeatureX</title>
<path fill="none" stroke="black" d="M574.54,-602.32C580.6,-603.62 586.65,-604.87 592.5,-606 656.58,-618.37 730.6,-629.28 780.98,-636.2"/>
<polygon fill="black" stroke="black" points="780.42,-639.65 790.8,-637.54 781.37,-632.72 780.42,-639.65"/>
<text text-anchor="middle" x="662.62" y="-630.45" font-family="Times New Roman,serif" font-size="14.00">enables</text>
</g>
<!-- Intelligence -->
<g id="node31" class="node">
<title>Intelligence</title>
<g id="a_node31"><a xlink:href="https://en.wikipedia.org/wiki/Intelligence" xlink:title=" &lt;i&gt;&lt;u&gt;Intelligence&lt;/u&gt;&lt;/i&gt; ">
<polygon fill="lightyellow" stroke="black" points="886.25,-604 796.75,-604 796.75,-568 886.25,-568 886.25,-604"/>
<text text-anchor="start" x="804.75" y="-581.58" font-family="Times New Roman,serif" font-size="14.00"> </text>
<text text-anchor="start" x="808.5" y="-581.58" font-family="Times New Roman,serif" font-style="italic" text-decoration="underline" font-size="14.00">Intelligence</text>
<text text-anchor="start" x="874.5" y="-581.58" font-family="Times New Roman,serif" font-size="14.00"> </text>
</a>
</g>
</g>
<!-- IntelligentCapability&#45;&gt;Intelligence -->
<g id="edge28" class="edge">
<title>IntelligentCapability&#45;&gt;Intelligence</title>
<path fill="none" stroke="blue" stroke-width="2" stroke-dasharray="1,5" d="M574.79,-586C636.3,-586 725.89,-586 783.69,-586"/>
<polygon fill="blue" stroke="blue" stroke-width="2" points="783.56,-589.5 793.56,-586 783.56,-582.5 783.56,-589.5"/>
<text text-anchor="middle" x="662.62" y="-588.45" font-family="Times New Roman,serif" font-size="14.00" fill="darkblue">has somekind of FUZZY</text>
</g>
<!-- ArtificialIntelligence -->
<g id="node32" class="node">
<title>ArtificialIntelligence</title>
<g id="a_node32"><a xlink:href="https://en.wikipedia.org/wiki/Artificial_intelligence" xlink:title=" &lt;i&gt;&lt;u&gt;Artificial_intelligence&lt;/u&gt;&lt;/i&gt; ">
<polygon fill="lightyellow" stroke="black" points="914.38,-550 768.62,-550 768.62,-514 914.38,-514 914.38,-550"/>
<text text-anchor="start" x="776.62" y="-527.58" font-family="Times New Roman,serif" font-size="14.00"> </text>
<text text-anchor="start" x="780.38" y="-527.58" font-family="Times New Roman,serif" font-style="italic" text-decoration="underline" font-size="14.00">Artificial_intelligence</text>
<text text-anchor="start" x="902.62" y="-527.58" font-family="Times New Roman,serif" font-size="14.00"> </text>
</a>
</g>
</g>
<!-- IntelligentCapability&#45;&gt;ArtificialIntelligence -->
<g id="edge29" class="edge">
<title>IntelligentCapability&#45;&gt;ArtificialIntelligence</title>
<path fill="none" stroke="blue" stroke-width="2" stroke-dasharray="1,5" d="M575,-569.71C580.9,-568.47 586.8,-567.3 592.5,-566.25 646.44,-556.33 707.46,-547.86 755.47,-541.83"/>
<polygon fill="blue" stroke="blue" stroke-width="2" points="755.83,-545.31 765.33,-540.61 754.97,-538.37 755.83,-545.31"/>
<text text-anchor="middle" x="662.62" y="-568.45" font-family="Times New Roman,serif" font-size="14.00" fill="darkblue">has somekind of FUZZY</text>
</g>
<!-- ComputeUnit -->
<g id="node7" class="node">
<title>ComputeUnit</title>
<polygon fill="lightblue" stroke="black" points="888.88,-90 794.12,-90 794.12,-54 888.88,-54 888.88,-90"/>
<polygon fill="none" stroke="black" points="892.88,-94 790.12,-94 790.12,-50 892.88,-50 892.88,-94"/>
<text text-anchor="middle" x="841.5" y="-66.58" font-family="Times New Roman,serif" font-size="14.00">Compute Unit</text>
</g>
<!-- Mathematics -->
<g id="node28" class="node">
<title>Mathematics</title>
<g id="a_node28"><a xlink:href="https://en.wikipedia.org/wiki/Mathematics" xlink:title=" &lt;i&gt;&lt;u&gt;Mathematics&lt;/u&gt;&lt;/i&gt; ">
<polygon fill="lightyellow" stroke="black" points="890,-372 793,-372 793,-336 890,-336 890,-372"/>
<text text-anchor="start" x="801" y="-349.57" font-family="Times New Roman,serif" font-size="14.00"> </text>
<text text-anchor="start" x="804.75" y="-349.57" font-family="Times New Roman,serif" font-style="italic" text-decoration="underline" font-size="14.00">Mathematics</text>
<text text-anchor="start" x="878.25" y="-349.57" font-family="Times New Roman,serif" font-size="14.00"> </text>
</a>
</g>
</g>
<!-- Math&#45;&gt;Mathematics -->
<g id="edge3" class="edge">
<title>Math&#45;&gt;Mathematics</title>
<path fill="none" stroke="black" d="M537.37,-354C592.53,-354 709.77,-354 781.2,-354"/>
<polygon fill="black" stroke="black" points="781.17,-357.5 791.17,-354 781.17,-350.5 781.17,-357.5"/>
<text text-anchor="middle" x="662.62" y="-356.45" font-family="Times New Roman,serif" font-size="14.00">current knowledge</text>
</g>
<!-- WikiPhilosophy -->
<g id="node29" class="node">
<title>WikiPhilosophy</title>
<g id="a_node29"><a xlink:href="https://en.wikipedia.org/wiki/Philosophy" xlink:title=" &lt;i&gt;&lt;u&gt;Wiki:Philosophy&lt;/u&gt;&lt;/i&gt; ">
<polygon fill="lightyellow" stroke="black" points="900.12,-310 782.88,-310 782.88,-274 900.12,-274 900.12,-310"/>
<text text-anchor="start" x="790.88" y="-287.57" font-family="Times New Roman,serif" font-size="14.00"> </text>
<text text-anchor="start" x="794.62" y="-287.57" font-family="Times New Roman,serif" font-style="italic" text-decoration="underline" font-size="14.00">Wiki:Philosophy</text>
<text text-anchor="start" x="888.38" y="-287.57" font-family="Times New Roman,serif" font-size="14.00"> </text>
</a>
</g>
</g>
<!-- Philosophy&#45;&gt;WikiPhilosophy -->
<g id="edge4" class="edge">
<title>Philosophy&#45;&gt;WikiPhilosophy</title>
<path fill="none" stroke="black" d="M549.81,-292C605.87,-292 704.71,-292 771.39,-292"/>
<polygon fill="black" stroke="black" points="771.11,-295.5 781.11,-292 771.11,-288.5 771.11,-295.5"/>
<text text-anchor="middle" x="662.62" y="-294.45" font-family="Times New Roman,serif" font-size="14.00">current knowledge</text>
</g>
<!-- VoiceToBird -->
<g id="node17" class="node">
<title>VoiceToBird</title>
<ellipse fill="lightblue" stroke="black" cx="1322.62" cy="-549" rx="61.04" ry="18"/>
<ellipse fill="none" stroke="black" cx="1322.62" cy="-549" rx="65.04" ry="22"/>
<text text-anchor="middle" x="1322.62" y="-543.58" font-family="Times New Roman,serif" font-size="14.00">Voice to Bird</text>
</g>
<!-- SoundToMath&#45;&gt;VoiceToBird -->
<g id="edge24" class="edge">
<title>SoundToMath&#45;&gt;VoiceToBird</title>
<path fill="none" stroke="black" d="M895.87,-489.94C913.1,-494.67 932.38,-499.51 950.25,-503 1052.44,-522.98 1172.24,-535.97 1247.54,-542.9"/>
<polygon fill="black" stroke="black" points="1247,-546.36 1257.27,-543.78 1247.63,-539.39 1247,-546.36"/>
<text text-anchor="middle" x="1067.62" y="-538.45" font-family="Times New Roman,serif" font-size="14.00">is parent to</text>
</g>
<!-- VoiceToSong -->
<g id="node18" class="node">
<title>VoiceToSong</title>
<ellipse fill="lightblue" stroke="black" cx="1322.62" cy="-487" rx="64.54" ry="18"/>
<ellipse fill="none" stroke="black" cx="1322.62" cy="-487" rx="68.54" ry="22"/>
<text text-anchor="middle" x="1322.62" y="-481.57" font-family="Times New Roman,serif" font-size="14.00">Voice to Song</text>
</g>
<!-- SoundToMath&#45;&gt;VoiceToSong -->
<g id="edge25" class="edge">
<title>SoundToMath&#45;&gt;VoiceToSong</title>
<path fill="none" stroke="black" d="M895.61,-475.44C979.86,-477.73 1144.64,-482.2 1242.74,-484.86"/>
<polygon fill="black" stroke="black" points="1242.46,-488.35 1252.55,-485.13 1242.65,-481.36 1242.46,-488.35"/>
<text text-anchor="middle" x="1067.62" y="-485.45" font-family="Times New Roman,serif" font-size="14.00">is parent to</text>
</g>
<!-- LanguageTranslation -->
<g id="node19" class="node">
<title>LanguageTranslation</title>
<ellipse fill="lightblue" stroke="black" cx="1322.62" cy="-425" rx="89.99" ry="18"/>
<ellipse fill="none" stroke="black" cx="1322.62" cy="-425" rx="93.99" ry="22"/>
<text text-anchor="middle" x="1322.62" y="-419.57" font-family="Times New Roman,serif" font-size="14.00">Language Translation</text>
</g>
<!-- SoundToMath&#45;&gt;LanguageTranslation -->
<g id="edge26" class="edge">
<title>SoundToMath&#45;&gt;LanguageTranslation</title>
<path fill="none" stroke="black" d="M895.84,-464.98C913.16,-462.24 932.49,-459.4 950.25,-457.25 1041.46,-446.21 1145.71,-437.5 1220.5,-431.93"/>
<polygon fill="black" stroke="black" points="1220.55,-435.43 1230.27,-431.21 1220.03,-428.45 1220.55,-435.43"/>
<text text-anchor="middle" x="1067.62" y="-459.45" font-family="Times New Roman,serif" font-size="14.00">is parent to</text>
</g>
<!-- SpeechToText -->
<g id="node20" class="node">
<title>SpeechToText</title>
<ellipse fill="lightblue" stroke="black" cx="1322.62" cy="-363" rx="64.04" ry="18"/>
<ellipse fill="none" stroke="black" cx="1322.62" cy="-363" rx="68.04" ry="22"/>
<text text-anchor="middle" x="1322.62" y="-357.57" font-family="Times New Roman,serif" font-size="14.00">Speech to text</text>
</g>
<!-- SoundToMath&#45;&gt;SpeechToText -->
<g id="edge23" class="edge">
<title>SoundToMath&#45;&gt;SpeechToText</title>
<path fill="none" stroke="black" d="M895.77,-462.05C908.57,-457.5 921.6,-451.33 932.25,-443 943.83,-433.94 937.85,-423.15 950.25,-415.25 1039.73,-358.2 1165.8,-352.62 1245.61,-356.09"/>
<polygon fill="black" stroke="black" points="1245.36,-359.58 1255.52,-356.58 1245.71,-352.59 1245.36,-359.58"/>
<text text-anchor="middle" x="1067.62" y="-417.45" font-family="Times New Roman,serif" font-size="14.00">is parent to</text>
</g>
<!-- FeatureY -->
<g id="node22" class="node">
<title>FeatureY</title>
<ellipse fill="lightblue" stroke="black" cx="1322.62" cy="-611" rx="47.07" ry="18"/>
<ellipse fill="none" stroke="black" cx="1322.62" cy="-611" rx="51.07" ry="22"/>
<text text-anchor="middle" x="1322.62" y="-605.58" font-family="Times New Roman,serif" font-size="14.00">Feature Y</text>
</g>
<!-- SoundToMath&#45;&gt;FeatureY -->
<g id="edge27" class="edge">
<title>SoundToMath&#45;&gt;FeatureY</title>
<path fill="none" stroke="black" d="M895.83,-483.8C909.07,-488.39 922.31,-495.13 932.25,-505 949.3,-521.94 931.7,-540.71 950.25,-556 1039.18,-629.29 1182.41,-627.58 1262.52,-619.51"/>
<polygon fill="black" stroke="black" points="1262.8,-623 1272.37,-618.44 1262.05,-616.04 1262.8,-623"/>
<text text-anchor="middle" x="1067.62" y="-625.45" font-family="Times New Roman,serif" font-size="14.00">enables</text>
</g>
<!-- SpeechSynthesis -->
<g id="node34" class="node">
<title>SpeechSynthesis</title>
<g id="a_node34"><a xlink:href="https://en.wikipedia.org/wiki/Speech_synthesis" xlink:title=" &lt;i&gt;&lt;u&gt;Speech Synthesis&lt;/u&gt;&lt;/i&gt; ">
<polygon fill="lightyellow" stroke="black" points="1382.75,-755 1262.5,-755 1262.5,-719 1382.75,-719 1382.75,-755"/>
<text text-anchor="start" x="1270.5" y="-732.58" font-family="Times New Roman,serif" font-size="14.00"> </text>
<text text-anchor="start" x="1274.25" y="-732.58" font-family="Times New Roman,serif" font-style="italic" text-decoration="underline" font-size="14.00">Speech Synthesis</text>
<text text-anchor="start" x="1371" y="-732.58" font-family="Times New Roman,serif" font-size="14.00"> </text>
</a>
</g>
</g>
<!-- TextToSpeech&#45;&gt;SpeechSynthesis -->
<g id="edge31" class="edge">
<title>TextToSpeech&#45;&gt;SpeechSynthesis</title>
<path fill="none" stroke="blue" stroke-width="2" stroke-dasharray="1,5" d="M895.61,-764.56C981.79,-758.99 1152.24,-747.96 1249.38,-741.67"/>
<polygon fill="blue" stroke="blue" stroke-width="2" points="1249.52,-745.17 1259.28,-741.03 1249.07,-738.19 1249.52,-745.17"/>
<text text-anchor="middle" x="1067.62" y="-762.45" font-family="Times New Roman,serif" font-size="14.00" fill="darkblue">VERY close however FUZZY connection</text>
</g>
<!-- TextGeneration -->
<g id="node12" class="node">
<title>TextGeneration</title>
<polygon fill="lightblue" stroke="black" points="1373.75,-813 1271.5,-813 1271.5,-777 1373.75,-777 1373.75,-813"/>
<polygon fill="none" stroke="black" points="1377.75,-817 1267.5,-817 1267.5,-773 1377.75,-773 1377.75,-817"/>
<text text-anchor="middle" x="1322.62" y="-789.58" font-family="Times New Roman,serif" font-size="14.00">Text generation</text>
</g>
<!-- NLG -->
<g id="node35" class="node">
<title>NLG</title>
<g id="a_node35"><a xlink:href="https://en.wikipedia.org/wiki/Natural_language_generation" xlink:title=" &lt;i&gt;&lt;u&gt;Natural Language Generation (NLG)&lt;/u&gt;&lt;/i&gt; ">
<polygon fill="lightyellow" stroke="black" points="1959.25,-801 1717.5,-801 1717.5,-765 1959.25,-765 1959.25,-801"/>
<text text-anchor="start" x="1725.5" y="-778.58" font-family="Times New Roman,serif" font-size="14.00"> </text>
<text text-anchor="start" x="1729.25" y="-778.58" font-family="Times New Roman,serif" font-style="italic" text-decoration="underline" font-size="14.00">Natural Language Generation (NLG)</text>
<text text-anchor="start" x="1947.5" y="-778.58" font-family="Times New Roman,serif" font-size="14.00"> </text>
</a>
</g>
</g>
<!-- TextGeneration&#45;&gt;NLG -->
<g id="edge32" class="edge">
<title>TextGeneration&#45;&gt;NLG</title>
<path fill="none" stroke="blue" stroke-width="2" stroke-dasharray="1,5" d="M1378.08,-789.77C1403.09,-787.61 1433.15,-785.36 1460.25,-784.25 1541.25,-780.93 1632.11,-780.53 1704.36,-781"/>
<polygon fill="blue" stroke="blue" stroke-width="2" points="1704.11,-784.5 1714.13,-781.07 1704.16,-777.5 1704.11,-784.5"/>
<text text-anchor="middle" x="1579.88" y="-786.45" font-family="Times New Roman,serif" font-size="14.00" fill="darkblue">VERY close however FUZZY connection</text>
</g>
<!-- LLM -->
<g id="node37" class="node">
<title>LLM</title>
<g id="a_node37"><a xlink:href="https://en.wikipedia.org/wiki/Large_language_model" xlink:title=" &lt;i&gt;&lt;u&gt;Large Language Model (LLM)&lt;/u&gt;&lt;/i&gt; ">
<polygon fill="lightyellow" stroke="black" points="1939.75,-680 1737,-680 1737,-644 1939.75,-644 1939.75,-680"/>
<text text-anchor="start" x="1745" y="-657.58" font-family="Times New Roman,serif" font-size="14.00"> </text>
<text text-anchor="start" x="1748.75" y="-657.58" font-family="Times New Roman,serif" font-style="italic" text-decoration="underline" font-size="14.00">Large Language Model (LLM)</text>
<text text-anchor="start" x="1928" y="-657.58" font-family="Times New Roman,serif" font-size="14.00"> </text>
</a>
</g>
</g>
<!-- TextGeneration&#45;&gt;LLM -->
<g id="edge33" class="edge">
<title>TextGeneration&#45;&gt;LLM</title>
<path fill="none" stroke="blue" stroke-width="2" stroke-dasharray="1,5" d="M1378.12,-780.89C1467.95,-757.64 1647.71,-711.1 1753.73,-683.65"/>
<polygon fill="blue" stroke="blue" stroke-width="2" points="1754.55,-687.06 1763.36,-681.16 1752.8,-680.28 1754.55,-687.06"/>
<text text-anchor="middle" x="1579.88" y="-761.45" font-family="Times New Roman,serif" font-size="14.00" fill="darkblue">has FUZZY connection</text>
</g>
<!-- GenAI -->
<g id="node38" class="node">
<title>GenAI</title>
<g id="a_node38"><a xlink:href="https://en.wikipedia.org/wiki/Generative_artificial_intelligence" xlink:title=" &lt;i&gt;&lt;u&gt;Generative Artificial Intelligence&lt;/u&gt;&lt;/i&gt; ">
<polygon fill="lightyellow" stroke="black" points="1942.75,-871 1734,-871 1734,-835 1942.75,-835 1942.75,-871"/>
<text text-anchor="start" x="1742" y="-848.58" font-family="Times New Roman,serif" font-size="14.00"> </text>
<text text-anchor="start" x="1745.75" y="-848.58" font-family="Times New Roman,serif" font-style="italic" text-decoration="underline" font-size="14.00">Generative Artificial Intelligence</text>
<text text-anchor="start" x="1931" y="-848.58" font-family="Times New Roman,serif" font-size="14.00"> </text>
</a>
</g>
</g>
<!-- TextGeneration&#45;&gt;GenAI -->
<g id="edge34" class="edge">
<title>TextGeneration&#45;&gt;GenAI</title>
<path fill="none" stroke="blue" stroke-width="2" stroke-dasharray="1,5" d="M1378.03,-796.74C1451.37,-799.62 1585.84,-806.8 1699.5,-823.25 1715.28,-825.53 1731.94,-828.58 1748.03,-831.85"/>
<polygon fill="blue" stroke="blue" stroke-width="2" points="1747.31,-835.28 1757.82,-833.9 1748.74,-828.43 1747.31,-835.28"/>
<text text-anchor="middle" x="1579.88" y="-825.45" font-family="Times New Roman,serif" font-size="14.00" fill="darkblue">has a FUZZY connection</text>
</g>
<!-- ImageGeneration -->
<g id="node13" class="node">
<title>ImageGeneration</title>
<polygon fill="lightblue" stroke="black" points="1377.88,-927 1267.38,-927 1267.38,-891 1377.88,-891 1377.88,-927"/>
<polygon fill="none" stroke="black" points="1381.88,-931 1263.38,-931 1263.38,-887 1381.88,-887 1381.88,-931"/>
<text text-anchor="middle" x="1322.62" y="-903.58" font-family="Times New Roman,serif" font-size="14.00">Image generation</text>
</g>
<!-- TextToImageModel -->
<g id="node36" class="node">
<title>TextToImageModel</title>
<g id="a_node36"><a xlink:href="https://en.wikipedia.org/wiki/Text-to-image_model" xlink:title=" &lt;i&gt;&lt;u&gt;Text to Image Model&lt;/u&gt;&lt;/i&gt; ">
<polygon fill="lightyellow" stroke="black" points="1909,-943 1767.75,-943 1767.75,-907 1909,-907 1909,-943"/>
<text text-anchor="start" x="1775.75" y="-920.58" font-family="Times New Roman,serif" font-size="14.00"> </text>
<text text-anchor="start" x="1779.5" y="-920.58" font-family="Times New Roman,serif" font-style="italic" text-decoration="underline" font-size="14.00">Text to Image Model</text>
<text text-anchor="start" x="1897.25" y="-920.58" font-family="Times New Roman,serif" font-size="14.00"> </text>
</a>
</g>
</g>
<!-- ImageGeneration&#45;&gt;TextToImageModel -->
<g id="edge35" class="edge">
<title>ImageGeneration&#45;&gt;TextToImageModel</title>
<path fill="none" stroke="blue" stroke-width="2" stroke-dasharray="1,5" d="M1382.06,-910.82C1473.36,-913.66 1650.17,-919.17 1754.56,-922.42"/>
<polygon fill="blue" stroke="blue" stroke-width="2" points="1754.42,-925.92 1764.52,-922.73 1754.64,-918.92 1754.42,-925.92"/>
<text text-anchor="middle" x="1579.88" y="-922.45" font-family="Times New Roman,serif" font-size="14.00" fill="darkblue">QUITE close however FUZZY connection</text>
</g>
<!-- ImageGeneration&#45;&gt;GenAI -->
<g id="edge37" class="edge">
<title>ImageGeneration&#45;&gt;GenAI</title>
<path fill="none" stroke="blue" stroke-width="2" stroke-dasharray="1,5" d="M1382.12,-902.15C1406.3,-899.34 1434.62,-896.09 1460.25,-893.25 1547.63,-883.55 1646.46,-873.02 1721.02,-865.16"/>
<polygon fill="blue" stroke="blue" stroke-width="2" points="1721.12,-868.67 1730.69,-864.14 1720.38,-861.71 1721.12,-868.67"/>
<text text-anchor="middle" x="1579.88" y="-895.45" font-family="Times New Roman,serif" font-size="14.00" fill="darkblue">has a FUZZY connection</text>
</g>
<!-- VideoGeneration -->
<g id="node14" class="node">
<title>VideoGeneration</title>
<polygon fill="lightblue" stroke="black" points="1377.88,-989 1267.38,-989 1267.38,-953 1377.88,-953 1377.88,-989"/>
<polygon fill="none" stroke="black" points="1381.88,-993 1263.38,-993 1263.38,-949 1381.88,-949 1381.88,-993"/>
<text text-anchor="middle" x="1322.62" y="-965.58" font-family="Times New Roman,serif" font-size="14.00">Video generation</text>
</g>
<!-- RecommenderSystem -->
<g id="node41" class="node">
<title>RecommenderSystem</title>
<g id="a_node41"><a xlink:href="https://en.wikipedia.org/wiki/Recommender_system" xlink:title=" &lt;i&gt;&lt;u&gt;Recommender System&lt;/u&gt;&lt;/i&gt; ">
<polygon fill="lightyellow" stroke="black" points="1396.25,-701 1249,-701 1249,-665 1396.25,-665 1396.25,-701"/>
<text text-anchor="start" x="1257" y="-678.58" font-family="Times New Roman,serif" font-size="14.00"> </text>
<text text-anchor="start" x="1260.75" y="-678.58" font-family="Times New Roman,serif" font-style="italic" text-decoration="underline" font-size="14.00">Recommender System</text>
<text text-anchor="start" x="1384.5" y="-678.58" font-family="Times New Roman,serif" font-size="14.00"> </text>
</a>
</g>
</g>
<!-- Recommender&#45;&gt;RecommenderSystem -->
<g id="edge41" class="edge">
<title>Recommender&#45;&gt;RecommenderSystem</title>
<path fill="none" stroke="blue" stroke-width="2" stroke-dasharray="1,5" d="M932.74,-700.22C938.66,-699.88 944.54,-699.55 950.25,-699.25 1048.18,-694.04 1160.7,-689.29 1235.99,-686.29"/>
<polygon fill="blue" stroke="blue" stroke-width="2" points="1235.79,-689.8 1245.65,-685.91 1235.52,-682.81 1235.79,-689.8"/>
<text text-anchor="middle" x="1067.62" y="-701.45" font-family="Times New Roman,serif" font-size="14.00" fill="darkblue">CLOSE but FUZZY connection</text>
</g>
<!-- GenerativeCapability&#45;&gt;TextGeneration -->
<g id="edge19" class="edge">
<title>GenerativeCapability&#45;&gt;TextGeneration</title>
<path fill="none" stroke="black" d="M913.35,-831.35C925.56,-828.22 938.21,-825.35 950.25,-823.25 1056.28,-804.76 1181.44,-798.37 1256.02,-796.16"/>
<polygon fill="black" stroke="black" points="1255.68,-799.67 1265.58,-795.9 1255.49,-792.68 1255.68,-799.67"/>
<text text-anchor="middle" x="1067.62" y="-825.45" font-family="Times New Roman,serif" font-size="14.00">is parent to</text>
</g>
<!-- GenerativeCapability&#45;&gt;ImageGeneration -->
<g id="edge20" class="edge">
<title>GenerativeCapability&#45;&gt;ImageGeneration</title>
<path fill="none" stroke="black" d="M913.48,-862.39C925.74,-863.97 938.36,-865.56 950.25,-867 1055.32,-879.77 1177.28,-893.32 1251.94,-901.47"/>
<polygon fill="black" stroke="black" points="1251.23,-904.91 1261.55,-902.52 1251.99,-897.95 1251.23,-904.91"/>
<text text-anchor="middle" x="1067.62" y="-895.45" font-family="Times New Roman,serif" font-size="14.00">is parent to</text>
</g>
<!-- GenerativeCapability&#45;&gt;VideoGeneration -->
<g id="edge21" class="edge">
<title>GenerativeCapability&#45;&gt;VideoGeneration</title>
<path fill="none" stroke="black" d="M875.51,-875.42C896.13,-888.37 923.73,-903.87 950.25,-913 1051.64,-947.9 1175.87,-961.89 1251.85,-967.44"/>
<polygon fill="black" stroke="black" points="1251.44,-970.92 1261.65,-968.12 1251.92,-963.94 1251.44,-970.92"/>
<text text-anchor="middle" x="1067.62" y="-962.45" font-family="Times New Roman,serif" font-size="14.00">is parent to</text>
</g>
<!-- GenerativeCapability&#45;&gt;GenAI -->
<g id="edge36" class="edge">
<title>GenerativeCapability&#45;&gt;GenAI</title>
<path fill="none" stroke="blue" stroke-width="2" stroke-dasharray="1,5" d="M913.25,-853C1082.61,-853 1512.68,-853 1720.9,-853"/>
<polygon fill="blue" stroke="blue" stroke-width="2" points="1720.65,-856.5 1730.65,-853 1720.65,-849.5 1720.65,-856.5"/>
<text text-anchor="middle" x="1322.62" y="-855.45" font-family="Times New Roman,serif" font-size="14.00" fill="darkblue">QUITE close however FUZZY connection</text>
</g>
<!-- LanguageTranslation&#45;&gt;LLM -->
<g id="edge38" class="edge">
<title>LanguageTranslation&#45;&gt;LLM</title>
<path fill="none" stroke="blue" stroke-width="2" stroke-dasharray="1,5" d="M1402.63,-436.85C1416.67,-441.33 1430.53,-447.5 1442.25,-456 1454.23,-464.69 1449.13,-474.24 1460.25,-484 1549.15,-562.01 1678.16,-612.94 1759.89,-639.59"/>
<polygon fill="blue" stroke="blue" stroke-width="2" points="1758.62,-642.86 1769.21,-642.58 1760.76,-636.19 1758.62,-642.86"/>
<text text-anchor="middle" x="1579.88" y="-617.45" font-family="Times New Roman,serif" font-size="14.00" fill="darkblue">has FUZZY connection</text>
</g>
<!-- Translation -->
<g id="node39" class="node">
<title>Translation</title>
<g id="a_node39"><a xlink:href="https://en.wikipedia.org/wiki/Translation" xlink:title=" &lt;i&gt;&lt;u&gt;Translation&lt;/u&gt;&lt;/i&gt; ">
<polygon fill="lightyellow" stroke="black" points="1883.5,-439 1793.25,-439 1793.25,-403 1883.5,-403 1883.5,-439"/>
<text text-anchor="start" x="1801.25" y="-416.57" font-family="Times New Roman,serif" font-size="14.00"> </text>
<text text-anchor="start" x="1805" y="-416.57" font-family="Times New Roman,serif" font-style="italic" text-decoration="underline" font-size="14.00">Translation</text>
<text text-anchor="start" x="1871.75" y="-416.57" font-family="Times New Roman,serif" font-size="14.00"> </text>
</a>
</g>
</g>
<!-- LanguageTranslation&#45;&gt;Translation -->
<g id="edge39" class="edge">
<title>LanguageTranslation&#45;&gt;Translation</title>
<path fill="none" stroke="blue" stroke-width="2" stroke-dasharray="1,5" d="M1416.96,-424.27C1522.76,-423.45 1691.92,-422.13 1779.94,-421.45"/>
<polygon fill="blue" stroke="blue" stroke-width="2" points="1779.84,-424.95 1789.81,-421.37 1779.79,-417.95 1779.84,-424.95"/>
<text text-anchor="middle" x="1579.88" y="-425.45" font-family="Times New Roman,serif" font-size="14.00" fill="darkblue">has FUZZY connection</text>
</g>
<!-- MachineTranslation -->
<g id="node40" class="node">
<title>MachineTranslation</title>
<g id="a_node40"><a xlink:href="https://en.wikipedia.org/wiki/Machine_translation" xlink:title=" &lt;i&gt;&lt;u&gt;Machine Translation&lt;/u&gt;&lt;/i&gt; ">
<polygon fill="lightyellow" stroke="black" points="1910.5,-493 1766.25,-493 1766.25,-457 1910.5,-457 1910.5,-493"/>
<text text-anchor="start" x="1774.25" y="-470.57" font-family="Times New Roman,serif" font-size="14.00"> </text>
<text text-anchor="start" x="1778" y="-470.57" font-family="Times New Roman,serif" font-style="italic" text-decoration="underline" font-size="14.00">Machine Translation</text>
<text text-anchor="start" x="1898.75" y="-470.57" font-family="Times New Roman,serif" font-size="14.00"> </text>
</a>
</g>
</g>
<!-- LanguageTranslation&#45;&gt;MachineTranslation -->
<g id="edge40" class="edge">
<title>LanguageTranslation&#45;&gt;MachineTranslation</title>
<path fill="none" stroke="blue" stroke-width="2" stroke-dasharray="1,5" d="M1404.1,-436.23C1422.53,-438.63 1442.05,-441.03 1460.25,-443 1560.76,-453.88 1676.66,-463.24 1753.16,-468.98"/>
<polygon fill="blue" stroke="blue" stroke-width="2" points="1752.78,-472.46 1763.02,-469.71 1753.3,-465.48 1752.78,-472.46"/>
<text text-anchor="middle" x="1579.88" y="-466.45" font-family="Times New Roman,serif" font-size="14.00" fill="darkblue">CLOSE but FUZZY connection</text>
</g>
<!-- SpeechRecognition -->
<g id="node33" class="node">
<title>SpeechRecognition</title>
<g id="a_node33"><a xlink:href="https://en.wikipedia.org/wiki/Speech_recognition" xlink:title=" &lt;i&gt;&lt;u&gt;Speech Recognition&lt;/u&gt;&lt;/i&gt; ">
<polygon fill="lightyellow" stroke="black" points="1906.38,-381 1770.38,-381 1770.38,-345 1906.38,-345 1906.38,-381"/>
<text text-anchor="start" x="1778.38" y="-358.57" font-family="Times New Roman,serif" font-size="14.00"> </text>
<text text-anchor="start" x="1782.12" y="-358.57" font-family="Times New Roman,serif" font-style="italic" text-decoration="underline" font-size="14.00">Speech Recognition</text>
<text text-anchor="start" x="1894.62" y="-358.57" font-family="Times New Roman,serif" font-size="14.00"> </text>
</a>
</g>
</g>
<!-- SpeechToText&#45;&gt;SpeechRecognition -->
<g id="edge30" class="edge">
<title>SpeechToText&#45;&gt;SpeechRecognition</title>
<path fill="none" stroke="blue" stroke-width="2" stroke-dasharray="1,5" d="M1391.05,-363C1485.46,-363 1656.75,-363 1757.45,-363"/>
<polygon fill="blue" stroke="blue" stroke-width="2" points="1757.24,-366.5 1767.24,-363 1757.24,-359.5 1757.24,-366.5"/>
<text text-anchor="middle" x="1579.88" y="-365.45" font-family="Times New Roman,serif" font-size="14.00" fill="darkblue">VERY close however FUZZY connection</text>
</g>
<!-- SoftwareFeature -->
<g id="node30" class="node">
<title>SoftwareFeature</title>
<g id="a_node30"><a xlink:href="https://en.wikipedia.org/wiki/Software_feature" xlink:title=" &lt;i&gt;&lt;u&gt;Software Feature&lt;/u&gt;&lt;/i&gt; ">
<ellipse fill="lightyellow" stroke="black" cx="841.5" cy="-180" rx="81.5" ry="18"/>
<text text-anchor="start" x="788.25" y="-175.57" font-family="Times New Roman,serif" font-size="14.00"> </text>
<text text-anchor="start" x="792" y="-175.57" font-family="Times New Roman,serif" font-style="italic" text-decoration="underline" font-size="14.00">Software Feature</text>
<text text-anchor="start" x="891" y="-175.57" font-family="Times New Roman,serif" font-size="14.00"> </text>
</a>
</g>
</g>
<!-- Software&#45;&gt;SoftwareFeature -->
<g id="edge11" class="edge">
<title>Software&#45;&gt;SoftwareFeature</title>
<path fill="none" stroke="black" d="M543.21,-180C592.09,-180 680.69,-180 748.49,-180"/>
<polygon fill="black" stroke="black" points="748.1,-183.5 758.1,-180 748.1,-176.5 748.1,-183.5"/>
<text text-anchor="middle" x="662.62" y="-182.45" font-family="Times New Roman,serif" font-size="14.00">has one or many</text>
</g>
<!-- Device&#45;&gt;ComputeUnit -->
<g id="edge12" class="edge">
<title>Device&#45;&gt;ComputeUnit</title>
<path fill="none" stroke="black" d="M536.89,-121.81C580.21,-115.7 662.75,-103.76 732.75,-92 747.63,-89.5 763.62,-86.63 778.62,-83.86"/>
<polygon fill="black" stroke="black" points="779.18,-87.32 788.37,-82.04 777.9,-80.43 779.18,-87.32"/>
<text text-anchor="middle" x="662.62" y="-115.45" font-family="Times New Roman,serif" font-size="14.00">has one or many</text>
</g>
<!-- CPU -->
<g id="node26" class="node">
<title>CPU</title>
<g id="a_node26"><a xlink:href="https://en.wikipedia.org/wiki/Central_processing_unit" xlink:title=" &lt;i&gt;&lt;u&gt;CPU&lt;/u&gt;&lt;/i&gt; ">
<polygon fill="lightyellow" stroke="black" points="532.88,-90 478.88,-90 478.88,-54 532.88,-54 532.88,-90"/>
<text text-anchor="start" x="487.5" y="-67.58" font-family="Times New Roman,serif" font-size="14.00"> </text>
<text text-anchor="start" x="491.25" y="-67.58" font-family="Times New Roman,serif" font-style="italic" text-decoration="underline" font-size="14.00">CPU</text>
<text text-anchor="start" x="520.5" y="-67.58" font-family="Times New Roman,serif" font-size="14.00"> </text>
</a>
</g>
</g>
<!-- CPU&#45;&gt;ComputeUnit -->
<g id="edge13" class="edge">
<title>CPU&#45;&gt;ComputeUnit</title>
<path fill="none" stroke="black" d="M533.33,-72C585.93,-72 704.86,-72 778.34,-72"/>
<polygon fill="black" stroke="black" points="778.21,-75.5 788.21,-72 778.21,-68.5 778.21,-75.5"/>
<text text-anchor="middle" x="662.62" y="-74.45" font-family="Times New Roman,serif" font-size="14.00">is instance of</text>
</g>
<!-- GPU -->
<g id="node27" class="node">
<title>GPU</title>
<g id="a_node27"><a xlink:href="https://en.wikipedia.org/wiki/Graphics_processing_unit" xlink:title=" &lt;i&gt;&lt;u&gt;GPU&lt;/u&gt;&lt;/i&gt; ">
<polygon fill="lightyellow" stroke="black" points="532.88,-36 478.88,-36 478.88,0 532.88,0 532.88,-36"/>
<text text-anchor="start" x="487.12" y="-13.57" font-family="Times New Roman,serif" font-size="14.00"> </text>
<text text-anchor="start" x="490.88" y="-13.57" font-family="Times New Roman,serif" font-style="italic" text-decoration="underline" font-size="14.00">GPU</text>
<text text-anchor="start" x="520.88" y="-13.57" font-family="Times New Roman,serif" font-size="14.00"> </text>
</a>
</g>
</g>
<!-- GPU&#45;&gt;ComputeUnit -->
<g id="edge14" class="edge">
<title>GPU&#45;&gt;ComputeUnit</title>
<path fill="none" stroke="black" d="M533.35,-21.74C575.58,-27.78 660.77,-40.2 732.75,-52.25 747.62,-54.74 763.62,-57.58 778.62,-60.32"/>
<polygon fill="black" stroke="black" points="777.9,-63.75 788.37,-62.11 779.16,-56.86 777.9,-63.75"/>
<text text-anchor="middle" x="662.62" y="-55.45" font-family="Times New Roman,serif" font-size="14.00">is instance of</text>
</g>
</g>
</svg>
