<?xml version="1.0" encoding="UTF-8" standalone="no"?>
<!DOCTYPE svg PUBLIC "-//W3C//DTD SVG 1.1//EN"
 "http://www.w3.org/Graphics/SVG/1.1/DTD/svg11.dtd">
<!-- Generated by graphviz version 9.0.0 (20230911.1827)
 -->
<!-- Title: Intelligent Application Pages: 1 -->
<svg width="627pt" height="550pt"
 viewBox="0.00 0.00 626.75 549.75" xmlns="http://www.w3.org/2000/svg" xmlns:xlink="http://www.w3.org/1999/xlink">
<g id="graph0" class="graph" transform="scale(1 1) rotate(0) translate(4 545.75)">
<title>Intelligent Application</title>
<polygon fill="white" stroke="none" points="-4,4 -4,-545.75 622.75,-545.75 622.75,4 -4,4"/>
<!-- Intelligent Application -->
<g id="node1" class="node">
<title>Intelligent Application</title>
<polygon fill="lightblue" stroke="black" points="169.25,-272 31.75,-272 31.75,-236 169.25,-236 169.25,-272"/>
<polygon fill="none" stroke="black" points="173.25,-276 27.75,-276 27.75,-232 173.25,-232 173.25,-276"/>
<text text-anchor="middle" x="100.5" y="-248.57" font-family="Times New Roman,serif" font-size="14.00">Intelligent Application</text>
</g>
<!-- IntelligentCapability -->
<g id="node2" class="node">
<title>IntelligentCapability</title>
<polygon fill="lightblue" stroke="black" points="592.62,-520 463.38,-520 463.38,-484 592.62,-484 592.62,-520"/>
<polygon fill="none" stroke="black" points="596.62,-524 459.38,-524 459.38,-480 596.62,-480 596.62,-524"/>
<text text-anchor="middle" x="528" y="-496.57" font-family="Times New Roman,serif" font-size="14.00">Intelligent Capability</text>
</g>
<!-- Intelligent Application&#45;&gt;IntelligentCapability -->
<g id="edge3" class="edge">
<title>Intelligent Application&#45;&gt;IntelligentCapability</title>
<path fill="none" stroke="black" d="M173.65,-265.2C184.15,-269.77 193.82,-276.15 201,-285 227.85,-318.11 188.71,-446 219,-476 278,-534.42 378.19,-531.72 448.23,-520.44"/>
<polygon fill="black" stroke="black" points="448.44,-523.96 457.7,-518.82 447.26,-517.06 448.44,-523.96"/>
<text text-anchor="middle" x="319.12" y="-528.45" font-family="Times New Roman,serif" font-size="14.00">has several</text>
</g>
<!-- SpeechToText -->
<g id="node3" class="node">
<title>SpeechToText</title>
<polygon fill="lightblue" stroke="black" points="576.12,-458 479.88,-458 479.88,-422 576.12,-422 576.12,-458"/>
<polygon fill="none" stroke="black" points="580.12,-462 475.88,-462 475.88,-418 580.12,-418 580.12,-462"/>
<text text-anchor="middle" x="528" y="-434.57" font-family="Times New Roman,serif" font-size="14.00">Speech to text</text>
</g>
<!-- Intelligent Application&#45;&gt;SpeechToText -->
<g id="edge5" class="edge">
<title>Intelligent Application&#45;&gt;SpeechToText</title>
<path fill="none" stroke="black" d="M173.69,-265.79C184.06,-270.31 193.67,-276.51 201,-285 234.8,-324.16 181.94,-363.9 219,-400 283.39,-462.73 394.54,-460.72 464.24,-451.69"/>
<polygon fill="black" stroke="black" points="464.56,-455.18 473.98,-450.33 463.59,-448.24 464.56,-455.18"/>
<text text-anchor="middle" x="319.12" y="-458.45" font-family="Times New Roman,serif" font-size="14.00">has ability to do</text>
</g>
<!-- TextToSpeech -->
<g id="node4" class="node">
<title>TextToSpeech</title>
<polygon fill="lightblue" stroke="black" points="577.62,-396 478.38,-396 478.38,-360 577.62,-360 577.62,-396"/>
<polygon fill="none" stroke="black" points="581.62,-400 474.38,-400 474.38,-356 581.62,-356 581.62,-400"/>
<text text-anchor="middle" x="528" y="-372.57" font-family="Times New Roman,serif" font-size="14.00">Text to speech</text>
</g>
<!-- Intelligent Application&#45;&gt;TextToSpeech -->
<g id="edge4" class="edge">
<title>Intelligent Application&#45;&gt;TextToSpeech</title>
<path fill="none" stroke="black" d="M173.64,-268.75C183.52,-272.89 193,-278.2 201,-285 214.63,-296.59 204.71,-310.24 219,-321 289.86,-374.32 395.41,-382.84 462.71,-382"/>
<polygon fill="black" stroke="black" points="462.56,-385.5 472.48,-381.8 462.41,-378.5 462.56,-385.5"/>
<text text-anchor="middle" x="319.12" y="-382.45" font-family="Times New Roman,serif" font-size="14.00">has ability to do</text>
</g>
<!-- TextGeneration -->
<g id="node5" class="node">
<title>TextGeneration</title>
<polygon fill="lightblue" stroke="black" points="579.12,-334 476.88,-334 476.88,-298 579.12,-298 579.12,-334"/>
<polygon fill="none" stroke="black" points="583.12,-338 472.88,-338 472.88,-294 583.12,-294 583.12,-338"/>
<text text-anchor="middle" x="528" y="-310.57" font-family="Times New Roman,serif" font-size="14.00">Text generation</text>
</g>
<!-- Intelligent Application&#45;&gt;TextGeneration -->
<g id="edge6" class="edge">
<title>Intelligent Application&#45;&gt;TextGeneration</title>
<path fill="none" stroke="black" d="M173.52,-266.65C188.54,-269.17 204.27,-271.74 219,-274 302.36,-286.77 398.72,-299.6 461.15,-307.66"/>
<polygon fill="black" stroke="black" points="460.53,-311.11 470.9,-308.92 461.42,-304.17 460.53,-311.11"/>
<text text-anchor="middle" x="319.12" y="-303.45" font-family="Times New Roman,serif" font-size="14.00">has ability to do</text>
</g>
<!-- ImageGeneration -->
<g id="node6" class="node">
<title>ImageGeneration</title>
<polygon fill="lightblue" stroke="black" points="583.25,-272 472.75,-272 472.75,-236 583.25,-236 583.25,-272"/>
<polygon fill="none" stroke="black" points="587.25,-276 468.75,-276 468.75,-232 587.25,-232 587.25,-276"/>
<text text-anchor="middle" x="528" y="-248.57" font-family="Times New Roman,serif" font-size="14.00">Image generation</text>
</g>
<!-- Intelligent Application&#45;&gt;ImageGeneration -->
<g id="edge7" class="edge">
<title>Intelligent Application&#45;&gt;ImageGeneration</title>
<path fill="none" stroke="black" d="M173.68,-254C252.89,-254 379.15,-254 457.34,-254"/>
<polygon fill="black" stroke="black" points="457.01,-257.5 467.01,-254 457.01,-250.5 457.01,-257.5"/>
<text text-anchor="middle" x="319.12" y="-256.45" font-family="Times New Roman,serif" font-size="14.00">has ability to do</text>
</g>
<!-- LanguageTranslation -->
<g id="node7" class="node">
<title>LanguageTranslation</title>
<polygon fill="lightblue" stroke="black" points="595.62,-210 460.38,-210 460.38,-174 595.62,-174 595.62,-210"/>
<polygon fill="none" stroke="black" points="599.62,-214 456.38,-214 456.38,-170 599.62,-170 599.62,-214"/>
<text text-anchor="middle" x="528" y="-186.57" font-family="Times New Roman,serif" font-size="14.00">Language Translation</text>
</g>
<!-- Intelligent Application&#45;&gt;LanguageTranslation -->
<g id="edge8" class="edge">
<title>Intelligent Application&#45;&gt;LanguageTranslation</title>
<path fill="none" stroke="black" d="M173.53,-241.54C188.54,-239.04 204.28,-236.5 219,-234.25 295.35,-222.6 382.58,-210.77 444.67,-202.61"/>
<polygon fill="black" stroke="black" points="445,-206.09 454.46,-201.32 444.09,-199.15 445,-206.09"/>
<text text-anchor="middle" x="319.12" y="-236.45" font-family="Times New Roman,serif" font-size="14.00">has ability to do</text>
</g>
<!-- Recommender -->
<g id="node8" class="node">
<title>Recommender</title>
<polygon fill="lightblue" stroke="black" points="614.75,-148 441.25,-148 441.25,-112 614.75,-112 614.75,-148"/>
<polygon fill="none" stroke="black" points="618.75,-152 437.25,-152 437.25,-108 618.75,-108 618.75,-152"/>
<text text-anchor="middle" x="528" y="-124.58" font-family="Times New Roman,serif" font-size="14.00">Generate Recommendations</text>
</g>
<!-- Intelligent Application&#45;&gt;Recommender -->
<g id="edge9" class="edge">
<title>Intelligent Application&#45;&gt;Recommender</title>
<path fill="none" stroke="black" d="M133.44,-231.55C156.27,-216.53 188.27,-197.53 219,-186.25 285.65,-161.78 364.47,-147.64 425.69,-139.65"/>
<polygon fill="black" stroke="black" points="425.93,-143.15 435.41,-138.42 425.05,-136.21 425.93,-143.15"/>
<text text-anchor="middle" x="319.12" y="-188.45" font-family="Times New Roman,serif" font-size="14.00">has ability to do</text>
</g>
<!-- ComputerProgram -->
<g id="node10" class="node">
<title>ComputerProgram</title>
<g id="a_node10"><a xlink:href="https://en.wikipedia.org/wiki/Computer_program" xlink:title=" &lt;i&gt;&lt;u&gt;Computer Program&lt;/u&gt;&lt;/i&gt; ">
<polygon fill="lightyellow" stroke="black" points="596,-90 460,-90 460,-54 596,-54 596,-90"/>
<text text-anchor="start" x="468" y="-67.58" font-family="Times New Roman,serif" font-size="14.00"> </text>
<text text-anchor="start" x="471.75" y="-67.58" font-family="Times New Roman,serif" font-style="italic" text-decoration="underline" font-size="14.00">Computer Program</text>
<text text-anchor="start" x="584.25" y="-67.58" font-family="Times New Roman,serif" font-size="14.00"> </text>
</a>
</g>
</g>
<!-- Intelligent Application&#45;&gt;ComputerProgram -->
<g id="edge1" class="edge">
<title>Intelligent Application&#45;&gt;ComputerProgram</title>
<path fill="none" stroke="black" d="M114.36,-231.63C133.15,-201.2 171.12,-147.56 219,-121.25 289.96,-82.26 383.1,-72.02 448.3,-70.24"/>
<polygon fill="black" stroke="black" points="448.3,-73.74 458.22,-70.04 448.15,-66.74 448.3,-73.74"/>
<text text-anchor="middle" x="319.12" y="-123.45" font-family="Times New Roman,serif" font-size="14.00">is EXACTLY a</text>
</g>
<!-- Device -->
<g id="node12" class="node">
<title>Device</title>
<g id="a_node12"><a xlink:href="https://en.wikipedia.org/wiki/Device" xlink:title=" &lt;i&gt;&lt;u&gt;Device&lt;/u&gt;&lt;/i&gt; ">
<polygon fill="lightyellow" stroke="black" points="558.88,-36 497.12,-36 497.12,0 558.88,0 558.88,-36"/>
<text text-anchor="start" x="505.12" y="-13.57" font-family="Times New Roman,serif" font-size="14.00"> </text>
<text text-anchor="start" x="508.88" y="-13.57" font-family="Times New Roman,serif" font-style="italic" text-decoration="underline" font-size="14.00">Device</text>
<text text-anchor="start" x="547.12" y="-13.57" font-family="Times New Roman,serif" font-size="14.00"> </text>
</a>
</g>
</g>
<!-- Intelligent Application&#45;&gt;Device -->
<g id="edge2" class="edge">
<title>Intelligent Application&#45;&gt;Device</title>
<path fill="none" stroke="black" d="M107.19,-231.65C119.47,-188.53 152.83,-94.28 219,-51.25 301.35,2.3 422.96,-3.64 485.9,-11.43"/>
<polygon fill="black" stroke="black" points="485.07,-14.85 495.45,-12.7 485.99,-7.92 485.07,-14.85"/>
<text text-anchor="middle" x="319.12" y="-54.45" font-family="Times New Roman,serif" font-size="14.00">can be accessed from EXACTLY a</text>
</g>
<!-- This Paper -->
<g id="node9" class="node">
<title>This Paper</title>
<polygon fill="lightblue" stroke="black" points="197,-334 4,-334 4,-298 197,-298 197,-334"/>
<polygon fill="none" stroke="black" points="201,-338 0,-338 0,-294 201,-294 201,-338"/>
<text text-anchor="start" x="12" y="-311.57" font-family="Times New Roman,serif" font-size="14.00"> </text>
<text text-anchor="start" x="15.75" y="-311.57" font-family="Times New Roman,serif" font-style="italic" text-decoration="underline" font-size="14.00">Concept defined in this paper</text>
<text text-anchor="start" x="185.25" y="-311.57" font-family="Times New Roman,serif" font-size="14.00"> </text>
</g>
<!-- Wikipedia -->
<g id="node11" class="node">
<title>Wikipedia</title>
<g id="a_node11"><a xlink:href="https://en.wikipedia.org/" xlink:title=" &lt;i&gt;&lt;u&gt;Concept Defined in Wikipedia&lt;/u&gt;&lt;/i&gt; ">
<polygon fill="lightyellow" stroke="black" points="198.5,-392 2.5,-392 2.5,-356 198.5,-356 198.5,-392"/>
<text text-anchor="start" x="10.5" y="-369.57" font-family="Times New Roman,serif" font-size="14.00"> </text>
<text text-anchor="start" x="14.25" y="-369.57" font-family="Times New Roman,serif" font-style="italic" text-decoration="underline" font-size="14.00">Concept Defined in Wikipedia</text>
<text text-anchor="start" x="186.75" y="-369.57" font-family="Times New Roman,serif" font-size="14.00"> </text>
</a>
</g>
</g>
</g>
</svg>
