<?xml version="1.0" encoding="UTF-8" standalone="no"?>
<!DOCTYPE svg PUBLIC "-//W3C//DTD SVG 1.1//EN"
 "http://www.w3.org/Graphics/SVG/1.1/DTD/svg11.dtd">
<!-- Generated by graphviz version 9.0.0 (20230911.1827)
 -->
<!-- Title: Intelligent Application Pages: 1 -->
<svg width="1140pt" height="424pt"
 viewBox="0.00 0.00 1139.75 424.00" xmlns="http://www.w3.org/2000/svg" xmlns:xlink="http://www.w3.org/1999/xlink">
<g id="graph0" class="graph" transform="scale(1 1) rotate(0) translate(4 420)">
<title>Intelligent Application</title>
<polygon fill="white" stroke="none" points="-4,4 -4,-420 1135.75,-420 1135.75,4 -4,4"/>
<!-- IntelligentApplication -->
<g id="node1" class="node">
<title>IntelligentApplication</title>
<polygon fill="lightblue" stroke="black" points="169.25,-168 31.75,-168 31.75,-132 169.25,-132 169.25,-168"/>
<polygon fill="none" stroke="black" points="173.25,-172 27.75,-172 27.75,-128 173.25,-128 173.25,-172"/>
<text text-anchor="middle" x="100.5" y="-144.57" font-family="Times New Roman,serif" font-size="14.00">Intelligent Application</text>
</g>
<!-- IntelligentCapability -->
<g id="node2" class="node">
<title>IntelligentCapability</title>
<polygon fill="lightblue" stroke="black" points="570.5,-226 441.25,-226 441.25,-190 570.5,-190 570.5,-226"/>
<polygon fill="none" stroke="black" points="574.5,-230 437.25,-230 437.25,-186 574.5,-186 574.5,-230"/>
<text text-anchor="middle" x="505.88" y="-202.57" font-family="Times New Roman,serif" font-size="14.00">Intelligent Capability</text>
</g>
<!-- IntelligentApplication&#45;&gt;IntelligentCapability -->
<g id="edge4" class="edge">
<title>IntelligentApplication&#45;&gt;IntelligentCapability</title>
<path fill="none" stroke="black" d="M173.52,-162.68C188.53,-165.21 204.27,-167.77 219,-170 288.73,-180.57 368.27,-191.01 425.72,-198.27"/>
<polygon fill="black" stroke="black" points="425.05,-201.71 435.41,-199.48 425.92,-194.76 425.05,-201.71"/>
<text text-anchor="middle" x="319.12" y="-199.45" font-family="Times New Roman,serif" font-size="14.00">has at least one</text>
</g>
<!-- TeachingMethod -->
<g id="node3" class="node">
<title>TeachingMethod</title>
<polygon fill="lightblue" stroke="black" points="856.62,-350 742.38,-350 742.38,-314 856.62,-314 856.62,-350"/>
<polygon fill="none" stroke="black" points="860.62,-354 738.38,-354 738.38,-310 860.62,-310 860.62,-354"/>
<text text-anchor="middle" x="799.5" y="-326.57" font-family="Times New Roman,serif" font-size="14.00">Teaching Method</text>
</g>
<!-- IntelligentApplication&#45;&gt;TeachingMethod -->
<g id="edge5" class="edge">
<title>IntelligentApplication&#45;&gt;TeachingMethod</title>
<path fill="none" stroke="black" d="M173.64,-164.75C183.52,-168.89 193,-174.2 201,-181 214.63,-192.59 205.13,-205.71 219,-217 352.2,-325.4 423.19,-287.23 592.5,-316 636.76,-323.52 686.97,-327.51 726.75,-329.63"/>
<polygon fill="black" stroke="black" points="726.53,-333.12 736.69,-330.12 726.88,-326.13 726.53,-333.12"/>
<text text-anchor="middle" x="505.88" y="-314.45" font-family="Times New Roman,serif" font-size="14.00">has at least one</text>
</g>
<!-- ComputerProgram -->
<g id="node16" class="node">
<title>ComputerProgram</title>
<g id="a_node16"><a xlink:href="https://en.wikipedia.org/wiki/Computer_program" xlink:title=" &lt;i&gt;&lt;u&gt;Computer Program&lt;/u&gt;&lt;/i&gt; ">
<polygon fill="lightyellow" stroke="black" points="573.88,-168 437.88,-168 437.88,-132 573.88,-132 573.88,-168"/>
<text text-anchor="start" x="445.88" y="-145.57" font-family="Times New Roman,serif" font-size="14.00"> </text>
<text text-anchor="start" x="449.62" y="-145.57" font-family="Times New Roman,serif" font-style="italic" text-decoration="underline" font-size="14.00">Computer Program</text>
<text text-anchor="start" x="562.12" y="-145.57" font-family="Times New Roman,serif" font-size="14.00"> </text>
</a>
</g>
</g>
<!-- IntelligentApplication&#45;&gt;ComputerProgram -->
<g id="edge2" class="edge">
<title>IntelligentApplication&#45;&gt;ComputerProgram</title>
<path fill="none" stroke="black" d="M173.62,-150C244.6,-150 352.72,-150 425.96,-150"/>
<polygon fill="black" stroke="black" points="425.9,-153.5 435.9,-150 425.9,-146.5 425.9,-153.5"/>
<text text-anchor="middle" x="319.12" y="-152.45" font-family="Times New Roman,serif" font-size="14.00">is EXACTLY a</text>
</g>
<!-- Software -->
<g id="node17" class="node">
<title>Software</title>
<g id="a_node17"><a xlink:href="https://en.wikipedia.org/wiki/Software" xlink:title=" &lt;i&gt;&lt;u&gt;Software&lt;/u&gt;&lt;/i&gt; ">
<polygon fill="lightyellow" stroke="black" points="542.75,-114 469,-114 469,-78 542.75,-78 542.75,-114"/>
<text text-anchor="start" x="477" y="-91.58" font-family="Times New Roman,serif" font-size="14.00"> </text>
<text text-anchor="start" x="480.75" y="-91.58" font-family="Times New Roman,serif" font-style="italic" text-decoration="underline" font-size="14.00">Software</text>
<text text-anchor="start" x="531" y="-91.58" font-family="Times New Roman,serif" font-size="14.00"> </text>
</a>
</g>
</g>
<!-- IntelligentApplication&#45;&gt;Software -->
<g id="edge1" class="edge">
<title>IntelligentApplication&#45;&gt;Software</title>
<path fill="none" stroke="black" d="M173.5,-137.34C188.51,-134.86 204.26,-132.37 219,-130.25 302.78,-118.2 400.81,-107.1 457.57,-100.97"/>
<polygon fill="black" stroke="black" points="457.63,-104.49 467.2,-99.94 456.88,-97.53 457.63,-104.49"/>
<text text-anchor="middle" x="319.12" y="-132.45" font-family="Times New Roman,serif" font-size="14.00">is implemented as</text>
</g>
<!-- Device -->
<g id="node20" class="node">
<title>Device</title>
<g id="a_node20"><a xlink:href="https://en.wikipedia.org/wiki/Device" xlink:title=" &lt;i&gt;&lt;u&gt;Device&lt;/u&gt;&lt;/i&gt; ">
<polygon fill="lightyellow" stroke="black" points="536.75,-60 475,-60 475,-24 536.75,-24 536.75,-60"/>
<text text-anchor="start" x="483" y="-37.58" font-family="Times New Roman,serif" font-size="14.00"> </text>
<text text-anchor="start" x="486.75" y="-37.58" font-family="Times New Roman,serif" font-style="italic" text-decoration="underline" font-size="14.00">Device</text>
<text text-anchor="start" x="525" y="-37.58" font-family="Times New Roman,serif" font-size="14.00"> </text>
</a>
</g>
</g>
<!-- IntelligentApplication&#45;&gt;Device -->
<g id="edge3" class="edge">
<title>IntelligentApplication&#45;&gt;Device</title>
<path fill="none" stroke="black" d="M134.47,-127.68C157.25,-113.32 188.78,-95.5 219,-85.25 302.88,-56.81 406.94,-47.03 463.52,-43.69"/>
<polygon fill="black" stroke="black" points="463.54,-47.2 473.33,-43.16 463.16,-40.21 463.54,-47.2"/>
<text text-anchor="middle" x="319.12" y="-87.45" font-family="Times New Roman,serif" font-size="14.00">can be accessed from EXACTLY a</text>
</g>
<!-- IntelligentCapability&#45;&gt;TeachingMethod -->
<g id="edge6" class="edge">
<title>IntelligentCapability&#45;&gt;TeachingMethod</title>
<path fill="none" stroke="black" d="M534.04,-230.32C550.24,-242.76 571.64,-257.76 592.5,-268 605,-274.14 672.53,-294.75 726.91,-310.94"/>
<polygon fill="black" stroke="black" points="725.91,-314.3 736.49,-313.79 727.9,-307.59 725.91,-314.3"/>
<text text-anchor="middle" x="641.62" y="-300.45" font-family="Times New Roman,serif" font-size="14.00">uses one or many</text>
</g>
<!-- SoundToMath -->
<g id="node4" class="node">
<title>SoundToMath</title>
<polygon fill="lightblue" stroke="black" points="849.5,-288 749.5,-288 749.5,-252 849.5,-252 849.5,-288"/>
<polygon fill="none" stroke="black" points="853.5,-292 745.5,-292 745.5,-248 853.5,-248 853.5,-292"/>
<text text-anchor="middle" x="799.5" y="-264.57" font-family="Times New Roman,serif" font-size="14.00">Sound to Math</text>
</g>
<!-- IntelligentCapability&#45;&gt;SoundToMath -->
<g id="edge14" class="edge">
<title>IntelligentCapability&#45;&gt;SoundToMath</title>
<path fill="none" stroke="black" d="M574.61,-224.01C580.65,-225.38 586.68,-226.73 592.5,-228 639.76,-238.33 693.3,-249.23 733.95,-257.33"/>
<polygon fill="black" stroke="black" points="733.08,-260.72 743.58,-259.24 734.45,-253.86 733.08,-260.72"/>
<text text-anchor="middle" x="641.62" y="-250.45" font-family="Times New Roman,serif" font-size="14.00">is parent to</text>
</g>
<!-- TextToSpeech -->
<g id="node8" class="node">
<title>TextToSpeech</title>
<polygon fill="lightblue" stroke="black" points="849.12,-226 749.88,-226 749.88,-190 849.12,-190 849.12,-226"/>
<polygon fill="none" stroke="black" points="853.12,-230 745.88,-230 745.88,-186 853.12,-186 853.12,-230"/>
<text text-anchor="middle" x="799.5" y="-202.57" font-family="Times New Roman,serif" font-size="14.00">Text to speech</text>
</g>
<!-- IntelligentCapability&#45;&gt;TextToSpeech -->
<g id="edge8" class="edge">
<title>IntelligentCapability&#45;&gt;TextToSpeech</title>
<path fill="none" stroke="black" d="M574.88,-208C622.93,-208 686.91,-208 734.12,-208"/>
<polygon fill="black" stroke="black" points="733.93,-211.5 743.93,-208 733.93,-204.5 733.93,-211.5"/>
<text text-anchor="middle" x="641.62" y="-210.45" font-family="Times New Roman,serif" font-size="14.00">is parent to</text>
</g>
<!-- Recommender -->
<g id="node13" class="node">
<title>Recommender</title>
<polygon fill="lightblue" stroke="black" points="886.25,-164 712.75,-164 712.75,-128 886.25,-128 886.25,-164"/>
<polygon fill="none" stroke="black" points="890.25,-168 708.75,-168 708.75,-124 890.25,-124 890.25,-168"/>
<text text-anchor="middle" x="799.5" y="-140.57" font-family="Times New Roman,serif" font-size="14.00">Generate Recommendations</text>
</g>
<!-- IntelligentCapability&#45;&gt;Recommender -->
<g id="edge9" class="edge">
<title>IntelligentCapability&#45;&gt;Recommender</title>
<path fill="none" stroke="black" d="M574.61,-192.22C580.66,-190.86 586.69,-189.52 592.5,-188.25 626.55,-180.83 663.85,-173.07 697.24,-166.26"/>
<polygon fill="black" stroke="black" points="697.82,-169.71 706.92,-164.28 696.43,-162.85 697.82,-169.71"/>
<text text-anchor="middle" x="641.62" y="-190.45" font-family="Times New Roman,serif" font-size="14.00">is parent to</text>
</g>
<!-- GenerativeCapability -->
<g id="node14" class="node">
<title>GenerativeCapability</title>
<polygon fill="lightblue" stroke="black" points="867.12,-102 731.88,-102 731.88,-66 867.12,-66 867.12,-102"/>
<polygon fill="none" stroke="black" points="871.12,-106 727.88,-106 727.88,-62 871.12,-62 871.12,-106"/>
<text text-anchor="middle" x="799.5" y="-78.58" font-family="Times New Roman,serif" font-size="14.00">Generative Capability</text>
</g>
<!-- IntelligentCapability&#45;&gt;GenerativeCapability -->
<g id="edge10" class="edge">
<title>IntelligentCapability&#45;&gt;GenerativeCapability</title>
<path fill="none" stroke="black" d="M562.79,-185.68C566.94,-183.04 570.91,-180.15 574.5,-177 585.83,-167.05 580.56,-157.46 592.5,-148.25 628.16,-120.75 675.75,-104.91 716.2,-95.84"/>
<polygon fill="black" stroke="black" points="716.87,-99.28 725.92,-93.78 715.41,-92.43 716.87,-99.28"/>
<text text-anchor="middle" x="641.62" y="-150.45" font-family="Times New Roman,serif" font-size="14.00">is parent to</text>
</g>
<!-- SpeechToText -->
<g id="node5" class="node">
<title>SpeechToText</title>
<polygon fill="lightblue" stroke="black" points="1108.25,-412 1012,-412 1012,-376 1108.25,-376 1108.25,-412"/>
<polygon fill="none" stroke="black" points="1112.25,-416 1008,-416 1008,-372 1112.25,-372 1112.25,-416"/>
<text text-anchor="middle" x="1060.12" y="-388.57" font-family="Times New Roman,serif" font-size="14.00">Speech to text</text>
</g>
<!-- SoundToMath&#45;&gt;SpeechToText -->
<g id="edge15" class="edge">
<title>SoundToMath&#45;&gt;SpeechToText</title>
<path fill="none" stroke="black" d="M853.89,-281.8C866.68,-286.35 879.69,-292.56 890.25,-301 902.1,-310.47 896.73,-320.13 908.25,-330 933.75,-351.84 967.8,-367.15 997.1,-377.3"/>
<polygon fill="black" stroke="black" points="995.63,-380.5 1006.22,-380.33 997.83,-373.85 995.63,-380.5"/>
<text text-anchor="middle" x="939.38" y="-368.45" font-family="Times New Roman,serif" font-size="14.00">is parent to</text>
</g>
<!-- VoiceToBird -->
<g id="node6" class="node">
<title>VoiceToBird</title>
<polygon fill="lightblue" stroke="black" points="1106,-350 1014.25,-350 1014.25,-314 1106,-314 1106,-350"/>
<polygon fill="none" stroke="black" points="1110,-354 1010.25,-354 1010.25,-310 1110,-310 1110,-354"/>
<text text-anchor="middle" x="1060.12" y="-326.57" font-family="Times New Roman,serif" font-size="14.00">Voice to Bird</text>
</g>
<!-- SoundToMath&#45;&gt;VoiceToBird -->
<g id="edge16" class="edge">
<title>SoundToMath&#45;&gt;VoiceToBird</title>
<path fill="none" stroke="black" d="M853.77,-282.77C895.94,-292.88 954.84,-307 998.75,-317.53"/>
<polygon fill="black" stroke="black" points="997.85,-320.91 1008.39,-319.84 999.48,-314.1 997.85,-320.91"/>
<text text-anchor="middle" x="939.38" y="-312.45" font-family="Times New Roman,serif" font-size="14.00">is parent to</text>
</g>
<!-- VoiceToSong -->
<g id="node7" class="node">
<title>VoiceToSong</title>
<polygon fill="lightblue" stroke="black" points="1108.62,-288 1011.62,-288 1011.62,-252 1108.62,-252 1108.62,-288"/>
<polygon fill="none" stroke="black" points="1112.62,-292 1007.62,-292 1007.62,-248 1112.62,-248 1112.62,-292"/>
<text text-anchor="middle" x="1060.12" y="-264.57" font-family="Times New Roman,serif" font-size="14.00">Voice to Song</text>
</g>
<!-- SoundToMath&#45;&gt;VoiceToSong -->
<g id="edge17" class="edge">
<title>SoundToMath&#45;&gt;VoiceToSong</title>
<path fill="none" stroke="black" d="M853.77,-270C895.04,-270 952.33,-270 995.91,-270"/>
<polygon fill="black" stroke="black" points="995.73,-273.5 1005.73,-270 995.73,-266.5 995.73,-273.5"/>
<text text-anchor="middle" x="939.38" y="-272.45" font-family="Times New Roman,serif" font-size="14.00">is parent to</text>
</g>
<!-- LanguageTranslation -->
<g id="node12" class="node">
<title>LanguageTranslation</title>
<polygon fill="lightblue" stroke="black" points="1127.75,-226 992.5,-226 992.5,-190 1127.75,-190 1127.75,-226"/>
<polygon fill="none" stroke="black" points="1131.75,-230 988.5,-230 988.5,-186 1131.75,-186 1131.75,-230"/>
<text text-anchor="middle" x="1060.12" y="-202.57" font-family="Times New Roman,serif" font-size="14.00">Language Translation</text>
</g>
<!-- SoundToMath&#45;&gt;LanguageTranslation -->
<g id="edge18" class="edge">
<title>SoundToMath&#45;&gt;LanguageTranslation</title>
<path fill="none" stroke="black" d="M853.77,-257.23C889.32,-248.71 936.76,-237.33 977.08,-227.67"/>
<polygon fill="black" stroke="black" points="977.87,-231.08 986.78,-225.34 976.24,-224.27 977.87,-231.08"/>
<text text-anchor="middle" x="939.38" y="-244.45" font-family="Times New Roman,serif" font-size="14.00">is parent to</text>
</g>
<!-- TextGeneration -->
<g id="node9" class="node">
<title>TextGeneration</title>
<polygon fill="lightblue" stroke="black" points="1111.25,-164 1009,-164 1009,-128 1111.25,-128 1111.25,-164"/>
<polygon fill="none" stroke="black" points="1115.25,-168 1005,-168 1005,-124 1115.25,-124 1115.25,-168"/>
<text text-anchor="middle" x="1060.12" y="-140.57" font-family="Times New Roman,serif" font-size="14.00">Text generation</text>
</g>
<!-- ImageGeneration -->
<g id="node10" class="node">
<title>ImageGeneration</title>
<polygon fill="lightblue" stroke="black" points="1115.38,-102 1004.88,-102 1004.88,-66 1115.38,-66 1115.38,-102"/>
<polygon fill="none" stroke="black" points="1119.38,-106 1000.88,-106 1000.88,-62 1119.38,-62 1119.38,-106"/>
<text text-anchor="middle" x="1060.12" y="-78.58" font-family="Times New Roman,serif" font-size="14.00">Image generation</text>
</g>
<!-- VideoGeneration -->
<g id="node11" class="node">
<title>VideoGeneration</title>
<polygon fill="lightblue" stroke="black" points="1115.38,-40 1004.88,-40 1004.88,-4 1115.38,-4 1115.38,-40"/>
<polygon fill="none" stroke="black" points="1119.38,-44 1000.88,-44 1000.88,0 1119.38,0 1119.38,-44"/>
<text text-anchor="middle" x="1060.12" y="-16.57" font-family="Times New Roman,serif" font-size="14.00">Video generation</text>
</g>
<!-- GenerativeCapability&#45;&gt;TextGeneration -->
<g id="edge11" class="edge">
<title>GenerativeCapability&#45;&gt;TextGeneration</title>
<path fill="none" stroke="black" d="M871.51,-101.02C909.76,-110.19 956.61,-121.42 993.92,-130.37"/>
<polygon fill="black" stroke="black" points="992.66,-133.67 1003.2,-132.59 994.3,-126.86 992.66,-133.67"/>
<text text-anchor="middle" x="939.38" y="-126.45" font-family="Times New Roman,serif" font-size="14.00">is parent to</text>
</g>
<!-- GenerativeCapability&#45;&gt;ImageGeneration -->
<g id="edge12" class="edge">
<title>GenerativeCapability&#45;&gt;ImageGeneration</title>
<path fill="none" stroke="black" d="M871.51,-84C908.24,-84 952.9,-84 989.43,-84"/>
<polygon fill="black" stroke="black" points="988.98,-87.5 998.98,-84 988.98,-80.5 988.98,-87.5"/>
<text text-anchor="middle" x="939.38" y="-86.45" font-family="Times New Roman,serif" font-size="14.00">is parent to</text>
</g>
<!-- GenerativeCapability&#45;&gt;VideoGeneration -->
<g id="edge13" class="edge">
<title>GenerativeCapability&#45;&gt;VideoGeneration</title>
<path fill="none" stroke="black" d="M871.51,-66.98C908.24,-58.17 952.9,-47.47 989.43,-38.71"/>
<polygon fill="black" stroke="black" points="990.11,-42.14 999.02,-36.41 988.48,-35.34 990.11,-42.14"/>
<text text-anchor="middle" x="939.38" y="-58.45" font-family="Times New Roman,serif" font-size="14.00">is parent to</text>
</g>
<!-- This Paper -->
<g id="node15" class="node">
<title>This Paper</title>
<polygon fill="lightblue" stroke="black" points="197,-230 4,-230 4,-194 197,-194 197,-230"/>
<polygon fill="none" stroke="black" points="201,-234 0,-234 0,-190 201,-190 201,-234"/>
<text text-anchor="start" x="12" y="-207.57" font-family="Times New Roman,serif" font-size="14.00"> </text>
<text text-anchor="start" x="15.75" y="-207.57" font-family="Times New Roman,serif" font-style="italic" text-decoration="underline" font-size="14.00">Concept defined in this paper</text>
<text text-anchor="start" x="185.25" y="-207.57" font-family="Times New Roman,serif" font-size="14.00"> </text>
</g>
<!-- SoftwareFeature -->
<g id="node18" class="node">
<title>SoftwareFeature</title>
<g id="a_node18"><a xlink:href="https://en.wikipedia.org/wiki/Software_feature" xlink:title=" &lt;i&gt;&lt;u&gt;Software Feature&lt;/u&gt;&lt;/i&gt; ">
<polygon fill="lightyellow" stroke="black" points="860.75,-44 738.25,-44 738.25,-8 860.75,-8 860.75,-44"/>
<text text-anchor="start" x="746.25" y="-21.57" font-family="Times New Roman,serif" font-size="14.00"> </text>
<text text-anchor="start" x="750" y="-21.57" font-family="Times New Roman,serif" font-style="italic" text-decoration="underline" font-size="14.00">Software Feature</text>
<text text-anchor="start" x="849" y="-21.57" font-family="Times New Roman,serif" font-size="14.00"> </text>
</a>
</g>
</g>
<!-- Software&#45;&gt;SoftwareFeature -->
<g id="edge7" class="edge">
<title>Software&#45;&gt;SoftwareFeature</title>
<path fill="none" stroke="black" d="M542.92,-83.14C553.3,-79.03 564.52,-74.19 574.5,-69 582.98,-64.6 583.57,-60.66 592.5,-57.25 635.35,-40.9 686.28,-33.08 726.78,-29.35"/>
<polygon fill="black" stroke="black" points="727.01,-32.85 736.67,-28.51 726.41,-25.87 727.01,-32.85"/>
<text text-anchor="middle" x="641.62" y="-59.45" font-family="Times New Roman,serif" font-size="14.00">has one or many</text>
</g>
<!-- Wikipedia -->
<g id="node19" class="node">
<title>Wikipedia</title>
<g id="a_node19"><a xlink:href="https://en.wikipedia.org/" xlink:title=" &lt;i&gt;&lt;u&gt;Concept Defined in Wikipedia&lt;/u&gt;&lt;/i&gt; ">
<polygon fill="lightyellow" stroke="black" points="198.5,-288 2.5,-288 2.5,-252 198.5,-252 198.5,-288"/>
<text text-anchor="start" x="10.5" y="-265.57" font-family="Times New Roman,serif" font-size="14.00"> </text>
<text text-anchor="start" x="14.25" y="-265.57" font-family="Times New Roman,serif" font-style="italic" text-decoration="underline" font-size="14.00">Concept Defined in Wikipedia</text>
<text text-anchor="start" x="186.75" y="-265.57" font-family="Times New Roman,serif" font-size="14.00"> </text>
</a>
</g>
</g>
</g>
</svg>
