<?xml version="1.0" encoding="UTF-8" standalone="no"?>
<!DOCTYPE svg PUBLIC "-//W3C//DTD SVG 1.1//EN"
 "http://www.w3.org/Graphics/SVG/1.1/DTD/svg11.dtd">
<!-- Generated by graphviz version 9.0.0 (20230911.1827)
 -->
<!-- Title: Intelligent Application Pages: 1 -->
<svg width="1941pt" height="675pt"
 viewBox="0.00 0.00 1941.25 675.00" xmlns="http://www.w3.org/2000/svg" xmlns:xlink="http://www.w3.org/1999/xlink">
<g id="graph0" class="graph" transform="scale(1 1) rotate(0) translate(4 671)">
<title>Intelligent Application</title>
<polygon fill="white" stroke="none" points="-4,4 -4,-671 1937.25,-671 1937.25,4 -4,4"/>
<!-- Intelligent Application -->
<g id="node1" class="node">
<title>Intelligent Application</title>
<polygon fill="lightblue" stroke="black" points="169.25,-121 31.75,-121 31.75,-85 169.25,-85 169.25,-121"/>
<polygon fill="none" stroke="black" points="173.25,-125 27.75,-125 27.75,-81 173.25,-81 173.25,-125"/>
<text text-anchor="middle" x="100.5" y="-97.58" font-family="Times New Roman,serif" font-size="14.00">Intelligent Application</text>
</g>
<!-- IntelligentCapability -->
<g id="node2" class="node">
<title>IntelligentCapability</title>
<polygon fill="lightblue" stroke="black" points="570.5,-179 441.25,-179 441.25,-143 570.5,-143 570.5,-179"/>
<polygon fill="none" stroke="black" points="574.5,-183 437.25,-183 437.25,-139 574.5,-139 574.5,-183"/>
<text text-anchor="middle" x="505.88" y="-155.57" font-family="Times New Roman,serif" font-size="14.00">Intelligent Capability</text>
</g>
<!-- Intelligent Application&#45;&gt;IntelligentCapability -->
<g id="edge3" class="edge">
<title>Intelligent Application&#45;&gt;IntelligentCapability</title>
<path fill="none" stroke="black" d="M173.52,-115.68C188.53,-118.21 204.27,-120.77 219,-123 288.73,-133.57 368.27,-144.01 425.72,-151.27"/>
<polygon fill="black" stroke="black" points="425.05,-154.71 435.41,-152.48 425.92,-147.76 425.05,-154.71"/>
<text text-anchor="middle" x="319.12" y="-152.45" font-family="Times New Roman,serif" font-size="14.00">has several</text>
</g>
<!-- ComputerProgram -->
<g id="node15" class="node">
<title>ComputerProgram</title>
<g id="a_node15"><a xlink:href="https://en.wikipedia.org/wiki/Computer_program" xlink:title=" &lt;i&gt;&lt;u&gt;Computer Program&lt;/u&gt;&lt;/i&gt; ">
<polygon fill="lightyellow" stroke="black" points="573.88,-121 437.88,-121 437.88,-85 573.88,-85 573.88,-121"/>
<text text-anchor="start" x="445.88" y="-98.58" font-family="Times New Roman,serif" font-size="14.00"> </text>
<text text-anchor="start" x="449.62" y="-98.58" font-family="Times New Roman,serif" font-style="italic" text-decoration="underline" font-size="14.00">Computer Program</text>
<text text-anchor="start" x="562.12" y="-98.58" font-family="Times New Roman,serif" font-size="14.00"> </text>
</a>
</g>
</g>
<!-- Intelligent Application&#45;&gt;ComputerProgram -->
<g id="edge1" class="edge">
<title>Intelligent Application&#45;&gt;ComputerProgram</title>
<path fill="none" stroke="black" d="M173.62,-103C244.6,-103 352.72,-103 425.96,-103"/>
<polygon fill="black" stroke="black" points="425.9,-106.5 435.9,-103 425.9,-99.5 425.9,-106.5"/>
<text text-anchor="middle" x="319.12" y="-105.45" font-family="Times New Roman,serif" font-size="14.00">is EXACTLY a</text>
</g>
<!-- Device -->
<g id="node17" class="node">
<title>Device</title>
<g id="a_node17"><a xlink:href="https://en.wikipedia.org/wiki/Device" xlink:title=" &lt;i&gt;&lt;u&gt;Device&lt;/u&gt;&lt;/i&gt; ">
<polygon fill="lightyellow" stroke="black" points="536.75,-67 475,-67 475,-31 536.75,-31 536.75,-67"/>
<text text-anchor="start" x="483" y="-44.58" font-family="Times New Roman,serif" font-size="14.00"> </text>
<text text-anchor="start" x="486.75" y="-44.58" font-family="Times New Roman,serif" font-style="italic" text-decoration="underline" font-size="14.00">Device</text>
<text text-anchor="start" x="525" y="-44.58" font-family="Times New Roman,serif" font-size="14.00"> </text>
</a>
</g>
</g>
<!-- Intelligent Application&#45;&gt;Device -->
<g id="edge2" class="edge">
<title>Intelligent Application&#45;&gt;Device</title>
<path fill="none" stroke="black" d="M173.5,-90.34C188.51,-87.86 204.26,-85.37 219,-83.25 305.84,-70.76 407.98,-59.3 463.62,-53.32"/>
<polygon fill="black" stroke="black" points="463.69,-56.84 473.26,-52.29 462.95,-49.88 463.69,-56.84"/>
<text text-anchor="middle" x="319.12" y="-86.45" font-family="Times New Roman,serif" font-size="14.00">can be accessed from EXACTLY a</text>
</g>
<!-- SoundToMath -->
<g id="node3" class="node">
<title>SoundToMath</title>
<polygon fill="lightblue" stroke="black" points="891.5,-539 791.5,-539 791.5,-503 891.5,-503 891.5,-539"/>
<polygon fill="none" stroke="black" points="895.5,-543 787.5,-543 787.5,-499 895.5,-499 895.5,-543"/>
<text text-anchor="middle" x="841.5" y="-515.58" font-family="Times New Roman,serif" font-size="14.00">Sound to Math</text>
</g>
<!-- IntelligentCapability&#45;&gt;SoundToMath -->
<g id="edge10" class="edge">
<title>IntelligentCapability&#45;&gt;SoundToMath</title>
<path fill="none" stroke="black" d="M524,-183.42C540.88,-205.23 567.67,-239.06 592.5,-267 667.03,-350.88 760.99,-443.92 809.04,-490.67"/>
<polygon fill="black" stroke="black" points="806.49,-493.07 816.1,-497.52 811.37,-488.05 806.49,-493.07"/>
<text text-anchor="middle" x="662.62" y="-415.45" font-family="Times New Roman,serif" font-size="14.00">is parent to</text>
</g>
<!-- TextToSpeech -->
<g id="node7" class="node">
<title>TextToSpeech</title>
<polygon fill="lightblue" stroke="black" points="891.12,-210 791.88,-210 791.88,-174 891.12,-174 891.12,-210"/>
<polygon fill="none" stroke="black" points="895.12,-214 787.88,-214 787.88,-170 895.12,-170 895.12,-214"/>
<text text-anchor="middle" x="841.5" y="-186.57" font-family="Times New Roman,serif" font-size="14.00">Text to speech</text>
</g>
<!-- IntelligentCapability&#45;&gt;TextToSpeech -->
<g id="edge4" class="edge">
<title>IntelligentCapability&#45;&gt;TextToSpeech</title>
<path fill="none" stroke="black" d="M574.79,-167.31C633.73,-172.79 718.46,-180.66 776.29,-186.03"/>
<polygon fill="black" stroke="black" points="775.69,-189.49 785.97,-186.93 776.34,-182.52 775.69,-189.49"/>
<text text-anchor="middle" x="662.62" y="-183.45" font-family="Times New Roman,serif" font-size="14.00">is parent to</text>
</g>
<!-- Recommender -->
<g id="node12" class="node">
<title>Recommender</title>
<polygon fill="lightblue" stroke="black" points="928.25,-148 754.75,-148 754.75,-112 928.25,-112 928.25,-148"/>
<polygon fill="none" stroke="black" points="932.25,-152 750.75,-152 750.75,-108 932.25,-108 932.25,-152"/>
<text text-anchor="middle" x="841.5" y="-124.58" font-family="Times New Roman,serif" font-size="14.00">Generate Recommendations</text>
</g>
<!-- IntelligentCapability&#45;&gt;Recommender -->
<g id="edge5" class="edge">
<title>IntelligentCapability&#45;&gt;Recommender</title>
<path fill="none" stroke="black" d="M574.6,-151.33C580.65,-150.58 586.68,-149.87 592.5,-149.25 640.59,-144.09 694.08,-139.76 739.03,-136.52"/>
<polygon fill="black" stroke="black" points="739.03,-140.03 748.76,-135.83 738.53,-133.05 739.03,-140.03"/>
<text text-anchor="middle" x="662.62" y="-151.45" font-family="Times New Roman,serif" font-size="14.00">is parent to</text>
</g>
<!-- GenerativeCapability -->
<g id="node13" class="node">
<title>GenerativeCapability</title>
<polygon fill="lightblue" stroke="black" points="909.12,-295 773.88,-295 773.88,-259 909.12,-259 909.12,-295"/>
<polygon fill="none" stroke="black" points="913.12,-299 769.88,-299 769.88,-255 913.12,-255 913.12,-299"/>
<text text-anchor="middle" x="841.5" y="-271.57" font-family="Times New Roman,serif" font-size="14.00">Generative Capability</text>
</g>
<!-- IntelligentCapability&#45;&gt;GenerativeCapability -->
<g id="edge6" class="edge">
<title>IntelligentCapability&#45;&gt;GenerativeCapability</title>
<path fill="none" stroke="black" d="M551.69,-183.37C564.69,-189.47 579.02,-195.82 592.5,-201 647.01,-221.97 709.94,-241.19 758.77,-255.07"/>
<polygon fill="black" stroke="black" points="757.56,-258.36 768.14,-257.71 759.46,-251.62 757.56,-258.36"/>
<text text-anchor="middle" x="662.62" y="-249.45" font-family="Times New Roman,serif" font-size="14.00">is parent to</text>
</g>
<!-- Intelligence -->
<g id="node18" class="node">
<title>Intelligence</title>
<g id="a_node18"><a xlink:href="https://en.wikipedia.org/wiki/Intelligence" xlink:title=" &lt;i&gt;&lt;u&gt;Intelligence&lt;/u&gt;&lt;/i&gt; ">
<polygon fill="lightyellow" stroke="black" points="886.25,-90 796.75,-90 796.75,-54 886.25,-54 886.25,-90"/>
<text text-anchor="start" x="804.75" y="-67.58" font-family="Times New Roman,serif" font-size="14.00"> </text>
<text text-anchor="start" x="808.5" y="-67.58" font-family="Times New Roman,serif" font-style="italic" text-decoration="underline" font-size="14.00">Intelligence</text>
<text text-anchor="start" x="874.5" y="-67.58" font-family="Times New Roman,serif" font-size="14.00"> </text>
</a>
</g>
</g>
<!-- IntelligentCapability&#45;&gt;Intelligence -->
<g id="edge15" class="edge">
<title>IntelligentCapability&#45;&gt;Intelligence</title>
<path fill="none" stroke="blue" stroke-width="2" stroke-dasharray="1,5" d="M558.34,-138.63C563.87,-135.87 569.35,-132.97 574.5,-130 582.99,-125.1 583.46,-121.05 592.5,-117.25 654.66,-91.09 731.84,-80.03 783.44,-75.37"/>
<polygon fill="blue" stroke="blue" stroke-width="2" points="783.61,-78.86 793.29,-74.54 783.03,-71.89 783.61,-78.86"/>
<text text-anchor="middle" x="662.62" y="-119.45" font-family="Times New Roman,serif" font-size="14.00" fill="darkblue">has somekind of FUZZY</text>
</g>
<!-- ArtificialIntelligence -->
<g id="node19" class="node">
<title>ArtificialIntelligence</title>
<g id="a_node19"><a xlink:href="https://en.wikipedia.org/wiki/Artificial_intelligence" xlink:title=" &lt;i&gt;&lt;u&gt;Artificial_intelligence&lt;/u&gt;&lt;/i&gt; ">
<polygon fill="lightyellow" stroke="black" points="914.38,-36 768.62,-36 768.62,0 914.38,0 914.38,-36"/>
<text text-anchor="start" x="776.62" y="-13.57" font-family="Times New Roman,serif" font-size="14.00"> </text>
<text text-anchor="start" x="780.38" y="-13.57" font-family="Times New Roman,serif" font-style="italic" text-decoration="underline" font-size="14.00">Artificial_intelligence</text>
<text text-anchor="start" x="902.62" y="-13.57" font-family="Times New Roman,serif" font-size="14.00"> </text>
</a>
</g>
</g>
<!-- IntelligentCapability&#45;&gt;ArtificialIntelligence -->
<g id="edge16" class="edge">
<title>IntelligentCapability&#45;&gt;ArtificialIntelligence</title>
<path fill="none" stroke="blue" stroke-width="2" stroke-dasharray="1,5" d="M565.48,-138.59C568.78,-136.01 571.84,-133.16 574.5,-130 594.58,-106.18 569.57,-83.35 592.5,-62.25 635.83,-22.38 702.19,-12.2 755.36,-11.52"/>
<polygon fill="blue" stroke="blue" stroke-width="2" points="755.2,-15.02 765.2,-11.53 755.2,-8.02 755.2,-15.02"/>
<text text-anchor="middle" x="662.62" y="-65.45" font-family="Times New Roman,serif" font-size="14.00" fill="darkblue">has somekind of FUZZY</text>
</g>
<!-- SpeechToText -->
<g id="node4" class="node">
<title>SpeechToText</title>
<polygon fill="lightblue" stroke="black" points="1360,-539 1263.75,-539 1263.75,-503 1360,-503 1360,-539"/>
<polygon fill="none" stroke="black" points="1364,-543 1259.75,-543 1259.75,-499 1364,-499 1364,-543"/>
<text text-anchor="middle" x="1311.88" y="-515.58" font-family="Times New Roman,serif" font-size="14.00">Speech to text</text>
</g>
<!-- SoundToMath&#45;&gt;SpeechToText -->
<g id="edge11" class="edge">
<title>SoundToMath&#45;&gt;SpeechToText</title>
<path fill="none" stroke="black" d="M895.77,-521C982.8,-521 1155.06,-521 1247.97,-521"/>
<polygon fill="black" stroke="black" points="1247.92,-524.5 1257.92,-521 1247.92,-517.5 1247.92,-524.5"/>
<text text-anchor="middle" x="1069.88" y="-523.45" font-family="Times New Roman,serif" font-size="14.00">is parent to</text>
</g>
<!-- VoiceToBird -->
<g id="node5" class="node">
<title>VoiceToBird</title>
<polygon fill="lightblue" stroke="black" points="1357.75,-477 1266,-477 1266,-441 1357.75,-441 1357.75,-477"/>
<polygon fill="none" stroke="black" points="1361.75,-481 1262,-481 1262,-437 1361.75,-437 1361.75,-481"/>
<text text-anchor="middle" x="1311.88" y="-453.57" font-family="Times New Roman,serif" font-size="14.00">Voice to Bird</text>
</g>
<!-- SoundToMath&#45;&gt;VoiceToBird -->
<g id="edge12" class="edge">
<title>SoundToMath&#45;&gt;VoiceToBird</title>
<path fill="none" stroke="black" d="M895.82,-510.52C913.14,-507.31 932.48,-503.92 950.25,-501.25 1055.58,-485.44 1178.96,-472.1 1250.69,-464.85"/>
<polygon fill="black" stroke="black" points="1250.64,-468.37 1260.24,-463.89 1249.94,-461.41 1250.64,-468.37"/>
<text text-anchor="middle" x="1069.88" y="-503.45" font-family="Times New Roman,serif" font-size="14.00">is parent to</text>
</g>
<!-- VoiceToSong -->
<g id="node6" class="node">
<title>VoiceToSong</title>
<polygon fill="lightblue" stroke="black" points="1360.38,-663 1263.38,-663 1263.38,-627 1360.38,-627 1360.38,-663"/>
<polygon fill="none" stroke="black" points="1364.38,-667 1259.38,-667 1259.38,-623 1364.38,-623 1364.38,-667"/>
<text text-anchor="middle" x="1311.88" y="-639.58" font-family="Times New Roman,serif" font-size="14.00">Voice to Song</text>
</g>
<!-- SoundToMath&#45;&gt;VoiceToSong -->
<g id="edge13" class="edge">
<title>SoundToMath&#45;&gt;VoiceToSong</title>
<path fill="none" stroke="black" d="M870.01,-543.24C890.81,-558.86 920.73,-578.87 950.25,-590 1049.82,-627.53 1174.02,-639.49 1247.64,-643.27"/>
<polygon fill="black" stroke="black" points="1247.34,-646.76 1257.5,-643.74 1247.68,-639.77 1247.34,-646.76"/>
<text text-anchor="middle" x="1069.88" y="-640.45" font-family="Times New Roman,serif" font-size="14.00">is parent to</text>
</g>
<!-- LanguageTranslation -->
<g id="node11" class="node">
<title>LanguageTranslation</title>
<polygon fill="lightblue" stroke="black" points="1379.5,-601 1244.25,-601 1244.25,-565 1379.5,-565 1379.5,-601"/>
<polygon fill="none" stroke="black" points="1383.5,-605 1240.25,-605 1240.25,-561 1383.5,-561 1383.5,-605"/>
<text text-anchor="middle" x="1311.88" y="-577.58" font-family="Times New Roman,serif" font-size="14.00">Language Translation</text>
</g>
<!-- SoundToMath&#45;&gt;LanguageTranslation -->
<g id="edge14" class="edge">
<title>SoundToMath&#45;&gt;LanguageTranslation</title>
<path fill="none" stroke="black" d="M895.82,-531.63C913.14,-534.89 932.47,-538.32 950.25,-541 1045.35,-555.35 1155.2,-567.51 1228.43,-575"/>
<polygon fill="black" stroke="black" points="1228.06,-578.48 1238.36,-576.01 1228.76,-571.52 1228.06,-578.48"/>
<text text-anchor="middle" x="1069.88" y="-572.45" font-family="Times New Roman,serif" font-size="14.00">is parent to</text>
</g>
<!-- SpeechRecognition -->
<g id="node20" class="node">
<title>SpeechRecognition</title>
<g id="a_node20"><a xlink:href="https://en.wikipedia.org/wiki/Speech_recognition" xlink:title=" &lt;i&gt;&lt;u&gt;Speech Recognition&lt;/u&gt;&lt;/i&gt; ">
<polygon fill="lightyellow" stroke="black" points="1880.38,-523 1744.38,-523 1744.38,-487 1880.38,-487 1880.38,-523"/>
<text text-anchor="start" x="1752.38" y="-500.57" font-family="Times New Roman,serif" font-size="14.00"> </text>
<text text-anchor="start" x="1756.12" y="-500.57" font-family="Times New Roman,serif" font-style="italic" text-decoration="underline" font-size="14.00">Speech Recognition</text>
<text text-anchor="start" x="1868.62" y="-500.57" font-family="Times New Roman,serif" font-size="14.00"> </text>
</a>
</g>
</g>
<!-- SpeechToText&#45;&gt;SpeechRecognition -->
<g id="edge17" class="edge">
<title>SpeechToText&#45;&gt;SpeechRecognition</title>
<path fill="none" stroke="blue" stroke-width="2" stroke-dasharray="1,5" d="M1364.43,-513.38C1385.96,-510.55 1411.26,-507.68 1434.25,-506.25 1536.64,-499.88 1654.97,-500.84 1731.37,-502.54"/>
<polygon fill="blue" stroke="blue" stroke-width="2" points="1731.09,-506.04 1741.17,-502.77 1731.25,-499.04 1731.09,-506.04"/>
<text text-anchor="middle" x="1553.88" y="-508.45" font-family="Times New Roman,serif" font-size="14.00" fill="darkblue">VERY close however FUZZY connection</text>
</g>
<!-- SpeechSynthesis -->
<g id="node21" class="node">
<title>SpeechSynthesis</title>
<g id="a_node21"><a xlink:href="https://en.wikipedia.org/wiki/Speech_synthesis" xlink:title=" &lt;i&gt;&lt;u&gt;Speech Synthesis&lt;/u&gt;&lt;/i&gt; ">
<polygon fill="lightyellow" stroke="black" points="1372,-179 1251.75,-179 1251.75,-143 1372,-143 1372,-179"/>
<text text-anchor="start" x="1259.75" y="-156.57" font-family="Times New Roman,serif" font-size="14.00"> </text>
<text text-anchor="start" x="1263.5" y="-156.57" font-family="Times New Roman,serif" font-style="italic" text-decoration="underline" font-size="14.00">Speech Synthesis</text>
<text text-anchor="start" x="1360.25" y="-156.57" font-family="Times New Roman,serif" font-size="14.00"> </text>
</a>
</g>
</g>
<!-- TextToSpeech&#45;&gt;SpeechSynthesis -->
<g id="edge18" class="edge">
<title>TextToSpeech&#45;&gt;SpeechSynthesis</title>
<path fill="none" stroke="blue" stroke-width="2" stroke-dasharray="1,5" d="M895.32,-188.5C979.29,-182.95 1143.42,-172.08 1238.35,-165.8"/>
<polygon fill="blue" stroke="blue" stroke-width="2" points="1238.5,-169.3 1248.25,-165.15 1238.04,-162.31 1238.5,-169.3"/>
<text text-anchor="middle" x="1069.88" y="-186.45" font-family="Times New Roman,serif" font-size="14.00" fill="darkblue">VERY close however FUZZY connection</text>
</g>
<!-- TextGeneration -->
<g id="node8" class="node">
<title>TextGeneration</title>
<polygon fill="lightblue" stroke="black" points="1363,-353 1260.75,-353 1260.75,-317 1363,-317 1363,-353"/>
<polygon fill="none" stroke="black" points="1367,-357 1256.75,-357 1256.75,-313 1367,-313 1367,-357"/>
<text text-anchor="middle" x="1311.88" y="-329.57" font-family="Times New Roman,serif" font-size="14.00">Text generation</text>
</g>
<!-- NLG -->
<g id="node22" class="node">
<title>NLG</title>
<g id="a_node22"><a xlink:href="https://en.wikipedia.org/wiki/Natural_language_generation" xlink:title=" &lt;i&gt;&lt;u&gt;Natural Language Generation (NLG)&lt;/u&gt;&lt;/i&gt; ">
<polygon fill="lightyellow" stroke="black" points="1933.25,-353 1691.5,-353 1691.5,-317 1933.25,-317 1933.25,-353"/>
<text text-anchor="start" x="1699.5" y="-330.57" font-family="Times New Roman,serif" font-size="14.00"> </text>
<text text-anchor="start" x="1703.25" y="-330.57" font-family="Times New Roman,serif" font-style="italic" text-decoration="underline" font-size="14.00">Natural Language Generation (NLG)</text>
<text text-anchor="start" x="1921.5" y="-330.57" font-family="Times New Roman,serif" font-size="14.00"> </text>
</a>
</g>
</g>
<!-- TextGeneration&#45;&gt;NLG -->
<g id="edge19" class="edge">
<title>TextGeneration&#45;&gt;NLG</title>
<path fill="none" stroke="blue" stroke-width="2" stroke-dasharray="1,5" d="M1367.17,-335C1441.22,-335 1576.31,-335 1678.14,-335"/>
<polygon fill="blue" stroke="blue" stroke-width="2" points="1677.99,-338.5 1687.99,-335 1677.99,-331.5 1677.99,-338.5"/>
<text text-anchor="middle" x="1553.88" y="-337.45" font-family="Times New Roman,serif" font-size="14.00" fill="darkblue">VERY close however FUZZY connection</text>
</g>
<!-- LLM -->
<g id="node24" class="node">
<title>LLM</title>
<g id="a_node24"><a xlink:href="https://en.wikipedia.org/wiki/Large_language_model" xlink:title=" &lt;i&gt;&lt;u&gt;Large Language Model (LLM)&lt;/u&gt;&lt;/i&gt; ">
<polygon fill="lightyellow" stroke="black" points="1913.75,-450 1711,-450 1711,-414 1913.75,-414 1913.75,-450"/>
<text text-anchor="start" x="1719" y="-427.57" font-family="Times New Roman,serif" font-size="14.00"> </text>
<text text-anchor="start" x="1722.75" y="-427.57" font-family="Times New Roman,serif" font-style="italic" text-decoration="underline" font-size="14.00">Large Language Model (LLM)</text>
<text text-anchor="start" x="1902" y="-427.57" font-family="Times New Roman,serif" font-size="14.00"> </text>
</a>
</g>
</g>
<!-- TextGeneration&#45;&gt;LLM -->
<g id="edge20" class="edge">
<title>TextGeneration&#45;&gt;LLM</title>
<path fill="none" stroke="blue" stroke-width="2" stroke-dasharray="1,5" d="M1367.17,-345.57C1447.6,-361.21 1600.01,-390.87 1703.63,-411.04"/>
<polygon fill="blue" stroke="blue" stroke-width="2" points="1702.88,-414.45 1713.37,-412.93 1704.22,-407.58 1702.88,-414.45"/>
<text text-anchor="middle" x="1553.88" y="-405.45" font-family="Times New Roman,serif" font-size="14.00" fill="darkblue">has FUZZY connection</text>
</g>
<!-- GenAI -->
<g id="node25" class="node">
<title>GenAI</title>
<g id="a_node25"><a xlink:href="https://en.wikipedia.org/wiki/Generative_artificial_intelligence" xlink:title=" &lt;i&gt;&lt;u&gt;Generative Artificial Intelligence&lt;/u&gt;&lt;/i&gt; ">
<polygon fill="lightyellow" stroke="black" points="1916.75,-295 1708,-295 1708,-259 1916.75,-259 1916.75,-295"/>
<text text-anchor="start" x="1716" y="-272.57" font-family="Times New Roman,serif" font-size="14.00"> </text>
<text text-anchor="start" x="1719.75" y="-272.57" font-family="Times New Roman,serif" font-style="italic" text-decoration="underline" font-size="14.00">Generative Artificial Intelligence</text>
<text text-anchor="start" x="1905" y="-272.57" font-family="Times New Roman,serif" font-size="14.00"> </text>
</a>
</g>
</g>
<!-- TextGeneration&#45;&gt;GenAI -->
<g id="edge21" class="edge">
<title>TextGeneration&#45;&gt;GenAI</title>
<path fill="none" stroke="blue" stroke-width="2" stroke-dasharray="1,5" d="M1367.45,-325.4C1388.31,-321.92 1412.34,-318.14 1434.25,-315.25 1521.37,-303.75 1620.2,-293.85 1694.83,-286.99"/>
<polygon fill="blue" stroke="blue" stroke-width="2" points="1694.88,-290.5 1704.52,-286.11 1694.24,-283.53 1694.88,-290.5"/>
<text text-anchor="middle" x="1553.88" y="-317.45" font-family="Times New Roman,serif" font-size="14.00" fill="darkblue">has a FUZZY connection</text>
</g>
<!-- ImageGeneration -->
<g id="node9" class="node">
<title>ImageGeneration</title>
<polygon fill="lightblue" stroke="black" points="1367.12,-237 1256.62,-237 1256.62,-201 1367.12,-201 1367.12,-237"/>
<polygon fill="none" stroke="black" points="1371.12,-241 1252.62,-241 1252.62,-197 1371.12,-197 1371.12,-241"/>
<text text-anchor="middle" x="1311.88" y="-213.57" font-family="Times New Roman,serif" font-size="14.00">Image generation</text>
</g>
<!-- TextToImageModel -->
<g id="node23" class="node">
<title>TextToImageModel</title>
<g id="a_node23"><a xlink:href="https://en.wikipedia.org/wiki/Text-to-image_model" xlink:title=" &lt;i&gt;&lt;u&gt;Text to Image Model&lt;/u&gt;&lt;/i&gt; ">
<polygon fill="lightyellow" stroke="black" points="1883,-236 1741.75,-236 1741.75,-200 1883,-200 1883,-236"/>
<text text-anchor="start" x="1749.75" y="-213.57" font-family="Times New Roman,serif" font-size="14.00"> </text>
<text text-anchor="start" x="1753.5" y="-213.57" font-family="Times New Roman,serif" font-style="italic" text-decoration="underline" font-size="14.00">Text to Image Model</text>
<text text-anchor="start" x="1871.25" y="-213.57" font-family="Times New Roman,serif" font-size="14.00"> </text>
</a>
</g>
</g>
<!-- ImageGeneration&#45;&gt;TextToImageModel -->
<g id="edge22" class="edge">
<title>ImageGeneration&#45;&gt;TextToImageModel</title>
<path fill="none" stroke="blue" stroke-width="2" stroke-dasharray="1,5" d="M1371.53,-218.88C1459.92,-218.71 1627.64,-218.37 1728.49,-218.17"/>
<polygon fill="blue" stroke="blue" stroke-width="2" points="1728.34,-221.67 1738.33,-218.15 1728.32,-214.67 1728.34,-221.67"/>
<text text-anchor="middle" x="1553.88" y="-220.45" font-family="Times New Roman,serif" font-size="14.00" fill="darkblue">QUITE close however FUZZY connection</text>
</g>
<!-- ImageGeneration&#45;&gt;GenAI -->
<g id="edge24" class="edge">
<title>ImageGeneration&#45;&gt;GenAI</title>
<path fill="none" stroke="blue" stroke-width="2" stroke-dasharray="1,5" d="M1371.49,-226.97C1391.4,-229.61 1413.78,-232.51 1434.25,-235 1521.57,-245.62 1620.4,-256.58 1694.97,-264.65"/>
<polygon fill="blue" stroke="blue" stroke-width="2" points="1694.34,-268.1 1704.66,-265.69 1695.09,-261.14 1694.34,-268.1"/>
<text text-anchor="middle" x="1553.88" y="-263.45" font-family="Times New Roman,serif" font-size="14.00" fill="darkblue">has a FUZZY connection</text>
</g>
<!-- VideoGeneration -->
<g id="node10" class="node">
<title>VideoGeneration</title>
<polygon fill="lightblue" stroke="black" points="1367.12,-415 1256.62,-415 1256.62,-379 1367.12,-379 1367.12,-415"/>
<polygon fill="none" stroke="black" points="1371.12,-419 1252.62,-419 1252.62,-375 1371.12,-375 1371.12,-419"/>
<text text-anchor="middle" x="1311.88" y="-391.57" font-family="Times New Roman,serif" font-size="14.00">Video generation</text>
</g>
<!-- LanguageTranslation&#45;&gt;LLM -->
<g id="edge25" class="edge">
<title>LanguageTranslation&#45;&gt;LLM</title>
<path fill="none" stroke="blue" stroke-width="2" stroke-dasharray="1,5" d="M1383.86,-571.43C1488.1,-554.38 1670.67,-524.27 1673.5,-522 1690,-508.8 1676.4,-492.78 1691.5,-478 1700.8,-468.9 1712.09,-461.56 1723.97,-455.65"/>
<polygon fill="blue" stroke="blue" stroke-width="2" points="1725.09,-458.99 1732.75,-451.67 1722.2,-452.61 1725.09,-458.99"/>
<text text-anchor="middle" x="1553.88" y="-564.45" font-family="Times New Roman,serif" font-size="14.00" fill="darkblue">has FUZZY connection</text>
</g>
<!-- Translation -->
<g id="node26" class="node">
<title>Translation</title>
<g id="a_node26"><a xlink:href="https://en.wikipedia.org/wiki/Translation" xlink:title=" &lt;i&gt;&lt;u&gt;Translation&lt;/u&gt;&lt;/i&gt; ">
<polygon fill="lightyellow" stroke="black" points="1857.5,-601 1767.25,-601 1767.25,-565 1857.5,-565 1857.5,-601"/>
<text text-anchor="start" x="1775.25" y="-578.58" font-family="Times New Roman,serif" font-size="14.00"> </text>
<text text-anchor="start" x="1779" y="-578.58" font-family="Times New Roman,serif" font-style="italic" text-decoration="underline" font-size="14.00">Translation</text>
<text text-anchor="start" x="1845.75" y="-578.58" font-family="Times New Roman,serif" font-size="14.00"> </text>
</a>
</g>
</g>
<!-- LanguageTranslation&#45;&gt;Translation -->
<g id="edge26" class="edge">
<title>LanguageTranslation&#45;&gt;Translation</title>
<path fill="none" stroke="blue" stroke-width="2" stroke-dasharray="1,5" d="M1383.77,-583C1483.3,-583 1662.53,-583 1754.11,-583"/>
<polygon fill="blue" stroke="blue" stroke-width="2" points="1753.94,-586.5 1763.94,-583 1753.94,-579.5 1753.94,-586.5"/>
<text text-anchor="middle" x="1553.88" y="-585.45" font-family="Times New Roman,serif" font-size="14.00" fill="darkblue">has FUZZY connection</text>
</g>
<!-- MachineTranslation -->
<g id="node27" class="node">
<title>MachineTranslation</title>
<g id="a_node27"><a xlink:href="https://en.wikipedia.org/wiki/Machine_translation" xlink:title=" &lt;i&gt;&lt;u&gt;Machine Translation&lt;/u&gt;&lt;/i&gt; ">
<polygon fill="lightyellow" stroke="black" points="1884.5,-655 1740.25,-655 1740.25,-619 1884.5,-619 1884.5,-655"/>
<text text-anchor="start" x="1748.25" y="-632.58" font-family="Times New Roman,serif" font-size="14.00"> </text>
<text text-anchor="start" x="1752" y="-632.58" font-family="Times New Roman,serif" font-style="italic" text-decoration="underline" font-size="14.00">Machine Translation</text>
<text text-anchor="start" x="1872.75" y="-632.58" font-family="Times New Roman,serif" font-size="14.00"> </text>
</a>
</g>
</g>
<!-- LanguageTranslation&#45;&gt;MachineTranslation -->
<g id="edge27" class="edge">
<title>LanguageTranslation&#45;&gt;MachineTranslation</title>
<path fill="none" stroke="blue" stroke-width="2" stroke-dasharray="1,5" d="M1383.99,-595.61C1400.46,-598.29 1417.94,-600.92 1434.25,-603 1534.58,-615.77 1650.52,-625.47 1727.08,-631.18"/>
<polygon fill="blue" stroke="blue" stroke-width="2" points="1726.71,-634.66 1736.94,-631.91 1727.23,-627.68 1726.71,-634.66"/>
<text text-anchor="middle" x="1553.88" y="-628.45" font-family="Times New Roman,serif" font-size="14.00" fill="darkblue">CLOSE but FUZZY connection</text>
</g>
<!-- RecommenderSystem -->
<g id="node28" class="node">
<title>RecommenderSystem</title>
<g id="a_node28"><a xlink:href="https://en.wikipedia.org/wiki/Recommender_system" xlink:title=" &lt;i&gt;&lt;u&gt;Recommender System&lt;/u&gt;&lt;/i&gt; ">
<polygon fill="lightyellow" stroke="black" points="1385.5,-125 1238.25,-125 1238.25,-89 1385.5,-89 1385.5,-125"/>
<text text-anchor="start" x="1246.25" y="-102.58" font-family="Times New Roman,serif" font-size="14.00"> </text>
<text text-anchor="start" x="1250" y="-102.58" font-family="Times New Roman,serif" font-style="italic" text-decoration="underline" font-size="14.00">Recommender System</text>
<text text-anchor="start" x="1373.75" y="-102.58" font-family="Times New Roman,serif" font-size="14.00"> </text>
</a>
</g>
</g>
<!-- Recommender&#45;&gt;RecommenderSystem -->
<g id="edge28" class="edge">
<title>Recommender&#45;&gt;RecommenderSystem</title>
<path fill="none" stroke="blue" stroke-width="2" stroke-dasharray="1,5" d="M932.74,-124.23C938.66,-123.89 944.54,-123.56 950.25,-123.25 1044.27,-118.19 1152.13,-113.47 1225.21,-110.44"/>
<polygon fill="blue" stroke="blue" stroke-width="2" points="1225.12,-113.94 1234.96,-110.03 1224.83,-106.95 1225.12,-113.94"/>
<text text-anchor="middle" x="1069.88" y="-125.45" font-family="Times New Roman,serif" font-size="14.00" fill="darkblue">CLOSE but FUZZY connection</text>
</g>
<!-- GenerativeCapability&#45;&gt;TextGeneration -->
<g id="edge7" class="edge">
<title>GenerativeCapability&#45;&gt;TextGeneration</title>
<path fill="none" stroke="black" d="M913.37,-290.97C925.64,-293.16 938.29,-295.26 950.25,-297 1052.85,-311.9 1172.69,-323.36 1245.13,-329.63"/>
<polygon fill="black" stroke="black" points="1244.56,-333.1 1254.83,-330.47 1245.16,-326.12 1244.56,-333.1"/>
<text text-anchor="middle" x="1069.88" y="-325.45" font-family="Times New Roman,serif" font-size="14.00">is parent to</text>
</g>
<!-- GenerativeCapability&#45;&gt;ImageGeneration -->
<g id="edge8" class="edge">
<title>GenerativeCapability&#45;&gt;ImageGeneration</title>
<path fill="none" stroke="black" d="M913.38,-263.22C925.65,-261.06 938.3,-258.98 950.25,-257.25 1050.95,-242.7 1168.22,-231.28 1241.01,-224.83"/>
<polygon fill="black" stroke="black" points="1241.14,-228.33 1250.8,-223.97 1240.53,-221.36 1241.14,-228.33"/>
<text text-anchor="middle" x="1069.88" y="-259.45" font-family="Times New Roman,serif" font-size="14.00">is parent to</text>
</g>
<!-- GenerativeCapability&#45;&gt;VideoGeneration -->
<g id="edge9" class="edge">
<title>GenerativeCapability&#45;&gt;VideoGeneration</title>
<path fill="none" stroke="black" d="M871.49,-299.22C892.29,-314.01 921.6,-332.57 950.25,-343 1047.29,-378.32 1167.09,-390.56 1241.24,-394.78"/>
<polygon fill="black" stroke="black" points="1240.6,-398.25 1250.78,-395.29 1240.98,-391.26 1240.6,-398.25"/>
<text text-anchor="middle" x="1069.88" y="-392.45" font-family="Times New Roman,serif" font-size="14.00">is parent to</text>
</g>
<!-- GenerativeArtificialIntelligence -->
<g id="node29" class="node">
<title>GenerativeArtificialIntelligence</title>
<g id="a_node29"><a xlink:href="https://en.wikipedia.org/wiki/Generative_artificial_intelligence" xlink:title=" &lt;i&gt;&lt;u&gt;Generative Artificial Intelligence&lt;/u&gt;&lt;/i&gt; ">
<polygon fill="lightyellow" stroke="black" points="1416.25,-295 1207.5,-295 1207.5,-259 1416.25,-259 1416.25,-295"/>
<text text-anchor="start" x="1215.5" y="-272.57" font-family="Times New Roman,serif" font-size="14.00"> </text>
<text text-anchor="start" x="1219.25" y="-272.57" font-family="Times New Roman,serif" font-style="italic" text-decoration="underline" font-size="14.00">Generative Artificial Intelligence</text>
<text text-anchor="start" x="1404.5" y="-272.57" font-family="Times New Roman,serif" font-size="14.00"> </text>
</a>
</g>
</g>
<!-- GenerativeCapability&#45;&gt;GenerativeArtificialIntelligence -->
<g id="edge23" class="edge">
<title>GenerativeCapability&#45;&gt;GenerativeArtificialIntelligence</title>
<path fill="none" stroke="blue" stroke-width="2" stroke-dasharray="1,5" d="M913.38,-277C987.85,-277 1106.18,-277 1194.39,-277"/>
<polygon fill="blue" stroke="blue" stroke-width="2" points="1194.15,-280.5 1204.15,-277 1194.15,-273.5 1194.15,-280.5"/>
<text text-anchor="middle" x="1069.88" y="-279.45" font-family="Times New Roman,serif" font-size="14.00" fill="darkblue">QUITE close however FUZZY connection</text>
</g>
<!-- This Paper -->
<g id="node14" class="node">
<title>This Paper</title>
<polygon fill="lightblue" stroke="black" points="197,-183 4,-183 4,-147 197,-147 197,-183"/>
<polygon fill="none" stroke="black" points="201,-187 0,-187 0,-143 201,-143 201,-187"/>
<text text-anchor="start" x="12" y="-160.57" font-family="Times New Roman,serif" font-size="14.00"> </text>
<text text-anchor="start" x="15.75" y="-160.57" font-family="Times New Roman,serif" font-style="italic" text-decoration="underline" font-size="14.00">Concept defined in this paper</text>
<text text-anchor="start" x="185.25" y="-160.57" font-family="Times New Roman,serif" font-size="14.00"> </text>
</g>
<!-- Wikipedia -->
<g id="node16" class="node">
<title>Wikipedia</title>
<g id="a_node16"><a xlink:href="https://en.wikipedia.org/" xlink:title=" &lt;i&gt;&lt;u&gt;Concept Defined in Wikipedia&lt;/u&gt;&lt;/i&gt; ">
<polygon fill="lightyellow" stroke="black" points="198.5,-241 2.5,-241 2.5,-205 198.5,-205 198.5,-241"/>
<text text-anchor="start" x="10.5" y="-218.57" font-family="Times New Roman,serif" font-size="14.00"> </text>
<text text-anchor="start" x="14.25" y="-218.57" font-family="Times New Roman,serif" font-style="italic" text-decoration="underline" font-size="14.00">Concept Defined in Wikipedia</text>
<text text-anchor="start" x="186.75" y="-218.57" font-family="Times New Roman,serif" font-size="14.00"> </text>
</a>
</g>
</g>
</g>
</svg>
