<?xml version="1.0" encoding="UTF-8" standalone="no"?>
<!DOCTYPE svg PUBLIC "-//W3C//DTD SVG 1.1//EN"
 "http://www.w3.org/Graphics/SVG/1.1/DTD/svg11.dtd">
<!-- Generated by graphviz version 9.0.0 (20230911.1827)
 -->
<!-- Title: Intelligent Application Pages: 1 -->
<svg width="1457pt" height="514pt"
 viewBox="0.00 0.00 1457.25 514.00" xmlns="http://www.w3.org/2000/svg" xmlns:xlink="http://www.w3.org/1999/xlink">
<g id="graph0" class="graph" transform="scale(1 1) rotate(0) translate(4 510)">
<title>Intelligent Application</title>
<polygon fill="white" stroke="none" points="-4,4 -4,-510 1453.25,-510 1453.25,4 -4,4"/>
<!-- Intelligent Application -->
<g id="node1" class="node">
<title>Intelligent Application</title>
<polygon fill="lightblue" stroke="black" points="169.25,-187 31.75,-187 31.75,-151 169.25,-151 169.25,-187"/>
<polygon fill="none" stroke="black" points="173.25,-191 27.75,-191 27.75,-147 173.25,-147 173.25,-191"/>
<text text-anchor="middle" x="100.5" y="-163.57" font-family="Times New Roman,serif" font-size="14.00">Intelligent Application</text>
</g>
<!-- IntelligentCapability -->
<g id="node2" class="node">
<title>IntelligentCapability</title>
<polygon fill="lightblue" stroke="black" points="570.5,-245 441.25,-245 441.25,-209 570.5,-209 570.5,-245"/>
<polygon fill="none" stroke="black" points="574.5,-249 437.25,-249 437.25,-205 574.5,-205 574.5,-249"/>
<text text-anchor="middle" x="505.88" y="-221.57" font-family="Times New Roman,serif" font-size="14.00">Intelligent Capability</text>
</g>
<!-- Intelligent Application&#45;&gt;IntelligentCapability -->
<g id="edge3" class="edge">
<title>Intelligent Application&#45;&gt;IntelligentCapability</title>
<path fill="none" stroke="black" d="M173.52,-181.68C188.53,-184.21 204.27,-186.77 219,-189 288.73,-199.57 368.27,-210.01 425.72,-217.27"/>
<polygon fill="black" stroke="black" points="425.05,-220.71 435.41,-218.48 425.92,-213.76 425.05,-220.71"/>
<text text-anchor="middle" x="319.12" y="-218.45" font-family="Times New Roman,serif" font-size="14.00">has several</text>
</g>
<!-- ComputerProgram -->
<g id="node10" class="node">
<title>ComputerProgram</title>
<g id="a_node10"><a xlink:href="https://en.wikipedia.org/wiki/Computer_program" xlink:title=" &lt;i&gt;&lt;u&gt;Computer Program&lt;/u&gt;&lt;/i&gt; ">
<polygon fill="lightyellow" stroke="black" points="573.88,-187 437.88,-187 437.88,-151 573.88,-151 573.88,-187"/>
<text text-anchor="start" x="445.88" y="-164.57" font-family="Times New Roman,serif" font-size="14.00"> </text>
<text text-anchor="start" x="449.62" y="-164.57" font-family="Times New Roman,serif" font-style="italic" text-decoration="underline" font-size="14.00">Computer Program</text>
<text text-anchor="start" x="562.12" y="-164.57" font-family="Times New Roman,serif" font-size="14.00"> </text>
</a>
</g>
</g>
<!-- Intelligent Application&#45;&gt;ComputerProgram -->
<g id="edge1" class="edge">
<title>Intelligent Application&#45;&gt;ComputerProgram</title>
<path fill="none" stroke="black" d="M173.62,-169C244.6,-169 352.72,-169 425.96,-169"/>
<polygon fill="black" stroke="black" points="425.9,-172.5 435.9,-169 425.9,-165.5 425.9,-172.5"/>
<text text-anchor="middle" x="319.12" y="-171.45" font-family="Times New Roman,serif" font-size="14.00">is EXACTLY a</text>
</g>
<!-- Device -->
<g id="node12" class="node">
<title>Device</title>
<g id="a_node12"><a xlink:href="https://en.wikipedia.org/wiki/Device" xlink:title=" &lt;i&gt;&lt;u&gt;Device&lt;/u&gt;&lt;/i&gt; ">
<polygon fill="lightyellow" stroke="black" points="536.75,-133 475,-133 475,-97 536.75,-97 536.75,-133"/>
<text text-anchor="start" x="483" y="-110.58" font-family="Times New Roman,serif" font-size="14.00"> </text>
<text text-anchor="start" x="486.75" y="-110.58" font-family="Times New Roman,serif" font-style="italic" text-decoration="underline" font-size="14.00">Device</text>
<text text-anchor="start" x="525" y="-110.58" font-family="Times New Roman,serif" font-size="14.00"> </text>
</a>
</g>
</g>
<!-- Intelligent Application&#45;&gt;Device -->
<g id="edge2" class="edge">
<title>Intelligent Application&#45;&gt;Device</title>
<path fill="none" stroke="black" d="M173.5,-156.34C188.51,-153.86 204.26,-151.37 219,-149.25 305.84,-136.76 407.98,-125.3 463.62,-119.32"/>
<polygon fill="black" stroke="black" points="463.69,-122.84 473.26,-118.29 462.95,-115.88 463.69,-122.84"/>
<text text-anchor="middle" x="319.12" y="-152.45" font-family="Times New Roman,serif" font-size="14.00">can be accessed from EXACTLY a</text>
</g>
<!-- SpeechToText -->
<g id="node3" class="node">
<title>SpeechToText</title>
<polygon fill="lightblue" stroke="black" points="889.62,-500 793.38,-500 793.38,-464 889.62,-464 889.62,-500"/>
<polygon fill="none" stroke="black" points="893.62,-504 789.38,-504 789.38,-460 893.62,-460 893.62,-504"/>
<text text-anchor="middle" x="841.5" y="-476.57" font-family="Times New Roman,serif" font-size="14.00">Speech to text</text>
</g>
<!-- IntelligentCapability&#45;&gt;SpeechToText -->
<g id="edge5" class="edge">
<title>IntelligentCapability&#45;&gt;SpeechToText</title>
<path fill="none" stroke="black" d="M510.82,-249.29C518.94,-288.39 541.21,-369.33 592.5,-413 644.6,-457.36 723.09,-473.34 777.77,-479.02"/>
<polygon fill="black" stroke="black" points="777.26,-482.49 787.55,-479.94 777.92,-475.52 777.26,-482.49"/>
<text text-anchor="middle" x="662.62" y="-474.45" font-family="Times New Roman,serif" font-size="14.00">is parent to</text>
</g>
<!-- TextToSpeech -->
<g id="node4" class="node">
<title>TextToSpeech</title>
<polygon fill="lightblue" stroke="black" points="891.12,-431 791.88,-431 791.88,-395 891.12,-395 891.12,-431"/>
<polygon fill="none" stroke="black" points="895.12,-435 787.88,-435 787.88,-391 895.12,-391 895.12,-435"/>
<text text-anchor="middle" x="841.5" y="-407.57" font-family="Times New Roman,serif" font-size="14.00">Text to speech</text>
</g>
<!-- IntelligentCapability&#45;&gt;TextToSpeech -->
<g id="edge4" class="edge">
<title>IntelligentCapability&#45;&gt;TextToSpeech</title>
<path fill="none" stroke="black" d="M518.72,-249.1C533.05,-273.77 559.4,-313.21 592.5,-336 648.02,-374.23 723.29,-394.07 776.3,-403.96"/>
<polygon fill="black" stroke="black" points="775.64,-407.4 786.1,-405.71 776.88,-400.51 775.64,-407.4"/>
<text text-anchor="middle" x="662.62" y="-395.45" font-family="Times New Roman,serif" font-size="14.00">is parent to</text>
</g>
<!-- TextGeneration -->
<g id="node5" class="node">
<title>TextGeneration</title>
<polygon fill="lightblue" stroke="black" points="892.62,-280 790.38,-280 790.38,-244 892.62,-244 892.62,-280"/>
<polygon fill="none" stroke="black" points="896.62,-284 786.38,-284 786.38,-240 896.62,-240 896.62,-284"/>
<text text-anchor="middle" x="841.5" y="-256.57" font-family="Times New Roman,serif" font-size="14.00">Text generation</text>
</g>
<!-- IntelligentCapability&#45;&gt;TextGeneration -->
<g id="edge6" class="edge">
<title>IntelligentCapability&#45;&gt;TextGeneration</title>
<path fill="none" stroke="black" d="M574.79,-234.12C633.2,-240.25 716.92,-249.04 774.7,-255.1"/>
<polygon fill="black" stroke="black" points="774.08,-258.55 784.39,-256.11 774.81,-251.59 774.08,-258.55"/>
<text text-anchor="middle" x="662.62" y="-252.45" font-family="Times New Roman,serif" font-size="14.00">is parent to</text>
</g>
<!-- ImageGeneration -->
<g id="node6" class="node">
<title>ImageGeneration</title>
<polygon fill="lightblue" stroke="black" points="896.75,-362 786.25,-362 786.25,-326 896.75,-326 896.75,-362"/>
<polygon fill="none" stroke="black" points="900.75,-366 782.25,-366 782.25,-322 900.75,-322 900.75,-366"/>
<text text-anchor="middle" x="841.5" y="-338.57" font-family="Times New Roman,serif" font-size="14.00">Image generation</text>
</g>
<!-- IntelligentCapability&#45;&gt;ImageGeneration -->
<g id="edge7" class="edge">
<title>IntelligentCapability&#45;&gt;ImageGeneration</title>
<path fill="none" stroke="black" d="M548.01,-249.49C561.9,-256.59 577.66,-264.11 592.5,-270 651.32,-293.34 720.49,-313.4 770.81,-326.72"/>
<polygon fill="black" stroke="black" points="769.87,-330.09 780.43,-329.24 771.65,-323.32 769.87,-330.09"/>
<text text-anchor="middle" x="662.62" y="-318.45" font-family="Times New Roman,serif" font-size="14.00">is parent to</text>
</g>
<!-- LanguageTranslation -->
<g id="node7" class="node">
<title>LanguageTranslation</title>
<polygon fill="lightblue" stroke="black" points="909.12,-210 773.88,-210 773.88,-174 909.12,-174 909.12,-210"/>
<polygon fill="none" stroke="black" points="913.12,-214 769.88,-214 769.88,-170 913.12,-170 913.12,-214"/>
<text text-anchor="middle" x="841.5" y="-186.57" font-family="Times New Roman,serif" font-size="14.00">Language Translation</text>
</g>
<!-- IntelligentCapability&#45;&gt;LanguageTranslation -->
<g id="edge8" class="edge">
<title>IntelligentCapability&#45;&gt;LanguageTranslation</title>
<path fill="none" stroke="black" d="M574.63,-218.32C580.67,-217.6 586.69,-216.9 592.5,-216.25 647.73,-210.08 709.97,-204 758.28,-199.47"/>
<polygon fill="black" stroke="black" points="758.49,-202.97 768.12,-198.55 757.84,-196 758.49,-202.97"/>
<text text-anchor="middle" x="662.62" y="-218.45" font-family="Times New Roman,serif" font-size="14.00">is parent to</text>
</g>
<!-- Recommender -->
<g id="node8" class="node">
<title>Recommender</title>
<polygon fill="lightblue" stroke="black" points="928.25,-148 754.75,-148 754.75,-112 928.25,-112 928.25,-148"/>
<polygon fill="none" stroke="black" points="932.25,-152 750.75,-152 750.75,-108 932.25,-108 932.25,-152"/>
<text text-anchor="middle" x="841.5" y="-124.58" font-family="Times New Roman,serif" font-size="14.00">Generate Recommendations</text>
</g>
<!-- IntelligentCapability&#45;&gt;Recommender -->
<g id="edge9" class="edge">
<title>IntelligentCapability&#45;&gt;Recommender</title>
<path fill="none" stroke="black" d="M558.81,-204.64C564.2,-201.89 569.52,-198.99 574.5,-196 583.13,-190.81 583.35,-186.45 592.5,-182.25 638.41,-161.2 693.01,-148.52 739.27,-140.94"/>
<polygon fill="black" stroke="black" points="739.71,-144.41 749.04,-139.4 738.62,-137.5 739.71,-144.41"/>
<text text-anchor="middle" x="662.62" y="-184.45" font-family="Times New Roman,serif" font-size="14.00">is parent to</text>
</g>
<!-- Intelligence -->
<g id="node13" class="node">
<title>Intelligence</title>
<g id="a_node13"><a xlink:href="https://en.wikipedia.org/wiki/Intelligence" xlink:title=" &lt;i&gt;&lt;u&gt;Intelligence&lt;/u&gt;&lt;/i&gt; ">
<polygon fill="lightyellow" stroke="black" points="886.25,-90 796.75,-90 796.75,-54 886.25,-54 886.25,-90"/>
<text text-anchor="start" x="804.75" y="-67.58" font-family="Times New Roman,serif" font-size="14.00"> </text>
<text text-anchor="start" x="808.5" y="-67.58" font-family="Times New Roman,serif" font-style="italic" text-decoration="underline" font-size="14.00">Intelligence</text>
<text text-anchor="start" x="874.5" y="-67.58" font-family="Times New Roman,serif" font-size="14.00"> </text>
</a>
</g>
</g>
<!-- IntelligentCapability&#45;&gt;Intelligence -->
<g id="edge10" class="edge">
<title>IntelligentCapability&#45;&gt;Intelligence</title>
<path fill="none" stroke="blue" stroke-width="2" stroke-dasharray="1,5" d="M565.54,-204.64C568.83,-202.05 571.86,-199.18 574.5,-196 595.75,-170.35 568.5,-146.34 592.5,-123.25 643.25,-74.43 727.57,-66.64 783.59,-67.64"/>
<polygon fill="blue" stroke="blue" stroke-width="2" points="783.35,-71.14 793.46,-67.95 783.57,-64.14 783.35,-71.14"/>
<text text-anchor="middle" x="662.62" y="-126.45" font-family="Times New Roman,serif" font-size="14.00" fill="darkblue">has somekind of FUZZY</text>
</g>
<!-- ArtificialIntelligence -->
<g id="node14" class="node">
<title>ArtificialIntelligence</title>
<g id="a_node14"><a xlink:href="https://en.wikipedia.org/wiki/Artificial_intelligence" xlink:title=" &lt;i&gt;&lt;u&gt;Artificial_intelligence&lt;/u&gt;&lt;/i&gt; ">
<polygon fill="lightyellow" stroke="black" points="914.38,-36 768.62,-36 768.62,0 914.38,0 914.38,-36"/>
<text text-anchor="start" x="776.62" y="-13.57" font-family="Times New Roman,serif" font-size="14.00"> </text>
<text text-anchor="start" x="780.38" y="-13.57" font-family="Times New Roman,serif" font-style="italic" text-decoration="underline" font-size="14.00">Artificial_intelligence</text>
<text text-anchor="start" x="902.62" y="-13.57" font-family="Times New Roman,serif" font-size="14.00"> </text>
</a>
</g>
</g>
<!-- IntelligentCapability&#45;&gt;ArtificialIntelligence -->
<g id="edge11" class="edge">
<title>IntelligentCapability&#45;&gt;ArtificialIntelligence</title>
<path fill="none" stroke="blue" stroke-width="2" stroke-dasharray="1,5" d="M566.28,-204.74C569.35,-202.13 572.14,-199.23 574.5,-196 613.05,-143.33 546.5,-96.55 592.5,-50.25 634.15,-8.33 701.6,-1.87 755.65,-5.01"/>
<polygon fill="blue" stroke="blue" stroke-width="2" points="755.13,-8.48 765.35,-5.72 755.63,-1.5 755.13,-8.48"/>
<text text-anchor="middle" x="662.62" y="-53.45" font-family="Times New Roman,serif" font-size="14.00" fill="darkblue">has somekind of FUZZY</text>
</g>
<!-- SpeechRecognition -->
<g id="node15" class="node">
<title>SpeechRecognition</title>
<g id="a_node15"><a xlink:href="https://en.wikipedia.org/wiki/Speech_recognition" xlink:title=" &lt;i&gt;&lt;u&gt;Speech Recognition&lt;/u&gt;&lt;/i&gt; ">
<polygon fill="lightyellow" stroke="black" points="1396.38,-506 1260.38,-506 1260.38,-470 1396.38,-470 1396.38,-506"/>
<text text-anchor="start" x="1268.38" y="-483.57" font-family="Times New Roman,serif" font-size="14.00"> </text>
<text text-anchor="start" x="1272.12" y="-483.57" font-family="Times New Roman,serif" font-style="italic" text-decoration="underline" font-size="14.00">Speech Recognition</text>
<text text-anchor="start" x="1384.62" y="-483.57" font-family="Times New Roman,serif" font-size="14.00"> </text>
</a>
</g>
</g>
<!-- SpeechToText&#45;&gt;SpeechRecognition -->
<g id="edge12" class="edge">
<title>SpeechToText&#45;&gt;SpeechRecognition</title>
<path fill="none" stroke="blue" stroke-width="2" stroke-dasharray="1,5" d="M893.93,-482.64C978.34,-483.68 1146.87,-485.77 1247.1,-487.01"/>
<polygon fill="blue" stroke="blue" stroke-width="2" points="1246.81,-490.5 1256.85,-487.13 1246.89,-483.5 1246.81,-490.5"/>
<text text-anchor="middle" x="1069.88" y="-488.45" font-family="Times New Roman,serif" font-size="14.00" fill="darkblue">VERY close however FUZZY connection</text>
</g>
<!-- SpeechSynthesis -->
<g id="node16" class="node">
<title>SpeechSynthesis</title>
<g id="a_node16"><a xlink:href="https://en.wikipedia.org/wiki/Speech_synthesis" xlink:title=" &lt;i&gt;&lt;u&gt;Speech Synthesis&lt;/u&gt;&lt;/i&gt; ">
<polygon fill="lightyellow" stroke="black" points="1388.5,-452 1268.25,-452 1268.25,-416 1388.5,-416 1388.5,-452"/>
<text text-anchor="start" x="1276.25" y="-429.57" font-family="Times New Roman,serif" font-size="14.00"> </text>
<text text-anchor="start" x="1280" y="-429.57" font-family="Times New Roman,serif" font-style="italic" text-decoration="underline" font-size="14.00">Speech Synthesis</text>
<text text-anchor="start" x="1376.75" y="-429.57" font-family="Times New Roman,serif" font-size="14.00"> </text>
</a>
</g>
</g>
<!-- TextToSpeech&#45;&gt;SpeechSynthesis -->
<g id="edge13" class="edge">
<title>TextToSpeech&#45;&gt;SpeechSynthesis</title>
<path fill="none" stroke="blue" stroke-width="2" stroke-dasharray="1,5" d="M895.31,-415.29C982.46,-419.06 1156.52,-426.6 1255.04,-430.87"/>
<polygon fill="blue" stroke="blue" stroke-width="2" points="1254.67,-434.35 1264.81,-431.29 1254.97,-427.36 1254.67,-434.35"/>
<text text-anchor="middle" x="1069.88" y="-429.45" font-family="Times New Roman,serif" font-size="14.00" fill="darkblue">VERY close however FUZZY connection</text>
</g>
<!-- NLG -->
<g id="node17" class="node">
<title>NLG</title>
<g id="a_node17"><a xlink:href="https://en.wikipedia.org/wiki/Natural_language_generation" xlink:title=" &lt;i&gt;&lt;u&gt;Natural Language Generation (NLG)&lt;/u&gt;&lt;/i&gt; ">
<polygon fill="lightyellow" stroke="black" points="1449.25,-284 1207.5,-284 1207.5,-248 1449.25,-248 1449.25,-284"/>
<text text-anchor="start" x="1215.5" y="-261.57" font-family="Times New Roman,serif" font-size="14.00"> </text>
<text text-anchor="start" x="1219.25" y="-261.57" font-family="Times New Roman,serif" font-style="italic" text-decoration="underline" font-size="14.00">Natural Language Generation (NLG)</text>
<text text-anchor="start" x="1437.5" y="-261.57" font-family="Times New Roman,serif" font-size="14.00"> </text>
</a>
</g>
</g>
<!-- TextGeneration&#45;&gt;NLG -->
<g id="edge14" class="edge">
<title>TextGeneration&#45;&gt;NLG</title>
<path fill="none" stroke="blue" stroke-width="2" stroke-dasharray="1,5" d="M896.71,-262.45C968.13,-263.04 1096.16,-264.09 1194.12,-264.9"/>
<polygon fill="blue" stroke="blue" stroke-width="2" points="1194.07,-268.4 1204.09,-264.98 1194.12,-261.4 1194.07,-268.4"/>
<text text-anchor="middle" x="1069.88" y="-266.45" font-family="Times New Roman,serif" font-size="14.00" fill="darkblue">VERY close however FUZZY connection</text>
</g>
<!-- LLM -->
<g id="node19" class="node">
<title>LLM</title>
<g id="a_node19"><a xlink:href="https://en.wikipedia.org/wiki/Large_language_model" xlink:title=" &lt;i&gt;&lt;u&gt;Large Language Model (LLM)&lt;/u&gt;&lt;/i&gt; ">
<polygon fill="lightyellow" stroke="black" points="1429.75,-228 1227,-228 1227,-192 1429.75,-192 1429.75,-228"/>
<text text-anchor="start" x="1235" y="-205.57" font-family="Times New Roman,serif" font-size="14.00"> </text>
<text text-anchor="start" x="1238.75" y="-205.57" font-family="Times New Roman,serif" font-style="italic" text-decoration="underline" font-size="14.00">Large Language Model (LLM)</text>
<text text-anchor="start" x="1418" y="-205.57" font-family="Times New Roman,serif" font-size="14.00"> </text>
</a>
</g>
</g>
<!-- TextGeneration&#45;&gt;LLM -->
<g id="edge15" class="edge">
<title>TextGeneration&#45;&gt;LLM</title>
<path fill="none" stroke="blue" stroke-width="2" stroke-dasharray="1,5" d="M896.88,-250.98C913.91,-247.81 932.81,-244.59 950.25,-242.25 1038.45,-230.42 1138.86,-222.09 1213.89,-216.85"/>
<polygon fill="blue" stroke="blue" stroke-width="2" points="1213.89,-220.36 1223.62,-216.18 1213.41,-213.38 1213.89,-220.36"/>
<text text-anchor="middle" x="1069.88" y="-244.45" font-family="Times New Roman,serif" font-size="14.00" fill="darkblue">has FUZZY connection</text>
</g>
<!-- GenAI -->
<g id="node20" class="node">
<title>GenAI</title>
<g id="a_node20"><a xlink:href="https://en.wikipedia.org/wiki/Generative_artificial_intelligence" xlink:title=" &lt;i&gt;&lt;u&gt;Generative Artificial Intelligence&lt;/u&gt;&lt;/i&gt; ">
<polygon fill="lightyellow" stroke="black" points="1432.75,-342 1224,-342 1224,-306 1432.75,-306 1432.75,-342"/>
<text text-anchor="start" x="1232" y="-319.57" font-family="Times New Roman,serif" font-size="14.00"> </text>
<text text-anchor="start" x="1235.75" y="-319.57" font-family="Times New Roman,serif" font-style="italic" text-decoration="underline" font-size="14.00">Generative Artificial Intelligence</text>
<text text-anchor="start" x="1421" y="-319.57" font-family="Times New Roman,serif" font-size="14.00"> </text>
</a>
</g>
</g>
<!-- TextGeneration&#45;&gt;GenAI -->
<g id="edge16" class="edge">
<title>TextGeneration&#45;&gt;GenAI</title>
<path fill="none" stroke="blue" stroke-width="2" stroke-dasharray="1,5" d="M896.88,-273.52C913.92,-276.88 932.82,-280.36 950.25,-283 956.77,-283.99 1102.74,-299.79 1211.12,-311.48"/>
<polygon fill="blue" stroke="blue" stroke-width="2" points="1210.48,-314.93 1220.8,-312.52 1211.23,-307.97 1210.48,-314.93"/>
<text text-anchor="middle" x="1069.88" y="-310.45" font-family="Times New Roman,serif" font-size="14.00" fill="darkblue">has a FUZZY connection</text>
</g>
<!-- TextToImageModel -->
<g id="node18" class="node">
<title>TextToImageModel</title>
<g id="a_node18"><a xlink:href="https://en.wikipedia.org/wiki/Text-to-image_model" xlink:title=" &lt;i&gt;&lt;u&gt;Text to Image Model&lt;/u&gt;&lt;/i&gt; ">
<polygon fill="lightyellow" stroke="black" points="1399,-398 1257.75,-398 1257.75,-362 1399,-362 1399,-398"/>
<text text-anchor="start" x="1265.75" y="-375.57" font-family="Times New Roman,serif" font-size="14.00"> </text>
<text text-anchor="start" x="1269.5" y="-375.57" font-family="Times New Roman,serif" font-style="italic" text-decoration="underline" font-size="14.00">Text to Image Model</text>
<text text-anchor="start" x="1387.25" y="-375.57" font-family="Times New Roman,serif" font-size="14.00"> </text>
</a>
</g>
</g>
<!-- ImageGeneration&#45;&gt;TextToImageModel -->
<g id="edge17" class="edge">
<title>ImageGeneration&#45;&gt;TextToImageModel</title>
<path fill="none" stroke="blue" stroke-width="2" stroke-dasharray="1,5" d="M901.11,-353.06C917.02,-355.27 934.27,-357.45 950.25,-359 1051.28,-368.83 1168.02,-374.45 1244.53,-377.36"/>
<polygon fill="blue" stroke="blue" stroke-width="2" points="1244.24,-380.85 1254.36,-377.72 1244.5,-373.85 1244.24,-380.85"/>
<text text-anchor="middle" x="1069.88" y="-376.45" font-family="Times New Roman,serif" font-size="14.00" fill="darkblue">QUITE close however FUZZY connection</text>
</g>
<!-- ImageGeneration&#45;&gt;GenAI -->
<g id="edge18" class="edge">
<title>ImageGeneration&#45;&gt;GenAI</title>
<path fill="none" stroke="blue" stroke-width="2" stroke-dasharray="1,5" d="M900.99,-341.59C977.4,-338.44 1112.96,-332.84 1210.75,-328.81"/>
<polygon fill="blue" stroke="blue" stroke-width="2" points="1210.81,-332.31 1220.66,-328.4 1210.52,-325.32 1210.81,-332.31"/>
<text text-anchor="middle" x="1069.88" y="-341.45" font-family="Times New Roman,serif" font-size="14.00" fill="darkblue">has a FUZZY connection</text>
</g>
<!-- LanguageTranslation&#45;&gt;LLM -->
<g id="edge19" class="edge">
<title>LanguageTranslation&#45;&gt;LLM</title>
<path fill="none" stroke="blue" stroke-width="2" stroke-dasharray="1,5" d="M913.5,-189.93C925.75,-189.65 938.37,-189.4 950.25,-189.25 1056.57,-187.89 1083.46,-181.32 1189.5,-189.25 1197.42,-189.84 1205.58,-190.62 1213.78,-191.54"/>
<polygon fill="blue" stroke="blue" stroke-width="2" points="1213.32,-195.01 1223.66,-192.71 1214.15,-188.06 1213.32,-195.01"/>
<text text-anchor="middle" x="1069.88" y="-191.45" font-family="Times New Roman,serif" font-size="14.00" fill="darkblue">has FUZZY connection</text>
</g>
<!-- Translation -->
<g id="node21" class="node">
<title>Translation</title>
<g id="a_node21"><a xlink:href="https://en.wikipedia.org/wiki/Translation" xlink:title=" &lt;i&gt;&lt;u&gt;Translation&lt;/u&gt;&lt;/i&gt; ">
<polygon fill="lightyellow" stroke="black" points="1373.5,-170 1283.25,-170 1283.25,-134 1373.5,-134 1373.5,-170"/>
<text text-anchor="start" x="1291.25" y="-147.57" font-family="Times New Roman,serif" font-size="14.00"> </text>
<text text-anchor="start" x="1295" y="-147.57" font-family="Times New Roman,serif" font-style="italic" text-decoration="underline" font-size="14.00">Translation</text>
<text text-anchor="start" x="1361.75" y="-147.57" font-family="Times New Roman,serif" font-size="14.00"> </text>
</a>
</g>
</g>
<!-- LanguageTranslation&#45;&gt;Translation -->
<g id="edge20" class="edge">
<title>LanguageTranslation&#45;&gt;Translation</title>
<path fill="none" stroke="blue" stroke-width="2" stroke-dasharray="1,5" d="M913.38,-172.19C925.59,-169.41 938.22,-166.94 950.25,-165.25 1062.87,-149.47 1196.14,-149 1270.29,-150.33"/>
<polygon fill="blue" stroke="blue" stroke-width="2" points="1269.9,-153.82 1279.96,-150.52 1270.04,-146.82 1269.9,-153.82"/>
<text text-anchor="middle" x="1069.88" y="-167.45" font-family="Times New Roman,serif" font-size="14.00" fill="darkblue">has FUZZY connection</text>
</g>
<!-- MachineTranslation -->
<g id="node22" class="node">
<title>MachineTranslation</title>
<g id="a_node22"><a xlink:href="https://en.wikipedia.org/wiki/Machine_translation" xlink:title=" &lt;i&gt;&lt;u&gt;Machine Translation&lt;/u&gt;&lt;/i&gt; ">
<polygon fill="lightyellow" stroke="black" points="1400.5,-116 1256.25,-116 1256.25,-80 1400.5,-80 1400.5,-116"/>
<text text-anchor="start" x="1264.25" y="-93.58" font-family="Times New Roman,serif" font-size="14.00"> </text>
<text text-anchor="start" x="1268" y="-93.58" font-family="Times New Roman,serif" font-style="italic" text-decoration="underline" font-size="14.00">Machine Translation</text>
<text text-anchor="start" x="1388.75" y="-93.58" font-family="Times New Roman,serif" font-size="14.00"> </text>
</a>
</g>
</g>
<!-- LanguageTranslation&#45;&gt;MachineTranslation -->
<g id="edge21" class="edge">
<title>LanguageTranslation&#45;&gt;MachineTranslation</title>
<path fill="none" stroke="blue" stroke-width="2" stroke-dasharray="1,5" d="M913.6,-172.81C920.25,-169.47 926.61,-165.56 932.25,-161 944.27,-151.29 937.13,-139.42 950.25,-131.25 1038.58,-76.2 1161.94,-76.53 1243.19,-84.8"/>
<polygon fill="blue" stroke="blue" stroke-width="2" points="1242.77,-88.27 1253.09,-85.88 1243.53,-81.31 1242.77,-88.27"/>
<text text-anchor="middle" x="1069.88" y="-134.45" font-family="Times New Roman,serif" font-size="14.00" fill="darkblue">CLOSE but FUZZY connection</text>
</g>
<!-- RecommenderSystem -->
<g id="node23" class="node">
<title>RecommenderSystem</title>
<g id="a_node23"><a xlink:href="https://en.wikipedia.org/wiki/Recommender_system" xlink:title=" &lt;i&gt;&lt;u&gt;Recommender System&lt;/u&gt;&lt;/i&gt; ">
<polygon fill="lightyellow" stroke="black" points="1402,-62 1254.75,-62 1254.75,-26 1402,-26 1402,-62"/>
<text text-anchor="start" x="1262.75" y="-39.58" font-family="Times New Roman,serif" font-size="14.00"> </text>
<text text-anchor="start" x="1266.5" y="-39.58" font-family="Times New Roman,serif" font-style="italic" text-decoration="underline" font-size="14.00">Recommender System</text>
<text text-anchor="start" x="1390.25" y="-39.58" font-family="Times New Roman,serif" font-size="14.00"> </text>
</a>
</g>
</g>
<!-- Recommender&#45;&gt;RecommenderSystem -->
<g id="edge22" class="edge">
<title>Recommender&#45;&gt;RecommenderSystem</title>
<path fill="none" stroke="blue" stroke-width="2" stroke-dasharray="1,5" d="M920.68,-107.66C924.8,-105.08 928.7,-102.2 932.25,-99 946.35,-86.28 934.47,-70.81 950.25,-60.25 1036.34,-2.67 1159.87,-9.99 1241.8,-24.03"/>
<polygon fill="blue" stroke="blue" stroke-width="2" points="1241.14,-27.46 1251.6,-25.79 1242.38,-20.57 1241.14,-27.46"/>
<text text-anchor="middle" x="1069.88" y="-63.45" font-family="Times New Roman,serif" font-size="14.00" fill="darkblue">CLOSE but FUZZY connection</text>
</g>
<!-- This Paper -->
<g id="node9" class="node">
<title>This Paper</title>
<polygon fill="lightblue" stroke="black" points="197,-249 4,-249 4,-213 197,-213 197,-249"/>
<polygon fill="none" stroke="black" points="201,-253 0,-253 0,-209 201,-209 201,-253"/>
<text text-anchor="start" x="12" y="-226.57" font-family="Times New Roman,serif" font-size="14.00"> </text>
<text text-anchor="start" x="15.75" y="-226.57" font-family="Times New Roman,serif" font-style="italic" text-decoration="underline" font-size="14.00">Concept defined in this paper</text>
<text text-anchor="start" x="185.25" y="-226.57" font-family="Times New Roman,serif" font-size="14.00"> </text>
</g>
<!-- Wikipedia -->
<g id="node11" class="node">
<title>Wikipedia</title>
<g id="a_node11"><a xlink:href="https://en.wikipedia.org/" xlink:title=" &lt;i&gt;&lt;u&gt;Concept Defined in Wikipedia&lt;/u&gt;&lt;/i&gt; ">
<polygon fill="lightyellow" stroke="black" points="198.5,-307 2.5,-307 2.5,-271 198.5,-271 198.5,-307"/>
<text text-anchor="start" x="10.5" y="-284.57" font-family="Times New Roman,serif" font-size="14.00"> </text>
<text text-anchor="start" x="14.25" y="-284.57" font-family="Times New Roman,serif" font-style="italic" text-decoration="underline" font-size="14.00">Concept Defined in Wikipedia</text>
<text text-anchor="start" x="186.75" y="-284.57" font-family="Times New Roman,serif" font-size="14.00"> </text>
</a>
</g>
</g>
</g>
</svg>
