<?xml version="1.0" encoding="UTF-8" standalone="no"?>
<!DOCTYPE svg PUBLIC "-//W3C//DTD SVG 1.1//EN"
 "http://www.w3.org/Graphics/SVG/1.1/DTD/svg11.dtd">
<!-- Generated by graphviz version 9.0.0 (20230911.1827)
 -->
<!-- Title: Intelligent Application Pages: 1 -->
<svg width="627pt" height="872pt"
 viewBox="0.00 0.00 626.75 872.06" xmlns="http://www.w3.org/2000/svg" xmlns:xlink="http://www.w3.org/1999/xlink">
<g id="graph0" class="graph" transform="scale(1 1) rotate(0) translate(4 868.06)">
<title>Intelligent Application</title>
<polygon fill="white" stroke="none" points="-4,4 -4,-868.06 622.75,-868.06 622.75,4 -4,4"/>
<!-- Intelligent Application -->
<g id="node1" class="node">
<title>Intelligent Application</title>
<polygon fill="lightblue" stroke="black" points="169.25,-435.31 31.75,-435.31 31.75,-399.31 169.25,-399.31 169.25,-435.31"/>
<polygon fill="none" stroke="black" points="173.25,-439.31 27.75,-439.31 27.75,-395.31 173.25,-395.31 173.25,-439.31"/>
<text text-anchor="middle" x="100.5" y="-411.88" font-family="Times New Roman,serif" font-size="14.00">Intelligent Application</text>
</g>
<!-- IntelligentCapability -->
<g id="node2" class="node">
<title>IntelligentCapability</title>
<polygon fill="lightblue" stroke="black" points="592.62,-838.31 463.38,-838.31 463.38,-802.31 592.62,-802.31 592.62,-838.31"/>
<polygon fill="none" stroke="black" points="596.62,-842.31 459.38,-842.31 459.38,-798.31 596.62,-798.31 596.62,-842.31"/>
<text text-anchor="middle" x="528" y="-814.88" font-family="Times New Roman,serif" font-size="14.00">Intelligent Capability</text>
</g>
<!-- Intelligent Application&#45;&gt;IntelligentCapability -->
<g id="edge3" class="edge">
<title>Intelligent Application&#45;&gt;IntelligentCapability</title>
<path fill="none" stroke="black" d="M173.47,-428.03C184.13,-432.65 193.9,-439.16 201,-448.31 224.88,-479.07 191.74,-770.5 219,-798.31 277.15,-857.63 377.76,-853.2 448.11,-840.45"/>
<polygon fill="black" stroke="black" points="448.48,-843.95 457.65,-838.63 447.17,-837.07 448.48,-843.95"/>
<text text-anchor="middle" x="319.12" y="-850.76" font-family="Times New Roman,serif" font-size="14.00">has several</text>
</g>
<!-- SoundToMath -->
<g id="node3" class="node">
<title>SoundToMath</title>
<polygon fill="lightblue" stroke="black" points="578,-776.31 478,-776.31 478,-740.31 578,-740.31 578,-776.31"/>
<polygon fill="none" stroke="black" points="582,-780.31 474,-780.31 474,-736.31 582,-736.31 582,-780.31"/>
<text text-anchor="middle" x="528" y="-752.88" font-family="Times New Roman,serif" font-size="14.00">Sound to Math</text>
</g>
<!-- Intelligent Application&#45;&gt;SoundToMath -->
<g id="edge14" class="edge">
<title>Intelligent Application&#45;&gt;SoundToMath</title>
<path fill="none" stroke="black" d="M173.36,-428.11C184.03,-432.72 193.84,-439.21 201,-448.31 238.89,-496.42 176.74,-678.98 219,-723.31 280.68,-788.01 392,-783.48 462.56,-772.32"/>
<polygon fill="black" stroke="black" points="462.75,-775.84 472.03,-770.74 461.59,-768.94 462.75,-775.84"/>
<text text-anchor="middle" x="319.12" y="-780.76" font-family="Times New Roman,serif" font-size="14.00">is parent to</text>
</g>
<!-- SpeechToText -->
<g id="node4" class="node">
<title>SpeechToText</title>
<polygon fill="lightblue" stroke="black" points="576.12,-714.31 479.88,-714.31 479.88,-678.31 576.12,-678.31 576.12,-714.31"/>
<polygon fill="none" stroke="black" points="580.12,-718.31 475.88,-718.31 475.88,-674.31 580.12,-674.31 580.12,-718.31"/>
<text text-anchor="middle" x="528" y="-690.88" font-family="Times New Roman,serif" font-size="14.00">Speech to text</text>
</g>
<!-- Intelligent Application&#45;&gt;SpeechToText -->
<g id="edge6" class="edge">
<title>Intelligent Application&#45;&gt;SpeechToText</title>
<path fill="none" stroke="black" d="M173.26,-428.2C183.94,-432.8 193.77,-439.26 201,-448.31 232.45,-487.67 183.23,-638.83 219,-674.31 252.33,-707.37 384.21,-705.49 464.2,-701"/>
<polygon fill="black" stroke="black" points="464.32,-704.5 474.09,-700.42 463.9,-697.52 464.32,-704.5"/>
<text text-anchor="middle" x="319.12" y="-705.76" font-family="Times New Roman,serif" font-size="14.00">has ability to do</text>
</g>
<!-- VoiceToBird -->
<g id="node5" class="node">
<title>VoiceToBird</title>
<polygon fill="lightblue" stroke="black" points="573.88,-652.31 482.12,-652.31 482.12,-616.31 573.88,-616.31 573.88,-652.31"/>
<polygon fill="none" stroke="black" points="577.88,-656.31 478.12,-656.31 478.12,-612.31 577.88,-612.31 577.88,-656.31"/>
<text text-anchor="middle" x="528" y="-628.88" font-family="Times New Roman,serif" font-size="14.00">Voice to Bird</text>
</g>
<!-- Intelligent Application&#45;&gt;VoiceToBird -->
<g id="edge7" class="edge">
<title>Intelligent Application&#45;&gt;VoiceToBird</title>
<path fill="none" stroke="black" d="M173.72,-428.75C184.15,-433.31 193.78,-439.61 201,-448.31 244.74,-500.99 170.33,-553.14 219,-601.31 283.54,-665.18 396.93,-659.15 466.66,-647.65"/>
<polygon fill="black" stroke="black" points="467.14,-651.11 476.39,-645.94 465.94,-644.22 467.14,-651.11"/>
<text text-anchor="middle" x="319.12" y="-656.76" font-family="Times New Roman,serif" font-size="14.00">has ability to do</text>
</g>
<!-- VoiceToSong -->
<g id="node6" class="node">
<title>VoiceToSong</title>
<polygon fill="lightblue" stroke="black" points="576.5,-590.31 479.5,-590.31 479.5,-554.31 576.5,-554.31 576.5,-590.31"/>
<polygon fill="none" stroke="black" points="580.5,-594.31 475.5,-594.31 475.5,-550.31 580.5,-550.31 580.5,-594.31"/>
<text text-anchor="middle" x="528" y="-566.88" font-family="Times New Roman,serif" font-size="14.00">Voice to Song</text>
</g>
<!-- Intelligent Application&#45;&gt;VoiceToSong -->
<g id="edge8" class="edge">
<title>Intelligent Application&#45;&gt;VoiceToSong</title>
<path fill="none" stroke="black" d="M173.58,-429.88C183.82,-434.3 193.43,-440.27 201,-448.31 223.91,-472.64 194.47,-498.61 219,-521.31 285.05,-582.41 394.95,-585.71 464.06,-580.48"/>
<polygon fill="black" stroke="black" points="464.03,-584 473.7,-579.67 463.44,-577.02 464.03,-584"/>
<text text-anchor="middle" x="319.12" y="-583.76" font-family="Times New Roman,serif" font-size="14.00">has ability to do</text>
</g>
<!-- TextToSpeech -->
<g id="node7" class="node">
<title>TextToSpeech</title>
<polygon fill="lightblue" stroke="black" points="577.62,-528.31 478.38,-528.31 478.38,-492.31 577.62,-492.31 577.62,-528.31"/>
<polygon fill="none" stroke="black" points="581.62,-532.31 474.38,-532.31 474.38,-488.31 581.62,-488.31 581.62,-532.31"/>
<text text-anchor="middle" x="528" y="-504.88" font-family="Times New Roman,serif" font-size="14.00">Text to speech</text>
</g>
<!-- Intelligent Application&#45;&gt;TextToSpeech -->
<g id="edge5" class="edge">
<title>Intelligent Application&#45;&gt;TextToSpeech</title>
<path fill="none" stroke="black" d="M173.49,-437.41C182.88,-440.7 192.26,-444.35 201,-448.31 209.54,-452.18 210.21,-456.04 219,-459.31 299.7,-489.34 398.85,-501.74 462.47,-506.82"/>
<polygon fill="black" stroke="black" points="462.18,-510.31 472.42,-507.58 462.71,-503.33 462.18,-510.31"/>
<text text-anchor="middle" x="319.12" y="-503.76" font-family="Times New Roman,serif" font-size="14.00">has ability to do</text>
</g>
<!-- TextGeneration -->
<g id="node8" class="node">
<title>TextGeneration</title>
<polygon fill="lightblue" stroke="black" points="579.12,-466.31 476.88,-466.31 476.88,-430.31 579.12,-430.31 579.12,-466.31"/>
<polygon fill="none" stroke="black" points="583.12,-470.31 472.88,-470.31 472.88,-426.31 583.12,-426.31 583.12,-470.31"/>
<text text-anchor="middle" x="528" y="-442.88" font-family="Times New Roman,serif" font-size="14.00">Text generation</text>
</g>
<!-- Intelligent Application&#45;&gt;TextGeneration -->
<g id="edge9" class="edge">
<title>Intelligent Application&#45;&gt;TextGeneration</title>
<path fill="none" stroke="black" d="M173.68,-422.57C254.25,-428.44 383.49,-437.85 461.32,-443.52"/>
<polygon fill="black" stroke="black" points="460.68,-446.98 470.91,-444.22 461.19,-440 460.68,-446.98"/>
<text text-anchor="middle" x="319.12" y="-441.76" font-family="Times New Roman,serif" font-size="14.00">has ability to do</text>
</g>
<!-- ImageGeneration -->
<g id="node9" class="node">
<title>ImageGeneration</title>
<polygon fill="lightblue" stroke="black" points="583.25,-404.31 472.75,-404.31 472.75,-368.31 583.25,-368.31 583.25,-404.31"/>
<polygon fill="none" stroke="black" points="587.25,-408.31 468.75,-408.31 468.75,-364.31 587.25,-364.31 587.25,-408.31"/>
<text text-anchor="middle" x="528" y="-380.88" font-family="Times New Roman,serif" font-size="14.00">Image generation</text>
</g>
<!-- Intelligent Application&#45;&gt;ImageGeneration -->
<g id="edge10" class="edge">
<title>Intelligent Application&#45;&gt;ImageGeneration</title>
<path fill="none" stroke="black" d="M173.56,-410.42C188.57,-409.07 204.3,-407.71 219,-406.56 300.73,-400.13 394.76,-394.16 457.21,-390.38"/>
<polygon fill="black" stroke="black" points="457.21,-393.89 466.98,-389.8 456.79,-386.9 457.21,-393.89"/>
<text text-anchor="middle" x="319.12" y="-408.76" font-family="Times New Roman,serif" font-size="14.00">has ability to do</text>
</g>
<!-- VideoGeneration -->
<g id="node10" class="node">
<title>VideoGeneration</title>
<polygon fill="lightblue" stroke="black" points="583.25,-342.31 472.75,-342.31 472.75,-306.31 583.25,-306.31 583.25,-342.31"/>
<polygon fill="none" stroke="black" points="587.25,-346.31 468.75,-346.31 468.75,-302.31 587.25,-302.31 587.25,-346.31"/>
<text text-anchor="middle" x="528" y="-318.88" font-family="Times New Roman,serif" font-size="14.00">Video generation</text>
</g>
<!-- Intelligent Application&#45;&gt;VideoGeneration -->
<g id="edge11" class="edge">
<title>Intelligent Application&#45;&gt;VideoGeneration</title>
<path fill="none" stroke="black" d="M153.37,-394.88C173.55,-386.86 197.06,-378.39 219,-372.56 299.27,-351.23 393.97,-338.14 456.97,-331.07"/>
<polygon fill="black" stroke="black" points="457.29,-334.55 466.84,-329.98 456.52,-327.59 457.29,-334.55"/>
<text text-anchor="middle" x="319.12" y="-374.76" font-family="Times New Roman,serif" font-size="14.00">has ability to do</text>
</g>
<!-- LanguageTranslation -->
<g id="node11" class="node">
<title>LanguageTranslation</title>
<polygon fill="lightblue" stroke="black" points="595.62,-280.31 460.38,-280.31 460.38,-244.31 595.62,-244.31 595.62,-280.31"/>
<polygon fill="none" stroke="black" points="599.62,-284.31 456.38,-284.31 456.38,-240.31 599.62,-240.31 599.62,-284.31"/>
<text text-anchor="middle" x="528" y="-256.88" font-family="Times New Roman,serif" font-size="14.00">Language Translation</text>
</g>
<!-- Intelligent Application&#45;&gt;LanguageTranslation -->
<g id="edge12" class="edge">
<title>Intelligent Application&#45;&gt;LanguageTranslation</title>
<path fill="none" stroke="black" d="M120.23,-395.1C141.58,-371.38 178.76,-334.62 219,-315.56 290.59,-281.64 380.69,-269.09 444.91,-264.57"/>
<polygon fill="black" stroke="black" points="444.92,-268.07 454.68,-263.93 444.47,-261.09 444.92,-268.07"/>
<text text-anchor="middle" x="319.12" y="-317.76" font-family="Times New Roman,serif" font-size="14.00">has ability to do</text>
</g>
<!-- Recommender -->
<g id="node12" class="node">
<title>Recommender</title>
<polygon fill="lightblue" stroke="black" points="614.75,-218.31 441.25,-218.31 441.25,-182.31 614.75,-182.31 614.75,-218.31"/>
<polygon fill="none" stroke="black" points="618.75,-222.31 437.25,-222.31 437.25,-178.31 618.75,-178.31 618.75,-222.31"/>
<text text-anchor="middle" x="528" y="-194.88" font-family="Times New Roman,serif" font-size="14.00">Generate Recommendations</text>
</g>
<!-- Intelligent Application&#45;&gt;Recommender -->
<g id="edge13" class="edge">
<title>Intelligent Application&#45;&gt;Recommender</title>
<path fill="none" stroke="black" d="M110,-395C125.47,-357.68 162.02,-283.18 219,-247.56 280.45,-209.14 361.92,-197.99 425.64,-196.09"/>
<polygon fill="black" stroke="black" points="425.48,-199.59 435.4,-195.88 425.33,-192.6 425.48,-199.59"/>
<text text-anchor="middle" x="319.12" y="-249.76" font-family="Times New Roman,serif" font-size="14.00">has ability to do</text>
</g>
<!-- GenerativeCapability -->
<g id="node13" class="node">
<title>GenerativeCapability</title>
<polygon fill="lightblue" stroke="black" points="595.62,-156.31 460.38,-156.31 460.38,-120.31 595.62,-120.31 595.62,-156.31"/>
<polygon fill="none" stroke="black" points="599.62,-160.31 456.38,-160.31 456.38,-116.31 599.62,-116.31 599.62,-160.31"/>
<text text-anchor="middle" x="528" y="-132.88" font-family="Times New Roman,serif" font-size="14.00">Generative Capability</text>
</g>
<!-- Intelligent Application&#45;&gt;GenerativeCapability -->
<g id="edge4" class="edge">
<title>Intelligent Application&#45;&gt;GenerativeCapability</title>
<path fill="none" stroke="black" d="M105.18,-394.82C114.46,-345.99 143.68,-230.35 219,-176.56 284.29,-129.93 377.81,-124.6 444.65,-128.31"/>
<polygon fill="black" stroke="black" points="444.25,-131.79 454.46,-128.94 444.7,-124.8 444.25,-131.79"/>
<text text-anchor="middle" x="319.12" y="-178.76" font-family="Times New Roman,serif" font-size="14.00">has several</text>
</g>
<!-- ComputerProgram -->
<g id="node15" class="node">
<title>ComputerProgram</title>
<g id="a_node15"><a xlink:href="https://en.wikipedia.org/wiki/Computer_program" xlink:title=" &lt;i&gt;&lt;u&gt;Computer Program&lt;/u&gt;&lt;/i&gt; ">
<polygon fill="lightyellow" stroke="black" points="596,-98.31 460,-98.31 460,-62.31 596,-62.31 596,-98.31"/>
<text text-anchor="start" x="468" y="-75.88" font-family="Times New Roman,serif" font-size="14.00"> </text>
<text text-anchor="start" x="471.75" y="-75.88" font-family="Times New Roman,serif" font-style="italic" text-decoration="underline" font-size="14.00">Computer Program</text>
<text text-anchor="start" x="584.25" y="-75.88" font-family="Times New Roman,serif" font-size="14.00"> </text>
</a>
</g>
</g>
<!-- Intelligent Application&#45;&gt;ComputerProgram -->
<g id="edge1" class="edge">
<title>Intelligent Application&#45;&gt;ComputerProgram</title>
<path fill="none" stroke="black" d="M102.36,-395.09C105.93,-336.83 124.32,-179.27 219,-107.56 284.26,-58.13 381.08,-57.92 448.69,-65.83"/>
<polygon fill="black" stroke="black" points="447.84,-69.25 458.2,-67.03 448.71,-62.31 447.84,-69.25"/>
<text text-anchor="middle" x="319.12" y="-109.76" font-family="Times New Roman,serif" font-size="14.00">is EXACTLY a</text>
</g>
<!-- Device -->
<g id="node17" class="node">
<title>Device</title>
<g id="a_node17"><a xlink:href="https://en.wikipedia.org/wiki/Device" xlink:title=" &lt;i&gt;&lt;u&gt;Device&lt;/u&gt;&lt;/i&gt; ">
<polygon fill="lightyellow" stroke="black" points="558.88,-44.31 497.12,-44.31 497.12,-8.31 558.88,-8.31 558.88,-44.31"/>
<text text-anchor="start" x="505.12" y="-21.88" font-family="Times New Roman,serif" font-size="14.00"> </text>
<text text-anchor="start" x="508.88" y="-21.88" font-family="Times New Roman,serif" font-style="italic" text-decoration="underline" font-size="14.00">Device</text>
<text text-anchor="start" x="547.12" y="-21.88" font-family="Times New Roman,serif" font-size="14.00"> </text>
</a>
</g>
</g>
<!-- Intelligent Application&#45;&gt;Device -->
<g id="edge2" class="edge">
<title>Intelligent Application&#45;&gt;Device</title>
<path fill="none" stroke="black" d="M105.12,-395.01C117.57,-321.27 161.09,-87.49 219,-42.56 296.83,17.82 421.84,-0.18 486.04,-15.1"/>
<polygon fill="black" stroke="black" points="484.91,-18.42 495.45,-17.38 486.56,-11.62 484.91,-18.42"/>
<text text-anchor="middle" x="319.12" y="-45.76" font-family="Times New Roman,serif" font-size="14.00">can be accessed from EXACTLY a</text>
</g>
<!-- This Paper -->
<g id="node14" class="node">
<title>This Paper</title>
<polygon fill="lightblue" stroke="black" points="197,-497.31 4,-497.31 4,-461.31 197,-461.31 197,-497.31"/>
<polygon fill="none" stroke="black" points="201,-501.31 0,-501.31 0,-457.31 201,-457.31 201,-501.31"/>
<text text-anchor="start" x="12" y="-474.88" font-family="Times New Roman,serif" font-size="14.00"> </text>
<text text-anchor="start" x="15.75" y="-474.88" font-family="Times New Roman,serif" font-style="italic" text-decoration="underline" font-size="14.00">Concept defined in this paper</text>
<text text-anchor="start" x="185.25" y="-474.88" font-family="Times New Roman,serif" font-size="14.00"> </text>
</g>
<!-- Wikipedia -->
<g id="node16" class="node">
<title>Wikipedia</title>
<g id="a_node16"><a xlink:href="https://en.wikipedia.org/" xlink:title=" &lt;i&gt;&lt;u&gt;Concept Defined in Wikipedia&lt;/u&gt;&lt;/i&gt; ">
<polygon fill="lightyellow" stroke="black" points="198.5,-555.31 2.5,-555.31 2.5,-519.31 198.5,-519.31 198.5,-555.31"/>
<text text-anchor="start" x="10.5" y="-532.88" font-family="Times New Roman,serif" font-size="14.00"> </text>
<text text-anchor="start" x="14.25" y="-532.88" font-family="Times New Roman,serif" font-style="italic" text-decoration="underline" font-size="14.00">Concept Defined in Wikipedia</text>
<text text-anchor="start" x="186.75" y="-532.88" font-family="Times New Roman,serif" font-size="14.00"> </text>
</a>
</g>
</g>
</g>
</svg>
