<?xml version="1.0" encoding="UTF-8" standalone="no"?>
<!DOCTYPE svg PUBLIC "-//W3C//DTD SVG 1.1//EN"
 "http://www.w3.org/Graphics/SVG/1.1/DTD/svg11.dtd">
<!-- Generated by graphviz version 9.0.0 (20230911.1827)
 -->
<!-- Title: Intelligent Application Pages: 1 -->
<svg width="1104pt" height="424pt"
 viewBox="0.00 0.00 1103.75 424.00" xmlns="http://www.w3.org/2000/svg" xmlns:xlink="http://www.w3.org/1999/xlink">
<g id="graph0" class="graph" transform="scale(1 1) rotate(0) translate(4 420)">
<title>Intelligent Application</title>
<polygon fill="white" stroke="none" points="-4,4 -4,-420 1099.75,-420 1099.75,4 -4,4"/>
<!-- Intelligent Application -->
<g id="node1" class="node">
<title>Intelligent Application</title>
<polygon fill="lightblue" stroke="black" points="169.25,-137 31.75,-137 31.75,-101 169.25,-101 169.25,-137"/>
<polygon fill="none" stroke="black" points="173.25,-141 27.75,-141 27.75,-97 173.25,-97 173.25,-141"/>
<text text-anchor="middle" x="100.5" y="-113.58" font-family="Times New Roman,serif" font-size="14.00">Intelligent Application</text>
</g>
<!-- IntelligentCapability -->
<g id="node2" class="node">
<title>IntelligentCapability</title>
<polygon fill="lightblue" stroke="black" points="570.5,-195 441.25,-195 441.25,-159 570.5,-159 570.5,-195"/>
<polygon fill="none" stroke="black" points="574.5,-199 437.25,-199 437.25,-155 574.5,-155 574.5,-199"/>
<text text-anchor="middle" x="505.88" y="-171.57" font-family="Times New Roman,serif" font-size="14.00">Intelligent Capability</text>
</g>
<!-- Intelligent Application&#45;&gt;IntelligentCapability -->
<g id="edge3" class="edge">
<title>Intelligent Application&#45;&gt;IntelligentCapability</title>
<path fill="none" stroke="black" d="M173.52,-131.68C188.53,-134.21 204.27,-136.77 219,-139 288.73,-149.57 368.27,-160.01 425.72,-167.27"/>
<polygon fill="black" stroke="black" points="425.05,-170.71 435.41,-168.48 425.92,-163.76 425.05,-170.71"/>
<text text-anchor="middle" x="319.12" y="-168.45" font-family="Times New Roman,serif" font-size="14.00">has several</text>
</g>
<!-- ComputerProgram -->
<g id="node15" class="node">
<title>ComputerProgram</title>
<g id="a_node15"><a xlink:href="https://en.wikipedia.org/wiki/Computer_program" xlink:title=" &lt;i&gt;&lt;u&gt;Computer Program&lt;/u&gt;&lt;/i&gt; ">
<polygon fill="lightyellow" stroke="black" points="573.88,-137 437.88,-137 437.88,-101 573.88,-101 573.88,-137"/>
<text text-anchor="start" x="445.88" y="-114.58" font-family="Times New Roman,serif" font-size="14.00"> </text>
<text text-anchor="start" x="449.62" y="-114.58" font-family="Times New Roman,serif" font-style="italic" text-decoration="underline" font-size="14.00">Computer Program</text>
<text text-anchor="start" x="562.12" y="-114.58" font-family="Times New Roman,serif" font-size="14.00"> </text>
</a>
</g>
</g>
<!-- Intelligent Application&#45;&gt;ComputerProgram -->
<g id="edge1" class="edge">
<title>Intelligent Application&#45;&gt;ComputerProgram</title>
<path fill="none" stroke="black" d="M173.62,-119C244.6,-119 352.72,-119 425.96,-119"/>
<polygon fill="black" stroke="black" points="425.9,-122.5 435.9,-119 425.9,-115.5 425.9,-122.5"/>
<text text-anchor="middle" x="319.12" y="-121.45" font-family="Times New Roman,serif" font-size="14.00">is EXACTLY a</text>
</g>
<!-- Device -->
<g id="node17" class="node">
<title>Device</title>
<g id="a_node17"><a xlink:href="https://en.wikipedia.org/wiki/Device" xlink:title=" &lt;i&gt;&lt;u&gt;Device&lt;/u&gt;&lt;/i&gt; ">
<polygon fill="lightyellow" stroke="black" points="536.75,-83 475,-83 475,-47 536.75,-47 536.75,-83"/>
<text text-anchor="start" x="483" y="-60.58" font-family="Times New Roman,serif" font-size="14.00"> </text>
<text text-anchor="start" x="486.75" y="-60.58" font-family="Times New Roman,serif" font-style="italic" text-decoration="underline" font-size="14.00">Device</text>
<text text-anchor="start" x="525" y="-60.58" font-family="Times New Roman,serif" font-size="14.00"> </text>
</a>
</g>
</g>
<!-- Intelligent Application&#45;&gt;Device -->
<g id="edge2" class="edge">
<title>Intelligent Application&#45;&gt;Device</title>
<path fill="none" stroke="black" d="M173.5,-106.34C188.51,-103.86 204.26,-101.37 219,-99.25 305.84,-86.76 407.98,-75.3 463.62,-69.32"/>
<polygon fill="black" stroke="black" points="463.69,-72.84 473.26,-68.29 462.95,-65.88 463.69,-72.84"/>
<text text-anchor="middle" x="319.12" y="-102.45" font-family="Times New Roman,serif" font-size="14.00">can be accessed from EXACTLY a</text>
</g>
<!-- SoundToMath -->
<g id="node3" class="node">
<title>SoundToMath</title>
<polygon fill="lightblue" stroke="black" points="813.5,-288 713.5,-288 713.5,-252 813.5,-252 813.5,-288"/>
<polygon fill="none" stroke="black" points="817.5,-292 709.5,-292 709.5,-248 817.5,-248 817.5,-292"/>
<text text-anchor="middle" x="763.5" y="-264.57" font-family="Times New Roman,serif" font-size="14.00">Sound to Math</text>
</g>
<!-- IntelligentCapability&#45;&gt;SoundToMath -->
<g id="edge10" class="edge">
<title>IntelligentCapability&#45;&gt;SoundToMath</title>
<path fill="none" stroke="black" d="M556.82,-199.48C568.45,-204.46 580.84,-209.57 592.5,-214 627.21,-227.19 666.56,-240.26 698.65,-250.46"/>
<polygon fill="black" stroke="black" points="697.2,-253.67 707.79,-253.35 699.31,-247 697.2,-253.67"/>
<text text-anchor="middle" x="623.62" y="-237.45" font-family="Times New Roman,serif" font-size="14.00">is parent to</text>
</g>
<!-- TextToSpeech -->
<g id="node7" class="node">
<title>TextToSpeech</title>
<polygon fill="lightblue" stroke="black" points="813.12,-226 713.88,-226 713.88,-190 813.12,-190 813.12,-226"/>
<polygon fill="none" stroke="black" points="817.12,-230 709.88,-230 709.88,-186 817.12,-186 817.12,-230"/>
<text text-anchor="middle" x="763.5" y="-202.57" font-family="Times New Roman,serif" font-size="14.00">Text to speech</text>
</g>
<!-- IntelligentCapability&#45;&gt;TextToSpeech -->
<g id="edge4" class="edge">
<title>IntelligentCapability&#45;&gt;TextToSpeech</title>
<path fill="none" stroke="black" d="M574.71,-185.23C613.04,-189.88 660.69,-195.65 698.4,-200.23"/>
<polygon fill="black" stroke="black" points="697.91,-203.69 708.26,-201.42 698.75,-196.74 697.91,-203.69"/>
<text text-anchor="middle" x="623.62" y="-196.45" font-family="Times New Roman,serif" font-size="14.00">is parent to</text>
</g>
<!-- Recommender -->
<g id="node12" class="node">
<title>Recommender</title>
<polygon fill="lightblue" stroke="black" points="850.25,-164 676.75,-164 676.75,-128 850.25,-128 850.25,-164"/>
<polygon fill="none" stroke="black" points="854.25,-168 672.75,-168 672.75,-124 854.25,-124 854.25,-168"/>
<text text-anchor="middle" x="763.5" y="-140.57" font-family="Times New Roman,serif" font-size="14.00">Generate Recommendations</text>
</g>
<!-- IntelligentCapability&#45;&gt;Recommender -->
<g id="edge5" class="edge">
<title>IntelligentCapability&#45;&gt;Recommender</title>
<path fill="none" stroke="black" d="M574.71,-168.77C601.33,-165.55 632.45,-161.77 661.6,-158.24"/>
<polygon fill="black" stroke="black" points="661.66,-161.75 671.17,-157.08 660.82,-154.81 661.66,-161.75"/>
<text text-anchor="middle" x="623.62" y="-168.45" font-family="Times New Roman,serif" font-size="14.00">is parent to</text>
</g>
<!-- GenerativeCapability -->
<g id="node13" class="node">
<title>GenerativeCapability</title>
<polygon fill="lightblue" stroke="black" points="831.12,-102 695.88,-102 695.88,-66 831.12,-66 831.12,-102"/>
<polygon fill="none" stroke="black" points="835.12,-106 691.88,-106 691.88,-62 835.12,-62 835.12,-106"/>
<text text-anchor="middle" x="763.5" y="-78.58" font-family="Times New Roman,serif" font-size="14.00">Generative Capability</text>
</g>
<!-- IntelligentCapability&#45;&gt;GenerativeCapability -->
<g id="edge6" class="edge">
<title>IntelligentCapability&#45;&gt;GenerativeCapability</title>
<path fill="none" stroke="black" d="M555.42,-154.58C567.44,-149.31 580.36,-143.89 592.5,-139.25 621.04,-128.35 652.76,-117.67 681,-108.64"/>
<polygon fill="black" stroke="black" points="681.72,-112.09 690.2,-105.73 679.61,-105.42 681.72,-112.09"/>
<text text-anchor="middle" x="623.62" y="-141.45" font-family="Times New Roman,serif" font-size="14.00">is parent to</text>
</g>
<!-- SpeechToText -->
<g id="node4" class="node">
<title>SpeechToText</title>
<polygon fill="lightblue" stroke="black" points="1072.25,-412 976,-412 976,-376 1072.25,-376 1072.25,-412"/>
<polygon fill="none" stroke="black" points="1076.25,-416 972,-416 972,-372 1076.25,-372 1076.25,-416"/>
<text text-anchor="middle" x="1024.12" y="-388.57" font-family="Times New Roman,serif" font-size="14.00">Speech to text</text>
</g>
<!-- SoundToMath&#45;&gt;SpeechToText -->
<g id="edge11" class="edge">
<title>SoundToMath&#45;&gt;SpeechToText</title>
<path fill="none" stroke="black" d="M802.37,-292.39C822.79,-304.13 848.59,-318.44 872.25,-330 900.91,-344.01 933.41,-358.02 960.88,-369.35"/>
<polygon fill="black" stroke="black" points="959.55,-372.59 970.13,-373.14 962.21,-366.11 959.55,-372.59"/>
<text text-anchor="middle" x="903.38" y="-359.45" font-family="Times New Roman,serif" font-size="14.00">is parent to</text>
</g>
<!-- VoiceToBird -->
<g id="node5" class="node">
<title>VoiceToBird</title>
<polygon fill="lightblue" stroke="black" points="1070,-350 978.25,-350 978.25,-314 1070,-314 1070,-350"/>
<polygon fill="none" stroke="black" points="1074,-354 974.25,-354 974.25,-310 1074,-310 1074,-354"/>
<text text-anchor="middle" x="1024.12" y="-326.57" font-family="Times New Roman,serif" font-size="14.00">Voice to Bird</text>
</g>
<!-- SoundToMath&#45;&gt;VoiceToBird -->
<g id="edge12" class="edge">
<title>SoundToMath&#45;&gt;VoiceToBird</title>
<path fill="none" stroke="black" d="M817.77,-282.77C859.94,-292.88 918.84,-307 962.75,-317.53"/>
<polygon fill="black" stroke="black" points="961.85,-320.91 972.39,-319.84 963.48,-314.1 961.85,-320.91"/>
<text text-anchor="middle" x="903.38" y="-312.45" font-family="Times New Roman,serif" font-size="14.00">is parent to</text>
</g>
<!-- VoiceToSong -->
<g id="node6" class="node">
<title>VoiceToSong</title>
<polygon fill="lightblue" stroke="black" points="1072.62,-288 975.62,-288 975.62,-252 1072.62,-252 1072.62,-288"/>
<polygon fill="none" stroke="black" points="1076.62,-292 971.62,-292 971.62,-248 1076.62,-248 1076.62,-292"/>
<text text-anchor="middle" x="1024.12" y="-264.57" font-family="Times New Roman,serif" font-size="14.00">Voice to Song</text>
</g>
<!-- SoundToMath&#45;&gt;VoiceToSong -->
<g id="edge13" class="edge">
<title>SoundToMath&#45;&gt;VoiceToSong</title>
<path fill="none" stroke="black" d="M817.77,-270C859.04,-270 916.33,-270 959.91,-270"/>
<polygon fill="black" stroke="black" points="959.73,-273.5 969.73,-270 959.73,-266.5 959.73,-273.5"/>
<text text-anchor="middle" x="903.38" y="-272.45" font-family="Times New Roman,serif" font-size="14.00">is parent to</text>
</g>
<!-- LanguageTranslation -->
<g id="node11" class="node">
<title>LanguageTranslation</title>
<polygon fill="lightblue" stroke="black" points="1091.75,-226 956.5,-226 956.5,-190 1091.75,-190 1091.75,-226"/>
<polygon fill="none" stroke="black" points="1095.75,-230 952.5,-230 952.5,-186 1095.75,-186 1095.75,-230"/>
<text text-anchor="middle" x="1024.12" y="-202.57" font-family="Times New Roman,serif" font-size="14.00">Language Translation</text>
</g>
<!-- SoundToMath&#45;&gt;LanguageTranslation -->
<g id="edge14" class="edge">
<title>SoundToMath&#45;&gt;LanguageTranslation</title>
<path fill="none" stroke="black" d="M817.77,-257.23C853.32,-248.71 900.76,-237.33 941.08,-227.67"/>
<polygon fill="black" stroke="black" points="941.87,-231.08 950.78,-225.34 940.24,-224.27 941.87,-231.08"/>
<text text-anchor="middle" x="903.38" y="-244.45" font-family="Times New Roman,serif" font-size="14.00">is parent to</text>
</g>
<!-- TextGeneration -->
<g id="node8" class="node">
<title>TextGeneration</title>
<polygon fill="lightblue" stroke="black" points="1075.25,-164 973,-164 973,-128 1075.25,-128 1075.25,-164"/>
<polygon fill="none" stroke="black" points="1079.25,-168 969,-168 969,-124 1079.25,-124 1079.25,-168"/>
<text text-anchor="middle" x="1024.12" y="-140.57" font-family="Times New Roman,serif" font-size="14.00">Text generation</text>
</g>
<!-- ImageGeneration -->
<g id="node9" class="node">
<title>ImageGeneration</title>
<polygon fill="lightblue" stroke="black" points="1079.38,-102 968.88,-102 968.88,-66 1079.38,-66 1079.38,-102"/>
<polygon fill="none" stroke="black" points="1083.38,-106 964.88,-106 964.88,-62 1083.38,-62 1083.38,-106"/>
<text text-anchor="middle" x="1024.12" y="-78.58" font-family="Times New Roman,serif" font-size="14.00">Image generation</text>
</g>
<!-- VideoGeneration -->
<g id="node10" class="node">
<title>VideoGeneration</title>
<polygon fill="lightblue" stroke="black" points="1079.38,-40 968.88,-40 968.88,-4 1079.38,-4 1079.38,-40"/>
<polygon fill="none" stroke="black" points="1083.38,-44 964.88,-44 964.88,0 1083.38,0 1083.38,-44"/>
<text text-anchor="middle" x="1024.12" y="-16.57" font-family="Times New Roman,serif" font-size="14.00">Video generation</text>
</g>
<!-- GenerativeCapability&#45;&gt;TextGeneration -->
<g id="edge7" class="edge">
<title>GenerativeCapability&#45;&gt;TextGeneration</title>
<path fill="none" stroke="black" d="M835.51,-101.02C873.76,-110.19 920.61,-121.42 957.92,-130.37"/>
<polygon fill="black" stroke="black" points="956.66,-133.67 967.2,-132.59 958.3,-126.86 956.66,-133.67"/>
<text text-anchor="middle" x="903.38" y="-126.45" font-family="Times New Roman,serif" font-size="14.00">is parent to</text>
</g>
<!-- GenerativeCapability&#45;&gt;ImageGeneration -->
<g id="edge8" class="edge">
<title>GenerativeCapability&#45;&gt;ImageGeneration</title>
<path fill="none" stroke="black" d="M835.51,-84C872.24,-84 916.9,-84 953.43,-84"/>
<polygon fill="black" stroke="black" points="952.98,-87.5 962.98,-84 952.98,-80.5 952.98,-87.5"/>
<text text-anchor="middle" x="903.38" y="-86.45" font-family="Times New Roman,serif" font-size="14.00">is parent to</text>
</g>
<!-- GenerativeCapability&#45;&gt;VideoGeneration -->
<g id="edge9" class="edge">
<title>GenerativeCapability&#45;&gt;VideoGeneration</title>
<path fill="none" stroke="black" d="M835.51,-66.98C872.24,-58.17 916.9,-47.47 953.43,-38.71"/>
<polygon fill="black" stroke="black" points="954.11,-42.14 963.02,-36.41 952.48,-35.34 954.11,-42.14"/>
<text text-anchor="middle" x="903.38" y="-59.45" font-family="Times New Roman,serif" font-size="14.00">is parent to</text>
</g>
<!-- This Paper -->
<g id="node14" class="node">
<title>This Paper</title>
<polygon fill="lightblue" stroke="black" points="197,-199 4,-199 4,-163 197,-163 197,-199"/>
<polygon fill="none" stroke="black" points="201,-203 0,-203 0,-159 201,-159 201,-203"/>
<text text-anchor="start" x="12" y="-176.57" font-family="Times New Roman,serif" font-size="14.00"> </text>
<text text-anchor="start" x="15.75" y="-176.57" font-family="Times New Roman,serif" font-style="italic" text-decoration="underline" font-size="14.00">Concept defined in this paper</text>
<text text-anchor="start" x="185.25" y="-176.57" font-family="Times New Roman,serif" font-size="14.00"> </text>
</g>
<!-- Wikipedia -->
<g id="node16" class="node">
<title>Wikipedia</title>
<g id="a_node16"><a xlink:href="https://en.wikipedia.org/" xlink:title=" &lt;i&gt;&lt;u&gt;Concept Defined in Wikipedia&lt;/u&gt;&lt;/i&gt; ">
<polygon fill="lightyellow" stroke="black" points="198.5,-257 2.5,-257 2.5,-221 198.5,-221 198.5,-257"/>
<text text-anchor="start" x="10.5" y="-234.57" font-family="Times New Roman,serif" font-size="14.00"> </text>
<text text-anchor="start" x="14.25" y="-234.57" font-family="Times New Roman,serif" font-style="italic" text-decoration="underline" font-size="14.00">Concept Defined in Wikipedia</text>
<text text-anchor="start" x="186.75" y="-234.57" font-family="Times New Roman,serif" font-size="14.00"> </text>
</a>
</g>
</g>
</g>
</svg>
