<?xml version="1.0" encoding="UTF-8" standalone="no"?>
<!DOCTYPE svg PUBLIC "-//W3C//DTD SVG 1.1//EN"
 "http://www.w3.org/Graphics/SVG/1.1/DTD/svg11.dtd">
<!-- Generated by graphviz version 9.0.0 (20230911.1827)
 -->
<!-- Title: Intelligent Application Pages: 1 -->
<svg width="883pt" height="972pt"
 viewBox="0.00 0.00 883.25 972.47" xmlns="http://www.w3.org/2000/svg" xmlns:xlink="http://www.w3.org/1999/xlink">
<g id="graph0" class="graph" transform="scale(1 1) rotate(0) translate(4 968.47)">
<title>Intelligent Application</title>
<polygon fill="white" stroke="none" points="-4,4 -4,-968.47 879.25,-968.47 879.25,4 -4,4"/>
<!-- IntelligentApplication -->
<g id="node1" class="node">
<title>IntelligentApplication</title>
<polygon fill="lightblue" stroke="black" points="169.25,-494.72 31.75,-494.72 31.75,-458.72 169.25,-458.72 169.25,-494.72"/>
<polygon fill="none" stroke="black" points="173.25,-498.72 27.75,-498.72 27.75,-454.72 173.25,-454.72 173.25,-498.72"/>
<text text-anchor="middle" x="100.5" y="-471.3" font-family="Times New Roman,serif" font-size="14.00">Intelligent Application</text>
</g>
<!-- IntelligentCapability -->
<g id="node2" class="node">
<title>IntelligentCapability</title>
<polygon fill="lightblue" stroke="black" points="592.62,-949.72 463.38,-949.72 463.38,-913.72 592.62,-913.72 592.62,-949.72"/>
<polygon fill="none" stroke="black" points="596.62,-953.72 459.38,-953.72 459.38,-909.72 596.62,-909.72 596.62,-953.72"/>
<text text-anchor="middle" x="528" y="-926.3" font-family="Times New Roman,serif" font-size="14.00">Intelligent Capability</text>
</g>
<!-- IntelligentApplication&#45;&gt;IntelligentCapability -->
<g id="edge4" class="edge">
<title>IntelligentApplication&#45;&gt;IntelligentCapability</title>
<path fill="none" stroke="black" d="M173.5,-487.41C184.16,-492.04 193.92,-498.56 201,-507.72 226.98,-541.34 190.31,-858.38 219,-889.72 275.63,-951.6 377.04,-953.82 447.97,-946.02"/>
<polygon fill="black" stroke="black" points="448.07,-949.53 457.58,-944.86 447.23,-942.58 448.07,-949.53"/>
<text text-anchor="middle" x="319.12" y="-951.17" font-family="Times New Roman,serif" font-size="14.00">has at least one</text>
</g>
<!-- TeachingMethod -->
<g id="node3" class="node">
<title>TeachingMethod</title>
<polygon fill="lightblue" stroke="black" points="871.25,-909.72 757,-909.72 757,-873.72 871.25,-873.72 871.25,-909.72"/>
<polygon fill="none" stroke="black" points="875.25,-913.72 753,-913.72 753,-869.72 875.25,-869.72 875.25,-913.72"/>
<text text-anchor="middle" x="814.12" y="-886.3" font-family="Times New Roman,serif" font-size="14.00">Teaching Method</text>
</g>
<!-- IntelligentApplication&#45;&gt;TeachingMethod -->
<g id="edge5" class="edge">
<title>IntelligentApplication&#45;&gt;TeachingMethod</title>
<path fill="none" stroke="black" d="M173.47,-487.44C184.13,-492.06 193.9,-498.57 201,-507.72 224.88,-538.48 191.54,-830.11 219,-857.72 228.1,-866.87 585.16,-882.46 741.28,-888.85"/>
<polygon fill="black" stroke="black" points="740.97,-892.34 751.11,-889.25 741.26,-885.35 740.97,-892.34"/>
<text text-anchor="middle" x="528" y="-885.17" font-family="Times New Roman,serif" font-size="14.00">has at least one</text>
</g>
<!-- SoundToMath -->
<g id="node4" class="node">
<title>SoundToMath</title>
<polygon fill="lightblue" stroke="black" points="578,-835.72 478,-835.72 478,-799.72 578,-799.72 578,-835.72"/>
<polygon fill="none" stroke="black" points="582,-839.72 474,-839.72 474,-795.72 582,-795.72 582,-839.72"/>
<text text-anchor="middle" x="528" y="-812.3" font-family="Times New Roman,serif" font-size="14.00">Sound to Math</text>
</g>
<!-- IntelligentApplication&#45;&gt;SoundToMath -->
<g id="edge17" class="edge">
<title>IntelligentApplication&#45;&gt;SoundToMath</title>
<path fill="none" stroke="black" d="M173.36,-487.52C184.03,-492.14 193.84,-498.62 201,-507.72 238.89,-555.83 176.74,-738.39 219,-782.72 280.68,-847.43 392,-842.9 462.56,-831.74"/>
<polygon fill="black" stroke="black" points="462.75,-835.26 472.03,-830.15 461.59,-828.35 462.75,-835.26"/>
<text text-anchor="middle" x="319.12" y="-840.17" font-family="Times New Roman,serif" font-size="14.00">is parent to</text>
</g>
<!-- SpeechToText -->
<g id="node5" class="node">
<title>SpeechToText</title>
<polygon fill="lightblue" stroke="black" points="576.12,-773.72 479.88,-773.72 479.88,-737.72 576.12,-737.72 576.12,-773.72"/>
<polygon fill="none" stroke="black" points="580.12,-777.72 475.88,-777.72 475.88,-733.72 580.12,-733.72 580.12,-777.72"/>
<text text-anchor="middle" x="528" y="-750.3" font-family="Times New Roman,serif" font-size="14.00">Speech to text</text>
</g>
<!-- IntelligentApplication&#45;&gt;SpeechToText -->
<g id="edge9" class="edge">
<title>IntelligentApplication&#45;&gt;SpeechToText</title>
<path fill="none" stroke="black" d="M173.26,-487.61C183.94,-492.21 193.77,-498.67 201,-507.72 232.45,-547.08 183.23,-698.24 219,-733.72 252.33,-766.78 384.21,-764.9 464.2,-760.42"/>
<polygon fill="black" stroke="black" points="464.32,-763.92 474.09,-759.83 463.9,-756.93 464.32,-763.92"/>
<text text-anchor="middle" x="319.12" y="-765.17" font-family="Times New Roman,serif" font-size="14.00">has ability to do</text>
</g>
<!-- VoiceToBird -->
<g id="node6" class="node">
<title>VoiceToBird</title>
<polygon fill="lightblue" stroke="black" points="573.88,-711.72 482.12,-711.72 482.12,-675.72 573.88,-675.72 573.88,-711.72"/>
<polygon fill="none" stroke="black" points="577.88,-715.72 478.12,-715.72 478.12,-671.72 577.88,-671.72 577.88,-715.72"/>
<text text-anchor="middle" x="528" y="-688.3" font-family="Times New Roman,serif" font-size="14.00">Voice to Bird</text>
</g>
<!-- IntelligentApplication&#45;&gt;VoiceToBird -->
<g id="edge10" class="edge">
<title>IntelligentApplication&#45;&gt;VoiceToBird</title>
<path fill="none" stroke="black" d="M173.72,-488.17C184.15,-492.72 193.78,-499.02 201,-507.72 244.74,-560.4 170.33,-612.56 219,-660.72 283.54,-724.6 396.93,-718.57 466.66,-707.06"/>
<polygon fill="black" stroke="black" points="467.14,-710.53 476.39,-705.36 465.94,-703.63 467.14,-710.53"/>
<text text-anchor="middle" x="319.12" y="-716.17" font-family="Times New Roman,serif" font-size="14.00">has ability to do</text>
</g>
<!-- VoiceToSong -->
<g id="node7" class="node">
<title>VoiceToSong</title>
<polygon fill="lightblue" stroke="black" points="576.5,-649.72 479.5,-649.72 479.5,-613.72 576.5,-613.72 576.5,-649.72"/>
<polygon fill="none" stroke="black" points="580.5,-653.72 475.5,-653.72 475.5,-609.72 580.5,-609.72 580.5,-653.72"/>
<text text-anchor="middle" x="528" y="-626.3" font-family="Times New Roman,serif" font-size="14.00">Voice to Song</text>
</g>
<!-- IntelligentApplication&#45;&gt;VoiceToSong -->
<g id="edge11" class="edge">
<title>IntelligentApplication&#45;&gt;VoiceToSong</title>
<path fill="none" stroke="black" d="M173.58,-489.29C183.82,-493.72 193.43,-499.68 201,-507.72 223.91,-532.05 194.47,-558.03 219,-580.72 285.05,-641.83 394.95,-645.13 464.06,-639.9"/>
<polygon fill="black" stroke="black" points="464.03,-643.41 473.7,-639.08 463.44,-636.44 464.03,-643.41"/>
<text text-anchor="middle" x="319.12" y="-643.17" font-family="Times New Roman,serif" font-size="14.00">has ability to do</text>
</g>
<!-- TextToSpeech -->
<g id="node8" class="node">
<title>TextToSpeech</title>
<polygon fill="lightblue" stroke="black" points="577.62,-587.72 478.38,-587.72 478.38,-551.72 577.62,-551.72 577.62,-587.72"/>
<polygon fill="none" stroke="black" points="581.62,-591.72 474.38,-591.72 474.38,-547.72 581.62,-547.72 581.62,-591.72"/>
<text text-anchor="middle" x="528" y="-564.3" font-family="Times New Roman,serif" font-size="14.00">Text to speech</text>
</g>
<!-- IntelligentApplication&#45;&gt;TextToSpeech -->
<g id="edge8" class="edge">
<title>IntelligentApplication&#45;&gt;TextToSpeech</title>
<path fill="none" stroke="black" d="M173.49,-496.82C182.88,-500.12 192.26,-503.76 201,-507.72 209.54,-511.59 210.21,-515.45 219,-518.72 299.7,-548.76 398.85,-561.15 462.47,-566.24"/>
<polygon fill="black" stroke="black" points="462.18,-569.73 472.42,-566.99 462.71,-562.75 462.18,-569.73"/>
<text text-anchor="middle" x="319.12" y="-563.17" font-family="Times New Roman,serif" font-size="14.00">has ability to do</text>
</g>
<!-- TextGeneration -->
<g id="node9" class="node">
<title>TextGeneration</title>
<polygon fill="lightblue" stroke="black" points="579.12,-525.72 476.88,-525.72 476.88,-489.72 579.12,-489.72 579.12,-525.72"/>
<polygon fill="none" stroke="black" points="583.12,-529.72 472.88,-529.72 472.88,-485.72 583.12,-485.72 583.12,-529.72"/>
<text text-anchor="middle" x="528" y="-502.3" font-family="Times New Roman,serif" font-size="14.00">Text generation</text>
</g>
<!-- IntelligentApplication&#45;&gt;TextGeneration -->
<g id="edge12" class="edge">
<title>IntelligentApplication&#45;&gt;TextGeneration</title>
<path fill="none" stroke="black" d="M173.68,-481.98C254.25,-487.85 383.49,-497.26 461.32,-502.94"/>
<polygon fill="black" stroke="black" points="460.68,-506.4 470.91,-503.63 461.19,-499.42 460.68,-506.4"/>
<text text-anchor="middle" x="319.12" y="-501.17" font-family="Times New Roman,serif" font-size="14.00">has ability to do</text>
</g>
<!-- ImageGeneration -->
<g id="node10" class="node">
<title>ImageGeneration</title>
<polygon fill="lightblue" stroke="black" points="583.25,-463.72 472.75,-463.72 472.75,-427.72 583.25,-427.72 583.25,-463.72"/>
<polygon fill="none" stroke="black" points="587.25,-467.72 468.75,-467.72 468.75,-423.72 587.25,-423.72 587.25,-467.72"/>
<text text-anchor="middle" x="528" y="-440.3" font-family="Times New Roman,serif" font-size="14.00">Image generation</text>
</g>
<!-- IntelligentApplication&#45;&gt;ImageGeneration -->
<g id="edge13" class="edge">
<title>IntelligentApplication&#45;&gt;ImageGeneration</title>
<path fill="none" stroke="black" d="M173.56,-469.83C188.57,-468.48 204.3,-467.13 219,-465.97 300.73,-459.55 394.76,-453.57 457.21,-449.8"/>
<polygon fill="black" stroke="black" points="457.21,-453.3 466.98,-449.21 456.79,-446.32 457.21,-453.3"/>
<text text-anchor="middle" x="319.12" y="-468.17" font-family="Times New Roman,serif" font-size="14.00">has ability to do</text>
</g>
<!-- VideoGeneration -->
<g id="node11" class="node">
<title>VideoGeneration</title>
<polygon fill="lightblue" stroke="black" points="583.25,-401.72 472.75,-401.72 472.75,-365.72 583.25,-365.72 583.25,-401.72"/>
<polygon fill="none" stroke="black" points="587.25,-405.72 468.75,-405.72 468.75,-361.72 587.25,-361.72 587.25,-405.72"/>
<text text-anchor="middle" x="528" y="-378.3" font-family="Times New Roman,serif" font-size="14.00">Video generation</text>
</g>
<!-- IntelligentApplication&#45;&gt;VideoGeneration -->
<g id="edge14" class="edge">
<title>IntelligentApplication&#45;&gt;VideoGeneration</title>
<path fill="none" stroke="black" d="M153.37,-454.29C173.55,-446.28 197.06,-437.8 219,-431.97 299.27,-410.65 393.97,-397.55 456.97,-390.48"/>
<polygon fill="black" stroke="black" points="457.29,-393.97 466.84,-389.39 456.52,-387.01 457.29,-393.97"/>
<text text-anchor="middle" x="319.12" y="-434.17" font-family="Times New Roman,serif" font-size="14.00">has ability to do</text>
</g>
<!-- LanguageTranslation -->
<g id="node12" class="node">
<title>LanguageTranslation</title>
<polygon fill="lightblue" stroke="black" points="595.62,-339.72 460.38,-339.72 460.38,-303.72 595.62,-303.72 595.62,-339.72"/>
<polygon fill="none" stroke="black" points="599.62,-343.72 456.38,-343.72 456.38,-299.72 599.62,-299.72 599.62,-343.72"/>
<text text-anchor="middle" x="528" y="-316.3" font-family="Times New Roman,serif" font-size="14.00">Language Translation</text>
</g>
<!-- IntelligentApplication&#45;&gt;LanguageTranslation -->
<g id="edge15" class="edge">
<title>IntelligentApplication&#45;&gt;LanguageTranslation</title>
<path fill="none" stroke="black" d="M120.23,-454.52C141.58,-430.79 178.76,-394.03 219,-374.97 290.59,-341.05 380.69,-328.5 444.91,-323.98"/>
<polygon fill="black" stroke="black" points="444.92,-327.49 454.68,-323.35 444.47,-320.5 444.92,-327.49"/>
<text text-anchor="middle" x="319.12" y="-377.17" font-family="Times New Roman,serif" font-size="14.00">has ability to do</text>
</g>
<!-- Recommender -->
<g id="node13" class="node">
<title>Recommender</title>
<polygon fill="lightblue" stroke="black" points="614.75,-277.72 441.25,-277.72 441.25,-241.72 614.75,-241.72 614.75,-277.72"/>
<polygon fill="none" stroke="black" points="618.75,-281.72 437.25,-281.72 437.25,-237.72 618.75,-237.72 618.75,-281.72"/>
<text text-anchor="middle" x="528" y="-254.3" font-family="Times New Roman,serif" font-size="14.00">Generate Recommendations</text>
</g>
<!-- IntelligentApplication&#45;&gt;Recommender -->
<g id="edge16" class="edge">
<title>IntelligentApplication&#45;&gt;Recommender</title>
<path fill="none" stroke="black" d="M110,-454.42C125.47,-417.1 162.02,-342.6 219,-306.97 280.45,-268.55 361.92,-257.4 425.64,-255.5"/>
<polygon fill="black" stroke="black" points="425.48,-259.01 435.4,-255.29 425.33,-252.01 425.48,-259.01"/>
<text text-anchor="middle" x="319.12" y="-309.17" font-family="Times New Roman,serif" font-size="14.00">has ability to do</text>
</g>
<!-- GenerativeCapability -->
<g id="node14" class="node">
<title>GenerativeCapability</title>
<polygon fill="lightblue" stroke="black" points="595.62,-215.72 460.38,-215.72 460.38,-179.72 595.62,-179.72 595.62,-215.72"/>
<polygon fill="none" stroke="black" points="599.62,-219.72 456.38,-219.72 456.38,-175.72 599.62,-175.72 599.62,-219.72"/>
<text text-anchor="middle" x="528" y="-192.3" font-family="Times New Roman,serif" font-size="14.00">Generative Capability</text>
</g>
<!-- IntelligentApplication&#45;&gt;GenerativeCapability -->
<g id="edge6" class="edge">
<title>IntelligentApplication&#45;&gt;GenerativeCapability</title>
<path fill="none" stroke="black" d="M105.18,-454.23C114.46,-405.4 143.68,-289.76 219,-235.97 284.29,-189.35 377.81,-184.02 444.65,-187.72"/>
<polygon fill="black" stroke="black" points="444.25,-191.2 454.46,-188.35 444.7,-184.22 444.25,-191.2"/>
<text text-anchor="middle" x="319.12" y="-238.17" font-family="Times New Roman,serif" font-size="14.00">might have</text>
</g>
<!-- ComputerProgram -->
<g id="node16" class="node">
<title>ComputerProgram</title>
<g id="a_node16"><a xlink:href="https://en.wikipedia.org/wiki/Computer_program" xlink:title=" &lt;i&gt;&lt;u&gt;Computer Program&lt;/u&gt;&lt;/i&gt; ">
<polygon fill="lightyellow" stroke="black" points="596,-157.72 460,-157.72 460,-121.72 596,-121.72 596,-157.72"/>
<text text-anchor="start" x="468" y="-135.3" font-family="Times New Roman,serif" font-size="14.00"> </text>
<text text-anchor="start" x="471.75" y="-135.3" font-family="Times New Roman,serif" font-style="italic" text-decoration="underline" font-size="14.00">Computer Program</text>
<text text-anchor="start" x="584.25" y="-135.3" font-family="Times New Roman,serif" font-size="14.00"> </text>
</a>
</g>
</g>
<!-- IntelligentApplication&#45;&gt;ComputerProgram -->
<g id="edge2" class="edge">
<title>IntelligentApplication&#45;&gt;ComputerProgram</title>
<path fill="none" stroke="black" d="M102.36,-454.5C105.93,-396.25 124.32,-238.68 219,-166.97 284.26,-117.54 381.08,-117.33 448.69,-125.25"/>
<polygon fill="black" stroke="black" points="447.84,-128.67 458.2,-126.45 448.71,-121.72 447.84,-128.67"/>
<text text-anchor="middle" x="319.12" y="-169.17" font-family="Times New Roman,serif" font-size="14.00">is EXACTLY a</text>
</g>
<!-- Software -->
<g id="node17" class="node">
<title>Software</title>
<g id="a_node17"><a xlink:href="https://en.wikipedia.org/wiki/Software" xlink:title=" &lt;i&gt;&lt;u&gt;Software&lt;/u&gt;&lt;/i&gt; ">
<polygon fill="lightyellow" stroke="black" points="564.88,-103.72 491.12,-103.72 491.12,-67.72 564.88,-67.72 564.88,-103.72"/>
<text text-anchor="start" x="499.12" y="-81.3" font-family="Times New Roman,serif" font-size="14.00"> </text>
<text text-anchor="start" x="502.88" y="-81.3" font-family="Times New Roman,serif" font-style="italic" text-decoration="underline" font-size="14.00">Software</text>
<text text-anchor="start" x="553.12" y="-81.3" font-family="Times New Roman,serif" font-size="14.00"> </text>
</a>
</g>
</g>
<!-- IntelligentApplication&#45;&gt;Software -->
<g id="edge1" class="edge">
<title>IntelligentApplication&#45;&gt;Software</title>
<path fill="none" stroke="black" d="M105.1,-454.35C117.51,-380.4 160.89,-145.94 219,-100.97 294.45,-42.59 414.09,-58.09 479.85,-72.91"/>
<polygon fill="black" stroke="black" points="478.69,-76.23 489.23,-75.11 480.29,-69.42 478.69,-76.23"/>
<text text-anchor="middle" x="319.12" y="-103.17" font-family="Times New Roman,serif" font-size="14.00">is implemented as</text>
</g>
<!-- Device -->
<g id="node20" class="node">
<title>Device</title>
<g id="a_node20"><a xlink:href="https://en.wikipedia.org/wiki/Device" xlink:title=" &lt;i&gt;&lt;u&gt;Device&lt;/u&gt;&lt;/i&gt; ">
<polygon fill="lightyellow" stroke="black" points="558.88,-49.72 497.12,-49.72 497.12,-13.72 558.88,-13.72 558.88,-49.72"/>
<text text-anchor="start" x="505.12" y="-27.3" font-family="Times New Roman,serif" font-size="14.00"> </text>
<text text-anchor="start" x="508.88" y="-27.3" font-family="Times New Roman,serif" font-style="italic" text-decoration="underline" font-size="14.00">Device</text>
<text text-anchor="start" x="547.12" y="-27.3" font-family="Times New Roman,serif" font-size="14.00"> </text>
</a>
</g>
</g>
<!-- IntelligentApplication&#45;&gt;Device -->
<g id="edge3" class="edge">
<title>IntelligentApplication&#45;&gt;Device</title>
<path fill="none" stroke="black" d="M104.02,-454.49C113.75,-373.05 151.7,-93 219,-39.97 296.29,20.93 421.54,-1.43 485.91,-18.84"/>
<polygon fill="black" stroke="black" points="484.8,-22.16 495.37,-21.5 486.69,-15.42 484.8,-22.16"/>
<text text-anchor="middle" x="319.12" y="-43.17" font-family="Times New Roman,serif" font-size="14.00">can be accessed from EXACTLY a</text>
</g>
<!-- IntelligentCapability&#45;&gt;TeachingMethod -->
<g id="edge7" class="edge">
<title>IntelligentCapability&#45;&gt;TeachingMethod</title>
<path fill="none" stroke="black" d="M597.06,-922.14C640.7,-915.99 697.28,-908.03 741.59,-901.79"/>
<polygon fill="black" stroke="black" points="741.95,-905.28 751.37,-900.42 740.98,-898.34 741.95,-905.28"/>
<text text-anchor="middle" x="685.88" y="-918.17" font-family="Times New Roman,serif" font-size="14.00">uses one or many</text>
</g>
<!-- This Paper -->
<g id="node15" class="node">
<title>This Paper</title>
<polygon fill="lightblue" stroke="black" points="197,-556.72 4,-556.72 4,-520.72 197,-520.72 197,-556.72"/>
<polygon fill="none" stroke="black" points="201,-560.72 0,-560.72 0,-516.72 201,-516.72 201,-560.72"/>
<text text-anchor="start" x="12" y="-534.3" font-family="Times New Roman,serif" font-size="14.00"> </text>
<text text-anchor="start" x="15.75" y="-534.3" font-family="Times New Roman,serif" font-style="italic" text-decoration="underline" font-size="14.00">Concept defined in this paper</text>
<text text-anchor="start" x="185.25" y="-534.3" font-family="Times New Roman,serif" font-size="14.00"> </text>
</g>
<!-- SoftwareFeature -->
<g id="node18" class="node">
<title>SoftwareFeature</title>
<g id="a_node18"><a xlink:href="https://en.wikipedia.org/wiki/Software_feature" xlink:title=" &lt;i&gt;&lt;u&gt;Software Feature&lt;/u&gt;&lt;/i&gt; ">
<polygon fill="lightyellow" stroke="black" points="161.75,-614.72 39.25,-614.72 39.25,-578.72 161.75,-578.72 161.75,-614.72"/>
<text text-anchor="start" x="47.25" y="-592.3" font-family="Times New Roman,serif" font-size="14.00"> </text>
<text text-anchor="start" x="51" y="-592.3" font-family="Times New Roman,serif" font-style="italic" text-decoration="underline" font-size="14.00">Software Feature</text>
<text text-anchor="start" x="150" y="-592.3" font-family="Times New Roman,serif" font-size="14.00"> </text>
</a>
</g>
</g>
<!-- Wikipedia -->
<g id="node19" class="node">
<title>Wikipedia</title>
<g id="a_node19"><a xlink:href="https://en.wikipedia.org/" xlink:title=" &lt;i&gt;&lt;u&gt;Concept Defined in Wikipedia&lt;/u&gt;&lt;/i&gt; ">
<polygon fill="lightyellow" stroke="black" points="198.5,-668.72 2.5,-668.72 2.5,-632.72 198.5,-632.72 198.5,-668.72"/>
<text text-anchor="start" x="10.5" y="-646.3" font-family="Times New Roman,serif" font-size="14.00"> </text>
<text text-anchor="start" x="14.25" y="-646.3" font-family="Times New Roman,serif" font-style="italic" text-decoration="underline" font-size="14.00">Concept Defined in Wikipedia</text>
<text text-anchor="start" x="186.75" y="-646.3" font-family="Times New Roman,serif" font-size="14.00"> </text>
</a>
</g>
</g>
</g>
</svg>
