<?xml version="1.0" encoding="UTF-8" standalone="no"?>
<!DOCTYPE svg PUBLIC "-//W3C//DTD SVG 1.1//EN"
 "http://www.w3.org/Graphics/SVG/1.1/DTD/svg11.dtd">
<!-- Generated by graphviz version 9.0.0 (20230911.1827)
 -->
<!-- Title: Intelligent Application Pages: 1 -->
<svg width="1941pt" height="626pt"
 viewBox="0.00 0.00 1941.25 625.94" xmlns="http://www.w3.org/2000/svg" xmlns:xlink="http://www.w3.org/1999/xlink">
<g id="graph0" class="graph" transform="scale(1 1) rotate(0) translate(4 621.94)">
<title>Intelligent Application</title>
<polygon fill="white" stroke="none" points="-4,4 -4,-621.94 1937.25,-621.94 1937.25,4 -4,4"/>
<!-- IntelligentApplication -->
<g id="node1" class="node">
<title>IntelligentApplication</title>
<polygon fill="lightblue" stroke="black" points="169.25,-322.19 31.75,-322.19 31.75,-286.19 169.25,-286.19 169.25,-322.19"/>
<polygon fill="none" stroke="black" points="173.25,-326.19 27.75,-326.19 27.75,-282.19 173.25,-282.19 173.25,-326.19"/>
<text text-anchor="middle" x="100.5" y="-298.77" font-family="Times New Roman,serif" font-size="14.00">Intelligent Application</text>
</g>
<!-- IntelligentCapability -->
<g id="node2" class="node">
<title>IntelligentCapability</title>
<polygon fill="lightblue" stroke="black" points="570.5,-380.19 441.25,-380.19 441.25,-344.19 570.5,-344.19 570.5,-380.19"/>
<polygon fill="none" stroke="black" points="574.5,-384.19 437.25,-384.19 437.25,-340.19 574.5,-340.19 574.5,-384.19"/>
<text text-anchor="middle" x="505.88" y="-356.77" font-family="Times New Roman,serif" font-size="14.00">Intelligent Capability</text>
</g>
<!-- IntelligentApplication&#45;&gt;IntelligentCapability -->
<g id="edge4" class="edge">
<title>IntelligentApplication&#45;&gt;IntelligentCapability</title>
<path fill="none" stroke="black" d="M173.52,-316.88C188.53,-319.4 204.27,-321.96 219,-324.19 288.73,-334.76 368.27,-345.2 425.72,-352.46"/>
<polygon fill="black" stroke="black" points="425.05,-355.9 435.41,-353.68 425.92,-348.96 425.05,-355.9"/>
<text text-anchor="middle" x="319.12" y="-353.64" font-family="Times New Roman,serif" font-size="14.00">has at least one</text>
</g>
<!-- TeachingMethod -->
<g id="node3" class="node">
<title>TeachingMethod</title>
<polygon fill="lightblue" stroke="black" points="898.62,-550.19 784.38,-550.19 784.38,-514.19 898.62,-514.19 898.62,-550.19"/>
<polygon fill="none" stroke="black" points="902.62,-554.19 780.38,-554.19 780.38,-510.19 902.62,-510.19 902.62,-554.19"/>
<text text-anchor="middle" x="841.5" y="-526.77" font-family="Times New Roman,serif" font-size="14.00">Teaching Method</text>
</g>
<!-- IntelligentApplication&#45;&gt;TeachingMethod -->
<g id="edge5" class="edge">
<title>IntelligentApplication&#45;&gt;TeachingMethod</title>
<path fill="none" stroke="black" d="M173.64,-318.94C183.52,-323.09 193,-328.4 201,-335.19 214.63,-346.78 205.8,-359.12 219,-371.19 350.61,-491.62 418.24,-480.02 592.5,-518.19 650.83,-530.97 718.61,-534.02 768.56,-534.13"/>
<polygon fill="black" stroke="black" points="768.39,-537.63 778.38,-534.11 768.37,-530.63 768.39,-537.63"/>
<text text-anchor="middle" x="505.88" y="-515.64" font-family="Times New Roman,serif" font-size="14.00">has at least one</text>
</g>
<!-- ComputerProgram -->
<g id="node16" class="node">
<title>ComputerProgram</title>
<g id="a_node16"><a xlink:href="https://en.wikipedia.org/wiki/Computer_program" xlink:title=" &lt;i&gt;&lt;u&gt;Computer Program&lt;/u&gt;&lt;/i&gt; ">
<polygon fill="lightyellow" stroke="black" points="573.88,-322.19 437.88,-322.19 437.88,-286.19 573.88,-286.19 573.88,-322.19"/>
<text text-anchor="start" x="445.88" y="-299.77" font-family="Times New Roman,serif" font-size="14.00"> </text>
<text text-anchor="start" x="449.62" y="-299.77" font-family="Times New Roman,serif" font-style="italic" text-decoration="underline" font-size="14.00">Computer Program</text>
<text text-anchor="start" x="562.12" y="-299.77" font-family="Times New Roman,serif" font-size="14.00"> </text>
</a>
</g>
</g>
<!-- IntelligentApplication&#45;&gt;ComputerProgram -->
<g id="edge2" class="edge">
<title>IntelligentApplication&#45;&gt;ComputerProgram</title>
<path fill="none" stroke="black" d="M173.62,-304.19C244.6,-304.19 352.72,-304.19 425.96,-304.19"/>
<polygon fill="black" stroke="black" points="425.9,-307.69 435.9,-304.19 425.9,-300.69 425.9,-307.69"/>
<text text-anchor="middle" x="319.12" y="-306.64" font-family="Times New Roman,serif" font-size="14.00">is EXACTLY a</text>
</g>
<!-- Software -->
<g id="node17" class="node">
<title>Software</title>
<g id="a_node17"><a xlink:href="https://en.wikipedia.org/wiki/Software" xlink:title=" &lt;i&gt;&lt;u&gt;Software&lt;/u&gt;&lt;/i&gt; ">
<polygon fill="lightyellow" stroke="black" points="542.75,-268.19 469,-268.19 469,-232.19 542.75,-232.19 542.75,-268.19"/>
<text text-anchor="start" x="477" y="-245.77" font-family="Times New Roman,serif" font-size="14.00"> </text>
<text text-anchor="start" x="480.75" y="-245.77" font-family="Times New Roman,serif" font-style="italic" text-decoration="underline" font-size="14.00">Software</text>
<text text-anchor="start" x="531" y="-245.77" font-family="Times New Roman,serif" font-size="14.00"> </text>
</a>
</g>
</g>
<!-- IntelligentApplication&#45;&gt;Software -->
<g id="edge1" class="edge">
<title>IntelligentApplication&#45;&gt;Software</title>
<path fill="none" stroke="black" d="M173.5,-291.54C188.51,-289.05 204.26,-286.56 219,-284.44 302.78,-272.39 400.81,-261.3 457.57,-255.17"/>
<polygon fill="black" stroke="black" points="457.63,-258.68 467.2,-254.13 456.88,-251.72 457.63,-258.68"/>
<text text-anchor="middle" x="319.12" y="-286.64" font-family="Times New Roman,serif" font-size="14.00">is implemented as</text>
</g>
<!-- Device -->
<g id="node20" class="node">
<title>Device</title>
<g id="a_node20"><a xlink:href="https://en.wikipedia.org/wiki/Device" xlink:title=" &lt;i&gt;&lt;u&gt;Device&lt;/u&gt;&lt;/i&gt; ">
<polygon fill="lightyellow" stroke="black" points="536.75,-214.19 475,-214.19 475,-178.19 536.75,-178.19 536.75,-214.19"/>
<text text-anchor="start" x="483" y="-191.77" font-family="Times New Roman,serif" font-size="14.00"> </text>
<text text-anchor="start" x="486.75" y="-191.77" font-family="Times New Roman,serif" font-style="italic" text-decoration="underline" font-size="14.00">Device</text>
<text text-anchor="start" x="525" y="-191.77" font-family="Times New Roman,serif" font-size="14.00"> </text>
</a>
</g>
</g>
<!-- IntelligentApplication&#45;&gt;Device -->
<g id="edge3" class="edge">
<title>IntelligentApplication&#45;&gt;Device</title>
<path fill="none" stroke="black" d="M134.47,-281.87C157.25,-267.51 188.78,-249.69 219,-239.44 302.88,-211 406.94,-201.22 463.52,-197.89"/>
<polygon fill="black" stroke="black" points="463.54,-201.39 473.33,-197.35 463.16,-194.4 463.54,-201.39"/>
<text text-anchor="middle" x="319.12" y="-241.64" font-family="Times New Roman,serif" font-size="14.00">can be accessed from EXACTLY a</text>
</g>
<!-- IntelligentCapability&#45;&gt;TeachingMethod -->
<g id="edge6" class="edge">
<title>IntelligentCapability&#45;&gt;TeachingMethod</title>
<path fill="none" stroke="black" d="M516.57,-384.39C529.65,-411.49 555.63,-456.5 592.5,-479.19 646.31,-512.31 671.05,-488.85 732.75,-502.44 744.58,-505.05 757.04,-508.15 769.12,-511.35"/>
<polygon fill="black" stroke="black" points="768.06,-514.69 778.63,-513.92 769.88,-507.93 768.06,-514.69"/>
<text text-anchor="middle" x="662.62" y="-504.64" font-family="Times New Roman,serif" font-size="14.00">uses one or many</text>
</g>
<!-- SoundToMath -->
<g id="node4" class="node">
<title>SoundToMath</title>
<polygon fill="lightblue" stroke="black" points="891.5,-380.19 791.5,-380.19 791.5,-344.19 891.5,-344.19 891.5,-380.19"/>
<polygon fill="none" stroke="black" points="895.5,-384.19 787.5,-384.19 787.5,-340.19 895.5,-340.19 895.5,-384.19"/>
<text text-anchor="middle" x="841.5" y="-356.77" font-family="Times New Roman,serif" font-size="14.00">Sound to Math</text>
</g>
<!-- IntelligentCapability&#45;&gt;SoundToMath -->
<g id="edge14" class="edge">
<title>IntelligentCapability&#45;&gt;SoundToMath</title>
<path fill="none" stroke="black" d="M574.79,-362.19C633.64,-362.19 718.2,-362.19 776.02,-362.19"/>
<polygon fill="black" stroke="black" points="775.7,-365.69 785.7,-362.19 775.7,-358.69 775.7,-365.69"/>
<text text-anchor="middle" x="662.62" y="-364.64" font-family="Times New Roman,serif" font-size="14.00">is parent to</text>
</g>
<!-- TextToSpeech -->
<g id="node8" class="node">
<title>TextToSpeech</title>
<polygon fill="lightblue" stroke="black" points="891.12,-256.19 791.88,-256.19 791.88,-220.19 891.12,-220.19 891.12,-256.19"/>
<polygon fill="none" stroke="black" points="895.12,-260.19 787.88,-260.19 787.88,-216.19 895.12,-216.19 895.12,-260.19"/>
<text text-anchor="middle" x="841.5" y="-232.77" font-family="Times New Roman,serif" font-size="14.00">Text to speech</text>
</g>
<!-- IntelligentCapability&#45;&gt;TextToSpeech -->
<g id="edge8" class="edge">
<title>IntelligentCapability&#45;&gt;TextToSpeech</title>
<path fill="none" stroke="black" d="M563.7,-339.7C567.55,-337.12 571.21,-334.29 574.5,-331.19 586.88,-319.54 579.05,-307.83 592.5,-297.44 645.4,-256.58 722.19,-243.31 776.27,-239.3"/>
<polygon fill="black" stroke="black" points="776.19,-242.81 785.94,-238.67 775.73,-235.82 776.19,-242.81"/>
<text text-anchor="middle" x="662.62" y="-299.64" font-family="Times New Roman,serif" font-size="14.00">is parent to</text>
</g>
<!-- Recommender -->
<g id="node13" class="node">
<title>Recommender</title>
<polygon fill="lightblue" stroke="black" points="928.25,-194.19 754.75,-194.19 754.75,-158.19 928.25,-158.19 928.25,-194.19"/>
<polygon fill="none" stroke="black" points="932.25,-198.19 750.75,-198.19 750.75,-154.19 932.25,-154.19 932.25,-198.19"/>
<text text-anchor="middle" x="841.5" y="-170.77" font-family="Times New Roman,serif" font-size="14.00">Generate Recommendations</text>
</g>
<!-- IntelligentCapability&#45;&gt;Recommender -->
<g id="edge9" class="edge">
<title>IntelligentCapability&#45;&gt;Recommender</title>
<path fill="none" stroke="black" d="M566.12,-339.81C569.23,-337.23 572.06,-334.37 574.5,-331.19 603.77,-293.01 558.91,-258.89 592.5,-224.44 630.01,-185.98 688.4,-173.28 739.1,-170.49"/>
<polygon fill="black" stroke="black" points="739.1,-173.99 748.95,-170.08 738.81,-167 739.1,-173.99"/>
<text text-anchor="middle" x="662.62" y="-226.64" font-family="Times New Roman,serif" font-size="14.00">is parent to</text>
</g>
<!-- GenerativeCapability -->
<g id="node14" class="node">
<title>GenerativeCapability</title>
<polygon fill="lightblue" stroke="black" points="909.12,-318.19 773.88,-318.19 773.88,-282.19 909.12,-282.19 909.12,-318.19"/>
<polygon fill="none" stroke="black" points="913.12,-322.19 769.88,-322.19 769.88,-278.19 913.12,-278.19 913.12,-322.19"/>
<text text-anchor="middle" x="841.5" y="-294.77" font-family="Times New Roman,serif" font-size="14.00">Generative Capability</text>
</g>
<!-- IntelligentCapability&#45;&gt;GenerativeCapability -->
<g id="edge10" class="edge">
<title>IntelligentCapability&#45;&gt;GenerativeCapability</title>
<path fill="none" stroke="black" d="M574.57,-346.2C580.62,-344.88 586.67,-343.61 592.5,-342.44 647.51,-331.42 709.75,-320.82 758.12,-313"/>
<polygon fill="black" stroke="black" points="758.67,-316.46 767.98,-311.41 757.55,-309.55 758.67,-316.46"/>
<text text-anchor="middle" x="662.62" y="-344.64" font-family="Times New Roman,serif" font-size="14.00">is parent to</text>
</g>
<!-- Intelligence -->
<g id="node21" class="node">
<title>Intelligence</title>
<g id="a_node21"><a xlink:href="https://en.wikipedia.org/wiki/Intelligence" xlink:title=" &lt;i&gt;&lt;u&gt;Intelligence&lt;/u&gt;&lt;/i&gt; ">
<polygon fill="lightyellow" stroke="black" points="886.25,-492.19 796.75,-492.19 796.75,-456.19 886.25,-456.19 886.25,-492.19"/>
<text text-anchor="start" x="804.75" y="-469.77" font-family="Times New Roman,serif" font-size="14.00"> </text>
<text text-anchor="start" x="808.5" y="-469.77" font-family="Times New Roman,serif" font-style="italic" text-decoration="underline" font-size="14.00">Intelligence</text>
<text text-anchor="start" x="874.5" y="-469.77" font-family="Times New Roman,serif" font-size="14.00"> </text>
</a>
</g>
</g>
<!-- IntelligentCapability&#45;&gt;Intelligence -->
<g id="edge19" class="edge">
<title>IntelligentCapability&#45;&gt;Intelligence</title>
<path fill="none" stroke="blue" stroke-width="2" stroke-dasharray="1,5" d="M531.7,-384.6C547.9,-398.05 570.14,-414.4 592.5,-424.19 654.68,-451.43 732.17,-464 783.82,-469.69"/>
<polygon fill="blue" stroke="blue" stroke-width="2" points="783.37,-473.16 793.68,-470.71 784.1,-466.2 783.37,-473.16"/>
<text text-anchor="middle" x="662.62" y="-464.64" font-family="Times New Roman,serif" font-size="14.00" fill="darkblue">has somekind of FUZZY</text>
</g>
<!-- ArtificialIntelligence -->
<g id="node22" class="node">
<title>ArtificialIntelligence</title>
<g id="a_node22"><a xlink:href="https://en.wikipedia.org/wiki/Artificial_intelligence" xlink:title=" &lt;i&gt;&lt;u&gt;Artificial_intelligence&lt;/u&gt;&lt;/i&gt; ">
<polygon fill="lightyellow" stroke="black" points="914.38,-438.19 768.62,-438.19 768.62,-402.19 914.38,-402.19 914.38,-438.19"/>
<text text-anchor="start" x="776.62" y="-415.77" font-family="Times New Roman,serif" font-size="14.00"> </text>
<text text-anchor="start" x="780.38" y="-415.77" font-family="Times New Roman,serif" font-style="italic" text-decoration="underline" font-size="14.00">Artificial_intelligence</text>
<text text-anchor="start" x="902.62" y="-415.77" font-family="Times New Roman,serif" font-size="14.00"> </text>
</a>
</g>
</g>
<!-- IntelligentCapability&#45;&gt;ArtificialIntelligence -->
<g id="edge20" class="edge">
<title>IntelligentCapability&#45;&gt;ArtificialIntelligence</title>
<path fill="none" stroke="blue" stroke-width="2" stroke-dasharray="1,5" d="M574.54,-378.51C580.6,-379.82 586.65,-381.06 592.5,-382.19 646.47,-392.61 707.48,-401.99 755.49,-408.83"/>
<polygon fill="blue" stroke="blue" stroke-width="2" points="754.96,-412.29 765.35,-410.22 755.94,-405.36 754.96,-412.29"/>
<text text-anchor="middle" x="662.62" y="-406.64" font-family="Times New Roman,serif" font-size="14.00" fill="darkblue">has somekind of FUZZY</text>
</g>
<!-- SpeechToText -->
<g id="node5" class="node">
<title>SpeechToText</title>
<polygon fill="lightblue" stroke="black" points="1360,-467.19 1263.75,-467.19 1263.75,-431.19 1360,-431.19 1360,-467.19"/>
<polygon fill="none" stroke="black" points="1364,-471.19 1259.75,-471.19 1259.75,-427.19 1364,-427.19 1364,-471.19"/>
<text text-anchor="middle" x="1311.88" y="-443.77" font-family="Times New Roman,serif" font-size="14.00">Speech to text</text>
</g>
<!-- SoundToMath&#45;&gt;SpeechToText -->
<g id="edge15" class="edge">
<title>SoundToMath&#45;&gt;SpeechToText</title>
<path fill="none" stroke="black" d="M895.77,-380.22C907.8,-384.39 920.49,-388.88 932.25,-393.19 940.31,-396.15 941.94,-398.04 950.25,-400.19 1052.74,-426.69 1175.53,-439.49 1248.16,-445.17"/>
<polygon fill="black" stroke="black" points="1247.63,-448.64 1257.87,-445.91 1248.16,-441.66 1247.63,-448.64"/>
<text text-anchor="middle" x="1069.88" y="-441.64" font-family="Times New Roman,serif" font-size="14.00">is parent to</text>
</g>
<!-- VoiceToBird -->
<g id="node6" class="node">
<title>VoiceToBird</title>
<polygon fill="lightblue" stroke="black" points="1357.75,-405.19 1266,-405.19 1266,-369.19 1357.75,-369.19 1357.75,-405.19"/>
<polygon fill="none" stroke="black" points="1361.75,-409.19 1262,-409.19 1262,-365.19 1361.75,-365.19 1361.75,-409.19"/>
<text text-anchor="middle" x="1311.88" y="-381.77" font-family="Times New Roman,serif" font-size="14.00">Voice to Bird</text>
</g>
<!-- SoundToMath&#45;&gt;VoiceToBird -->
<g id="edge16" class="edge">
<title>SoundToMath&#45;&gt;VoiceToBird</title>
<path fill="none" stroke="black" d="M895.77,-365.04C983.49,-369.72 1157.8,-379.02 1250.16,-383.95"/>
<polygon fill="black" stroke="black" points="1249.86,-387.44 1260.04,-384.48 1250.24,-380.45 1249.86,-387.44"/>
<text text-anchor="middle" x="1069.88" y="-382.64" font-family="Times New Roman,serif" font-size="14.00">is parent to</text>
</g>
<!-- VoiceToSong -->
<g id="node7" class="node">
<title>VoiceToSong</title>
<polygon fill="lightblue" stroke="black" points="1360.38,-591.19 1263.38,-591.19 1263.38,-555.19 1360.38,-555.19 1360.38,-591.19"/>
<polygon fill="none" stroke="black" points="1364.38,-595.19 1259.38,-595.19 1259.38,-551.19 1364.38,-551.19 1364.38,-595.19"/>
<text text-anchor="middle" x="1311.88" y="-567.77" font-family="Times New Roman,serif" font-size="14.00">Voice to Song</text>
</g>
<!-- SoundToMath&#45;&gt;VoiceToSong -->
<g id="edge17" class="edge">
<title>SoundToMath&#45;&gt;VoiceToSong</title>
<path fill="none" stroke="black" d="M895.97,-370.13C909.7,-374.7 923.15,-381.9 932.25,-393.19 974.92,-446.17 901.19,-498.07 950.25,-545.19 1029.09,-620.91 1167.44,-606.61 1247.92,-589.69"/>
<polygon fill="black" stroke="black" points="1248.38,-593.18 1257.4,-587.62 1246.89,-586.34 1248.38,-593.18"/>
<text text-anchor="middle" x="1069.88" y="-604.64" font-family="Times New Roman,serif" font-size="14.00">is parent to</text>
</g>
<!-- LanguageTranslation -->
<g id="node12" class="node">
<title>LanguageTranslation</title>
<polygon fill="lightblue" stroke="black" points="1379.5,-529.19 1244.25,-529.19 1244.25,-493.19 1379.5,-493.19 1379.5,-529.19"/>
<polygon fill="none" stroke="black" points="1383.5,-533.19 1240.25,-533.19 1240.25,-489.19 1383.5,-489.19 1383.5,-533.19"/>
<text text-anchor="middle" x="1311.88" y="-505.77" font-family="Times New Roman,serif" font-size="14.00">Language Translation</text>
</g>
<!-- SoundToMath&#45;&gt;LanguageTranslation -->
<g id="edge18" class="edge">
<title>SoundToMath&#45;&gt;LanguageTranslation</title>
<path fill="none" stroke="black" d="M895.85,-371.35C909.26,-375.95 922.56,-382.84 932.25,-393.19 953.02,-415.39 927.47,-439.06 950.25,-459.19 1026.07,-526.21 1147.96,-529.78 1228.73,-523.02"/>
<polygon fill="black" stroke="black" points="1228.69,-526.54 1238.33,-522.14 1228.06,-519.57 1228.69,-526.54"/>
<text text-anchor="middle" x="1069.88" y="-527.64" font-family="Times New Roman,serif" font-size="14.00">is parent to</text>
</g>
<!-- SpeechRecognition -->
<g id="node23" class="node">
<title>SpeechRecognition</title>
<g id="a_node23"><a xlink:href="https://en.wikipedia.org/wiki/Speech_recognition" xlink:title=" &lt;i&gt;&lt;u&gt;Speech Recognition&lt;/u&gt;&lt;/i&gt; ">
<polygon fill="lightyellow" stroke="black" points="1880.38,-421.19 1744.38,-421.19 1744.38,-385.19 1880.38,-385.19 1880.38,-421.19"/>
<text text-anchor="start" x="1752.38" y="-398.77" font-family="Times New Roman,serif" font-size="14.00"> </text>
<text text-anchor="start" x="1756.12" y="-398.77" font-family="Times New Roman,serif" font-style="italic" text-decoration="underline" font-size="14.00">Speech Recognition</text>
<text text-anchor="start" x="1868.62" y="-398.77" font-family="Times New Roman,serif" font-size="14.00"> </text>
</a>
</g>
</g>
<!-- SpeechToText&#45;&gt;SpeechRecognition -->
<g id="edge21" class="edge">
<title>SpeechToText&#45;&gt;SpeechRecognition</title>
<path fill="none" stroke="blue" stroke-width="2" stroke-dasharray="1,5" d="M1364.36,-438.64C1385.88,-434.57 1411.19,-430.24 1434.25,-427.44 1536.3,-415.06 1654.7,-408.75 1731.21,-405.72"/>
<polygon fill="blue" stroke="blue" stroke-width="2" points="1731.18,-409.22 1741.04,-405.34 1730.91,-402.23 1731.18,-409.22"/>
<text text-anchor="middle" x="1553.88" y="-429.64" font-family="Times New Roman,serif" font-size="14.00" fill="darkblue">VERY close however FUZZY connection</text>
</g>
<!-- SpeechSynthesis -->
<g id="node24" class="node">
<title>SpeechSynthesis</title>
<g id="a_node24"><a xlink:href="https://en.wikipedia.org/wiki/Speech_synthesis" xlink:title=" &lt;i&gt;&lt;u&gt;Speech Synthesis&lt;/u&gt;&lt;/i&gt; ">
<polygon fill="lightyellow" stroke="black" points="1372,-107.19 1251.75,-107.19 1251.75,-71.19 1372,-71.19 1372,-107.19"/>
<text text-anchor="start" x="1259.75" y="-84.77" font-family="Times New Roman,serif" font-size="14.00"> </text>
<text text-anchor="start" x="1263.5" y="-84.77" font-family="Times New Roman,serif" font-style="italic" text-decoration="underline" font-size="14.00">Speech Synthesis</text>
<text text-anchor="start" x="1360.25" y="-84.77" font-family="Times New Roman,serif" font-size="14.00"> </text>
</a>
</g>
</g>
<!-- TextToSpeech&#45;&gt;SpeechSynthesis -->
<g id="edge22" class="edge">
<title>TextToSpeech&#45;&gt;SpeechSynthesis</title>
<path fill="none" stroke="blue" stroke-width="2" stroke-dasharray="1,5" d="M895.36,-229.75C909.09,-225.17 922.68,-218.1 932.25,-207.19 958.51,-177.27 920.48,-145.88 950.25,-119.44 991.49,-82.83 1145.76,-82.21 1238.64,-85.43"/>
<polygon fill="blue" stroke="blue" stroke-width="2" points="1238.45,-88.93 1248.58,-85.8 1238.71,-81.93 1238.45,-88.93"/>
<text text-anchor="middle" x="1069.88" y="-122.64" font-family="Times New Roman,serif" font-size="14.00" fill="darkblue">VERY close however FUZZY connection</text>
</g>
<!-- TextGeneration -->
<g id="node9" class="node">
<title>TextGeneration</title>
<polygon fill="lightblue" stroke="black" points="1363,-281.19 1260.75,-281.19 1260.75,-245.19 1363,-245.19 1363,-281.19"/>
<polygon fill="none" stroke="black" points="1367,-285.19 1256.75,-285.19 1256.75,-241.19 1367,-241.19 1367,-285.19"/>
<text text-anchor="middle" x="1311.88" y="-257.77" font-family="Times New Roman,serif" font-size="14.00">Text generation</text>
</g>
<!-- NLG -->
<g id="node25" class="node">
<title>NLG</title>
<g id="a_node25"><a xlink:href="https://en.wikipedia.org/wiki/Natural_language_generation" xlink:title=" &lt;i&gt;&lt;u&gt;Natural Language Generation (NLG)&lt;/u&gt;&lt;/i&gt; ">
<polygon fill="lightyellow" stroke="black" points="1933.25,-282.19 1691.5,-282.19 1691.5,-246.19 1933.25,-246.19 1933.25,-282.19"/>
<text text-anchor="start" x="1699.5" y="-259.77" font-family="Times New Roman,serif" font-size="14.00"> </text>
<text text-anchor="start" x="1703.25" y="-259.77" font-family="Times New Roman,serif" font-style="italic" text-decoration="underline" font-size="14.00">Natural Language Generation (NLG)</text>
<text text-anchor="start" x="1921.5" y="-259.77" font-family="Times New Roman,serif" font-size="14.00"> </text>
</a>
</g>
</g>
<!-- TextGeneration&#45;&gt;NLG -->
<g id="edge23" class="edge">
<title>TextGeneration&#45;&gt;NLG</title>
<path fill="none" stroke="blue" stroke-width="2" stroke-dasharray="1,5" d="M1367.17,-263.3C1441.22,-263.45 1576.31,-263.72 1678.14,-263.93"/>
<polygon fill="blue" stroke="blue" stroke-width="2" points="1677.98,-267.43 1687.99,-263.95 1677.99,-260.43 1677.98,-267.43"/>
<text text-anchor="middle" x="1553.88" y="-265.64" font-family="Times New Roman,serif" font-size="14.00" fill="darkblue">VERY close however FUZZY connection</text>
</g>
<!-- LLM -->
<g id="node27" class="node">
<title>LLM</title>
<g id="a_node27"><a xlink:href="https://en.wikipedia.org/wiki/Large_language_model" xlink:title=" &lt;i&gt;&lt;u&gt;Large Language Model (LLM)&lt;/u&gt;&lt;/i&gt; ">
<polygon fill="lightyellow" stroke="black" points="1913.75,-475.19 1711,-475.19 1711,-439.19 1913.75,-439.19 1913.75,-475.19"/>
<text text-anchor="start" x="1719" y="-452.77" font-family="Times New Roman,serif" font-size="14.00"> </text>
<text text-anchor="start" x="1722.75" y="-452.77" font-family="Times New Roman,serif" font-style="italic" text-decoration="underline" font-size="14.00">Large Language Model (LLM)</text>
<text text-anchor="start" x="1902" y="-452.77" font-family="Times New Roman,serif" font-size="14.00"> </text>
</a>
</g>
</g>
<!-- TextGeneration&#45;&gt;LLM -->
<g id="edge24" class="edge">
<title>TextGeneration&#45;&gt;LLM</title>
<path fill="none" stroke="blue" stroke-width="2" stroke-dasharray="1,5" d="M1367.25,-278.84C1383.11,-283.58 1400.43,-288.93 1416.25,-294.19 1531.79,-332.64 1585.03,-304.78 1673.5,-388.44 1688.18,-402.33 1675.95,-417.29 1691.5,-430.19 1694.05,-432.31 1696.73,-434.27 1699.52,-436.08"/>
<polygon fill="blue" stroke="blue" stroke-width="2" points="1697.67,-439.06 1708.11,-440.89 1701.09,-432.95 1697.67,-439.06"/>
<text text-anchor="middle" x="1553.88" y="-390.64" font-family="Times New Roman,serif" font-size="14.00" fill="darkblue">has FUZZY connection</text>
</g>
<!-- GenAI -->
<g id="node28" class="node">
<title>GenAI</title>
<g id="a_node28"><a xlink:href="https://en.wikipedia.org/wiki/Generative_artificial_intelligence" xlink:title=" &lt;i&gt;&lt;u&gt;Generative Artificial Intelligence&lt;/u&gt;&lt;/i&gt; ">
<polygon fill="lightyellow" stroke="black" points="1916.75,-224.19 1708,-224.19 1708,-188.19 1916.75,-188.19 1916.75,-224.19"/>
<text text-anchor="start" x="1716" y="-201.77" font-family="Times New Roman,serif" font-size="14.00"> </text>
<text text-anchor="start" x="1719.75" y="-201.77" font-family="Times New Roman,serif" font-style="italic" text-decoration="underline" font-size="14.00">Generative Artificial Intelligence</text>
<text text-anchor="start" x="1905" y="-201.77" font-family="Times New Roman,serif" font-size="14.00"> </text>
</a>
</g>
</g>
<!-- TextGeneration&#45;&gt;GenAI -->
<g id="edge25" class="edge">
<title>TextGeneration&#45;&gt;GenAI</title>
<path fill="none" stroke="blue" stroke-width="2" stroke-dasharray="1,5" d="M1367.45,-253.56C1388.31,-250.08 1412.34,-246.3 1434.25,-243.44 1521.36,-232.07 1620.2,-222.42 1694.83,-215.8"/>
<polygon fill="blue" stroke="blue" stroke-width="2" points="1694.86,-219.31 1704.51,-214.95 1694.25,-212.34 1694.86,-219.31"/>
<text text-anchor="middle" x="1553.88" y="-245.64" font-family="Times New Roman,serif" font-size="14.00" fill="darkblue">has a FUZZY connection</text>
</g>
<!-- ImageGeneration -->
<g id="node10" class="node">
<title>ImageGeneration</title>
<polygon fill="lightblue" stroke="black" points="1367.12,-165.19 1256.62,-165.19 1256.62,-129.19 1367.12,-129.19 1367.12,-165.19"/>
<polygon fill="none" stroke="black" points="1371.12,-169.19 1252.62,-169.19 1252.62,-125.19 1371.12,-125.19 1371.12,-169.19"/>
<text text-anchor="middle" x="1311.88" y="-141.77" font-family="Times New Roman,serif" font-size="14.00">Image generation</text>
</g>
<!-- TextToImageModel -->
<g id="node26" class="node">
<title>TextToImageModel</title>
<g id="a_node26"><a xlink:href="https://en.wikipedia.org/wiki/Text-to-image_model" xlink:title=" &lt;i&gt;&lt;u&gt;Text to Image Model&lt;/u&gt;&lt;/i&gt; ">
<polygon fill="lightyellow" stroke="black" points="1883,-165.19 1741.75,-165.19 1741.75,-129.19 1883,-129.19 1883,-165.19"/>
<text text-anchor="start" x="1749.75" y="-142.77" font-family="Times New Roman,serif" font-size="14.00"> </text>
<text text-anchor="start" x="1753.5" y="-142.77" font-family="Times New Roman,serif" font-style="italic" text-decoration="underline" font-size="14.00">Text to Image Model</text>
<text text-anchor="start" x="1871.25" y="-142.77" font-family="Times New Roman,serif" font-size="14.00"> </text>
</a>
</g>
</g>
<!-- ImageGeneration&#45;&gt;TextToImageModel -->
<g id="edge26" class="edge">
<title>ImageGeneration&#45;&gt;TextToImageModel</title>
<path fill="none" stroke="blue" stroke-width="2" stroke-dasharray="1,5" d="M1371.53,-147.19C1459.92,-147.19 1627.64,-147.19 1728.49,-147.19"/>
<polygon fill="blue" stroke="blue" stroke-width="2" points="1728.33,-150.69 1738.33,-147.19 1728.33,-143.69 1728.33,-150.69"/>
<text text-anchor="middle" x="1553.88" y="-149.64" font-family="Times New Roman,serif" font-size="14.00" fill="darkblue">QUITE close however FUZZY connection</text>
</g>
<!-- ImageGeneration&#45;&gt;GenAI -->
<g id="edge28" class="edge">
<title>ImageGeneration&#45;&gt;GenAI</title>
<path fill="none" stroke="blue" stroke-width="2" stroke-dasharray="1,5" d="M1371.48,-155.74C1391.39,-158.56 1413.77,-161.62 1434.25,-164.19 1521.53,-175.16 1620.36,-186.12 1694.94,-194.08"/>
<polygon fill="blue" stroke="blue" stroke-width="2" points="1694.31,-197.54 1704.63,-195.12 1695.05,-190.58 1694.31,-197.54"/>
<text text-anchor="middle" x="1553.88" y="-193.64" font-family="Times New Roman,serif" font-size="14.00" fill="darkblue">has a FUZZY connection</text>
</g>
<!-- VideoGeneration -->
<g id="node11" class="node">
<title>VideoGeneration</title>
<polygon fill="lightblue" stroke="black" points="1367.12,-343.19 1256.62,-343.19 1256.62,-307.19 1367.12,-307.19 1367.12,-343.19"/>
<polygon fill="none" stroke="black" points="1371.12,-347.19 1252.62,-347.19 1252.62,-303.19 1371.12,-303.19 1371.12,-347.19"/>
<text text-anchor="middle" x="1311.88" y="-319.77" font-family="Times New Roman,serif" font-size="14.00">Video generation</text>
</g>
<!-- LanguageTranslation&#45;&gt;LLM -->
<g id="edge29" class="edge">
<title>LanguageTranslation&#45;&gt;LLM</title>
<path fill="none" stroke="blue" stroke-width="2" stroke-dasharray="1,5" d="M1383.99,-498.76C1400.46,-496.12 1417.94,-493.51 1434.25,-491.44 1522.57,-480.26 1622.98,-471.33 1697.97,-465.39"/>
<polygon fill="blue" stroke="blue" stroke-width="2" points="1698.01,-468.9 1707.7,-464.63 1697.46,-461.92 1698.01,-468.9"/>
<text text-anchor="middle" x="1553.88" y="-493.64" font-family="Times New Roman,serif" font-size="14.00" fill="darkblue">has FUZZY connection</text>
</g>
<!-- Translation -->
<g id="node29" class="node">
<title>Translation</title>
<g id="a_node29"><a xlink:href="https://en.wikipedia.org/wiki/Translation" xlink:title=" &lt;i&gt;&lt;u&gt;Translation&lt;/u&gt;&lt;/i&gt; ">
<polygon fill="lightyellow" stroke="black" points="1857.5,-583.19 1767.25,-583.19 1767.25,-547.19 1857.5,-547.19 1857.5,-583.19"/>
<text text-anchor="start" x="1775.25" y="-560.77" font-family="Times New Roman,serif" font-size="14.00"> </text>
<text text-anchor="start" x="1779" y="-560.77" font-family="Times New Roman,serif" font-style="italic" text-decoration="underline" font-size="14.00">Translation</text>
<text text-anchor="start" x="1845.75" y="-560.77" font-family="Times New Roman,serif" font-size="14.00"> </text>
</a>
</g>
</g>
<!-- LanguageTranslation&#45;&gt;Translation -->
<g id="edge30" class="edge">
<title>LanguageTranslation&#45;&gt;Translation</title>
<path fill="none" stroke="blue" stroke-width="2" stroke-dasharray="1,5" d="M1383.99,-523.81C1400.46,-526.48 1417.94,-529.12 1434.25,-531.19 1547.29,-545.58 1680.16,-556.07 1754.17,-561.35"/>
<polygon fill="blue" stroke="blue" stroke-width="2" points="1753.61,-564.82 1763.83,-562.03 1754.1,-557.83 1753.61,-564.82"/>
<text text-anchor="middle" x="1553.88" y="-556.64" font-family="Times New Roman,serif" font-size="14.00" fill="darkblue">has FUZZY connection</text>
</g>
<!-- MachineTranslation -->
<g id="node30" class="node">
<title>MachineTranslation</title>
<g id="a_node30"><a xlink:href="https://en.wikipedia.org/wiki/Machine_translation" xlink:title=" &lt;i&gt;&lt;u&gt;Machine Translation&lt;/u&gt;&lt;/i&gt; ">
<polygon fill="lightyellow" stroke="black" points="1884.5,-529.19 1740.25,-529.19 1740.25,-493.19 1884.5,-493.19 1884.5,-529.19"/>
<text text-anchor="start" x="1748.25" y="-506.77" font-family="Times New Roman,serif" font-size="14.00"> </text>
<text text-anchor="start" x="1752" y="-506.77" font-family="Times New Roman,serif" font-style="italic" text-decoration="underline" font-size="14.00">Machine Translation</text>
<text text-anchor="start" x="1872.75" y="-506.77" font-family="Times New Roman,serif" font-size="14.00"> </text>
</a>
</g>
</g>
<!-- LanguageTranslation&#45;&gt;MachineTranslation -->
<g id="edge31" class="edge">
<title>LanguageTranslation&#45;&gt;MachineTranslation</title>
<path fill="none" stroke="blue" stroke-width="2" stroke-dasharray="1,5" d="M1383.77,-511.19C1474.23,-511.19 1630.51,-511.19 1727,-511.19"/>
<polygon fill="blue" stroke="blue" stroke-width="2" points="1726.89,-514.69 1736.89,-511.19 1726.89,-507.69 1726.89,-514.69"/>
<text text-anchor="middle" x="1553.88" y="-513.64" font-family="Times New Roman,serif" font-size="14.00" fill="darkblue">CLOSE but FUZZY connection</text>
</g>
<!-- RecommenderSystem -->
<g id="node31" class="node">
<title>RecommenderSystem</title>
<g id="a_node31"><a xlink:href="https://en.wikipedia.org/wiki/Recommender_system" xlink:title=" &lt;i&gt;&lt;u&gt;Recommender System&lt;/u&gt;&lt;/i&gt; ">
<polygon fill="lightyellow" stroke="black" points="1385.5,-53.19 1238.25,-53.19 1238.25,-17.19 1385.5,-17.19 1385.5,-53.19"/>
<text text-anchor="start" x="1246.25" y="-30.77" font-family="Times New Roman,serif" font-size="14.00"> </text>
<text text-anchor="start" x="1250" y="-30.77" font-family="Times New Roman,serif" font-style="italic" text-decoration="underline" font-size="14.00">Recommender System</text>
<text text-anchor="start" x="1373.75" y="-30.77" font-family="Times New Roman,serif" font-size="14.00"> </text>
</a>
</g>
</g>
<!-- Recommender&#45;&gt;RecommenderSystem -->
<g id="edge32" class="edge">
<title>Recommender&#45;&gt;RecommenderSystem</title>
<path fill="none" stroke="blue" stroke-width="2" stroke-dasharray="1,5" d="M922.86,-153.93C926.28,-151.33 929.44,-148.43 932.25,-145.19 960.03,-113.13 918.16,-79.2 950.25,-51.44 1027.98,15.78 1154.09,3.55 1234.71,-13.92"/>
<polygon fill="blue" stroke="blue" stroke-width="2" points="1233.77,-17.3 1244.3,-16.09 1235.32,-10.47 1233.77,-17.3"/>
<text text-anchor="middle" x="1069.88" y="-54.64" font-family="Times New Roman,serif" font-size="14.00" fill="darkblue">CLOSE but FUZZY connection</text>
</g>
<!-- GenerativeCapability&#45;&gt;TextGeneration -->
<g id="edge11" class="edge">
<title>GenerativeCapability&#45;&gt;TextGeneration</title>
<path fill="none" stroke="black" d="M913.43,-290.5C925.69,-289.01 938.33,-287.59 950.25,-286.44 1053.1,-276.57 1172.87,-269.78 1245.22,-266.19"/>
<polygon fill="black" stroke="black" points="1245.09,-269.7 1254.9,-265.72 1244.74,-262.71 1245.09,-269.7"/>
<text text-anchor="middle" x="1069.88" y="-288.64" font-family="Times New Roman,serif" font-size="14.00">is parent to</text>
</g>
<!-- GenerativeCapability&#45;&gt;ImageGeneration -->
<g id="edge12" class="edge">
<title>GenerativeCapability&#45;&gt;ImageGeneration</title>
<path fill="none" stroke="black" d="M913.21,-284.09C920.36,-280.16 926.93,-275.27 932.25,-269.19 958.76,-238.91 920.29,-207.32 950.25,-180.44 991.69,-143.26 1148.4,-141.61 1241.05,-144.13"/>
<polygon fill="black" stroke="black" points="1240.69,-147.62 1250.79,-144.42 1240.89,-140.62 1240.69,-147.62"/>
<text text-anchor="middle" x="1069.88" y="-183.64" font-family="Times New Roman,serif" font-size="14.00">is parent to</text>
</g>
<!-- GenerativeCapability&#45;&gt;VideoGeneration -->
<g id="edge13" class="edge">
<title>GenerativeCapability&#45;&gt;VideoGeneration</title>
<path fill="none" stroke="black" d="M913.38,-303.98C1001.98,-308.71 1152.67,-316.75 1240.86,-321.46"/>
<polygon fill="black" stroke="black" points="1240.67,-324.95 1250.84,-321.99 1241.04,-317.96 1240.67,-324.95"/>
<text text-anchor="middle" x="1069.88" y="-320.64" font-family="Times New Roman,serif" font-size="14.00">is parent to</text>
</g>
<!-- GenerativeArtificialIntelligence -->
<g id="node32" class="node">
<title>GenerativeArtificialIntelligence</title>
<g id="a_node32"><a xlink:href="https://en.wikipedia.org/wiki/Generative_artificial_intelligence" xlink:title=" &lt;i&gt;&lt;u&gt;Generative Artificial Intelligence&lt;/u&gt;&lt;/i&gt; ">
<polygon fill="lightyellow" stroke="black" points="1416.25,-223.19 1207.5,-223.19 1207.5,-187.19 1416.25,-187.19 1416.25,-223.19"/>
<text text-anchor="start" x="1215.5" y="-200.77" font-family="Times New Roman,serif" font-size="14.00"> </text>
<text text-anchor="start" x="1219.25" y="-200.77" font-family="Times New Roman,serif" font-style="italic" text-decoration="underline" font-size="14.00">Generative Artificial Intelligence</text>
<text text-anchor="start" x="1404.5" y="-200.77" font-family="Times New Roman,serif" font-size="14.00"> </text>
</a>
</g>
</g>
<!-- GenerativeCapability&#45;&gt;GenerativeArtificialIntelligence -->
<g id="edge27" class="edge">
<title>GenerativeCapability&#45;&gt;GenerativeArtificialIntelligence</title>
<path fill="none" stroke="blue" stroke-width="2" stroke-dasharray="1,5" d="M913.21,-279.62C919.87,-276.55 926.33,-273.09 932.25,-269.19 942.17,-262.66 939.7,-254.89 950.25,-249.44 1025.47,-210.58 1120.96,-200.3 1194.78,-199.32"/>
<polygon fill="blue" stroke="blue" stroke-width="2" points="1194.36,-202.83 1204.34,-199.26 1194.32,-195.83 1194.36,-202.83"/>
<text text-anchor="middle" x="1069.88" y="-251.64" font-family="Times New Roman,serif" font-size="14.00" fill="darkblue">QUITE close however FUZZY connection</text>
</g>
<!-- This Paper -->
<g id="node15" class="node">
<title>This Paper</title>
<polygon fill="lightblue" stroke="black" points="197,-384.19 4,-384.19 4,-348.19 197,-348.19 197,-384.19"/>
<polygon fill="none" stroke="black" points="201,-388.19 0,-388.19 0,-344.19 201,-344.19 201,-388.19"/>
<text text-anchor="start" x="12" y="-361.77" font-family="Times New Roman,serif" font-size="14.00"> </text>
<text text-anchor="start" x="15.75" y="-361.77" font-family="Times New Roman,serif" font-style="italic" text-decoration="underline" font-size="14.00">Concept defined in this paper</text>
<text text-anchor="start" x="185.25" y="-361.77" font-family="Times New Roman,serif" font-size="14.00"> </text>
</g>
<!-- SoftwareFeature -->
<g id="node18" class="node">
<title>SoftwareFeature</title>
<g id="a_node18"><a xlink:href="https://en.wikipedia.org/wiki/Software_feature" xlink:title=" &lt;i&gt;&lt;u&gt;Software Feature&lt;/u&gt;&lt;/i&gt; ">
<polygon fill="lightyellow" stroke="black" points="902.75,-136.19 780.25,-136.19 780.25,-100.19 902.75,-100.19 902.75,-136.19"/>
<text text-anchor="start" x="788.25" y="-113.77" font-family="Times New Roman,serif" font-size="14.00"> </text>
<text text-anchor="start" x="792" y="-113.77" font-family="Times New Roman,serif" font-style="italic" text-decoration="underline" font-size="14.00">Software Feature</text>
<text text-anchor="start" x="891" y="-113.77" font-family="Times New Roman,serif" font-size="14.00"> </text>
</a>
</g>
</g>
<!-- Software&#45;&gt;SoftwareFeature -->
<g id="edge7" class="edge">
<title>Software&#45;&gt;SoftwareFeature</title>
<path fill="none" stroke="black" d="M543.11,-242.75C554.6,-238.73 566.4,-232.57 574.5,-223.19 597.11,-197 566.66,-170.45 592.5,-147.44 639.73,-105.39 713.66,-101.76 768.53,-106.43"/>
<polygon fill="black" stroke="black" points="768.13,-109.91 778.42,-107.39 768.81,-102.94 768.13,-109.91"/>
<text text-anchor="middle" x="662.62" y="-150.64" font-family="Times New Roman,serif" font-size="14.00">has one or many</text>
</g>
<!-- Wikipedia -->
<g id="node19" class="node">
<title>Wikipedia</title>
<g id="a_node19"><a xlink:href="https://en.wikipedia.org/" xlink:title=" &lt;i&gt;&lt;u&gt;Concept Defined in Wikipedia&lt;/u&gt;&lt;/i&gt; ">
<polygon fill="lightyellow" stroke="black" points="198.5,-442.19 2.5,-442.19 2.5,-406.19 198.5,-406.19 198.5,-442.19"/>
<text text-anchor="start" x="10.5" y="-419.77" font-family="Times New Roman,serif" font-size="14.00"> </text>
<text text-anchor="start" x="14.25" y="-419.77" font-family="Times New Roman,serif" font-style="italic" text-decoration="underline" font-size="14.00">Concept Defined in Wikipedia</text>
<text text-anchor="start" x="186.75" y="-419.77" font-family="Times New Roman,serif" font-size="14.00"> </text>
</a>
</g>
</g>
</g>
</svg>
