<?xml version="1.0" encoding="UTF-8" standalone="no"?>
<!DOCTYPE svg PUBLIC "-//W3C//DTD SVG 1.1//EN"
 "http://www.w3.org/Graphics/SVG/1.1/DTD/svg11.dtd">
<!-- Generated by graphviz version 9.0.0 (20230911.1827)
 -->
<!-- Title: Intelligent Application Pages: 1 -->
<svg width="1319pt" height="1394pt"
 viewBox="0.00 0.00 1319.22 1394.24" xmlns="http://www.w3.org/2000/svg" xmlns:xlink="http://www.w3.org/1999/xlink">
<g id="graph0" class="graph" transform="scale(1 1) rotate(0) translate(4 1390.24)">
<title>Intelligent Application</title>
<polygon fill="white" stroke="none" points="-4,4 -4,-1390.24 1315.22,-1390.24 1315.22,4 -4,4"/>
<!-- Wikipedia -->
<g id="node1" class="node">
<title>Wikipedia</title>
<g id="a_node1"><a xlink:href="https://en.wikipedia.org/" xlink:title=" &lt;i&gt;&lt;u&gt;Concept Defined in Wikipedia&lt;/u&gt;&lt;/i&gt; ">
<polygon fill="lightyellow" stroke="black" points="198.5,-476.49 2.5,-476.49 2.5,-440.49 198.5,-440.49 198.5,-476.49"/>
<text text-anchor="start" x="10.5" y="-454.06" font-family="Times New Roman,serif" font-size="14.00"> </text>
<text text-anchor="start" x="14.25" y="-454.06" font-family="Times New Roman,serif" font-style="italic" text-decoration="underline" font-size="14.00">Concept Defined in Wikipedia</text>
<text text-anchor="start" x="186.75" y="-454.06" font-family="Times New Roman,serif" font-size="14.00"> </text>
</a>
</g>
</g>
<!-- Feature -->
<g id="node2" class="node">
<title>Feature</title>
<ellipse fill="lightblue" stroke="black" cx="100.5" cy="-512.49" rx="83" ry="18"/>
<text text-anchor="start" x="46.12" y="-508.06" font-family="Times New Roman,serif" font-size="14.00"> </text>
<text text-anchor="start" x="49.88" y="-508.06" font-family="Times New Roman,serif" font-style="italic" font-size="14.00">Ellipse = Feature</text>
<text text-anchor="start" x="151.12" y="-508.06" font-family="Times New Roman,serif" font-size="14.00"> </text>
</g>
<!-- This Paper -->
<g id="node3" class="node">
<title>This Paper</title>
<polygon fill="lightblue" stroke="black" points="197,-588.49 4,-588.49 4,-552.49 197,-552.49 197,-588.49"/>
<polygon fill="none" stroke="black" points="201,-592.49 0,-592.49 0,-548.49 201,-548.49 201,-592.49"/>
<text text-anchor="start" x="12" y="-566.06" font-family="Times New Roman,serif" font-size="14.00"> </text>
<text text-anchor="start" x="15.75" y="-566.06" font-family="Times New Roman,serif" font-style="italic" font-size="14.00">Concept defined in this paper</text>
<text text-anchor="start" x="185.25" y="-566.06" font-family="Times New Roman,serif" font-size="14.00"> </text>
</g>
<!-- IntelligentApplication -->
<g id="node4" class="node">
<title>IntelligentApplication</title>
<polygon fill="lightblue" stroke="black" points="169.25,-650.49 31.75,-650.49 31.75,-614.49 169.25,-614.49 169.25,-650.49"/>
<polygon fill="none" stroke="black" points="173.25,-654.49 27.75,-654.49 27.75,-610.49 173.25,-610.49 173.25,-654.49"/>
<text text-anchor="middle" x="100.5" y="-627.06" font-family="Times New Roman,serif" font-size="14.00">Intelligent Application</text>
</g>
<!-- IntelligentCapability -->
<g id="node5" class="node">
<title>IntelligentCapability</title>
<polygon fill="lightblue" stroke="black" points="595.86,-1370.49 466.61,-1370.49 466.61,-1334.49 595.86,-1334.49 595.86,-1370.49"/>
<polygon fill="none" stroke="black" points="599.86,-1374.49 462.61,-1374.49 462.61,-1330.49 599.86,-1330.49 599.86,-1374.49"/>
<text text-anchor="middle" x="531.24" y="-1347.06" font-family="Times New Roman,serif" font-size="14.00">Intelligent Capability</text>
</g>
<!-- IntelligentApplication&#45;&gt;IntelligentCapability -->
<g id="edge19" class="edge">
<title>IntelligentApplication&#45;&gt;IntelligentCapability</title>
<path fill="none" stroke="black" d="M173.65,-643.07C184.29,-647.7 194.01,-654.26 201,-663.49 244.43,-720.81 170.92,-1257 219,-1310.49 275.92,-1373.8 379.19,-1375.51 451.1,-1367.2"/>
<polygon fill="black" stroke="black" points="451.37,-1370.69 460.86,-1365.98 450.5,-1363.75 451.37,-1370.69"/>
<text text-anchor="middle" x="319.12" y="-1372.94" font-family="Times New Roman,serif" font-size="14.00">has at least one</text>
</g>
<!-- TeachingMethod -->
<g id="node6" class="node">
<title>TeachingMethod</title>
<polygon fill="lightblue" stroke="black" points="945.35,-1361.49 831.1,-1361.49 831.1,-1325.49 945.35,-1325.49 945.35,-1361.49"/>
<polygon fill="none" stroke="black" points="949.35,-1365.49 827.1,-1365.49 827.1,-1321.49 949.35,-1321.49 949.35,-1365.49"/>
<text text-anchor="middle" x="888.22" y="-1338.06" font-family="Times New Roman,serif" font-size="14.00">Teaching Method</text>
</g>
<!-- IntelligentApplication&#45;&gt;TeachingMethod -->
<g id="edge20" class="edge">
<title>IntelligentApplication&#45;&gt;TeachingMethod</title>
<path fill="none" stroke="black" d="M173.61,-643.1C184.25,-647.74 193.98,-654.28 201,-663.49 237.12,-710.88 180.79,-1153.76 219,-1199.49 257.42,-1245.47 651.2,-1308.54 815.66,-1333.1"/>
<polygon fill="black" stroke="black" points="814.72,-1336.5 825.13,-1334.51 815.75,-1329.58 814.72,-1336.5"/>
<text text-anchor="middle" x="531.24" y="-1304.94" font-family="Times New Roman,serif" font-size="14.00">has at least one</text>
</g>
<!-- UserInterface -->
<g id="node7" class="node">
<title>UserInterface</title>
<polygon fill="lightblue" stroke="black" points="578.61,-1192.49 483.86,-1192.49 483.86,-1156.49 578.61,-1156.49 578.61,-1192.49"/>
<polygon fill="none" stroke="black" points="582.61,-1196.49 479.86,-1196.49 479.86,-1152.49 582.61,-1152.49 582.61,-1196.49"/>
<text text-anchor="middle" x="531.24" y="-1169.06" font-family="Times New Roman,serif" font-size="14.00">User Interface</text>
</g>
<!-- IntelligentApplication&#45;&gt;UserInterface -->
<g id="edge3" class="edge">
<title>IntelligentApplication&#45;&gt;UserInterface</title>
<path fill="none" stroke="black" d="M173.55,-643.15C184.2,-647.77 193.95,-654.3 201,-663.49 230.8,-702.3 187.72,-1065.87 219,-1103.49 279.13,-1175.79 396.27,-1183.44 468.44,-1180.38"/>
<polygon fill="black" stroke="black" points="468.3,-1183.89 478.11,-1179.88 467.94,-1176.9 468.3,-1183.89"/>
<text text-anchor="middle" x="319.12" y="-1181.94" font-family="Times New Roman,serif" font-size="14.00">way to interact with</text>
</g>
<!-- Math -->
<g id="node9" class="node">
<title>Math</title>
<polygon fill="lightblue" stroke="black" points="558.24,-1084.49 504.24,-1084.49 504.24,-1048.49 558.24,-1048.49 558.24,-1084.49"/>
<polygon fill="none" stroke="black" points="562.24,-1088.49 500.24,-1088.49 500.24,-1044.49 562.24,-1044.49 562.24,-1088.49"/>
<text text-anchor="middle" x="531.24" y="-1061.06" font-family="Times New Roman,serif" font-size="14.00">Math</text>
</g>
<!-- IntelligentApplication&#45;&gt;Math -->
<g id="edge1" class="edge">
<title>IntelligentApplication&#45;&gt;Math</title>
<path fill="none" stroke="black" d="M173.48,-643.2C184.14,-647.82 193.91,-654.34 201,-663.49 225.54,-695.14 191.94,-993.96 219,-1023.49 287.62,-1098.38 421.11,-1087.07 488.77,-1075.34"/>
<polygon fill="black" stroke="black" points="489.13,-1078.83 498.34,-1073.59 487.87,-1071.94 489.13,-1078.83"/>
<text text-anchor="middle" x="319.12" y="-1085.94" font-family="Times New Roman,serif" font-size="14.00">models intelligence with</text>
</g>
<!-- Philosophy -->
<g id="node10" class="node">
<title>Philosophy</title>
<polygon fill="lightblue" stroke="black" points="570.74,-1022.49 491.74,-1022.49 491.74,-986.49 570.74,-986.49 570.74,-1022.49"/>
<polygon fill="none" stroke="black" points="574.74,-1026.49 487.74,-1026.49 487.74,-982.49 574.74,-982.49 574.74,-1026.49"/>
<text text-anchor="middle" x="531.24" y="-999.06" font-family="Times New Roman,serif" font-size="14.00">Philosophy</text>
</g>
<!-- IntelligentApplication&#45;&gt;Philosophy -->
<g id="edge2" class="edge">
<title>IntelligentApplication&#45;&gt;Philosophy</title>
<path fill="none" stroke="black" d="M173.41,-643.26C184.07,-647.88 193.86,-654.37 201,-663.49 242.18,-716.07 173.48,-914.62 219,-963.49 252.85,-999.84 396.3,-1005.21 476.1,-1005.29"/>
<polygon fill="black" stroke="black" points="475.89,-1008.79 485.88,-1005.27 475.87,-1001.79 475.89,-1008.79"/>
<text text-anchor="middle" x="319.12" y="-1005.94" font-family="Times New Roman,serif" font-size="14.00">models world using</text>
</g>
<!-- SoundToMath -->
<g id="node11" class="node">
<title>SoundToMath</title>
<polygon fill="lightblue" stroke="black" points="581.24,-960.49 481.24,-960.49 481.24,-924.49 581.24,-924.49 581.24,-960.49"/>
<polygon fill="none" stroke="black" points="585.24,-964.49 477.24,-964.49 477.24,-920.49 585.24,-920.49 585.24,-964.49"/>
<text text-anchor="middle" x="531.24" y="-937.06" font-family="Times New Roman,serif" font-size="14.00">Sound to Math</text>
</g>
<!-- IntelligentApplication&#45;&gt;SoundToMath -->
<g id="edge34" class="edge">
<title>IntelligentApplication&#45;&gt;SoundToMath</title>
<path fill="none" stroke="black" d="M173.3,-643.35C183.97,-647.95 193.8,-654.42 201,-663.49 234.55,-705.71 181.72,-866.53 219,-905.49 251.83,-939.8 384.57,-944.52 465.72,-944.06"/>
<polygon fill="black" stroke="black" points="465.33,-947.56 475.3,-943.97 465.27,-940.56 465.33,-947.56"/>
<text text-anchor="middle" x="319.12" y="-945.94" font-family="Times New Roman,serif" font-size="14.00">is parent to</text>
</g>
<!-- TextToSpeech -->
<g id="node12" class="node">
<title>TextToSpeech</title>
<polygon fill="lightblue" stroke="black" points="580.86,-898.49 481.61,-898.49 481.61,-862.49 580.86,-862.49 580.86,-898.49"/>
<polygon fill="none" stroke="black" points="584.86,-902.49 477.61,-902.49 477.61,-858.49 584.86,-858.49 584.86,-902.49"/>
<text text-anchor="middle" x="531.24" y="-875.06" font-family="Times New Roman,serif" font-size="14.00">Text to speech</text>
</g>
<!-- IntelligentApplication&#45;&gt;TextToSpeech -->
<g id="edge23" class="edge">
<title>IntelligentApplication&#45;&gt;TextToSpeech</title>
<path fill="none" stroke="black" d="M173.65,-643.68C184.15,-648.26 193.82,-654.63 201,-663.49 227.98,-696.78 188.5,-825.39 219,-855.49 252.72,-888.76 385.47,-888.25 466.31,-884.58"/>
<polygon fill="black" stroke="black" points="466.03,-888.1 475.85,-884.12 465.69,-881.11 466.03,-888.1"/>
<text text-anchor="middle" x="319.12" y="-887.94" font-family="Times New Roman,serif" font-size="14.00">has ability to do</text>
</g>
<!-- TextGeneration -->
<g id="node13" class="node">
<title>TextGeneration</title>
<polygon fill="lightblue" stroke="black" points="582.36,-836.49 480.11,-836.49 480.11,-800.49 582.36,-800.49 582.36,-836.49"/>
<polygon fill="none" stroke="black" points="586.36,-840.49 476.11,-840.49 476.11,-796.49 586.36,-796.49 586.36,-840.49"/>
<text text-anchor="middle" x="531.24" y="-813.06" font-family="Times New Roman,serif" font-size="14.00">Text generation</text>
</g>
<!-- IntelligentApplication&#45;&gt;TextGeneration -->
<g id="edge29" class="edge">
<title>IntelligentApplication&#45;&gt;TextGeneration</title>
<path fill="none" stroke="black" d="M173.7,-644.27C184.06,-648.79 193.68,-654.99 201,-663.49 235.06,-703.01 181.57,-743.14 219,-779.49 283.39,-842.02 393.88,-840.2 464.42,-830.97"/>
<polygon fill="black" stroke="black" points="464.9,-834.43 474.32,-829.58 463.93,-827.5 464.9,-834.43"/>
<text text-anchor="middle" x="319.12" y="-837.94" font-family="Times New Roman,serif" font-size="14.00">has ability to do</text>
</g>
<!-- ImageGeneration -->
<g id="node14" class="node">
<title>ImageGeneration</title>
<polygon fill="lightblue" stroke="black" points="586.49,-774.49 475.99,-774.49 475.99,-738.49 586.49,-738.49 586.49,-774.49"/>
<polygon fill="none" stroke="black" points="590.49,-778.49 471.99,-778.49 471.99,-734.49 590.49,-734.49 590.49,-778.49"/>
<text text-anchor="middle" x="531.24" y="-751.06" font-family="Times New Roman,serif" font-size="14.00">Image generation</text>
</g>
<!-- IntelligentApplication&#45;&gt;ImageGeneration -->
<g id="edge30" class="edge">
<title>IntelligentApplication&#45;&gt;ImageGeneration</title>
<path fill="none" stroke="black" d="M173.64,-647.24C183.52,-651.38 193,-656.69 201,-663.49 214.63,-675.07 204.7,-688.75 219,-699.49 288.86,-751.95 392.05,-761.23 460.19,-760.73"/>
<polygon fill="black" stroke="black" points="460.19,-764.23 470.14,-760.57 460.08,-757.23 460.19,-764.23"/>
<text text-anchor="middle" x="319.12" y="-761.94" font-family="Times New Roman,serif" font-size="14.00">has ability to do</text>
</g>
<!-- VideoGeneration -->
<g id="node15" class="node">
<title>VideoGeneration</title>
<polygon fill="lightblue" stroke="black" points="586.49,-712.49 475.99,-712.49 475.99,-676.49 586.49,-676.49 586.49,-712.49"/>
<polygon fill="none" stroke="black" points="590.49,-716.49 471.99,-716.49 471.99,-672.49 590.49,-672.49 590.49,-716.49"/>
<text text-anchor="middle" x="531.24" y="-689.06" font-family="Times New Roman,serif" font-size="14.00">Video generation</text>
</g>
<!-- IntelligentApplication&#45;&gt;VideoGeneration -->
<g id="edge31" class="edge">
<title>IntelligentApplication&#45;&gt;VideoGeneration</title>
<path fill="none" stroke="black" d="M173.52,-645.15C188.53,-647.68 204.27,-650.24 219,-652.49 301.71,-665.1 397.09,-677.69 460.23,-685.74"/>
<polygon fill="black" stroke="black" points="459.78,-689.21 470.14,-687 460.66,-682.27 459.78,-689.21"/>
<text text-anchor="middle" x="319.12" y="-681.94" font-family="Times New Roman,serif" font-size="14.00">has ability to do</text>
</g>
<!-- Recommender -->
<g id="node16" class="node">
<title>Recommender</title>
<polygon fill="lightblue" stroke="black" points="617.99,-650.49 444.49,-650.49 444.49,-614.49 617.99,-614.49 617.99,-650.49"/>
<polygon fill="none" stroke="black" points="621.99,-654.49 440.49,-654.49 440.49,-610.49 621.99,-610.49 621.99,-654.49"/>
<text text-anchor="middle" x="531.24" y="-627.06" font-family="Times New Roman,serif" font-size="14.00">Generate Recommendations</text>
</g>
<!-- IntelligentApplication&#45;&gt;Recommender -->
<g id="edge33" class="edge">
<title>IntelligentApplication&#45;&gt;Recommender</title>
<path fill="none" stroke="black" d="M173.74,-632.49C243.69,-632.49 350.37,-632.49 428.81,-632.49"/>
<polygon fill="black" stroke="black" points="428.66,-635.99 438.66,-632.49 428.66,-628.99 428.66,-635.99"/>
<text text-anchor="middle" x="319.12" y="-634.94" font-family="Times New Roman,serif" font-size="14.00">has ability to do</text>
</g>
<!-- GenerativeCapability -->
<g id="node17" class="node">
<title>GenerativeCapability</title>
<polygon fill="lightblue" stroke="black" points="598.86,-588.49 463.61,-588.49 463.61,-552.49 598.86,-552.49 598.86,-588.49"/>
<polygon fill="none" stroke="black" points="602.86,-592.49 459.61,-592.49 459.61,-548.49 602.86,-548.49 602.86,-592.49"/>
<text text-anchor="middle" x="531.24" y="-565.06" font-family="Times New Roman,serif" font-size="14.00">Generative Capability</text>
</g>
<!-- IntelligentApplication&#45;&gt;GenerativeCapability -->
<g id="edge21" class="edge">
<title>IntelligentApplication&#45;&gt;GenerativeCapability</title>
<path fill="none" stroke="black" d="M173.52,-620.01C188.54,-617.51 204.28,-614.97 219,-612.74 296.52,-600.96 385.16,-589.09 447.96,-580.94"/>
<polygon fill="black" stroke="black" points="448.41,-584.41 457.88,-579.65 447.51,-577.47 448.41,-584.41"/>
<text text-anchor="middle" x="319.12" y="-614.94" font-family="Times New Roman,serif" font-size="14.00">might have</text>
</g>
<!-- VoiceToBird -->
<g id="node18" class="node">
<title>VoiceToBird</title>
<ellipse fill="lightblue" stroke="black" cx="531.24" cy="-508.49" rx="61.04" ry="18"/>
<ellipse fill="none" stroke="black" cx="531.24" cy="-508.49" rx="65.04" ry="22"/>
<text text-anchor="middle" x="531.24" y="-503.06" font-family="Times New Roman,serif" font-size="14.00">Voice to Bird</text>
</g>
<!-- IntelligentApplication&#45;&gt;VoiceToBird -->
<g id="edge25" class="edge">
<title>IntelligentApplication&#45;&gt;VoiceToBird</title>
<path fill="none" stroke="black" d="M173.69,-617.8C183.57,-613.64 193.03,-608.32 201,-601.49 214.81,-589.65 204.49,-575.7 219,-564.74 287.13,-513.26 387.33,-503.57 455.5,-503.89"/>
<polygon fill="black" stroke="black" points="455.44,-507.39 465.48,-504.02 455.53,-500.39 455.44,-507.39"/>
<text text-anchor="middle" x="319.12" y="-566.94" font-family="Times New Roman,serif" font-size="14.00">has ability to do</text>
</g>
<!-- VoiceToSong -->
<g id="node19" class="node">
<title>VoiceToSong</title>
<ellipse fill="lightblue" stroke="black" cx="531.24" cy="-446.49" rx="64.54" ry="18"/>
<ellipse fill="none" stroke="black" cx="531.24" cy="-446.49" rx="68.54" ry="22"/>
<text text-anchor="middle" x="531.24" y="-441.06" font-family="Times New Roman,serif" font-size="14.00">Voice to Song</text>
</g>
<!-- IntelligentApplication&#45;&gt;VoiceToSong -->
<g id="edge26" class="edge">
<title>IntelligentApplication&#45;&gt;VoiceToSong</title>
<path fill="none" stroke="black" d="M173.71,-620.71C184.07,-616.19 193.68,-609.99 201,-601.49 235.26,-561.7 181.31,-521.29 219,-484.74 282.44,-423.22 390.55,-424.34 461.19,-433.39"/>
<polygon fill="black" stroke="black" points="460.3,-436.8 470.69,-434.7 461.26,-429.87 460.3,-436.8"/>
<text text-anchor="middle" x="319.12" y="-486.94" font-family="Times New Roman,serif" font-size="14.00">has ability to do</text>
</g>
<!-- LanguageTranslation -->
<g id="node20" class="node">
<title>LanguageTranslation</title>
<ellipse fill="lightblue" stroke="black" cx="531.24" cy="-384.49" rx="89.99" ry="18"/>
<ellipse fill="none" stroke="black" cx="531.24" cy="-384.49" rx="93.99" ry="22"/>
<text text-anchor="middle" x="531.24" y="-379.06" font-family="Times New Roman,serif" font-size="14.00">Language Translation</text>
</g>
<!-- IntelligentApplication&#45;&gt;LanguageTranslation -->
<g id="edge32" class="edge">
<title>IntelligentApplication&#45;&gt;LanguageTranslation</title>
<path fill="none" stroke="black" d="M173.65,-621.3C184.15,-616.72 193.82,-610.34 201,-601.49 228.08,-568.06 188.35,-438.92 219,-408.74 280.12,-348.55 384.64,-353.52 455.53,-366.08"/>
<polygon fill="black" stroke="black" points="454.64,-369.48 465.12,-367.87 455.93,-362.59 454.64,-369.48"/>
<text text-anchor="middle" x="319.12" y="-410.94" font-family="Times New Roman,serif" font-size="14.00">has ability to do</text>
</g>
<!-- SpeechToText -->
<g id="node21" class="node">
<title>SpeechToText</title>
<ellipse fill="lightblue" stroke="black" cx="531.24" cy="-322.49" rx="64.04" ry="18"/>
<ellipse fill="none" stroke="black" cx="531.24" cy="-322.49" rx="68.04" ry="22"/>
<text text-anchor="middle" x="531.24" y="-317.06" font-family="Times New Roman,serif" font-size="14.00">Speech to text</text>
</g>
<!-- IntelligentApplication&#45;&gt;SpeechToText -->
<g id="edge24" class="edge">
<title>IntelligentApplication&#45;&gt;SpeechToText</title>
<path fill="none" stroke="black" d="M173.34,-621.67C184.02,-617.06 193.82,-610.58 201,-601.49 237.41,-555.38 177.06,-378.88 219,-337.74 284.43,-273.55 399.59,-287.65 469.99,-304.52"/>
<polygon fill="black" stroke="black" points="468.87,-307.85 479.42,-306.88 470.56,-301.06 468.87,-307.85"/>
<text text-anchor="middle" x="319.12" y="-339.94" font-family="Times New Roman,serif" font-size="14.00">has ability to do</text>
</g>
<!-- FeatureX -->
<g id="node22" class="node">
<title>FeatureX</title>
<ellipse fill="lightblue" stroke="black" cx="531.24" cy="-260.49" rx="47.07" ry="18"/>
<ellipse fill="none" stroke="black" cx="531.24" cy="-260.49" rx="51.07" ry="22"/>
<text text-anchor="middle" x="531.24" y="-255.06" font-family="Times New Roman,serif" font-size="14.00">Feature X</text>
</g>
<!-- IntelligentApplication&#45;&gt;FeatureX -->
<g id="edge27" class="edge">
<title>IntelligentApplication&#45;&gt;FeatureX</title>
<path fill="none" stroke="black" d="M173.45,-621.75C184.11,-617.13 193.89,-610.63 201,-601.49 223.68,-572.36 192.58,-295.52 219,-269.74 287.63,-202.77 410.57,-224.16 479.61,-243.62"/>
<polygon fill="black" stroke="black" points="478.59,-246.97 489.17,-246.41 480.56,-240.25 478.59,-246.97"/>
<text text-anchor="middle" x="319.12" y="-271.94" font-family="Times New Roman,serif" font-size="14.00">has ability to do</text>
</g>
<!-- FeatureY -->
<g id="node23" class="node">
<title>FeatureY</title>
<ellipse fill="lightblue" stroke="black" cx="531.24" cy="-198.49" rx="47.07" ry="18"/>
<ellipse fill="none" stroke="black" cx="531.24" cy="-198.49" rx="51.07" ry="22"/>
<text text-anchor="middle" x="531.24" y="-193.06" font-family="Times New Roman,serif" font-size="14.00">Feature Y</text>
</g>
<!-- IntelligentApplication&#45;&gt;FeatureY -->
<g id="edge28" class="edge">
<title>IntelligentApplication&#45;&gt;FeatureY</title>
<path fill="none" stroke="black" d="M173.52,-621.8C184.17,-617.18 193.93,-610.66 201,-601.49 228.02,-566.46 187.28,-234.57 219,-203.74 253.49,-170.21 390.48,-180.77 470.76,-190.32"/>
<polygon fill="black" stroke="black" points="470.32,-193.79 480.67,-191.53 471.17,-186.84 470.32,-193.79"/>
<text text-anchor="middle" x="319.12" y="-205.94" font-family="Times New Roman,serif" font-size="14.00">has ability to do</text>
</g>
<!-- ComputerProgram -->
<g id="node24" class="node">
<title>ComputerProgram</title>
<g id="a_node24"><a xlink:href="https://en.wikipedia.org/wiki/Computer_program" xlink:title=" &lt;i&gt;&lt;u&gt;Computer Program&lt;/u&gt;&lt;/i&gt; ">
<polygon fill="lightyellow" stroke="black" points="599.24,-158.49 463.24,-158.49 463.24,-122.49 599.24,-122.49 599.24,-158.49"/>
<text text-anchor="start" x="471.24" y="-136.06" font-family="Times New Roman,serif" font-size="14.00"> </text>
<text text-anchor="start" x="474.99" y="-136.06" font-family="Times New Roman,serif" font-style="italic" text-decoration="underline" font-size="14.00">Computer Program</text>
<text text-anchor="start" x="587.49" y="-136.06" font-family="Times New Roman,serif" font-size="14.00"> </text>
</a>
</g>
</g>
<!-- IntelligentApplication&#45;&gt;ComputerProgram -->
<g id="edge17" class="edge">
<title>IntelligentApplication&#45;&gt;ComputerProgram</title>
<path fill="none" stroke="black" d="M173.55,-621.83C184.2,-617.2 193.95,-610.67 201,-601.49 230.85,-562.61 184.76,-195.81 219,-160.74 278.15,-100.14 381.18,-106.02 452.4,-119.77"/>
<polygon fill="black" stroke="black" points="451.57,-123.18 462.06,-121.74 452.96,-116.32 451.57,-123.18"/>
<text text-anchor="middle" x="319.12" y="-162.94" font-family="Times New Roman,serif" font-size="14.00">is EXACTLY a</text>
</g>
<!-- Software -->
<g id="node25" class="node">
<title>Software</title>
<g id="a_node25"><a xlink:href="https://en.wikipedia.org/wiki/Software" xlink:title=" &lt;i&gt;&lt;u&gt;Software&lt;/u&gt;&lt;/i&gt; ">
<polygon fill="lightyellow" stroke="black" points="568.11,-104.49 494.36,-104.49 494.36,-68.49 568.11,-68.49 568.11,-104.49"/>
<text text-anchor="start" x="502.36" y="-82.06" font-family="Times New Roman,serif" font-size="14.00"> </text>
<text text-anchor="start" x="506.11" y="-82.06" font-family="Times New Roman,serif" font-style="italic" text-decoration="underline" font-size="14.00">Software</text>
<text text-anchor="start" x="556.36" y="-82.06" font-family="Times New Roman,serif" font-size="14.00"> </text>
</a>
</g>
</g>
<!-- IntelligentApplication&#45;&gt;Software -->
<g id="edge16" class="edge">
<title>IntelligentApplication&#45;&gt;Software</title>
<path fill="none" stroke="black" d="M173.6,-621.86C184.24,-617.23 193.97,-610.69 201,-601.49 235.46,-556.35 178.42,-130.46 219,-90.74 255.14,-55.37 404.77,-69.44 482.64,-79.57"/>
<polygon fill="black" stroke="black" points="482.17,-83.04 492.54,-80.89 483.09,-76.1 482.17,-83.04"/>
<text text-anchor="middle" x="319.12" y="-92.94" font-family="Times New Roman,serif" font-size="14.00">is implemented as</text>
</g>
<!-- Device -->
<g id="node26" class="node">
<title>Device</title>
<g id="a_node26"><a xlink:href="https://en.wikipedia.org/wiki/Device" xlink:title=" &lt;i&gt;&lt;u&gt;Device&lt;/u&gt;&lt;/i&gt; ">
<polygon fill="lightyellow" stroke="black" points="562.11,-50.49 500.36,-50.49 500.36,-14.49 562.11,-14.49 562.11,-50.49"/>
<text text-anchor="start" x="508.36" y="-28.06" font-family="Times New Roman,serif" font-size="14.00"> </text>
<text text-anchor="start" x="512.11" y="-28.06" font-family="Times New Roman,serif" font-style="italic" text-decoration="underline" font-size="14.00">Device</text>
<text text-anchor="start" x="550.36" y="-28.06" font-family="Times New Roman,serif" font-size="14.00"> </text>
</a>
</g>
</g>
<!-- IntelligentApplication&#45;&gt;Device -->
<g id="edge18" class="edge">
<title>IntelligentApplication&#45;&gt;Device</title>
<path fill="none" stroke="black" d="M173.62,-621.88C184.26,-617.25 193.99,-610.7 201,-601.49 238.22,-552.59 175.98,-92.61 219,-48.74 289.55,23.21 422.16,-0.92 489.2,-19.42"/>
<polygon fill="black" stroke="black" points="488.12,-22.75 498.7,-22.14 490.05,-16.02 488.12,-22.75"/>
<text text-anchor="middle" x="319.12" y="-51.94" font-family="Times New Roman,serif" font-size="14.00">can be accessed from EXACTLY a</text>
</g>
<!-- IntelligentCapability&#45;&gt;TeachingMethod -->
<g id="edge22" class="edge">
<title>IntelligentCapability&#45;&gt;TeachingMethod</title>
<path fill="none" stroke="black" d="M600.26,-1350.76C661.95,-1349.2 752.59,-1346.9 815.42,-1345.31"/>
<polygon fill="black" stroke="black" points="815.4,-1348.81 825.31,-1345.06 815.22,-1341.81 815.4,-1348.81"/>
<text text-anchor="middle" x="702.47" y="-1351.94" font-family="Times New Roman,serif" font-size="14.00">uses one or many</text>
</g>
<!-- WikiUserInterface -->
<g id="node37" class="node">
<title>WikiUserInterface</title>
<g id="a_node37"><a xlink:href="https://en.wikipedia.org/wiki/User_interface" xlink:title=" &lt;i&gt;&lt;u&gt;User Interface&lt;/u&gt;&lt;/i&gt; ">
<polygon fill="lightyellow" stroke="black" points="940.47,-1300.49 835.97,-1300.49 835.97,-1264.49 940.47,-1264.49 940.47,-1300.49"/>
<text text-anchor="start" x="843.97" y="-1278.06" font-family="Times New Roman,serif" font-size="14.00"> </text>
<text text-anchor="start" x="847.72" y="-1278.06" font-family="Times New Roman,serif" font-style="italic" text-decoration="underline" font-size="14.00">User Interface</text>
<text text-anchor="start" x="928.72" y="-1278.06" font-family="Times New Roman,serif" font-size="14.00"> </text>
</a>
</g>
</g>
<!-- UserInterface&#45;&gt;WikiUserInterface -->
<g id="edge4" class="edge">
<title>UserInterface&#45;&gt;WikiUserInterface</title>
<path fill="none" stroke="black" d="M570.7,-1196.99C591.58,-1208.4 618.18,-1221.67 643.22,-1230.49 703.1,-1251.58 774.41,-1265.57 824.42,-1273.67"/>
<polygon fill="black" stroke="black" points="823.78,-1277.11 834.21,-1275.22 824.88,-1270.2 823.78,-1277.11"/>
<text text-anchor="middle" x="702.47" y="-1263.94" font-family="Times New Roman,serif" font-size="14.00">current interfaces</text>
</g>
<!-- GraphicalUserInterface -->
<g id="node38" class="node">
<title>GraphicalUserInterface</title>
<g id="a_node38"><a xlink:href="https://en.wikipedia.org/wiki/Graphical_user_interface" xlink:title=" &lt;i&gt;&lt;u&gt;Graphical_user_interface&lt;/u&gt;&lt;/i&gt; ">
<polygon fill="lightyellow" stroke="black" points="973.85,-1246.49 802.6,-1246.49 802.6,-1210.49 973.85,-1210.49 973.85,-1246.49"/>
<text text-anchor="start" x="810.6" y="-1224.06" font-family="Times New Roman,serif" font-size="14.00"> </text>
<text text-anchor="start" x="814.35" y="-1224.06" font-family="Times New Roman,serif" font-style="italic" text-decoration="underline" font-size="14.00">Graphical_user_interface</text>
<text text-anchor="start" x="962.1" y="-1224.06" font-family="Times New Roman,serif" font-size="14.00"> </text>
</a>
</g>
</g>
<!-- UserInterface&#45;&gt;GraphicalUserInterface -->
<g id="edge5" class="edge">
<title>UserInterface&#45;&gt;GraphicalUserInterface</title>
<path fill="none" stroke="black" d="M582.99,-1184.07C601.88,-1187.52 623.5,-1191.34 643.22,-1194.49 691.79,-1202.25 745.97,-1209.89 790.91,-1215.97"/>
<polygon fill="black" stroke="black" points="790.25,-1219.41 800.62,-1217.27 791.18,-1212.47 790.25,-1219.41"/>
<text text-anchor="middle" x="702.47" y="-1212.94" font-family="Times New Roman,serif" font-size="14.00">GUI</text>
</g>
<!-- CommandLineInterface -->
<g id="node39" class="node">
<title>CommandLineInterface</title>
<g id="a_node39"><a xlink:href="https://en.wikipedia.org/wiki/https://en.wikipedia.org/wiki/Command-line_interface" xlink:title=" &lt;i&gt;&lt;u&gt;Command Line Interface&lt;/u&gt;&lt;/i&gt; ">
<polygon fill="lightyellow" stroke="black" points="971.6,-1192.49 804.85,-1192.49 804.85,-1156.49 971.6,-1156.49 971.6,-1192.49"/>
<text text-anchor="start" x="812.85" y="-1170.06" font-family="Times New Roman,serif" font-size="14.00"> </text>
<text text-anchor="start" x="816.6" y="-1170.06" font-family="Times New Roman,serif" font-style="italic" text-decoration="underline" font-size="14.00">Command Line Interface</text>
<text text-anchor="start" x="959.85" y="-1170.06" font-family="Times New Roman,serif" font-size="14.00"> </text>
</a>
</g>
</g>
<!-- UserInterface&#45;&gt;CommandLineInterface -->
<g id="edge6" class="edge">
<title>UserInterface&#45;&gt;CommandLineInterface</title>
<path fill="none" stroke="black" d="M583.1,-1174.49C637.74,-1174.49 725.78,-1174.49 793.12,-1174.49"/>
<polygon fill="black" stroke="black" points="793.07,-1177.99 803.07,-1174.49 793.07,-1170.99 793.07,-1177.99"/>
<text text-anchor="middle" x="702.47" y="-1176.94" font-family="Times New Roman,serif" font-size="14.00">CLI</text>
</g>
<!-- NaturalLanguageUserInterface -->
<g id="node40" class="node">
<title>NaturalLanguageUserInterface</title>
<g id="a_node40"><a xlink:href="https://en.wikipedia.org/wiki/https://en.wikipedia.org/wiki/Natural-language_user_interface" xlink:title=" &lt;i&gt;&lt;u&gt;Natural&#45;Language User Interface&lt;/u&gt;&lt;/i&gt; ">
<polygon fill="lightyellow" stroke="black" points="996.72,-1138.49 779.72,-1138.49 779.72,-1102.49 996.72,-1102.49 996.72,-1138.49"/>
<text text-anchor="start" x="787.72" y="-1116.06" font-family="Times New Roman,serif" font-size="14.00"> </text>
<text text-anchor="start" x="791.47" y="-1116.06" font-family="Times New Roman,serif" font-style="italic" text-decoration="underline" font-size="14.00">Natural&#45;Language User Interface</text>
<text text-anchor="start" x="984.97" y="-1116.06" font-family="Times New Roman,serif" font-size="14.00"> </text>
</a>
</g>
</g>
<!-- UserInterface&#45;&gt;NaturalLanguageUserInterface -->
<g id="edge7" class="edge">
<title>UserInterface&#45;&gt;NaturalLanguageUserInterface</title>
<path fill="none" stroke="black" d="M583,-1165.05C601.88,-1161.65 623.51,-1157.87 643.22,-1154.74 683.78,-1148.29 728.23,-1141.86 767.95,-1136.34"/>
<polygon fill="black" stroke="black" points="768.37,-1139.82 777.79,-1134.98 767.41,-1132.88 768.37,-1139.82"/>
<text text-anchor="middle" x="702.47" y="-1156.94" font-family="Times New Roman,serif" font-size="14.00">NLUI</text>
</g>
<!-- ComputeUnit -->
<g id="node8" class="node">
<title>ComputeUnit</title>
<polygon fill="lightblue" stroke="black" points="147.88,-712.49 53.12,-712.49 53.12,-676.49 147.88,-676.49 147.88,-712.49"/>
<polygon fill="none" stroke="black" points="151.88,-716.49 49.12,-716.49 49.12,-672.49 151.88,-672.49 151.88,-716.49"/>
<text text-anchor="middle" x="100.5" y="-689.06" font-family="Times New Roman,serif" font-size="14.00">Compute Unit</text>
</g>
<!-- Mathematics -->
<g id="node29" class="node">
<title>Mathematics</title>
<g id="a_node29"><a xlink:href="https://en.wikipedia.org/wiki/Mathematics" xlink:title=" &lt;i&gt;&lt;u&gt;Mathematics&lt;/u&gt;&lt;/i&gt; ">
<polygon fill="lightyellow" stroke="black" points="936.72,-1084.49 839.72,-1084.49 839.72,-1048.49 936.72,-1048.49 936.72,-1084.49"/>
<text text-anchor="start" x="847.72" y="-1062.06" font-family="Times New Roman,serif" font-size="14.00"> </text>
<text text-anchor="start" x="851.47" y="-1062.06" font-family="Times New Roman,serif" font-style="italic" text-decoration="underline" font-size="14.00">Mathematics</text>
<text text-anchor="start" x="924.97" y="-1062.06" font-family="Times New Roman,serif" font-size="14.00"> </text>
</a>
</g>
</g>
<!-- Math&#45;&gt;Mathematics -->
<g id="edge8" class="edge">
<title>Math&#45;&gt;Mathematics</title>
<path fill="none" stroke="black" d="M562.5,-1066.49C621.19,-1066.49 751.4,-1066.49 827.91,-1066.49"/>
<polygon fill="black" stroke="black" points="827.74,-1069.99 837.74,-1066.49 827.74,-1062.99 827.74,-1069.99"/>
<text text-anchor="middle" x="702.47" y="-1068.94" font-family="Times New Roman,serif" font-size="14.00">current knowledge</text>
</g>
<!-- Algorithm -->
<g id="node31" class="node">
<title>Algorithm</title>
<g id="a_node31"><a xlink:href="https://en.wikipedia.org/wiki/Algorithm" xlink:title=" &lt;i&gt;&lt;u&gt;Algorithm&lt;/u&gt;&lt;/i&gt; ">
<polygon fill="lightyellow" stroke="black" points="928.47,-1030.49 847.97,-1030.49 847.97,-994.49 928.47,-994.49 928.47,-1030.49"/>
<text text-anchor="start" x="855.97" y="-1008.06" font-family="Times New Roman,serif" font-size="14.00"> </text>
<text text-anchor="start" x="859.72" y="-1008.06" font-family="Times New Roman,serif" font-style="italic" text-decoration="underline" font-size="14.00">Algorithm</text>
<text text-anchor="start" x="916.72" y="-1008.06" font-family="Times New Roman,serif" font-size="14.00"> </text>
</a>
</g>
</g>
<!-- Math&#45;&gt;Algorithm -->
<g id="edge9" class="edge">
<title>Math&#45;&gt;Algorithm</title>
<path fill="none" stroke="black" d="M562.33,-1060.82C584.63,-1056.7 615.78,-1051.1 643.22,-1046.74 709.9,-1036.13 787.12,-1025.58 836.53,-1019.05"/>
<polygon fill="black" stroke="black" points="836.89,-1022.53 846.35,-1017.76 835.98,-1015.59 836.89,-1022.53"/>
<text text-anchor="middle" x="702.47" y="-1048.94" font-family="Times New Roman,serif" font-size="14.00">perform computation</text>
</g>
<!-- MathematicalModel -->
<g id="node32" class="node">
<title>MathematicalModel</title>
<g id="a_node32"><a xlink:href="https://en.wikipedia.org/wiki/Mathematical_model" xlink:title=" &lt;i&gt;&lt;u&gt;Mathematical Model&lt;/u&gt;&lt;/i&gt; ">
<polygon fill="lightyellow" stroke="black" points="959.6,-976.49 816.85,-976.49 816.85,-940.49 959.6,-940.49 959.6,-976.49"/>
<text text-anchor="start" x="824.85" y="-954.06" font-family="Times New Roman,serif" font-size="14.00"> </text>
<text text-anchor="start" x="828.6" y="-954.06" font-family="Times New Roman,serif" font-style="italic" text-decoration="underline" font-size="14.00">Mathematical Model</text>
<text text-anchor="start" x="947.85" y="-954.06" font-family="Times New Roman,serif" font-size="14.00"> </text>
</a>
</g>
</g>
<!-- Math&#45;&gt;MathematicalModel -->
<g id="edge10" class="edge">
<title>Math&#45;&gt;MathematicalModel</title>
<path fill="none" stroke="black" d="M562.58,-1061.47C581.96,-1057.1 606.81,-1049.23 625.22,-1035.49 636.41,-1027.14 631.57,-1017.44 643.22,-1009.74 691.15,-978.07 754.96,-965.46 805.3,-960.66"/>
<polygon fill="black" stroke="black" points="805.31,-964.18 814.98,-959.83 804.71,-957.2 805.31,-964.18"/>
<text text-anchor="middle" x="702.47" y="-1011.94" font-family="Times New Roman,serif" font-size="14.00">perform computation</text>
</g>
<!-- WikiPhilosophy -->
<g id="node30" class="node">
<title>WikiPhilosophy</title>
<g id="a_node30"><a xlink:href="https://en.wikipedia.org/wiki/Philosophy" xlink:title=" &lt;i&gt;&lt;u&gt;Philosophy&lt;/u&gt;&lt;/i&gt; ">
<polygon fill="lightyellow" stroke="black" points="931.85,-922.49 844.6,-922.49 844.6,-886.49 931.85,-886.49 931.85,-922.49"/>
<text text-anchor="start" x="852.6" y="-900.06" font-family="Times New Roman,serif" font-size="14.00"> </text>
<text text-anchor="start" x="856.35" y="-900.06" font-family="Times New Roman,serif" font-style="italic" text-decoration="underline" font-size="14.00">Philosophy</text>
<text text-anchor="start" x="920.1" y="-900.06" font-family="Times New Roman,serif" font-size="14.00"> </text>
</a>
</g>
</g>
<!-- Philosophy&#45;&gt;WikiPhilosophy -->
<g id="edge15" class="edge">
<title>Philosophy&#45;&gt;WikiPhilosophy</title>
<path fill="none" stroke="black" d="M575.04,-998.73C592.56,-994.39 611.82,-986.8 625.22,-973.49 642.8,-956.03 623.56,-935.81 643.22,-920.74 697.32,-879.25 779.55,-883.42 833.34,-892.29"/>
<polygon fill="black" stroke="black" points="832.42,-895.68 842.88,-893.97 833.64,-888.78 832.42,-895.68"/>
<text text-anchor="middle" x="702.47" y="-922.94" font-family="Times New Roman,serif" font-size="14.00">current knowledge</text>
</g>
<!-- CPU -->
<g id="node27" class="node">
<title>CPU</title>
<g id="a_node27"><a xlink:href="https://en.wikipedia.org/wiki/Central_processing_unit" xlink:title=" &lt;i&gt;&lt;u&gt;CPU&lt;/u&gt;&lt;/i&gt; ">
<polygon fill="lightyellow" stroke="black" points="127.5,-770.49 73.5,-770.49 73.5,-734.49 127.5,-734.49 127.5,-770.49"/>
<text text-anchor="start" x="82.12" y="-748.06" font-family="Times New Roman,serif" font-size="14.00"> </text>
<text text-anchor="start" x="85.88" y="-748.06" font-family="Times New Roman,serif" font-style="italic" text-decoration="underline" font-size="14.00">CPU</text>
<text text-anchor="start" x="115.12" y="-748.06" font-family="Times New Roman,serif" font-size="14.00"> </text>
</a>
</g>
</g>
<!-- GPU -->
<g id="node28" class="node">
<title>GPU</title>
<g id="a_node28"><a xlink:href="https://en.wikipedia.org/wiki/Graphics_processing_unit" xlink:title=" &lt;i&gt;&lt;u&gt;GPU&lt;/u&gt;&lt;/i&gt; ">
<polygon fill="lightyellow" stroke="black" points="127.5,-824.49 73.5,-824.49 73.5,-788.49 127.5,-788.49 127.5,-824.49"/>
<text text-anchor="start" x="81.75" y="-802.06" font-family="Times New Roman,serif" font-size="14.00"> </text>
<text text-anchor="start" x="85.5" y="-802.06" font-family="Times New Roman,serif" font-style="italic" text-decoration="underline" font-size="14.00">GPU</text>
<text text-anchor="start" x="115.5" y="-802.06" font-family="Times New Roman,serif" font-size="14.00"> </text>
</a>
</g>
</g>
<!-- EuclideanSpace -->
<g id="node33" class="node">
<title>EuclideanSpace</title>
<g id="a_node33"><a xlink:href="https://en.wikipedia.org/wiki/Euclidean_space" xlink:title=" &lt;i&gt;&lt;u&gt;Euclidean Space&lt;/u&gt;&lt;/i&gt; ">
<polygon fill="lightyellow" stroke="black" points="1296.6,-1165.49 1176.35,-1165.49 1176.35,-1129.49 1296.6,-1129.49 1296.6,-1165.49"/>
<text text-anchor="start" x="1184.35" y="-1143.06" font-family="Times New Roman,serif" font-size="14.00"> </text>
<text text-anchor="start" x="1188.1" y="-1143.06" font-family="Times New Roman,serif" font-style="italic" text-decoration="underline" font-size="14.00">Euclidean Space</text>
<text text-anchor="start" x="1284.85" y="-1143.06" font-family="Times New Roman,serif" font-size="14.00"> </text>
</a>
</g>
</g>
<!-- Mathematics&#45;&gt;EuclideanSpace -->
<g id="edge12" class="edge">
<title>Mathematics&#45;&gt;EuclideanSpace</title>
<path fill="none" stroke="black" d="M937.22,-1074.86C956.23,-1079.12 977.98,-1085.19 996.72,-1093.49 1005.51,-1097.38 1005.82,-1101.85 1014.72,-1105.49 1062.72,-1125.11 1120.4,-1135.68 1164.75,-1141.3"/>
<polygon fill="black" stroke="black" points="1164.17,-1144.76 1174.51,-1142.48 1165.01,-1137.81 1164.17,-1144.76"/>
<text text-anchor="middle" x="1079.22" y="-1139.94" font-family="Times New Roman,serif" font-size="14.00">used by neural networs</text>
</g>
<!-- ActivationFunction -->
<g id="node34" class="node">
<title>ActivationFunction</title>
<g id="a_node34"><a xlink:href="https://en.wikipedia.org/wiki/Activation_function" xlink:title=" &lt;i&gt;&lt;u&gt;Activation Function&lt;/u&gt;&lt;/i&gt; ">
<polygon fill="lightyellow" stroke="black" points="1304.47,-1111.49 1168.47,-1111.49 1168.47,-1075.49 1304.47,-1075.49 1304.47,-1111.49"/>
<text text-anchor="start" x="1176.47" y="-1089.06" font-family="Times New Roman,serif" font-size="14.00"> </text>
<text text-anchor="start" x="1180.22" y="-1089.06" font-family="Times New Roman,serif" font-style="italic" text-decoration="underline" font-size="14.00">Activation Function</text>
<text text-anchor="start" x="1292.72" y="-1089.06" font-family="Times New Roman,serif" font-size="14.00"> </text>
</a>
</g>
</g>
<!-- Mathematics&#45;&gt;ActivationFunction -->
<g id="edge11" class="edge">
<title>Mathematics&#45;&gt;ActivationFunction</title>
<path fill="none" stroke="black" d="M937,-1070.21C993.65,-1074.63 1088.88,-1082.06 1156.53,-1087.33"/>
<polygon fill="black" stroke="black" points="1156.23,-1090.82 1166.47,-1088.11 1156.77,-1083.84 1156.23,-1090.82"/>
<text text-anchor="middle" x="1079.22" y="-1087.94" font-family="Times New Roman,serif" font-size="14.00">used by neural networs</text>
</g>
<!-- AffineTransformation -->
<g id="node35" class="node">
<title>AffineTransformation</title>
<g id="a_node35"><a xlink:href="https://en.wikipedia.org/wiki/Affine_transformation" xlink:title=" &lt;i&gt;&lt;u&gt;Affine Transformation&lt;/u&gt;&lt;/i&gt; ">
<polygon fill="lightyellow" stroke="black" points="1311.22,-1057.49 1161.72,-1057.49 1161.72,-1021.49 1311.22,-1021.49 1311.22,-1057.49"/>
<text text-anchor="start" x="1169.72" y="-1035.06" font-family="Times New Roman,serif" font-size="14.00"> </text>
<text text-anchor="start" x="1173.47" y="-1035.06" font-family="Times New Roman,serif" font-style="italic" text-decoration="underline" font-size="14.00">Affine Transformation</text>
<text text-anchor="start" x="1299.47" y="-1035.06" font-family="Times New Roman,serif" font-size="14.00"> </text>
</a>
</g>
</g>
<!-- Mathematics&#45;&gt;AffineTransformation -->
<g id="edge13" class="edge">
<title>Mathematics&#45;&gt;AffineTransformation</title>
<path fill="none" stroke="black" d="M937,-1062.76C991.81,-1058.49 1082.73,-1051.4 1149.85,-1046.16"/>
<polygon fill="black" stroke="black" points="1150.04,-1049.66 1159.74,-1045.39 1149.49,-1042.68 1150.04,-1049.66"/>
<text text-anchor="middle" x="1079.22" y="-1057.94" font-family="Times New Roman,serif" font-size="14.00">used by neural networs</text>
</g>
<!-- ChainRule -->
<g id="node36" class="node">
<title>ChainRule</title>
<g id="a_node36"><a xlink:href="https://en.wikipedia.org/wiki/Chain_rule" xlink:title=" &lt;i&gt;&lt;u&gt;Chain Rule&lt;/u&gt;&lt;/i&gt; ">
<polygon fill="lightyellow" stroke="black" points="1281.22,-1003.49 1191.72,-1003.49 1191.72,-967.49 1281.22,-967.49 1281.22,-1003.49"/>
<text text-anchor="start" x="1199.72" y="-981.06" font-family="Times New Roman,serif" font-size="14.00"> </text>
<text text-anchor="start" x="1203.47" y="-981.06" font-family="Times New Roman,serif" font-style="italic" text-decoration="underline" font-size="14.00">Chain Rule</text>
<text text-anchor="start" x="1269.47" y="-981.06" font-family="Times New Roman,serif" font-size="14.00"> </text>
</a>
</g>
</g>
<!-- Mathematics&#45;&gt;ChainRule -->
<g id="edge14" class="edge">
<title>Mathematics&#45;&gt;ChainRule</title>
<path fill="none" stroke="black" d="M937.07,-1058.44C956.17,-1054.22 978.02,-1048.09 996.72,-1039.49 1005.63,-1035.39 1005.69,-1030.56 1014.72,-1026.74 1068.34,-1004.04 1134.53,-993.78 1180.37,-989.18"/>
<polygon fill="black" stroke="black" points="1180.43,-992.69 1190.06,-988.27 1179.77,-985.72 1180.43,-992.69"/>
<text text-anchor="middle" x="1079.22" y="-1028.94" font-family="Times New Roman,serif" font-size="14.00">used by neural networs</text>
</g>
<!-- SoftwareFeature -->
<g id="node41" class="node">
<title>SoftwareFeature</title>
<g id="a_node41"><a xlink:href="https://en.wikipedia.org/wiki/Software_feature" xlink:title=" &lt;i&gt;&lt;u&gt;Software Feature&lt;/u&gt;&lt;/i&gt; ">
<ellipse fill="lightyellow" stroke="black" cx="100.5" cy="-860.49" rx="81.5" ry="18"/>
<text text-anchor="start" x="47.25" y="-856.06" font-family="Times New Roman,serif" font-size="14.00"> </text>
<text text-anchor="start" x="51" y="-856.06" font-family="Times New Roman,serif" font-style="italic" text-decoration="underline" font-size="14.00">Software Feature</text>
<text text-anchor="start" x="150" y="-856.06" font-family="Times New Roman,serif" font-size="14.00"> </text>
</a>
</g>
</g>
</g>
</svg>
