<?xml version="1.0" encoding="UTF-8" standalone="no"?>
<!DOCTYPE svg PUBLIC "-//W3C//DTD SVG 1.1//EN"
 "http://www.w3.org/Graphics/SVG/1.1/DTD/svg11.dtd">
<!-- Generated by graphviz version 9.0.0 (20230911.1827)
 -->
<!-- Title: Intelligent Application Pages: 1 -->
<svg width="862pt" height="362pt"
 viewBox="0.00 0.00 862.25 362.00" xmlns="http://www.w3.org/2000/svg" xmlns:xlink="http://www.w3.org/1999/xlink">
<g id="graph0" class="graph" transform="scale(1 1) rotate(0) translate(4 358)">
<title>Intelligent Application</title>
<polygon fill="white" stroke="none" points="-4,4 -4,-358 858.25,-358 858.25,4 -4,4"/>
<!-- Intelligent Application -->
<g id="node1" class="node">
<title>Intelligent Application</title>
<polygon fill="lightblue" stroke="black" points="169.25,-137 31.75,-137 31.75,-101 169.25,-101 169.25,-137"/>
<polygon fill="none" stroke="black" points="173.25,-141 27.75,-141 27.75,-97 173.25,-97 173.25,-141"/>
<text text-anchor="middle" x="100.5" y="-113.58" font-family="Times New Roman,serif" font-size="14.00">Intelligent Application</text>
</g>
<!-- IntelligentCapability -->
<g id="node2" class="node">
<title>IntelligentCapability</title>
<polygon fill="lightblue" stroke="black" points="570.5,-195 441.25,-195 441.25,-159 570.5,-159 570.5,-195"/>
<polygon fill="none" stroke="black" points="574.5,-199 437.25,-199 437.25,-155 574.5,-155 574.5,-199"/>
<text text-anchor="middle" x="505.88" y="-171.57" font-family="Times New Roman,serif" font-size="14.00">Intelligent Capability</text>
</g>
<!-- Intelligent Application&#45;&gt;IntelligentCapability -->
<g id="edge3" class="edge">
<title>Intelligent Application&#45;&gt;IntelligentCapability</title>
<path fill="none" stroke="black" d="M173.52,-131.68C188.53,-134.21 204.27,-136.77 219,-139 288.73,-149.57 368.27,-160.01 425.72,-167.27"/>
<polygon fill="black" stroke="black" points="425.05,-170.71 435.41,-168.48 425.92,-163.76 425.05,-170.71"/>
<text text-anchor="middle" x="319.12" y="-168.45" font-family="Times New Roman,serif" font-size="14.00">has several</text>
</g>
<!-- ComputerProgram -->
<g id="node10" class="node">
<title>ComputerProgram</title>
<g id="a_node10"><a xlink:href="https://en.wikipedia.org/wiki/Computer_program" xlink:title=" &lt;i&gt;&lt;u&gt;Computer Program&lt;/u&gt;&lt;/i&gt; ">
<polygon fill="lightyellow" stroke="black" points="573.88,-137 437.88,-137 437.88,-101 573.88,-101 573.88,-137"/>
<text text-anchor="start" x="445.88" y="-114.58" font-family="Times New Roman,serif" font-size="14.00"> </text>
<text text-anchor="start" x="449.62" y="-114.58" font-family="Times New Roman,serif" font-style="italic" text-decoration="underline" font-size="14.00">Computer Program</text>
<text text-anchor="start" x="562.12" y="-114.58" font-family="Times New Roman,serif" font-size="14.00"> </text>
</a>
</g>
</g>
<!-- Intelligent Application&#45;&gt;ComputerProgram -->
<g id="edge1" class="edge">
<title>Intelligent Application&#45;&gt;ComputerProgram</title>
<path fill="none" stroke="black" d="M173.62,-119C244.6,-119 352.72,-119 425.96,-119"/>
<polygon fill="black" stroke="black" points="425.9,-122.5 435.9,-119 425.9,-115.5 425.9,-122.5"/>
<text text-anchor="middle" x="319.12" y="-121.45" font-family="Times New Roman,serif" font-size="14.00">is EXACTLY a</text>
</g>
<!-- Device -->
<g id="node12" class="node">
<title>Device</title>
<g id="a_node12"><a xlink:href="https://en.wikipedia.org/wiki/Device" xlink:title=" &lt;i&gt;&lt;u&gt;Device&lt;/u&gt;&lt;/i&gt; ">
<polygon fill="lightyellow" stroke="black" points="536.75,-83 475,-83 475,-47 536.75,-47 536.75,-83"/>
<text text-anchor="start" x="483" y="-60.58" font-family="Times New Roman,serif" font-size="14.00"> </text>
<text text-anchor="start" x="486.75" y="-60.58" font-family="Times New Roman,serif" font-style="italic" text-decoration="underline" font-size="14.00">Device</text>
<text text-anchor="start" x="525" y="-60.58" font-family="Times New Roman,serif" font-size="14.00"> </text>
</a>
</g>
</g>
<!-- Intelligent Application&#45;&gt;Device -->
<g id="edge2" class="edge">
<title>Intelligent Application&#45;&gt;Device</title>
<path fill="none" stroke="black" d="M173.5,-106.34C188.51,-103.86 204.26,-101.37 219,-99.25 305.84,-86.76 407.98,-75.3 463.62,-69.32"/>
<polygon fill="black" stroke="black" points="463.69,-72.84 473.26,-68.29 462.95,-65.88 463.69,-72.84"/>
<text text-anchor="middle" x="319.12" y="-102.45" font-family="Times New Roman,serif" font-size="14.00">can be accessed from EXACTLY a</text>
</g>
<!-- SpeechToText -->
<g id="node3" class="node">
<title>SpeechToText</title>
<polygon fill="lightblue" stroke="black" points="811.62,-350 715.38,-350 715.38,-314 811.62,-314 811.62,-350"/>
<polygon fill="none" stroke="black" points="815.62,-354 711.38,-354 711.38,-310 815.62,-310 815.62,-354"/>
<text text-anchor="middle" x="763.5" y="-326.57" font-family="Times New Roman,serif" font-size="14.00">Speech to text</text>
</g>
<!-- IntelligentCapability&#45;&gt;SpeechToText -->
<g id="edge5" class="edge">
<title>IntelligentCapability&#45;&gt;SpeechToText</title>
<path fill="none" stroke="black" d="M528.61,-199.28C545.27,-215.71 569.26,-238.07 592.5,-255 625.73,-279.21 635.32,-283.99 672.75,-301 681.58,-305.01 691.1,-308.82 700.51,-312.3"/>
<polygon fill="black" stroke="black" points="699.04,-315.49 709.64,-315.58 701.41,-308.91 699.04,-315.49"/>
<text text-anchor="middle" x="623.62" y="-294.45" font-family="Times New Roman,serif" font-size="14.00">is parent to</text>
</g>
<!-- TextToSpeech -->
<g id="node4" class="node">
<title>TextToSpeech</title>
<polygon fill="lightblue" stroke="black" points="813.12,-288 713.88,-288 713.88,-252 813.12,-252 813.12,-288"/>
<polygon fill="none" stroke="black" points="817.12,-292 709.88,-292 709.88,-248 817.12,-248 817.12,-292"/>
<text text-anchor="middle" x="763.5" y="-264.57" font-family="Times New Roman,serif" font-size="14.00">Text to speech</text>
</g>
<!-- IntelligentCapability&#45;&gt;TextToSpeech -->
<g id="edge4" class="edge">
<title>IntelligentCapability&#45;&gt;TextToSpeech</title>
<path fill="none" stroke="black" d="M556.82,-199.48C568.45,-204.46 580.84,-209.57 592.5,-214 627.34,-227.24 666.85,-240.36 699.01,-250.58"/>
<polygon fill="black" stroke="black" points="697.58,-253.8 708.17,-253.47 699.69,-247.12 697.58,-253.8"/>
<text text-anchor="middle" x="623.62" y="-237.45" font-family="Times New Roman,serif" font-size="14.00">is parent to</text>
</g>
<!-- TextGeneration -->
<g id="node5" class="node">
<title>TextGeneration</title>
<polygon fill="lightblue" stroke="black" points="814.62,-226 712.38,-226 712.38,-190 814.62,-190 814.62,-226"/>
<polygon fill="none" stroke="black" points="818.62,-230 708.38,-230 708.38,-186 818.62,-186 818.62,-230"/>
<text text-anchor="middle" x="763.5" y="-202.57" font-family="Times New Roman,serif" font-size="14.00">Text generation</text>
</g>
<!-- IntelligentCapability&#45;&gt;TextGeneration -->
<g id="edge6" class="edge">
<title>IntelligentCapability&#45;&gt;TextGeneration</title>
<path fill="none" stroke="black" d="M574.71,-185.23C612.51,-189.81 659.36,-195.49 696.81,-200.03"/>
<polygon fill="black" stroke="black" points="696.26,-203.49 706.61,-201.22 697.1,-196.54 696.26,-203.49"/>
<text text-anchor="middle" x="623.62" y="-196.45" font-family="Times New Roman,serif" font-size="14.00">is parent to</text>
</g>
<!-- ImageGeneration -->
<g id="node6" class="node">
<title>ImageGeneration</title>
<polygon fill="lightblue" stroke="black" points="818.75,-164 708.25,-164 708.25,-128 818.75,-128 818.75,-164"/>
<polygon fill="none" stroke="black" points="822.75,-168 704.25,-168 704.25,-124 822.75,-124 822.75,-168"/>
<text text-anchor="middle" x="763.5" y="-140.57" font-family="Times New Roman,serif" font-size="14.00">Image generation</text>
</g>
<!-- IntelligentCapability&#45;&gt;ImageGeneration -->
<g id="edge7" class="edge">
<title>IntelligentCapability&#45;&gt;ImageGeneration</title>
<path fill="none" stroke="black" d="M574.71,-168.77C611.17,-164.35 656.05,-158.91 692.79,-154.45"/>
<polygon fill="black" stroke="black" points="692.91,-157.97 702.41,-153.29 692.06,-151.02 692.91,-157.97"/>
<text text-anchor="middle" x="623.62" y="-168.45" font-family="Times New Roman,serif" font-size="14.00">is parent to</text>
</g>
<!-- LanguageTranslation -->
<g id="node7" class="node">
<title>LanguageTranslation</title>
<polygon fill="lightblue" stroke="black" points="831.12,-102 695.88,-102 695.88,-66 831.12,-66 831.12,-102"/>
<polygon fill="none" stroke="black" points="835.12,-106 691.88,-106 691.88,-62 835.12,-62 835.12,-106"/>
<text text-anchor="middle" x="763.5" y="-78.58" font-family="Times New Roman,serif" font-size="14.00">Language Translation</text>
</g>
<!-- IntelligentCapability&#45;&gt;LanguageTranslation -->
<g id="edge8" class="edge">
<title>IntelligentCapability&#45;&gt;LanguageTranslation</title>
<path fill="none" stroke="black" d="M555.42,-154.58C567.44,-149.31 580.36,-143.89 592.5,-139.25 621.04,-128.35 652.76,-117.67 681,-108.64"/>
<polygon fill="black" stroke="black" points="681.72,-112.09 690.2,-105.73 679.61,-105.42 681.72,-112.09"/>
<text text-anchor="middle" x="623.62" y="-141.45" font-family="Times New Roman,serif" font-size="14.00">is parent to</text>
</g>
<!-- Recommender -->
<g id="node8" class="node">
<title>Recommender</title>
<polygon fill="lightblue" stroke="black" points="850.25,-40 676.75,-40 676.75,-4 850.25,-4 850.25,-40"/>
<polygon fill="none" stroke="black" points="854.25,-44 672.75,-44 672.75,0 854.25,0 854.25,-44"/>
<text text-anchor="middle" x="763.5" y="-16.57" font-family="Times New Roman,serif" font-size="14.00">Generate Recommendations</text>
</g>
<!-- IntelligentCapability&#45;&gt;Recommender -->
<g id="edge9" class="edge">
<title>IntelligentCapability&#45;&gt;Recommender</title>
<path fill="none" stroke="black" d="M564.82,-154.53C568.33,-151.96 571.6,-149.13 574.5,-146 590.2,-129.06 577.44,-114.76 592.5,-97.25 619.06,-66.37 635.53,-69.54 672.75,-53 676.25,-51.45 679.84,-49.92 683.5,-48.43"/>
<polygon fill="black" stroke="black" points="684.48,-51.8 692.5,-44.88 681.92,-45.29 684.48,-51.8"/>
<text text-anchor="middle" x="623.62" y="-100.45" font-family="Times New Roman,serif" font-size="14.00">is parent to</text>
</g>
<!-- This Paper -->
<g id="node9" class="node">
<title>This Paper</title>
<polygon fill="lightblue" stroke="black" points="197,-199 4,-199 4,-163 197,-163 197,-199"/>
<polygon fill="none" stroke="black" points="201,-203 0,-203 0,-159 201,-159 201,-203"/>
<text text-anchor="start" x="12" y="-176.57" font-family="Times New Roman,serif" font-size="14.00"> </text>
<text text-anchor="start" x="15.75" y="-176.57" font-family="Times New Roman,serif" font-style="italic" text-decoration="underline" font-size="14.00">Concept defined in this paper</text>
<text text-anchor="start" x="185.25" y="-176.57" font-family="Times New Roman,serif" font-size="14.00"> </text>
</g>
<!-- Wikipedia -->
<g id="node11" class="node">
<title>Wikipedia</title>
<g id="a_node11"><a xlink:href="https://en.wikipedia.org/" xlink:title=" &lt;i&gt;&lt;u&gt;Concept Defined in Wikipedia&lt;/u&gt;&lt;/i&gt; ">
<polygon fill="lightyellow" stroke="black" points="198.5,-257 2.5,-257 2.5,-221 198.5,-221 198.5,-257"/>
<text text-anchor="start" x="10.5" y="-234.57" font-family="Times New Roman,serif" font-size="14.00"> </text>
<text text-anchor="start" x="14.25" y="-234.57" font-family="Times New Roman,serif" font-style="italic" text-decoration="underline" font-size="14.00">Concept Defined in Wikipedia</text>
<text text-anchor="start" x="186.75" y="-234.57" font-family="Times New Roman,serif" font-size="14.00"> </text>
</a>
</g>
</g>
</g>
</svg>
