<?xml version="1.0" encoding="UTF-8" standalone="no"?>
<!DOCTYPE svg PUBLIC "-//W3C//DTD SVG 1.1//EN"
 "http://www.w3.org/Graphics/SVG/1.1/DTD/svg11.dtd">
<!-- Generated by graphviz version 9.0.0 (20230911.1827)
 -->
<!-- Title: Intelligent Application Pages: 1 -->
<svg width="1189pt" height="746pt"
 viewBox="0.00 0.00 1188.97 746.00" xmlns="http://www.w3.org/2000/svg" xmlns:xlink="http://www.w3.org/1999/xlink">
<g id="graph0" class="graph" transform="scale(1 1) rotate(0) translate(4 742)">
<title>Intelligent Application</title>
<polygon fill="white" stroke="none" points="-4,4 -4,-742 1184.97,-742 1184.97,4 -4,4"/>
<!-- Wikipedia -->
<g id="node1" class="node">
<title>Wikipedia</title>
<g id="a_node1"><a xlink:href="https://en.wikipedia.org/" xlink:title=" &lt;i&gt;&lt;u&gt;Concept Defined in Wikipedia&lt;/u&gt;&lt;/i&gt; ">
<polygon fill="lightyellow" stroke="black" points="198.5,-136 2.5,-136 2.5,-100 198.5,-100 198.5,-136"/>
<text text-anchor="start" x="10.5" y="-113.58" font-family="Times New Roman,serif" font-size="14.00"> </text>
<text text-anchor="start" x="14.25" y="-113.58" font-family="Times New Roman,serif" font-style="italic" text-decoration="underline" font-size="14.00">Concept Defined in Wikipedia</text>
<text text-anchor="start" x="186.75" y="-113.58" font-family="Times New Roman,serif" font-size="14.00"> </text>
</a>
</g>
</g>
<!-- Feature -->
<g id="node2" class="node">
<title>Feature</title>
<ellipse fill="lightblue" stroke="black" cx="100.5" cy="-172" rx="83" ry="18"/>
<text text-anchor="start" x="46.12" y="-167.57" font-family="Times New Roman,serif" font-size="14.00"> </text>
<text text-anchor="start" x="49.88" y="-167.57" font-family="Times New Roman,serif" font-style="italic" font-size="14.00">Ellipse = Feature</text>
<text text-anchor="start" x="151.12" y="-167.57" font-family="Times New Roman,serif" font-size="14.00"> </text>
</g>
<!-- This Paper -->
<g id="node3" class="node">
<title>This Paper</title>
<polygon fill="lightblue" stroke="black" points="197,-248 4,-248 4,-212 197,-212 197,-248"/>
<polygon fill="none" stroke="black" points="201,-252 0,-252 0,-208 201,-208 201,-252"/>
<text text-anchor="start" x="12" y="-225.57" font-family="Times New Roman,serif" font-size="14.00"> </text>
<text text-anchor="start" x="15.75" y="-225.57" font-family="Times New Roman,serif" font-style="italic" font-size="14.00">Concept defined in this paper</text>
<text text-anchor="start" x="185.25" y="-225.57" font-family="Times New Roman,serif" font-size="14.00"> </text>
</g>
<!-- IntelligentApplication -->
<g id="node4" class="node">
<title>IntelligentApplication</title>
<polygon fill="lightblue" stroke="black" points="169.25,-310 31.75,-310 31.75,-274 169.25,-274 169.25,-310"/>
<polygon fill="none" stroke="black" points="173.25,-314 27.75,-314 27.75,-270 173.25,-270 173.25,-314"/>
<text text-anchor="middle" x="100.5" y="-286.57" font-family="Times New Roman,serif" font-size="14.00">Intelligent Application</text>
</g>
<!-- IntelligentCapability -->
<g id="node5" class="node">
<title>IntelligentCapability</title>
<polygon fill="lightblue" stroke="black" points="570.5,-517 441.25,-517 441.25,-481 570.5,-481 570.5,-517"/>
<polygon fill="none" stroke="black" points="574.5,-521 437.25,-521 437.25,-477 574.5,-477 574.5,-521"/>
<text text-anchor="middle" x="505.88" y="-493.57" font-family="Times New Roman,serif" font-size="14.00">Intelligent Capability</text>
</g>
<!-- IntelligentApplication&#45;&gt;IntelligentCapability -->
<g id="edge8" class="edge">
<title>IntelligentApplication&#45;&gt;IntelligentCapability</title>
<path fill="none" stroke="black" d="M137.85,-314.37C160.84,-328.27 191.35,-346.24 219,-361 295.82,-402.01 386.72,-444.97 445.05,-471.85"/>
<polygon fill="black" stroke="black" points="443.28,-474.88 453.82,-475.88 446.2,-468.52 443.28,-474.88"/>
<text text-anchor="middle" x="319.12" y="-460.45" font-family="Times New Roman,serif" font-size="14.00">has at least one</text>
</g>
<!-- TeachingMethod -->
<g id="node6" class="node">
<title>TeachingMethod</title>
<polygon fill="lightblue" stroke="black" points="861.12,-703 746.88,-703 746.88,-667 861.12,-667 861.12,-703"/>
<polygon fill="none" stroke="black" points="865.12,-707 742.88,-707 742.88,-663 865.12,-663 865.12,-707"/>
<text text-anchor="middle" x="804" y="-679.58" font-family="Times New Roman,serif" font-size="14.00">Teaching Method</text>
</g>
<!-- IntelligentApplication&#45;&gt;TeachingMethod -->
<g id="edge9" class="edge">
<title>IntelligentApplication&#45;&gt;TeachingMethod</title>
<path fill="none" stroke="black" d="M110.9,-314.43C127.72,-352.32 166.22,-429.6 219,-478 356.71,-604.29 412.5,-620.86 592.5,-671 637.49,-683.53 689.89,-687.05 731.15,-687.43"/>
<polygon fill="black" stroke="black" points="730.95,-690.93 740.96,-687.46 730.97,-683.93 730.95,-690.93"/>
<text text-anchor="middle" x="505.88" y="-666.45" font-family="Times New Roman,serif" font-size="14.00">has at least one</text>
</g>
<!-- Math -->
<g id="node8" class="node">
<title>Math</title>
<polygon fill="lightblue" stroke="black" points="532.88,-372 478.88,-372 478.88,-336 532.88,-336 532.88,-372"/>
<polygon fill="none" stroke="black" points="536.88,-376 474.88,-376 474.88,-332 536.88,-332 536.88,-376"/>
<text text-anchor="middle" x="505.88" y="-348.57" font-family="Times New Roman,serif" font-size="14.00">Math</text>
</g>
<!-- IntelligentApplication&#45;&gt;Math -->
<g id="edge1" class="edge">
<title>IntelligentApplication&#45;&gt;Math</title>
<path fill="none" stroke="black" d="M173.54,-304.53C188.55,-307.06 204.29,-309.67 219,-312 305.73,-325.75 407.51,-340.33 463.21,-348.18"/>
<polygon fill="black" stroke="black" points="462.49,-351.61 472.88,-349.54 463.46,-344.68 462.49,-351.61"/>
<text text-anchor="middle" x="319.12" y="-343.45" font-family="Times New Roman,serif" font-size="14.00">models intelligence with</text>
</g>
<!-- Philosophy -->
<g id="node9" class="node">
<title>Philosophy</title>
<polygon fill="lightblue" stroke="black" points="545.38,-310 466.38,-310 466.38,-274 545.38,-274 545.38,-310"/>
<polygon fill="none" stroke="black" points="549.38,-314 462.38,-314 462.38,-270 549.38,-270 549.38,-314"/>
<text text-anchor="middle" x="505.88" y="-286.57" font-family="Times New Roman,serif" font-size="14.00">Philosophy</text>
</g>
<!-- IntelligentApplication&#45;&gt;Philosophy -->
<g id="edge2" class="edge">
<title>IntelligentApplication&#45;&gt;Philosophy</title>
<path fill="none" stroke="black" d="M173.62,-292C253.04,-292 378.95,-292 450.49,-292"/>
<polygon fill="black" stroke="black" points="450.4,-295.5 460.4,-292 450.4,-288.5 450.4,-295.5"/>
<text text-anchor="middle" x="319.12" y="-294.45" font-family="Times New Roman,serif" font-size="14.00">models world using</text>
</g>
<!-- ComputerProgram -->
<g id="node23" class="node">
<title>ComputerProgram</title>
<g id="a_node23"><a xlink:href="https://en.wikipedia.org/wiki/Computer_program" xlink:title=" &lt;i&gt;&lt;u&gt;Computer Program&lt;/u&gt;&lt;/i&gt; ">
<polygon fill="lightyellow" stroke="black" points="573.88,-252 437.88,-252 437.88,-216 573.88,-216 573.88,-252"/>
<text text-anchor="start" x="445.88" y="-229.57" font-family="Times New Roman,serif" font-size="14.00"> </text>
<text text-anchor="start" x="449.62" y="-229.57" font-family="Times New Roman,serif" font-style="italic" text-decoration="underline" font-size="14.00">Computer Program</text>
<text text-anchor="start" x="562.12" y="-229.57" font-family="Times New Roman,serif" font-size="14.00"> </text>
</a>
</g>
</g>
<!-- IntelligentApplication&#45;&gt;ComputerProgram -->
<g id="edge6" class="edge">
<title>IntelligentApplication&#45;&gt;ComputerProgram</title>
<path fill="none" stroke="black" d="M173.52,-279.5C188.54,-277.01 204.27,-274.47 219,-272.25 288.98,-261.69 368.82,-251.13 426.3,-243.79"/>
<polygon fill="black" stroke="black" points="426.51,-247.29 435.99,-242.56 425.63,-240.35 426.51,-247.29"/>
<text text-anchor="middle" x="319.12" y="-274.45" font-family="Times New Roman,serif" font-size="14.00">is EXACTLY a</text>
</g>
<!-- Software -->
<g id="node24" class="node">
<title>Software</title>
<g id="a_node24"><a xlink:href="https://en.wikipedia.org/wiki/Software" xlink:title=" &lt;i&gt;&lt;u&gt;Software&lt;/u&gt;&lt;/i&gt; ">
<polygon fill="lightyellow" stroke="black" points="542.75,-198 469,-198 469,-162 542.75,-162 542.75,-198"/>
<text text-anchor="start" x="477" y="-175.57" font-family="Times New Roman,serif" font-size="14.00"> </text>
<text text-anchor="start" x="480.75" y="-175.57" font-family="Times New Roman,serif" font-style="italic" text-decoration="underline" font-size="14.00">Software</text>
<text text-anchor="start" x="531" y="-175.57" font-family="Times New Roman,serif" font-size="14.00"> </text>
</a>
</g>
</g>
<!-- IntelligentApplication&#45;&gt;Software -->
<g id="edge5" class="edge">
<title>IntelligentApplication&#45;&gt;Software</title>
<path fill="none" stroke="black" d="M173.63,-277.23C183.51,-273.09 193,-267.79 201,-261 214.57,-249.5 204.63,-235.74 219,-225.25 289.72,-173.61 396.63,-171.31 457.69,-175.1"/>
<polygon fill="black" stroke="black" points="457.17,-178.57 467.39,-175.79 457.67,-171.59 457.17,-178.57"/>
<text text-anchor="middle" x="319.12" y="-227.45" font-family="Times New Roman,serif" font-size="14.00">is implemented as</text>
</g>
<!-- Device -->
<g id="node25" class="node">
<title>Device</title>
<g id="a_node25"><a xlink:href="https://en.wikipedia.org/wiki/Device" xlink:title=" &lt;i&gt;&lt;u&gt;Device&lt;/u&gt;&lt;/i&gt; ">
<polygon fill="lightyellow" stroke="black" points="536.75,-90 475,-90 475,-54 536.75,-54 536.75,-90"/>
<text text-anchor="start" x="483" y="-67.58" font-family="Times New Roman,serif" font-size="14.00"> </text>
<text text-anchor="start" x="486.75" y="-67.58" font-family="Times New Roman,serif" font-style="italic" text-decoration="underline" font-size="14.00">Device</text>
<text text-anchor="start" x="525" y="-67.58" font-family="Times New Roman,serif" font-size="14.00"> </text>
</a>
</g>
</g>
<!-- IntelligentApplication&#45;&gt;Device -->
<g id="edge7" class="edge">
<title>IntelligentApplication&#45;&gt;Device</title>
<path fill="none" stroke="black" d="M173.62,-280.14C183.99,-275.63 193.63,-269.45 201,-261 232.91,-224.41 186.63,-189.44 219,-153.25 281.85,-82.98 400.62,-71.63 463.47,-70.89"/>
<polygon fill="black" stroke="black" points="463.38,-74.39 473.38,-70.87 463.37,-67.39 463.38,-74.39"/>
<text text-anchor="middle" x="319.12" y="-155.45" font-family="Times New Roman,serif" font-size="14.00">can be accessed from EXACTLY a</text>
</g>
<!-- IntelligentCapability&#45;&gt;TeachingMethod -->
<g id="edge10" class="edge">
<title>IntelligentCapability&#45;&gt;TeachingMethod</title>
<path fill="none" stroke="black" d="M517.65,-521.23C531.47,-547.52 557.87,-590.86 592.5,-616 604.25,-624.53 675.39,-647.01 731.76,-664.01"/>
<polygon fill="black" stroke="black" points="730.42,-667.26 741.01,-666.79 732.44,-660.56 730.42,-667.26"/>
<text text-anchor="middle" x="643.88" y="-654.45" font-family="Times New Roman,serif" font-size="14.00">uses one or many</text>
</g>
<!-- SoundToMath -->
<g id="node10" class="node">
<title>SoundToMath</title>
<polygon fill="lightblue" stroke="black" points="854,-579 754,-579 754,-543 854,-543 854,-579"/>
<polygon fill="none" stroke="black" points="858,-583 750,-583 750,-539 858,-539 858,-583"/>
<text text-anchor="middle" x="804" y="-555.58" font-family="Times New Roman,serif" font-size="14.00">Sound to Math</text>
</g>
<!-- IntelligentCapability&#45;&gt;SoundToMath -->
<g id="edge22" class="edge">
<title>IntelligentCapability&#45;&gt;SoundToMath</title>
<path fill="none" stroke="black" d="M574.6,-515.03C580.65,-516.4 586.68,-517.74 592.5,-519 641.38,-529.58 696.85,-540.61 738.58,-548.71"/>
<polygon fill="black" stroke="black" points="737.73,-552.11 748.21,-550.57 739.06,-545.24 737.73,-552.11"/>
<text text-anchor="middle" x="643.88" y="-541.45" font-family="Times New Roman,serif" font-size="14.00">is parent to</text>
</g>
<!-- TextToSpeech -->
<g id="node11" class="node">
<title>TextToSpeech</title>
<polygon fill="lightblue" stroke="black" points="853.62,-517 754.38,-517 754.38,-481 853.62,-481 853.62,-517"/>
<polygon fill="none" stroke="black" points="857.62,-521 750.38,-521 750.38,-477 857.62,-477 857.62,-521"/>
<text text-anchor="middle" x="804" y="-493.57" font-family="Times New Roman,serif" font-size="14.00">Text to speech</text>
</g>
<!-- IntelligentCapability&#45;&gt;TextToSpeech -->
<g id="edge15" class="edge">
<title>IntelligentCapability&#45;&gt;TextToSpeech</title>
<path fill="none" stroke="black" d="M574.81,-499C624.13,-499 690.43,-499 738.85,-499"/>
<polygon fill="black" stroke="black" points="738.62,-502.5 748.62,-499 738.62,-495.5 738.62,-502.5"/>
<text text-anchor="middle" x="643.88" y="-501.45" font-family="Times New Roman,serif" font-size="14.00">enables</text>
</g>
<!-- Recommender -->
<g id="node15" class="node">
<title>Recommender</title>
<polygon fill="lightblue" stroke="black" points="890.75,-455 717.25,-455 717.25,-419 890.75,-419 890.75,-455"/>
<polygon fill="none" stroke="black" points="894.75,-459 713.25,-459 713.25,-415 894.75,-415 894.75,-459"/>
<text text-anchor="middle" x="804" y="-431.57" font-family="Times New Roman,serif" font-size="14.00">Generate Recommendations</text>
</g>
<!-- IntelligentCapability&#45;&gt;Recommender -->
<g id="edge16" class="edge">
<title>IntelligentCapability&#45;&gt;Recommender</title>
<path fill="none" stroke="black" d="M574.61,-483.19C580.65,-481.83 586.68,-480.5 592.5,-479.25 628.09,-471.58 667.17,-463.61 701.89,-456.68"/>
<polygon fill="black" stroke="black" points="702.39,-460.15 711.51,-454.77 701.02,-453.29 702.39,-460.15"/>
<text text-anchor="middle" x="643.88" y="-481.45" font-family="Times New Roman,serif" font-size="14.00">enables</text>
</g>
<!-- GenerativeCapability -->
<g id="node16" class="node">
<title>GenerativeCapability</title>
<polygon fill="lightblue" stroke="black" points="871.62,-393 736.38,-393 736.38,-357 871.62,-357 871.62,-393"/>
<polygon fill="none" stroke="black" points="875.62,-397 732.38,-397 732.38,-353 875.62,-353 875.62,-397"/>
<text text-anchor="middle" x="804" y="-369.57" font-family="Times New Roman,serif" font-size="14.00">Generative Capability</text>
</g>
<!-- IntelligentCapability&#45;&gt;GenerativeCapability -->
<g id="edge18" class="edge">
<title>IntelligentCapability&#45;&gt;GenerativeCapability</title>
<path fill="none" stroke="black" d="M533.59,-476.6C549.8,-463.92 571.37,-448.57 592.5,-438.25 633.08,-418.42 681.14,-403.41 721.09,-392.99"/>
<polygon fill="black" stroke="black" points="721.83,-396.41 730.66,-390.55 720.1,-389.63 721.83,-396.41"/>
<text text-anchor="middle" x="643.88" y="-440.45" font-family="Times New Roman,serif" font-size="14.00">is parent to</text>
</g>
<!-- FeatureX -->
<g id="node21" class="node">
<title>FeatureX</title>
<ellipse fill="lightblue" stroke="black" cx="804" cy="-623" rx="47.07" ry="18"/>
<ellipse fill="none" stroke="black" cx="804" cy="-623" rx="51.07" ry="22"/>
<text text-anchor="middle" x="804" y="-617.58" font-family="Times New Roman,serif" font-size="14.00">Feature X</text>
</g>
<!-- IntelligentCapability&#45;&gt;FeatureX -->
<g id="edge17" class="edge">
<title>IntelligentCapability&#45;&gt;FeatureX</title>
<path fill="none" stroke="black" d="M534.02,-521.37C550.2,-533.83 571.61,-548.83 592.5,-559 642.26,-583.23 703.12,-600.53 746.58,-610.99"/>
<polygon fill="black" stroke="black" points="745.5,-614.33 756.04,-613.22 747.11,-607.52 745.5,-614.33"/>
<text text-anchor="middle" x="643.88" y="-598.45" font-family="Times New Roman,serif" font-size="14.00">enables</text>
</g>
<!-- ComputeUnit -->
<g id="node7" class="node">
<title>ComputeUnit</title>
<polygon fill="lightblue" stroke="black" points="851.38,-90 756.62,-90 756.62,-54 851.38,-54 851.38,-90"/>
<polygon fill="none" stroke="black" points="855.38,-94 752.62,-94 752.62,-50 855.38,-50 855.38,-94"/>
<text text-anchor="middle" x="804" y="-66.58" font-family="Times New Roman,serif" font-size="14.00">Compute Unit</text>
</g>
<!-- Mathematics -->
<g id="node28" class="node">
<title>Mathematics</title>
<g id="a_node28"><a xlink:href="https://en.wikipedia.org/wiki/Mathematics" xlink:title=" &lt;i&gt;&lt;u&gt;Mathematics&lt;/u&gt;&lt;/i&gt; ">
<polygon fill="lightyellow" stroke="black" points="852.5,-335 755.5,-335 755.5,-299 852.5,-299 852.5,-335"/>
<text text-anchor="start" x="763.5" y="-312.57" font-family="Times New Roman,serif" font-size="14.00"> </text>
<text text-anchor="start" x="767.25" y="-312.57" font-family="Times New Roman,serif" font-style="italic" text-decoration="underline" font-size="14.00">Mathematics</text>
<text text-anchor="start" x="840.75" y="-312.57" font-family="Times New Roman,serif" font-size="14.00"> </text>
</a>
</g>
</g>
<!-- Math&#45;&gt;Mathematics -->
<g id="edge3" class="edge">
<title>Math&#45;&gt;Mathematics</title>
<path fill="none" stroke="black" d="M537.17,-350.21C585.67,-344.15 681.62,-332.17 744,-324.37"/>
<polygon fill="black" stroke="black" points="744.24,-327.87 753.73,-323.16 743.38,-320.92 744.24,-327.87"/>
<text text-anchor="middle" x="643.88" y="-345.45" font-family="Times New Roman,serif" font-size="14.00">current knowledge</text>
</g>
<!-- WikiPhilosophy -->
<g id="node29" class="node">
<title>WikiPhilosophy</title>
<g id="a_node29"><a xlink:href="https://en.wikipedia.org/wiki/Philosophy" xlink:title=" &lt;i&gt;&lt;u&gt;Wiki:Philosophy&lt;/u&gt;&lt;/i&gt; ">
<polygon fill="lightyellow" stroke="black" points="862.62,-281 745.38,-281 745.38,-245 862.62,-245 862.62,-281"/>
<text text-anchor="start" x="753.38" y="-258.57" font-family="Times New Roman,serif" font-size="14.00"> </text>
<text text-anchor="start" x="757.12" y="-258.57" font-family="Times New Roman,serif" font-style="italic" text-decoration="underline" font-size="14.00">Wiki:Philosophy</text>
<text text-anchor="start" x="850.88" y="-258.57" font-family="Times New Roman,serif" font-size="14.00"> </text>
</a>
</g>
</g>
<!-- Philosophy&#45;&gt;WikiPhilosophy -->
<g id="edge4" class="edge">
<title>Philosophy&#45;&gt;WikiPhilosophy</title>
<path fill="none" stroke="black" d="M549.48,-285.05C563.19,-282.98 578.46,-280.84 592.5,-279.25 639.61,-273.93 692.85,-269.84 734,-267.09"/>
<polygon fill="black" stroke="black" points="734.01,-270.6 743.76,-266.45 733.55,-263.61 734.01,-270.6"/>
<text text-anchor="middle" x="643.88" y="-281.45" font-family="Times New Roman,serif" font-size="14.00">current knowledge</text>
</g>
<!-- VoiceToBird -->
<g id="node17" class="node">
<title>VoiceToBird</title>
<ellipse fill="lightblue" stroke="black" cx="1086.99" cy="-530" rx="61.04" ry="18"/>
<ellipse fill="none" stroke="black" cx="1086.99" cy="-530" rx="65.04" ry="22"/>
<text text-anchor="middle" x="1086.99" y="-524.58" font-family="Times New Roman,serif" font-size="14.00">Voice to Bird</text>
</g>
<!-- SoundToMath&#45;&gt;VoiceToBird -->
<g id="edge24" class="edge">
<title>SoundToMath&#45;&gt;VoiceToBird</title>
<path fill="none" stroke="black" d="M858.18,-555.13C902.08,-550.29 964.81,-543.37 1013.33,-538.02"/>
<polygon fill="black" stroke="black" points="1013.65,-541.5 1023.21,-536.93 1012.88,-534.54 1013.65,-541.5"/>
<text text-anchor="middle" x="943.88" y="-550.45" font-family="Times New Roman,serif" font-size="14.00">is parent to</text>
</g>
<!-- VoiceToSong -->
<g id="node18" class="node">
<title>VoiceToSong</title>
<ellipse fill="lightblue" stroke="black" cx="1086.99" cy="-468" rx="64.54" ry="18"/>
<ellipse fill="none" stroke="black" cx="1086.99" cy="-468" rx="68.54" ry="22"/>
<text text-anchor="middle" x="1086.99" y="-462.57" font-family="Times New Roman,serif" font-size="14.00">Voice to Song</text>
</g>
<!-- SoundToMath&#45;&gt;VoiceToSong -->
<g id="edge25" class="edge">
<title>SoundToMath&#45;&gt;VoiceToSong</title>
<path fill="none" stroke="black" d="M858.39,-543.29C870.41,-539.1 883.07,-534.53 894.75,-530 902.87,-526.85 904.58,-525.28 912.75,-522.25 949.12,-508.77 990.57,-495.71 1023.8,-485.78"/>
<polygon fill="black" stroke="black" points="1024.69,-489.17 1033.28,-482.97 1022.7,-482.46 1024.69,-489.17"/>
<text text-anchor="middle" x="943.88" y="-524.45" font-family="Times New Roman,serif" font-size="14.00">is parent to</text>
</g>
<!-- LanguageTranslation -->
<g id="node19" class="node">
<title>LanguageTranslation</title>
<ellipse fill="lightblue" stroke="black" cx="1086.99" cy="-716" rx="89.99" ry="18"/>
<ellipse fill="none" stroke="black" cx="1086.99" cy="-716" rx="93.99" ry="22"/>
<text text-anchor="middle" x="1086.99" y="-710.58" font-family="Times New Roman,serif" font-size="14.00">Language Translation</text>
</g>
<!-- SoundToMath&#45;&gt;LanguageTranslation -->
<g id="edge26" class="edge">
<title>SoundToMath&#45;&gt;LanguageTranslation</title>
<path fill="none" stroke="black" d="M858.16,-570.98C871.4,-575.57 884.68,-582.26 894.75,-592 910.83,-607.55 898.2,-622.01 912.75,-639 939.49,-670.23 955.48,-668.19 993,-685 1000.67,-688.43 1008.83,-691.7 1017.02,-694.73"/>
<polygon fill="black" stroke="black" points="1015.75,-697.99 1026.34,-698.06 1018.1,-691.39 1015.75,-697.99"/>
<text text-anchor="middle" x="943.88" y="-679.45" font-family="Times New Roman,serif" font-size="14.00">is parent to</text>
</g>
<!-- SpeechToText -->
<g id="node20" class="node">
<title>SpeechToText</title>
<ellipse fill="lightblue" stroke="black" cx="1086.99" cy="-654" rx="64.04" ry="18"/>
<ellipse fill="none" stroke="black" cx="1086.99" cy="-654" rx="68.04" ry="22"/>
<text text-anchor="middle" x="1086.99" y="-648.58" font-family="Times New Roman,serif" font-size="14.00">Speech to text</text>
</g>
<!-- SoundToMath&#45;&gt;SpeechToText -->
<g id="edge23" class="edge">
<title>SoundToMath&#45;&gt;SpeechToText</title>
<path fill="none" stroke="black" d="M858.27,-579.02C870.3,-583.2 882.99,-587.68 894.75,-592 902.81,-594.96 904.66,-596.14 912.75,-599 949.78,-612.06 991.74,-625.42 1025.09,-635.7"/>
<polygon fill="black" stroke="black" points="1024.02,-639.03 1034.6,-638.62 1026.07,-632.34 1024.02,-639.03"/>
<text text-anchor="middle" x="943.88" y="-621.45" font-family="Times New Roman,serif" font-size="14.00">is parent to</text>
</g>
<!-- FeatureY -->
<g id="node22" class="node">
<title>FeatureY</title>
<ellipse fill="lightblue" stroke="black" cx="1086.99" cy="-592" rx="47.07" ry="18"/>
<ellipse fill="none" stroke="black" cx="1086.99" cy="-592" rx="51.07" ry="22"/>
<text text-anchor="middle" x="1086.99" y="-586.58" font-family="Times New Roman,serif" font-size="14.00">Feature Y</text>
</g>
<!-- SoundToMath&#45;&gt;FeatureY -->
<g id="edge27" class="edge">
<title>SoundToMath&#45;&gt;FeatureY</title>
<path fill="none" stroke="black" d="M858.18,-566.87C906.01,-572.14 976.19,-579.89 1026,-585.38"/>
<polygon fill="black" stroke="black" points="1025.42,-588.84 1035.75,-586.46 1026.19,-581.88 1025.42,-588.84"/>
<text text-anchor="middle" x="943.88" y="-581.45" font-family="Times New Roman,serif" font-size="14.00">enables</text>
</g>
<!-- TextGeneration -->
<g id="node12" class="node">
<title>TextGeneration</title>
<polygon fill="lightblue" stroke="black" points="1138.11,-300 1035.86,-300 1035.86,-264 1138.11,-264 1138.11,-300"/>
<polygon fill="none" stroke="black" points="1142.11,-304 1031.86,-304 1031.86,-260 1142.11,-260 1142.11,-304"/>
<text text-anchor="middle" x="1086.99" y="-276.57" font-family="Times New Roman,serif" font-size="14.00">Text generation</text>
</g>
<!-- ImageGeneration -->
<g id="node13" class="node">
<title>ImageGeneration</title>
<polygon fill="lightblue" stroke="black" points="1142.24,-424 1031.74,-424 1031.74,-388 1142.24,-388 1142.24,-424"/>
<polygon fill="none" stroke="black" points="1146.24,-428 1027.74,-428 1027.74,-384 1146.24,-384 1146.24,-428"/>
<text text-anchor="middle" x="1086.99" y="-400.57" font-family="Times New Roman,serif" font-size="14.00">Image generation</text>
</g>
<!-- VideoGeneration -->
<g id="node14" class="node">
<title>VideoGeneration</title>
<polygon fill="lightblue" stroke="black" points="1142.24,-362 1031.74,-362 1031.74,-326 1142.24,-326 1142.24,-362"/>
<polygon fill="none" stroke="black" points="1146.24,-366 1027.74,-366 1027.74,-322 1146.24,-322 1146.24,-366"/>
<text text-anchor="middle" x="1086.99" y="-338.57" font-family="Times New Roman,serif" font-size="14.00">Video generation</text>
</g>
<!-- GenerativeCapability&#45;&gt;TextGeneration -->
<g id="edge19" class="edge">
<title>GenerativeCapability&#45;&gt;TextGeneration</title>
<path fill="none" stroke="black" d="M871.85,-352.52C879.6,-349.73 887.37,-346.86 894.75,-344 902.87,-340.85 904.58,-339.28 912.75,-336.25 948.06,-323.16 988.15,-310.47 1020.86,-300.66"/>
<polygon fill="black" stroke="black" points="1021.62,-304.09 1030.21,-297.88 1019.63,-297.38 1021.62,-304.09"/>
<text text-anchor="middle" x="943.88" y="-338.45" font-family="Times New Roman,serif" font-size="14.00">is parent to</text>
</g>
<!-- GenerativeCapability&#45;&gt;ImageGeneration -->
<g id="edge20" class="edge">
<title>GenerativeCapability&#45;&gt;ImageGeneration</title>
<path fill="none" stroke="black" d="M875.9,-382.82C918.79,-387.55 973.26,-393.56 1015.99,-398.28"/>
<polygon fill="black" stroke="black" points="1015.6,-401.76 1025.92,-399.37 1016.36,-394.8 1015.6,-401.76"/>
<text text-anchor="middle" x="943.88" y="-395.45" font-family="Times New Roman,serif" font-size="14.00">is parent to</text>
</g>
<!-- GenerativeCapability&#45;&gt;VideoGeneration -->
<g id="edge21" class="edge">
<title>GenerativeCapability&#45;&gt;VideoGeneration</title>
<path fill="none" stroke="black" d="M875.9,-367.18C918.79,-362.45 973.26,-356.44 1015.99,-351.72"/>
<polygon fill="black" stroke="black" points="1016.36,-355.2 1025.92,-350.63 1015.6,-348.24 1016.36,-355.2"/>
<text text-anchor="middle" x="943.88" y="-364.45" font-family="Times New Roman,serif" font-size="14.00">is parent to</text>
</g>
<!-- SoftwareFeature -->
<g id="node30" class="node">
<title>SoftwareFeature</title>
<g id="a_node30"><a xlink:href="https://en.wikipedia.org/wiki/Software_feature" xlink:title=" &lt;i&gt;&lt;u&gt;Software Feature&lt;/u&gt;&lt;/i&gt; ">
<ellipse fill="lightyellow" stroke="black" cx="804" cy="-180" rx="81.5" ry="18"/>
<text text-anchor="start" x="750.75" y="-175.57" font-family="Times New Roman,serif" font-size="14.00"> </text>
<text text-anchor="start" x="754.5" y="-175.57" font-family="Times New Roman,serif" font-style="italic" text-decoration="underline" font-size="14.00">Software Feature</text>
<text text-anchor="start" x="853.5" y="-175.57" font-family="Times New Roman,serif" font-size="14.00"> </text>
</a>
</g>
</g>
<!-- Software&#45;&gt;SoftwareFeature -->
<g id="edge11" class="edge">
<title>Software&#45;&gt;SoftwareFeature</title>
<path fill="none" stroke="black" d="M543.19,-180C584.74,-180 654.37,-180 711.09,-180"/>
<polygon fill="black" stroke="black" points="710.74,-183.5 720.74,-180 710.74,-176.5 710.74,-183.5"/>
<text text-anchor="middle" x="643.88" y="-182.45" font-family="Times New Roman,serif" font-size="14.00">has one or many</text>
</g>
<!-- Device&#45;&gt;ComputeUnit -->
<g id="edge12" class="edge">
<title>Device&#45;&gt;ComputeUnit</title>
<path fill="none" stroke="black" d="M537.17,-72C584.91,-72 678.61,-72 741.03,-72"/>
<polygon fill="black" stroke="black" points="740.79,-75.5 750.79,-72 740.79,-68.5 740.79,-75.5"/>
<text text-anchor="middle" x="643.88" y="-74.45" font-family="Times New Roman,serif" font-size="14.00">has one or many</text>
</g>
<!-- CPU -->
<g id="node26" class="node">
<title>CPU</title>
<g id="a_node26"><a xlink:href="https://en.wikipedia.org/wiki/Central_processing_unit" xlink:title=" &lt;i&gt;&lt;u&gt;CPU&lt;/u&gt;&lt;/i&gt; ">
<polygon fill="lightyellow" stroke="black" points="532.88,-36 478.88,-36 478.88,0 532.88,0 532.88,-36"/>
<text text-anchor="start" x="487.5" y="-13.57" font-family="Times New Roman,serif" font-size="14.00"> </text>
<text text-anchor="start" x="491.25" y="-13.57" font-family="Times New Roman,serif" font-style="italic" text-decoration="underline" font-size="14.00">CPU</text>
<text text-anchor="start" x="520.5" y="-13.57" font-family="Times New Roman,serif" font-size="14.00"> </text>
</a>
</g>
</g>
<!-- CPU&#45;&gt;ComputeUnit -->
<g id="edge13" class="edge">
<title>CPU&#45;&gt;ComputeUnit</title>
<path fill="none" stroke="black" d="M533.08,-22.75C569.48,-29.36 637.37,-41.68 695.25,-52.25 710.08,-54.96 726.07,-57.88 741.06,-60.63"/>
<polygon fill="black" stroke="black" points="740.34,-64.06 750.81,-62.42 741.61,-57.17 740.34,-64.06"/>
<text text-anchor="middle" x="643.88" y="-55.45" font-family="Times New Roman,serif" font-size="14.00">is instance of</text>
</g>
<!-- GPU -->
<g id="node27" class="node">
<title>GPU</title>
<g id="a_node27"><a xlink:href="https://en.wikipedia.org/wiki/Graphics_processing_unit" xlink:title=" &lt;i&gt;&lt;u&gt;GPU&lt;/u&gt;&lt;/i&gt; ">
<polygon fill="lightyellow" stroke="black" points="532.88,-144 478.88,-144 478.88,-108 532.88,-108 532.88,-144"/>
<text text-anchor="start" x="487.12" y="-121.58" font-family="Times New Roman,serif" font-size="14.00"> </text>
<text text-anchor="start" x="490.88" y="-121.58" font-family="Times New Roman,serif" font-style="italic" text-decoration="underline" font-size="14.00">GPU</text>
<text text-anchor="start" x="520.88" y="-121.58" font-family="Times New Roman,serif" font-size="14.00"> </text>
</a>
</g>
</g>
<!-- GPU&#45;&gt;ComputeUnit -->
<g id="edge14" class="edge">
<title>GPU&#45;&gt;ComputeUnit</title>
<path fill="none" stroke="black" d="M533.09,-121.31C569.49,-114.79 637.39,-102.59 695.25,-92 710.09,-89.28 726.07,-86.33 741.07,-83.55"/>
<polygon fill="black" stroke="black" points="741.63,-87.01 750.82,-81.74 740.35,-80.12 741.63,-87.01"/>
<text text-anchor="middle" x="643.88" y="-112.45" font-family="Times New Roman,serif" font-size="14.00">is instance of</text>
</g>
</g>
</svg>
