<?xml version="1.0" encoding="UTF-8" standalone="no"?>
<!DOCTYPE svg PUBLIC "-//W3C//DTD SVG 1.1//EN"
 "http://www.w3.org/Graphics/SVG/1.1/DTD/svg11.dtd">
<!-- Generated by graphviz version 9.0.0 (20230911.1827)
 -->
<!-- Title: Intelligent Application Pages: 1 -->
<svg width="894pt" height="1220pt"
 viewBox="0.00 0.00 894.22 1219.87" xmlns="http://www.w3.org/2000/svg" xmlns:xlink="http://www.w3.org/1999/xlink">
<g id="graph0" class="graph" transform="scale(1 1) rotate(0) translate(4 1215.87)">
<title>Intelligent Application</title>
<polygon fill="white" stroke="none" points="-4,4 -4,-1215.87 890.22,-1215.87 890.22,4 -4,4"/>
<!-- Wikipedia -->
<g id="node1" class="node">
<title>Wikipedia</title>
<g id="a_node1"><a xlink:href="https://en.wikipedia.org/" xlink:title=" &lt;i&gt;&lt;u&gt;Concept Defined in Wikipedia&lt;/u&gt;&lt;/i&gt; ">
<polygon fill="lightyellow" stroke="black" points="198.5,-443.12 2.5,-443.12 2.5,-407.12 198.5,-407.12 198.5,-443.12"/>
<text text-anchor="start" x="10.5" y="-420.69" font-family="Times New Roman,serif" font-size="14.00"> </text>
<text text-anchor="start" x="14.25" y="-420.69" font-family="Times New Roman,serif" font-style="italic" text-decoration="underline" font-size="14.00">Concept Defined in Wikipedia</text>
<text text-anchor="start" x="186.75" y="-420.69" font-family="Times New Roman,serif" font-size="14.00"> </text>
</a>
</g>
</g>
<!-- Feature -->
<g id="node2" class="node">
<title>Feature</title>
<ellipse fill="lightblue" stroke="black" cx="100.5" cy="-479.12" rx="83" ry="18"/>
<text text-anchor="start" x="46.12" y="-474.69" font-family="Times New Roman,serif" font-size="14.00"> </text>
<text text-anchor="start" x="49.88" y="-474.69" font-family="Times New Roman,serif" font-style="italic" font-size="14.00">Ellipse = Feature</text>
<text text-anchor="start" x="151.12" y="-474.69" font-family="Times New Roman,serif" font-size="14.00"> </text>
</g>
<!-- This Paper -->
<g id="node3" class="node">
<title>This Paper</title>
<polygon fill="lightblue" stroke="black" points="197,-555.12 4,-555.12 4,-519.12 197,-519.12 197,-555.12"/>
<polygon fill="none" stroke="black" points="201,-559.12 0,-559.12 0,-515.12 201,-515.12 201,-559.12"/>
<text text-anchor="start" x="12" y="-532.69" font-family="Times New Roman,serif" font-size="14.00"> </text>
<text text-anchor="start" x="15.75" y="-532.69" font-family="Times New Roman,serif" font-style="italic" font-size="14.00">Concept defined in this paper</text>
<text text-anchor="start" x="185.25" y="-532.69" font-family="Times New Roman,serif" font-size="14.00"> </text>
</g>
<!-- IntelligentApplication -->
<g id="node4" class="node">
<title>IntelligentApplication</title>
<polygon fill="lightblue" stroke="black" points="169.25,-617.12 31.75,-617.12 31.75,-581.12 169.25,-581.12 169.25,-617.12"/>
<polygon fill="none" stroke="black" points="173.25,-621.12 27.75,-621.12 27.75,-577.12 173.25,-577.12 173.25,-621.12"/>
<text text-anchor="middle" x="100.5" y="-593.69" font-family="Times New Roman,serif" font-size="14.00">Intelligent Application</text>
</g>
<!-- IntelligentCapability -->
<g id="node5" class="node">
<title>IntelligentCapability</title>
<polygon fill="lightblue" stroke="black" points="595.86,-1196.12 466.61,-1196.12 466.61,-1160.12 595.86,-1160.12 595.86,-1196.12"/>
<polygon fill="none" stroke="black" points="599.86,-1200.12 462.61,-1200.12 462.61,-1156.12 599.86,-1156.12 599.86,-1200.12"/>
<text text-anchor="middle" x="531.24" y="-1172.69" font-family="Times New Roman,serif" font-size="14.00">Intelligent Capability</text>
</g>
<!-- IntelligentApplication&#45;&gt;IntelligentCapability -->
<g id="edge8" class="edge">
<title>IntelligentApplication&#45;&gt;IntelligentCapability</title>
<path fill="none" stroke="black" d="M173.59,-609.74C184.24,-614.37 193.97,-620.91 201,-630.12 235.14,-674.83 181.23,-1094.42 219,-1136.12 276.07,-1199.11 379.07,-1200.96 450.88,-1192.77"/>
<polygon fill="black" stroke="black" points="451.13,-1196.26 460.63,-1191.56 450.27,-1189.31 451.13,-1196.26"/>
<text text-anchor="middle" x="319.12" y="-1198.57" font-family="Times New Roman,serif" font-size="14.00">has at least one</text>
</g>
<!-- TeachingMethod -->
<g id="node6" class="node">
<title>TeachingMethod</title>
<polygon fill="lightblue" stroke="black" points="882.22,-1162.12 767.97,-1162.12 767.97,-1126.12 882.22,-1126.12 882.22,-1162.12"/>
<polygon fill="none" stroke="black" points="886.22,-1166.12 763.97,-1166.12 763.97,-1122.12 886.22,-1122.12 886.22,-1166.12"/>
<text text-anchor="middle" x="825.1" y="-1138.69" font-family="Times New Roman,serif" font-size="14.00">Teaching Method</text>
</g>
<!-- IntelligentApplication&#45;&gt;TeachingMethod -->
<g id="edge9" class="edge">
<title>IntelligentApplication&#45;&gt;TeachingMethod</title>
<path fill="none" stroke="black" d="M173.57,-609.76C184.22,-614.39 193.96,-620.92 201,-630.12 232.84,-671.7 182.58,-1063.48 219,-1101.12 221.3,-1103.49 592.74,-1128.63 752.45,-1139.33"/>
<polygon fill="black" stroke="black" points="751.86,-1142.8 762.07,-1139.98 752.33,-1135.81 751.86,-1142.8"/>
<text text-anchor="middle" x="531.24" y="-1132.57" font-family="Times New Roman,serif" font-size="14.00">has at least one</text>
</g>
<!-- Math -->
<g id="node8" class="node">
<title>Math</title>
<polygon fill="lightblue" stroke="black" points="558.24,-1082.12 504.24,-1082.12 504.24,-1046.12 558.24,-1046.12 558.24,-1082.12"/>
<polygon fill="none" stroke="black" points="562.24,-1086.12 500.24,-1086.12 500.24,-1042.12 562.24,-1042.12 562.24,-1086.12"/>
<text text-anchor="middle" x="531.24" y="-1058.69" font-family="Times New Roman,serif" font-size="14.00">Math</text>
</g>
<!-- IntelligentApplication&#45;&gt;Math -->
<g id="edge1" class="edge">
<title>IntelligentApplication&#45;&gt;Math</title>
<path fill="none" stroke="black" d="M173.51,-609.8C184.17,-614.43 193.92,-620.95 201,-630.12 227.64,-664.63 189.56,-989.95 219,-1022.12 287.56,-1097.01 421.07,-1085.17 488.76,-1073.15"/>
<polygon fill="black" stroke="black" points="489.15,-1076.64 498.33,-1071.35 487.86,-1069.75 489.15,-1076.64"/>
<text text-anchor="middle" x="319.12" y="-1083.57" font-family="Times New Roman,serif" font-size="14.00">models intelligence with</text>
</g>
<!-- Philosophy -->
<g id="node9" class="node">
<title>Philosophy</title>
<polygon fill="lightblue" stroke="black" points="570.74,-1020.12 491.74,-1020.12 491.74,-984.12 570.74,-984.12 570.74,-1020.12"/>
<polygon fill="none" stroke="black" points="574.74,-1024.12 487.74,-1024.12 487.74,-980.12 574.74,-980.12 574.74,-1024.12"/>
<text text-anchor="middle" x="531.24" y="-996.69" font-family="Times New Roman,serif" font-size="14.00">Philosophy</text>
</g>
<!-- IntelligentApplication&#45;&gt;Philosophy -->
<g id="edge2" class="edge">
<title>IntelligentApplication&#45;&gt;Philosophy</title>
<path fill="none" stroke="black" d="M173.45,-609.85C184.11,-614.47 193.89,-620.98 201,-630.12 246.39,-688.42 168.71,-907.98 219,-962.12 252.79,-998.49 396.26,-1003.35 476.09,-1003.12"/>
<polygon fill="black" stroke="black" points="475.89,-1006.63 485.87,-1003.07 475.85,-999.63 475.89,-1006.63"/>
<text text-anchor="middle" x="319.12" y="-1004.57" font-family="Times New Roman,serif" font-size="14.00">models world using</text>
</g>
<!-- SoundToMath -->
<g id="node10" class="node">
<title>SoundToMath</title>
<polygon fill="lightblue" stroke="black" points="581.24,-958.12 481.24,-958.12 481.24,-922.12 581.24,-922.12 581.24,-958.12"/>
<polygon fill="none" stroke="black" points="585.24,-962.12 477.24,-962.12 477.24,-918.12 585.24,-918.12 585.24,-962.12"/>
<text text-anchor="middle" x="531.24" y="-934.69" font-family="Times New Roman,serif" font-size="14.00">Sound to Math</text>
</g>
<!-- IntelligentApplication&#45;&gt;SoundToMath -->
<g id="edge23" class="edge">
<title>IntelligentApplication&#45;&gt;SoundToMath</title>
<path fill="none" stroke="black" d="M173.36,-609.92C184.03,-614.53 193.84,-621.02 201,-630.12 238.89,-678.23 176.72,-860.81 219,-905.12 251.76,-939.44 384.53,-943.23 465.7,-942.17"/>
<polygon fill="black" stroke="black" points="465.34,-945.67 475.29,-942.01 465.23,-938.67 465.34,-945.67"/>
<text text-anchor="middle" x="319.12" y="-944.57" font-family="Times New Roman,serif" font-size="14.00">is parent to</text>
</g>
<!-- TextToSpeech -->
<g id="node11" class="node">
<title>TextToSpeech</title>
<polygon fill="lightblue" stroke="black" points="580.86,-896.12 481.61,-896.12 481.61,-860.12 580.86,-860.12 580.86,-896.12"/>
<polygon fill="none" stroke="black" points="584.86,-900.12 477.61,-900.12 477.61,-856.12 584.86,-856.12 584.86,-900.12"/>
<text text-anchor="middle" x="531.24" y="-872.69" font-family="Times New Roman,serif" font-size="14.00">Text to speech</text>
</g>
<!-- IntelligentApplication&#45;&gt;TextToSpeech -->
<g id="edge12" class="edge">
<title>IntelligentApplication&#45;&gt;TextToSpeech</title>
<path fill="none" stroke="black" d="M173.26,-610.01C183.94,-614.61 193.77,-621.07 201,-630.12 232.45,-669.48 183.22,-820.65 219,-856.12 252.62,-889.44 385.41,-887.52 466.28,-882.94"/>
<polygon fill="black" stroke="black" points="466.05,-886.46 475.82,-882.37 465.63,-879.47 466.05,-886.46"/>
<text text-anchor="middle" x="319.12" y="-887.57" font-family="Times New Roman,serif" font-size="14.00">has ability to do</text>
</g>
<!-- TextGeneration -->
<g id="node12" class="node">
<title>TextGeneration</title>
<polygon fill="lightblue" stroke="black" points="582.36,-834.12 480.11,-834.12 480.11,-798.12 582.36,-798.12 582.36,-834.12"/>
<polygon fill="none" stroke="black" points="586.36,-838.12 476.11,-838.12 476.11,-794.12 586.36,-794.12 586.36,-838.12"/>
<text text-anchor="middle" x="531.24" y="-810.69" font-family="Times New Roman,serif" font-size="14.00">Text generation</text>
</g>
<!-- IntelligentApplication&#45;&gt;TextGeneration -->
<g id="edge18" class="edge">
<title>IntelligentApplication&#45;&gt;TextGeneration</title>
<path fill="none" stroke="black" d="M173.73,-610.55C184.16,-615.11 193.78,-621.41 201,-630.12 245.26,-683.51 169.56,-736.48 219,-785.12 282.93,-848.01 393.92,-842.65 464.64,-830.93"/>
<polygon fill="black" stroke="black" points="464.89,-834.44 474.13,-829.27 463.68,-827.55 464.89,-834.44"/>
<text text-anchor="middle" x="319.12" y="-840.57" font-family="Times New Roman,serif" font-size="14.00">has ability to do</text>
</g>
<!-- ImageGeneration -->
<g id="node13" class="node">
<title>ImageGeneration</title>
<polygon fill="lightblue" stroke="black" points="586.49,-772.12 475.99,-772.12 475.99,-736.12 586.49,-736.12 586.49,-772.12"/>
<polygon fill="none" stroke="black" points="590.49,-776.12 471.99,-776.12 471.99,-732.12 590.49,-732.12 590.49,-776.12"/>
<text text-anchor="middle" x="531.24" y="-748.69" font-family="Times New Roman,serif" font-size="14.00">Image generation</text>
</g>
<!-- IntelligentApplication&#45;&gt;ImageGeneration -->
<g id="edge19" class="edge">
<title>IntelligentApplication&#45;&gt;ImageGeneration</title>
<path fill="none" stroke="black" d="M173.62,-611.65C183.86,-616.08 193.46,-622.06 201,-630.12 224.42,-655.15 193.82,-681.86 219,-705.12 283.71,-764.88 390.16,-768.84 460.24,-763.56"/>
<polygon fill="black" stroke="black" points="460.41,-767.06 470.08,-762.73 459.82,-760.08 460.41,-767.06"/>
<text text-anchor="middle" x="319.12" y="-767.57" font-family="Times New Roman,serif" font-size="14.00">has ability to do</text>
</g>
<!-- VideoGeneration -->
<g id="node14" class="node">
<title>VideoGeneration</title>
<polygon fill="lightblue" stroke="black" points="586.49,-710.12 475.99,-710.12 475.99,-674.12 586.49,-674.12 586.49,-710.12"/>
<polygon fill="none" stroke="black" points="590.49,-714.12 471.99,-714.12 471.99,-670.12 590.49,-670.12 590.49,-714.12"/>
<text text-anchor="middle" x="531.24" y="-686.69" font-family="Times New Roman,serif" font-size="14.00">Video generation</text>
</g>
<!-- IntelligentApplication&#45;&gt;VideoGeneration -->
<g id="edge20" class="edge">
<title>IntelligentApplication&#45;&gt;VideoGeneration</title>
<path fill="none" stroke="black" d="M173.64,-618.89C183.01,-622.24 192.34,-625.99 201,-630.12 209.68,-634.25 210.05,-638.61 219,-642.12 298.07,-673.11 395.64,-684.9 460.23,-689.38"/>
<polygon fill="black" stroke="black" points="459.78,-692.86 469.99,-690.01 460.24,-685.88 459.78,-692.86"/>
<text text-anchor="middle" x="319.12" y="-687.57" font-family="Times New Roman,serif" font-size="14.00">has ability to do</text>
</g>
<!-- Recommender -->
<g id="node15" class="node">
<title>Recommender</title>
<polygon fill="lightblue" stroke="black" points="617.99,-648.12 444.49,-648.12 444.49,-612.12 617.99,-612.12 617.99,-648.12"/>
<polygon fill="none" stroke="black" points="621.99,-652.12 440.49,-652.12 440.49,-608.12 621.99,-608.12 621.99,-652.12"/>
<text text-anchor="middle" x="531.24" y="-624.69" font-family="Times New Roman,serif" font-size="14.00">Generate Recommendations</text>
</g>
<!-- IntelligentApplication&#45;&gt;Recommender -->
<g id="edge22" class="edge">
<title>IntelligentApplication&#45;&gt;Recommender</title>
<path fill="none" stroke="black" d="M173.58,-604.7C188.59,-605.85 204.31,-607.03 219,-608.12 289.06,-613.27 368,-618.85 428.85,-623.1"/>
<polygon fill="black" stroke="black" points="428.27,-626.57 438.49,-623.77 428.76,-619.58 428.27,-626.57"/>
<text text-anchor="middle" x="319.12" y="-624.57" font-family="Times New Roman,serif" font-size="14.00">has ability to do</text>
</g>
<!-- GenerativeCapability -->
<g id="node16" class="node">
<title>GenerativeCapability</title>
<polygon fill="lightblue" stroke="black" points="598.86,-586.12 463.61,-586.12 463.61,-550.12 598.86,-550.12 598.86,-586.12"/>
<polygon fill="none" stroke="black" points="602.86,-590.12 459.61,-590.12 459.61,-546.12 602.86,-546.12 602.86,-590.12"/>
<text text-anchor="middle" x="531.24" y="-562.69" font-family="Times New Roman,serif" font-size="14.00">Generative Capability</text>
</g>
<!-- IntelligentApplication&#45;&gt;GenerativeCapability -->
<g id="edge10" class="edge">
<title>IntelligentApplication&#45;&gt;GenerativeCapability</title>
<path fill="none" stroke="black" d="M173.74,-593.89C249.49,-588.42 368.32,-579.82 447.71,-574.08"/>
<polygon fill="black" stroke="black" points="447.89,-577.58 457.61,-573.37 447.39,-570.6 447.89,-577.58"/>
<text text-anchor="middle" x="319.12" y="-591.57" font-family="Times New Roman,serif" font-size="14.00">might have</text>
</g>
<!-- VoiceToBird -->
<g id="node17" class="node">
<title>VoiceToBird</title>
<ellipse fill="lightblue" stroke="black" cx="531.24" cy="-506.12" rx="61.04" ry="18"/>
<ellipse fill="none" stroke="black" cx="531.24" cy="-506.12" rx="65.04" ry="22"/>
<text text-anchor="middle" x="531.24" y="-500.69" font-family="Times New Roman,serif" font-size="14.00">Voice to Bird</text>
</g>
<!-- IntelligentApplication&#45;&gt;VoiceToBird -->
<g id="edge14" class="edge">
<title>IntelligentApplication&#45;&gt;VoiceToBird</title>
<path fill="none" stroke="black" d="M173.61,-579.26C182.98,-575.92 192.32,-572.2 201,-568.12 209.64,-564.04 210.09,-559.81 219,-556.37 296.05,-526.55 390.43,-514.43 454.93,-509.5"/>
<polygon fill="black" stroke="black" points="454.98,-513 464.7,-508.79 454.48,-506.02 454.98,-513"/>
<text text-anchor="middle" x="319.12" y="-558.57" font-family="Times New Roman,serif" font-size="14.00">has ability to do</text>
</g>
<!-- VoiceToSong -->
<g id="node18" class="node">
<title>VoiceToSong</title>
<ellipse fill="lightblue" stroke="black" cx="531.24" cy="-444.12" rx="64.54" ry="18"/>
<ellipse fill="none" stroke="black" cx="531.24" cy="-444.12" rx="68.54" ry="22"/>
<text text-anchor="middle" x="531.24" y="-438.69" font-family="Times New Roman,serif" font-size="14.00">Voice to Song</text>
</g>
<!-- IntelligentApplication&#45;&gt;VoiceToSong -->
<g id="edge15" class="edge">
<title>IntelligentApplication&#45;&gt;VoiceToSong</title>
<path fill="none" stroke="black" d="M173.63,-586.6C183.88,-582.17 193.47,-576.18 201,-568.12 224.61,-542.82 193.58,-515.84 219,-492.37 282.64,-433.59 386.71,-429.09 456.8,-434.19"/>
<polygon fill="black" stroke="black" points="456.42,-437.67 466.67,-435 456.99,-430.69 456.42,-437.67"/>
<text text-anchor="middle" x="319.12" y="-494.57" font-family="Times New Roman,serif" font-size="14.00">has ability to do</text>
</g>
<!-- LanguageTranslation -->
<g id="node19" class="node">
<title>LanguageTranslation</title>
<ellipse fill="lightblue" stroke="black" cx="531.24" cy="-382.12" rx="89.99" ry="18"/>
<ellipse fill="none" stroke="black" cx="531.24" cy="-382.12" rx="93.99" ry="22"/>
<text text-anchor="middle" x="531.24" y="-376.69" font-family="Times New Roman,serif" font-size="14.00">Language Translation</text>
</g>
<!-- IntelligentApplication&#45;&gt;LanguageTranslation -->
<g id="edge21" class="edge">
<title>IntelligentApplication&#45;&gt;LanguageTranslation</title>
<path fill="none" stroke="black" d="M173.74,-587.68C184.16,-583.13 193.79,-576.82 201,-568.12 245.46,-514.46 169.28,-461.19 219,-412.37 279.12,-353.33 380.73,-354.76 451.43,-365.03"/>
<polygon fill="black" stroke="black" points="450.59,-368.44 461.01,-366.52 451.66,-361.53 450.59,-368.44"/>
<text text-anchor="middle" x="319.12" y="-414.57" font-family="Times New Roman,serif" font-size="14.00">has ability to do</text>
</g>
<!-- SpeechToText -->
<g id="node20" class="node">
<title>SpeechToText</title>
<ellipse fill="lightblue" stroke="black" cx="531.24" cy="-320.12" rx="64.04" ry="18"/>
<ellipse fill="none" stroke="black" cx="531.24" cy="-320.12" rx="68.04" ry="22"/>
<text text-anchor="middle" x="531.24" y="-314.69" font-family="Times New Roman,serif" font-size="14.00">Speech to text</text>
</g>
<!-- IntelligentApplication&#45;&gt;SpeechToText -->
<g id="edge13" class="edge">
<title>IntelligentApplication&#45;&gt;SpeechToText</title>
<path fill="none" stroke="black" d="M173.26,-588.23C183.95,-583.63 193.78,-577.17 201,-568.12 232.81,-528.26 182.64,-375.12 219,-339.37 284.04,-275.41 398.28,-287.3 468.79,-302.9"/>
<polygon fill="black" stroke="black" points="467.71,-306.25 478.24,-305.09 469.29,-299.43 467.71,-306.25"/>
<text text-anchor="middle" x="319.12" y="-341.57" font-family="Times New Roman,serif" font-size="14.00">has ability to do</text>
</g>
<!-- FeatureX -->
<g id="node21" class="node">
<title>FeatureX</title>
<ellipse fill="lightblue" stroke="black" cx="531.24" cy="-258.12" rx="47.07" ry="18"/>
<ellipse fill="none" stroke="black" cx="531.24" cy="-258.12" rx="51.07" ry="22"/>
<text text-anchor="middle" x="531.24" y="-252.69" font-family="Times New Roman,serif" font-size="14.00">Feature X</text>
</g>
<!-- IntelligentApplication&#45;&gt;FeatureX -->
<g id="edge16" class="edge">
<title>IntelligentApplication&#45;&gt;FeatureX</title>
<path fill="none" stroke="black" d="M173.4,-588.34C184.07,-583.73 193.86,-577.23 201,-568.12 241.88,-515.94 171.64,-316.74 219,-270.37 287.26,-203.53 409.53,-223.11 478.76,-241.66"/>
<polygon fill="black" stroke="black" points="477.78,-245.02 488.35,-244.33 479.65,-238.27 477.78,-245.02"/>
<text text-anchor="middle" x="319.12" y="-272.57" font-family="Times New Roman,serif" font-size="14.00">has ability to do</text>
</g>
<!-- FeatureY -->
<g id="node22" class="node">
<title>FeatureY</title>
<ellipse fill="lightblue" stroke="black" cx="531.24" cy="-196.12" rx="47.07" ry="18"/>
<ellipse fill="none" stroke="black" cx="531.24" cy="-196.12" rx="51.07" ry="22"/>
<text text-anchor="middle" x="531.24" y="-190.69" font-family="Times New Roman,serif" font-size="14.00">Feature Y</text>
</g>
<!-- IntelligentApplication&#45;&gt;FeatureY -->
<g id="edge17" class="edge">
<title>IntelligentApplication&#45;&gt;FeatureY</title>
<path fill="none" stroke="black" d="M173.49,-588.41C184.14,-583.78 193.91,-577.27 201,-568.12 225.85,-536.04 189.94,-231.68 219,-203.37 287.76,-136.37 410.92,-158.85 479.9,-178.9"/>
<polygon fill="black" stroke="black" points="478.87,-182.24 489.45,-181.77 480.88,-175.54 478.87,-182.24"/>
<text text-anchor="middle" x="319.12" y="-205.57" font-family="Times New Roman,serif" font-size="14.00">has ability to do</text>
</g>
<!-- ComputerProgram -->
<g id="node23" class="node">
<title>ComputerProgram</title>
<g id="a_node23"><a xlink:href="https://en.wikipedia.org/wiki/Computer_program" xlink:title=" &lt;i&gt;&lt;u&gt;Computer Program&lt;/u&gt;&lt;/i&gt; ">
<polygon fill="lightyellow" stroke="black" points="599.24,-156.12 463.24,-156.12 463.24,-120.12 599.24,-120.12 599.24,-156.12"/>
<text text-anchor="start" x="471.24" y="-133.69" font-family="Times New Roman,serif" font-size="14.00"> </text>
<text text-anchor="start" x="474.99" y="-133.69" font-family="Times New Roman,serif" font-style="italic" text-decoration="underline" font-size="14.00">Computer Program</text>
<text text-anchor="start" x="587.49" y="-133.69" font-family="Times New Roman,serif" font-size="14.00"> </text>
</a>
</g>
</g>
<!-- IntelligentApplication&#45;&gt;ComputerProgram -->
<g id="edge6" class="edge">
<title>IntelligentApplication&#45;&gt;ComputerProgram</title>
<path fill="none" stroke="black" d="M173.54,-588.45C184.2,-583.82 193.94,-577.3 201,-568.12 230.12,-530.22 184.52,-171.46 219,-138.37 251.07,-107.59 370.45,-116.26 451.68,-126.4"/>
<polygon fill="black" stroke="black" points="451.01,-129.84 461.38,-127.64 451.9,-122.9 451.01,-129.84"/>
<text text-anchor="middle" x="319.12" y="-140.57" font-family="Times New Roman,serif" font-size="14.00">is EXACTLY a</text>
</g>
<!-- Software -->
<g id="node24" class="node">
<title>Software</title>
<g id="a_node24"><a xlink:href="https://en.wikipedia.org/wiki/Software" xlink:title=" &lt;i&gt;&lt;u&gt;Software&lt;/u&gt;&lt;/i&gt; ">
<polygon fill="lightyellow" stroke="black" points="568.11,-102.12 494.36,-102.12 494.36,-66.12 568.11,-66.12 568.11,-102.12"/>
<text text-anchor="start" x="502.36" y="-79.69" font-family="Times New Roman,serif" font-size="14.00"> </text>
<text text-anchor="start" x="506.11" y="-79.69" font-family="Times New Roman,serif" font-style="italic" text-decoration="underline" font-size="14.00">Software</text>
<text text-anchor="start" x="556.36" y="-79.69" font-family="Times New Roman,serif" font-size="14.00"> </text>
</a>
</g>
</g>
<!-- IntelligentApplication&#45;&gt;Software -->
<g id="edge5" class="edge">
<title>IntelligentApplication&#45;&gt;Software</title>
<path fill="none" stroke="black" d="M173.57,-588.47C184.22,-583.84 193.96,-577.31 201,-568.12 232.89,-526.47 181.93,-133.48 219,-96.37 254.76,-60.56 404.56,-70.56 482.56,-78.53"/>
<polygon fill="black" stroke="black" points="482.16,-82 492.47,-79.57 482.9,-75.04 482.16,-82"/>
<text text-anchor="middle" x="319.12" y="-98.57" font-family="Times New Roman,serif" font-size="14.00">is implemented as</text>
</g>
<!-- Device -->
<g id="node25" class="node">
<title>Device</title>
<g id="a_node25"><a xlink:href="https://en.wikipedia.org/wiki/Device" xlink:title=" &lt;i&gt;&lt;u&gt;Device&lt;/u&gt;&lt;/i&gt; ">
<polygon fill="lightyellow" stroke="black" points="562.11,-48.12 500.36,-48.12 500.36,-12.12 562.11,-12.12 562.11,-48.12"/>
<text text-anchor="start" x="508.36" y="-25.69" font-family="Times New Roman,serif" font-size="14.00"> </text>
<text text-anchor="start" x="512.11" y="-25.69" font-family="Times New Roman,serif" font-style="italic" text-decoration="underline" font-size="14.00">Device</text>
<text text-anchor="start" x="550.36" y="-25.69" font-family="Times New Roman,serif" font-size="14.00"> </text>
</a>
</g>
</g>
<!-- IntelligentApplication&#45;&gt;Device -->
<g id="edge7" class="edge">
<title>IntelligentApplication&#45;&gt;Device</title>
<path fill="none" stroke="black" d="M173.6,-588.49C184.25,-583.86 193.98,-577.32 201,-568.12 235.92,-522.35 178.92,-91.68 219,-50.37 289.22,22.01 421.98,-0.2 489.13,-17.68"/>
<polygon fill="black" stroke="black" points="488.07,-21.02 498.64,-20.25 489.9,-14.26 488.07,-21.02"/>
<text text-anchor="middle" x="319.12" y="-53.57" font-family="Times New Roman,serif" font-size="14.00">can be accessed from EXACTLY a</text>
</g>
<!-- IntelligentCapability&#45;&gt;TeachingMethod -->
<g id="edge11" class="edge">
<title>IntelligentCapability&#45;&gt;TeachingMethod</title>
<path fill="none" stroke="black" d="M600.3,-1170.19C646.05,-1164.86 706.24,-1157.85 752.67,-1152.44"/>
<polygon fill="black" stroke="black" points="752.83,-1155.94 762.36,-1151.31 752.02,-1148.99 752.83,-1155.94"/>
<text text-anchor="middle" x="694.6" y="-1167.57" font-family="Times New Roman,serif" font-size="14.00">uses one or many</text>
</g>
<!-- ComputeUnit -->
<g id="node7" class="node">
<title>ComputeUnit</title>
<polygon fill="lightblue" stroke="black" points="147.88,-679.12 53.12,-679.12 53.12,-643.12 147.88,-643.12 147.88,-679.12"/>
<polygon fill="none" stroke="black" points="151.88,-683.12 49.12,-683.12 49.12,-639.12 151.88,-639.12 151.88,-683.12"/>
<text text-anchor="middle" x="100.5" y="-655.69" font-family="Times New Roman,serif" font-size="14.00">Compute Unit</text>
</g>
<!-- Mathematics -->
<g id="node28" class="node">
<title>Mathematics</title>
<g id="a_node28"><a xlink:href="https://en.wikipedia.org/wiki/Mathematics" xlink:title=" &lt;i&gt;&lt;u&gt;Mathematics&lt;/u&gt;&lt;/i&gt; ">
<polygon fill="lightyellow" stroke="black" points="873.6,-1082.12 776.6,-1082.12 776.6,-1046.12 873.6,-1046.12 873.6,-1082.12"/>
<text text-anchor="start" x="784.6" y="-1059.69" font-family="Times New Roman,serif" font-size="14.00"> </text>
<text text-anchor="start" x="788.35" y="-1059.69" font-family="Times New Roman,serif" font-style="italic" text-decoration="underline" font-size="14.00">Mathematics</text>
<text text-anchor="start" x="861.85" y="-1059.69" font-family="Times New Roman,serif" font-size="14.00"> </text>
</a>
</g>
</g>
<!-- Math&#45;&gt;Mathematics -->
<g id="edge3" class="edge">
<title>Math&#45;&gt;Mathematics</title>
<path fill="none" stroke="black" d="M562.64,-1064.12C610.31,-1064.12 703.48,-1064.12 764.76,-1064.12"/>
<polygon fill="black" stroke="black" points="764.67,-1067.62 774.67,-1064.12 764.67,-1060.62 764.67,-1067.62"/>
<text text-anchor="middle" x="694.6" y="-1066.57" font-family="Times New Roman,serif" font-size="14.00">current knowledge</text>
</g>
<!-- WikiPhilosophy -->
<g id="node29" class="node">
<title>WikiPhilosophy</title>
<g id="a_node29"><a xlink:href="https://en.wikipedia.org/wiki/Philosophy" xlink:title=" &lt;i&gt;&lt;u&gt;Wiki:Philosophy&lt;/u&gt;&lt;/i&gt; ">
<polygon fill="lightyellow" stroke="black" points="883.72,-1020.12 766.47,-1020.12 766.47,-984.12 883.72,-984.12 883.72,-1020.12"/>
<text text-anchor="start" x="774.47" y="-997.69" font-family="Times New Roman,serif" font-size="14.00"> </text>
<text text-anchor="start" x="778.22" y="-997.69" font-family="Times New Roman,serif" font-style="italic" text-decoration="underline" font-size="14.00">Wiki:Philosophy</text>
<text text-anchor="start" x="871.97" y="-997.69" font-family="Times New Roman,serif" font-size="14.00"> </text>
</a>
</g>
</g>
<!-- Philosophy&#45;&gt;WikiPhilosophy -->
<g id="edge4" class="edge">
<title>Philosophy&#45;&gt;WikiPhilosophy</title>
<path fill="none" stroke="black" d="M574.99,-1002.12C622.24,-1002.12 699.04,-1002.12 754.89,-1002.12"/>
<polygon fill="black" stroke="black" points="754.61,-1005.62 764.61,-1002.12 754.61,-998.62 754.61,-1005.62"/>
<text text-anchor="middle" x="694.6" y="-1004.57" font-family="Times New Roman,serif" font-size="14.00">current knowledge</text>
</g>
<!-- CPU -->
<g id="node26" class="node">
<title>CPU</title>
<g id="a_node26"><a xlink:href="https://en.wikipedia.org/wiki/Central_processing_unit" xlink:title=" &lt;i&gt;&lt;u&gt;CPU&lt;/u&gt;&lt;/i&gt; ">
<polygon fill="lightyellow" stroke="black" points="127.5,-737.12 73.5,-737.12 73.5,-701.12 127.5,-701.12 127.5,-737.12"/>
<text text-anchor="start" x="82.12" y="-714.69" font-family="Times New Roman,serif" font-size="14.00"> </text>
<text text-anchor="start" x="85.88" y="-714.69" font-family="Times New Roman,serif" font-style="italic" text-decoration="underline" font-size="14.00">CPU</text>
<text text-anchor="start" x="115.12" y="-714.69" font-family="Times New Roman,serif" font-size="14.00"> </text>
</a>
</g>
</g>
<!-- GPU -->
<g id="node27" class="node">
<title>GPU</title>
<g id="a_node27"><a xlink:href="https://en.wikipedia.org/wiki/Graphics_processing_unit" xlink:title=" &lt;i&gt;&lt;u&gt;GPU&lt;/u&gt;&lt;/i&gt; ">
<polygon fill="lightyellow" stroke="black" points="127.5,-791.12 73.5,-791.12 73.5,-755.12 127.5,-755.12 127.5,-791.12"/>
<text text-anchor="start" x="81.75" y="-768.69" font-family="Times New Roman,serif" font-size="14.00"> </text>
<text text-anchor="start" x="85.5" y="-768.69" font-family="Times New Roman,serif" font-style="italic" text-decoration="underline" font-size="14.00">GPU</text>
<text text-anchor="start" x="115.5" y="-768.69" font-family="Times New Roman,serif" font-size="14.00"> </text>
</a>
</g>
</g>
<!-- SoftwareFeature -->
<g id="node30" class="node">
<title>SoftwareFeature</title>
<g id="a_node30"><a xlink:href="https://en.wikipedia.org/wiki/Software_feature" xlink:title=" &lt;i&gt;&lt;u&gt;Software Feature&lt;/u&gt;&lt;/i&gt; ">
<ellipse fill="lightyellow" stroke="black" cx="100.5" cy="-827.12" rx="81.5" ry="18"/>
<text text-anchor="start" x="47.25" y="-822.69" font-family="Times New Roman,serif" font-size="14.00"> </text>
<text text-anchor="start" x="51" y="-822.69" font-family="Times New Roman,serif" font-style="italic" text-decoration="underline" font-size="14.00">Software Feature</text>
<text text-anchor="start" x="150" y="-822.69" font-family="Times New Roman,serif" font-size="14.00"> </text>
</a>
</g>
</g>
</g>
</svg>
