<?xml version="1.0" encoding="UTF-8" standalone="no"?>
<!DOCTYPE svg PUBLIC "-//W3C//DTD SVG 1.1//EN"
 "http://www.w3.org/Graphics/SVG/1.1/DTD/svg11.dtd">
<!-- Generated by graphviz version 9.0.0 (20230911.1827)
 -->
<!-- Title: Intelligent Application Pages: 1 -->
<svg width="1307pt" height="1094pt"
 viewBox="0.00 0.00 1306.97 1094.00" xmlns="http://www.w3.org/2000/svg" xmlns:xlink="http://www.w3.org/1999/xlink">
<g id="graph0" class="graph" transform="scale(1 1) rotate(0) translate(4 1090)">
<title>Intelligent Application</title>
<polygon fill="white" stroke="none" points="-4,4 -4,-1090 1302.97,-1090 1302.97,4 -4,4"/>
<!-- Wikipedia -->
<g id="node1" class="node">
<title>Wikipedia</title>
<g id="a_node1"><a xlink:href="https://en.wikipedia.org/" xlink:title=" &lt;i&gt;&lt;u&gt;Concept Defined in Wikipedia&lt;/u&gt;&lt;/i&gt; ">
<polygon fill="lightyellow" stroke="black" points="198.5,-167 2.5,-167 2.5,-131 198.5,-131 198.5,-167"/>
<text text-anchor="start" x="10.5" y="-144.57" font-family="Times New Roman,serif" font-size="14.00"> </text>
<text text-anchor="start" x="14.25" y="-144.57" font-family="Times New Roman,serif" font-style="italic" text-decoration="underline" font-size="14.00">Concept Defined in Wikipedia</text>
<text text-anchor="start" x="186.75" y="-144.57" font-family="Times New Roman,serif" font-size="14.00"> </text>
</a>
</g>
</g>
<!-- Feature -->
<g id="node2" class="node">
<title>Feature</title>
<ellipse fill="lightblue" stroke="black" cx="100.5" cy="-203" rx="83" ry="18"/>
<text text-anchor="start" x="46.12" y="-198.57" font-family="Times New Roman,serif" font-size="14.00"> </text>
<text text-anchor="start" x="49.88" y="-198.57" font-family="Times New Roman,serif" font-style="italic" font-size="14.00">Ellipse = Feature</text>
<text text-anchor="start" x="151.12" y="-198.57" font-family="Times New Roman,serif" font-size="14.00"> </text>
</g>
<!-- This Paper -->
<g id="node3" class="node">
<title>This Paper</title>
<polygon fill="lightblue" stroke="black" points="197,-279 4,-279 4,-243 197,-243 197,-279"/>
<polygon fill="none" stroke="black" points="201,-283 0,-283 0,-239 201,-239 201,-283"/>
<text text-anchor="start" x="12" y="-256.57" font-family="Times New Roman,serif" font-size="14.00"> </text>
<text text-anchor="start" x="15.75" y="-256.57" font-family="Times New Roman,serif" font-style="italic" font-size="14.00">Concept defined in this paper</text>
<text text-anchor="start" x="185.25" y="-256.57" font-family="Times New Roman,serif" font-size="14.00"> </text>
</g>
<!-- IntelligentApplication -->
<g id="node4" class="node">
<title>IntelligentApplication</title>
<polygon fill="lightblue" stroke="black" points="169.25,-341 31.75,-341 31.75,-305 169.25,-305 169.25,-341"/>
<polygon fill="none" stroke="black" points="173.25,-345 27.75,-345 27.75,-301 173.25,-301 173.25,-345"/>
<text text-anchor="middle" x="100.5" y="-317.57" font-family="Times New Roman,serif" font-size="14.00">Intelligent Application</text>
</g>
<!-- IntelligentCapability -->
<g id="node5" class="node">
<title>IntelligentCapability</title>
<polygon fill="lightblue" stroke="black" points="570.5,-803 441.25,-803 441.25,-767 570.5,-767 570.5,-803"/>
<polygon fill="none" stroke="black" points="574.5,-807 437.25,-807 437.25,-763 574.5,-763 574.5,-807"/>
<text text-anchor="middle" x="505.88" y="-779.58" font-family="Times New Roman,serif" font-size="14.00">Intelligent Capability</text>
</g>
<!-- IntelligentApplication&#45;&gt;IntelligentCapability -->
<g id="edge19" class="edge">
<title>IntelligentApplication&#45;&gt;IntelligentCapability</title>
<path fill="none" stroke="black" d="M103.12,-345.13C108.56,-404.21 131.2,-567.57 219,-662 273.95,-721.1 362.09,-753.1 425.99,-769.52"/>
<polygon fill="black" stroke="black" points="424.81,-772.83 435.36,-771.84 426.5,-766.04 424.81,-772.83"/>
<text text-anchor="middle" x="319.12" y="-769.45" font-family="Times New Roman,serif" font-size="14.00">has at least one</text>
</g>
<!-- TeachingMethod -->
<g id="node6" class="node">
<title>TeachingMethod</title>
<polygon fill="lightblue" stroke="black" points="894.62,-679 780.38,-679 780.38,-643 894.62,-643 894.62,-679"/>
<polygon fill="none" stroke="black" points="898.62,-683 776.38,-683 776.38,-639 898.62,-639 898.62,-683"/>
<text text-anchor="middle" x="837.5" y="-655.58" font-family="Times New Roman,serif" font-size="14.00">Teaching Method</text>
</g>
<!-- IntelligentApplication&#45;&gt;TeachingMethod -->
<g id="edge20" class="edge">
<title>IntelligentApplication&#45;&gt;TeachingMethod</title>
<path fill="none" stroke="black" d="M112.99,-345.45C131.14,-378.78 169.53,-441.25 219,-477 389.34,-600.11 642.26,-641.62 764.79,-655"/>
<polygon fill="black" stroke="black" points="764.06,-658.44 774.38,-656.01 764.8,-651.48 764.06,-658.44"/>
<text text-anchor="middle" x="505.88" y="-624.45" font-family="Times New Roman,serif" font-size="14.00">has at least one</text>
</g>
<!-- UserInterface -->
<g id="node7" class="node">
<title>UserInterface</title>
<polygon fill="lightblue" stroke="black" points="553.25,-513 458.5,-513 458.5,-477 553.25,-477 553.25,-513"/>
<polygon fill="none" stroke="black" points="557.25,-517 454.5,-517 454.5,-473 557.25,-473 557.25,-517"/>
<text text-anchor="middle" x="505.88" y="-489.57" font-family="Times New Roman,serif" font-size="14.00">User Interface</text>
</g>
<!-- IntelligentApplication&#45;&gt;UserInterface -->
<g id="edge3" class="edge">
<title>IntelligentApplication&#45;&gt;UserInterface</title>
<path fill="none" stroke="black" d="M154.23,-345.49C228.83,-377.29 364.86,-435.3 443.76,-468.94"/>
<polygon fill="black" stroke="black" points="442.07,-472.03 452.64,-472.73 444.82,-465.59 442.07,-472.03"/>
<text text-anchor="middle" x="319.12" y="-459.45" font-family="Times New Roman,serif" font-size="14.00">way to interact with</text>
</g>
<!-- Math -->
<g id="node9" class="node">
<title>Math</title>
<polygon fill="lightblue" stroke="black" points="532.88,-372 478.88,-372 478.88,-336 532.88,-336 532.88,-372"/>
<polygon fill="none" stroke="black" points="536.88,-376 474.88,-376 474.88,-332 536.88,-332 536.88,-376"/>
<text text-anchor="middle" x="505.88" y="-348.57" font-family="Times New Roman,serif" font-size="14.00">Math</text>
</g>
<!-- IntelligentApplication&#45;&gt;Math -->
<g id="edge1" class="edge">
<title>IntelligentApplication&#45;&gt;Math</title>
<path fill="none" stroke="black" d="M173.62,-328.54C258.02,-335.03 394.92,-345.55 463.28,-350.8"/>
<polygon fill="black" stroke="black" points="462.68,-354.27 472.92,-351.54 463.22,-347.29 462.68,-354.27"/>
<text text-anchor="middle" x="319.12" y="-349.45" font-family="Times New Roman,serif" font-size="14.00">models intelligence with</text>
</g>
<!-- Philosophy -->
<g id="node10" class="node">
<title>Philosophy</title>
<polygon fill="lightblue" stroke="black" points="545.38,-310 466.38,-310 466.38,-274 545.38,-274 545.38,-310"/>
<polygon fill="none" stroke="black" points="549.38,-314 462.38,-314 462.38,-270 549.38,-270 549.38,-314"/>
<text text-anchor="middle" x="505.88" y="-286.57" font-family="Times New Roman,serif" font-size="14.00">Philosophy</text>
</g>
<!-- IntelligentApplication&#45;&gt;Philosophy -->
<g id="edge2" class="edge">
<title>IntelligentApplication&#45;&gt;Philosophy</title>
<path fill="none" stroke="black" d="M173.56,-316.17C188.57,-314.82 204.3,-313.44 219,-312.25 299.73,-305.7 393.38,-299.29 450.88,-295.49"/>
<polygon fill="black" stroke="black" points="450.97,-298.99 460.72,-294.85 450.51,-292.01 450.97,-298.99"/>
<text text-anchor="middle" x="319.12" y="-314.45" font-family="Times New Roman,serif" font-size="14.00">models world using</text>
</g>
<!-- ComputerProgram -->
<g id="node24" class="node">
<title>ComputerProgram</title>
<g id="a_node24"><a xlink:href="https://en.wikipedia.org/wiki/Computer_program" xlink:title=" &lt;i&gt;&lt;u&gt;Computer Program&lt;/u&gt;&lt;/i&gt; ">
<polygon fill="lightyellow" stroke="black" points="573.88,-252 437.88,-252 437.88,-216 573.88,-216 573.88,-252"/>
<text text-anchor="start" x="445.88" y="-229.57" font-family="Times New Roman,serif" font-size="14.00"> </text>
<text text-anchor="start" x="449.62" y="-229.57" font-family="Times New Roman,serif" font-style="italic" text-decoration="underline" font-size="14.00">Computer Program</text>
<text text-anchor="start" x="562.12" y="-229.57" font-family="Times New Roman,serif" font-size="14.00"> </text>
</a>
</g>
</g>
<!-- IntelligentApplication&#45;&gt;ComputerProgram -->
<g id="edge17" class="edge">
<title>IntelligentApplication&#45;&gt;ComputerProgram</title>
<path fill="none" stroke="black" d="M173.52,-304.21C183,-300.69 192.4,-296.63 201,-292 210.11,-287.09 209.55,-281.45 219,-277.25 285.04,-247.89 367.21,-237.88 426.49,-234.73"/>
<polygon fill="black" stroke="black" points="426.32,-238.24 436.14,-234.28 425.99,-231.25 426.32,-238.24"/>
<text text-anchor="middle" x="319.12" y="-279.45" font-family="Times New Roman,serif" font-size="14.00">is EXACTLY a</text>
</g>
<!-- Software -->
<g id="node25" class="node">
<title>Software</title>
<g id="a_node25"><a xlink:href="https://en.wikipedia.org/wiki/Software" xlink:title=" &lt;i&gt;&lt;u&gt;Software&lt;/u&gt;&lt;/i&gt; ">
<polygon fill="lightyellow" stroke="black" points="542.75,-198 469,-198 469,-162 542.75,-162 542.75,-198"/>
<text text-anchor="start" x="477" y="-175.57" font-family="Times New Roman,serif" font-size="14.00"> </text>
<text text-anchor="start" x="480.75" y="-175.57" font-family="Times New Roman,serif" font-style="italic" text-decoration="underline" font-size="14.00">Software</text>
<text text-anchor="start" x="531" y="-175.57" font-family="Times New Roman,serif" font-size="14.00"> </text>
</a>
</g>
</g>
<!-- IntelligentApplication&#45;&gt;Software -->
<g id="edge16" class="edge">
<title>IntelligentApplication&#45;&gt;Software</title>
<path fill="none" stroke="black" d="M173.65,-310.5C183.89,-306.07 193.48,-300.08 201,-292 224.87,-266.35 192.93,-238.66 219,-215.25 284.51,-156.44 395.11,-161.84 457.8,-170.96"/>
<polygon fill="black" stroke="black" points="457.02,-174.38 467.44,-172.45 458.09,-167.46 457.02,-174.38"/>
<text text-anchor="middle" x="319.12" y="-217.45" font-family="Times New Roman,serif" font-size="14.00">is implemented as</text>
</g>
<!-- Device -->
<g id="node26" class="node">
<title>Device</title>
<g id="a_node26"><a xlink:href="https://en.wikipedia.org/wiki/Device" xlink:title=" &lt;i&gt;&lt;u&gt;Device&lt;/u&gt;&lt;/i&gt; ">
<polygon fill="lightyellow" stroke="black" points="536.75,-90 475,-90 475,-54 536.75,-54 536.75,-90"/>
<text text-anchor="start" x="483" y="-67.58" font-family="Times New Roman,serif" font-size="14.00"> </text>
<text text-anchor="start" x="486.75" y="-67.58" font-family="Times New Roman,serif" font-style="italic" text-decoration="underline" font-size="14.00">Device</text>
<text text-anchor="start" x="525" y="-67.58" font-family="Times New Roman,serif" font-size="14.00"> </text>
</a>
</g>
</g>
<!-- IntelligentApplication&#45;&gt;Device -->
<g id="edge18" class="edge">
<title>IntelligentApplication&#45;&gt;Device</title>
<path fill="none" stroke="black" d="M173.69,-311.52C184.12,-306.97 193.75,-300.68 201,-292 243.1,-241.55 175.62,-194.61 219,-145.25 280.8,-74.93 400.02,-67.68 463.21,-69.28"/>
<polygon fill="black" stroke="black" points="463.07,-72.78 473.18,-69.64 463.31,-65.79 463.07,-72.78"/>
<text text-anchor="middle" x="319.12" y="-147.45" font-family="Times New Roman,serif" font-size="14.00">can be accessed from EXACTLY a</text>
</g>
<!-- IntelligentCapability&#45;&gt;TeachingMethod -->
<g id="edge21" class="edge">
<title>IntelligentCapability&#45;&gt;TeachingMethod</title>
<path fill="none" stroke="black" d="M533.07,-762.6C549.27,-749.75 571.02,-734.24 592.5,-724.25 647.74,-698.56 715.06,-682.1 764.99,-672.44"/>
<polygon fill="black" stroke="black" points="765.34,-675.93 774.52,-670.64 764.04,-669.05 765.34,-675.93"/>
<text text-anchor="middle" x="651.75" y="-726.45" font-family="Times New Roman,serif" font-size="14.00">uses one or many</text>
</g>
<!-- SoundToMath -->
<g id="node11" class="node">
<title>SoundToMath</title>
<polygon fill="lightblue" stroke="black" points="887.5,-927 787.5,-927 787.5,-891 887.5,-891 887.5,-927"/>
<polygon fill="none" stroke="black" points="891.5,-931 783.5,-931 783.5,-887 891.5,-887 891.5,-931"/>
<text text-anchor="middle" x="837.5" y="-903.58" font-family="Times New Roman,serif" font-size="14.00">Sound to Math</text>
</g>
<!-- IntelligentCapability&#45;&gt;SoundToMath -->
<g id="edge33" class="edge">
<title>IntelligentCapability&#45;&gt;SoundToMath</title>
<path fill="none" stroke="black" d="M533.5,-807.38C549.68,-820 571.25,-835.16 592.5,-845 650.5,-871.87 721.68,-888.91 772.16,-898.59"/>
<polygon fill="black" stroke="black" points="771.28,-901.98 781.75,-900.38 772.57,-895.1 771.28,-901.98"/>
<text text-anchor="middle" x="651.75" y="-886.45" font-family="Times New Roman,serif" font-size="14.00">is parent to</text>
</g>
<!-- TextToSpeech -->
<g id="node12" class="node">
<title>TextToSpeech</title>
<polygon fill="lightblue" stroke="black" points="887.12,-865 787.88,-865 787.88,-829 887.12,-829 887.12,-865"/>
<polygon fill="none" stroke="black" points="891.12,-869 783.88,-869 783.88,-825 891.12,-825 891.12,-869"/>
<text text-anchor="middle" x="837.5" y="-841.58" font-family="Times New Roman,serif" font-size="14.00">Text to speech</text>
</g>
<!-- IntelligentCapability&#45;&gt;TextToSpeech -->
<g id="edge26" class="edge">
<title>IntelligentCapability&#45;&gt;TextToSpeech</title>
<path fill="none" stroke="black" d="M574.57,-801.2C580.62,-802.53 586.67,-803.82 592.5,-805 653.27,-817.32 723.04,-829.09 772.36,-837.02"/>
<polygon fill="black" stroke="black" points="771.58,-840.44 782,-838.56 772.68,-833.53 771.58,-840.44"/>
<text text-anchor="middle" x="651.75" y="-827.45" font-family="Times New Roman,serif" font-size="14.00">enables</text>
</g>
<!-- Recommender -->
<g id="node16" class="node">
<title>Recommender</title>
<polygon fill="lightblue" stroke="black" points="924.25,-803 750.75,-803 750.75,-767 924.25,-767 924.25,-803"/>
<polygon fill="none" stroke="black" points="928.25,-807 746.75,-807 746.75,-763 928.25,-763 928.25,-807"/>
<text text-anchor="middle" x="837.5" y="-779.58" font-family="Times New Roman,serif" font-size="14.00">Generate Recommendations</text>
</g>
<!-- IntelligentCapability&#45;&gt;Recommender -->
<g id="edge27" class="edge">
<title>IntelligentCapability&#45;&gt;Recommender</title>
<path fill="none" stroke="black" d="M574.77,-785C621.04,-785 683.11,-785 735.19,-785"/>
<polygon fill="black" stroke="black" points="734.97,-788.5 744.97,-785 734.97,-781.5 734.97,-788.5"/>
<text text-anchor="middle" x="651.75" y="-787.45" font-family="Times New Roman,serif" font-size="14.00">enables</text>
</g>
<!-- GenerativeCapability -->
<g id="node17" class="node">
<title>GenerativeCapability</title>
<polygon fill="lightblue" stroke="black" points="905.12,-741 769.88,-741 769.88,-705 905.12,-705 905.12,-741"/>
<polygon fill="none" stroke="black" points="909.12,-745 765.88,-745 765.88,-701 909.12,-701 909.12,-745"/>
<text text-anchor="middle" x="837.5" y="-717.58" font-family="Times New Roman,serif" font-size="14.00">Generative Capability</text>
</g>
<!-- IntelligentCapability&#45;&gt;GenerativeCapability -->
<g id="edge29" class="edge">
<title>IntelligentCapability&#45;&gt;GenerativeCapability</title>
<path fill="none" stroke="black" d="M574.57,-769.02C580.63,-767.7 586.67,-766.43 592.5,-765.25 646.24,-754.41 706.99,-743.88 754.43,-736.05"/>
<polygon fill="black" stroke="black" points="754.78,-739.54 764.08,-734.46 753.64,-732.63 754.78,-739.54"/>
<text text-anchor="middle" x="651.75" y="-767.45" font-family="Times New Roman,serif" font-size="14.00">is parent to</text>
</g>
<!-- FeatureX -->
<g id="node22" class="node">
<title>FeatureX</title>
<ellipse fill="lightblue" stroke="black" cx="837.5" cy="-971" rx="47.07" ry="18"/>
<ellipse fill="none" stroke="black" cx="837.5" cy="-971" rx="51.07" ry="22"/>
<text text-anchor="middle" x="837.5" y="-965.58" font-family="Times New Roman,serif" font-size="14.00">Feature X</text>
</g>
<!-- IntelligentCapability&#45;&gt;FeatureX -->
<g id="edge28" class="edge">
<title>IntelligentCapability&#45;&gt;FeatureX</title>
<path fill="none" stroke="black" d="M517.11,-807.43C530.57,-834.41 556.77,-879.16 592.5,-904 647.44,-942.2 723.39,-958.66 775.89,-965.73"/>
<polygon fill="black" stroke="black" points="775.19,-969.17 785.55,-966.95 776.07,-962.22 775.19,-969.17"/>
<text text-anchor="middle" x="651.75" y="-954.45" font-family="Times New Roman,serif" font-size="14.00">enables</text>
</g>
<!-- WikiUserInterface -->
<g id="node37" class="node">
<title>WikiUserInterface</title>
<g id="a_node37"><a xlink:href="https://en.wikipedia.org/wiki/User_interface" xlink:title=" &lt;i&gt;&lt;u&gt;User Interface&lt;/u&gt;&lt;/i&gt; ">
<polygon fill="lightyellow" stroke="black" points="889.75,-459 785.25,-459 785.25,-423 889.75,-423 889.75,-459"/>
<text text-anchor="start" x="793.25" y="-436.57" font-family="Times New Roman,serif" font-size="14.00"> </text>
<text text-anchor="start" x="797" y="-436.57" font-family="Times New Roman,serif" font-style="italic" text-decoration="underline" font-size="14.00">User Interface</text>
<text text-anchor="start" x="878" y="-436.57" font-family="Times New Roman,serif" font-size="14.00"> </text>
</a>
</g>
</g>
<!-- UserInterface&#45;&gt;WikiUserInterface -->
<g id="edge4" class="edge">
<title>UserInterface&#45;&gt;WikiUserInterface</title>
<path fill="none" stroke="black" d="M557.43,-482.57C568.92,-479.96 581.1,-477.36 592.5,-475.25 653.76,-463.91 724.3,-454.38 773.73,-448.28"/>
<polygon fill="black" stroke="black" points="773.88,-451.79 783.38,-447.1 773.03,-444.84 773.88,-451.79"/>
<text text-anchor="middle" x="651.75" y="-477.45" font-family="Times New Roman,serif" font-size="14.00">current interfaces</text>
</g>
<!-- GraphicalUserInterface -->
<g id="node38" class="node">
<title>GraphicalUserInterface</title>
<g id="a_node38"><a xlink:href="https://en.wikipedia.org/wiki/Graphical_user_interface" xlink:title=" &lt;i&gt;&lt;u&gt;Graphical_user_interface&lt;/u&gt;&lt;/i&gt; ">
<polygon fill="lightyellow" stroke="black" points="923.12,-621 751.88,-621 751.88,-585 923.12,-585 923.12,-621"/>
<text text-anchor="start" x="759.88" y="-598.58" font-family="Times New Roman,serif" font-size="14.00"> </text>
<text text-anchor="start" x="763.62" y="-598.58" font-family="Times New Roman,serif" font-style="italic" text-decoration="underline" font-size="14.00">Graphical_user_interface</text>
<text text-anchor="start" x="911.38" y="-598.58" font-family="Times New Roman,serif" font-size="14.00"> </text>
</a>
</g>
</g>
<!-- UserInterface&#45;&gt;GraphicalUserInterface -->
<g id="edge5" class="edge">
<title>UserInterface&#45;&gt;GraphicalUserInterface</title>
<path fill="none" stroke="black" d="M533.8,-517.31C549.91,-529.58 571.32,-544.08 592.5,-553 639.25,-572.7 694.4,-584.84 740.43,-592.22"/>
<polygon fill="black" stroke="black" points="739.71,-595.65 750.13,-593.72 740.78,-588.73 739.71,-595.65"/>
<text text-anchor="middle" x="651.75" y="-588.45" font-family="Times New Roman,serif" font-size="14.00">GUI</text>
</g>
<!-- CommandLineInterface -->
<g id="node39" class="node">
<title>CommandLineInterface</title>
<g id="a_node39"><a xlink:href="https://en.wikipedia.org/wiki/https://en.wikipedia.org/wiki/Command-line_interface" xlink:title=" &lt;i&gt;&lt;u&gt;Command Line Interface&lt;/u&gt;&lt;/i&gt; ">
<polygon fill="lightyellow" stroke="black" points="920.88,-567 754.12,-567 754.12,-531 920.88,-531 920.88,-567"/>
<text text-anchor="start" x="762.12" y="-544.58" font-family="Times New Roman,serif" font-size="14.00"> </text>
<text text-anchor="start" x="765.88" y="-544.58" font-family="Times New Roman,serif" font-style="italic" text-decoration="underline" font-size="14.00">Command Line Interface</text>
<text text-anchor="start" x="909.12" y="-544.58" font-family="Times New Roman,serif" font-size="14.00"> </text>
</a>
</g>
</g>
<!-- UserInterface&#45;&gt;CommandLineInterface -->
<g id="edge6" class="edge">
<title>UserInterface&#45;&gt;CommandLineInterface</title>
<path fill="none" stroke="black" d="M557.42,-507.61C568.91,-510.25 581.09,-512.88 592.5,-515 641.73,-524.16 696.96,-532.05 742.42,-537.92"/>
<polygon fill="black" stroke="black" points="741.89,-541.38 752.25,-539.18 742.77,-534.44 741.89,-541.38"/>
<text text-anchor="middle" x="651.75" y="-535.45" font-family="Times New Roman,serif" font-size="14.00">CLI</text>
</g>
<!-- NaturalLanguageUserInterface -->
<g id="node40" class="node">
<title>NaturalLanguageUserInterface</title>
<g id="a_node40"><a xlink:href="https://en.wikipedia.org/wiki/https://en.wikipedia.org/wiki/Natural-language_user_interface" xlink:title=" &lt;i&gt;&lt;u&gt;Natural&#45;Language User Interface&lt;/u&gt;&lt;/i&gt; ">
<polygon fill="lightyellow" stroke="black" points="946,-513 729,-513 729,-477 946,-477 946,-513"/>
<text text-anchor="start" x="737" y="-490.57" font-family="Times New Roman,serif" font-size="14.00"> </text>
<text text-anchor="start" x="740.75" y="-490.57" font-family="Times New Roman,serif" font-style="italic" text-decoration="underline" font-size="14.00">Natural&#45;Language User Interface</text>
<text text-anchor="start" x="934.25" y="-490.57" font-family="Times New Roman,serif" font-size="14.00"> </text>
</a>
</g>
</g>
<!-- UserInterface&#45;&gt;NaturalLanguageUserInterface -->
<g id="edge7" class="edge">
<title>UserInterface&#45;&gt;NaturalLanguageUserInterface</title>
<path fill="none" stroke="black" d="M557.66,-495C600.15,-495 662.47,-495 717.43,-495"/>
<polygon fill="black" stroke="black" points="717.16,-498.5 727.16,-495 717.16,-491.5 717.16,-498.5"/>
<text text-anchor="middle" x="651.75" y="-497.45" font-family="Times New Roman,serif" font-size="14.00">NLUI</text>
</g>
<!-- ComputeUnit -->
<g id="node8" class="node">
<title>ComputeUnit</title>
<polygon fill="lightblue" stroke="black" points="884.88,-90 790.12,-90 790.12,-54 884.88,-54 884.88,-90"/>
<polygon fill="none" stroke="black" points="888.88,-94 786.12,-94 786.12,-50 888.88,-50 888.88,-94"/>
<text text-anchor="middle" x="837.5" y="-66.58" font-family="Times New Roman,serif" font-size="14.00">Compute Unit</text>
</g>
<!-- Mathematics -->
<g id="node29" class="node">
<title>Mathematics</title>
<g id="a_node29"><a xlink:href="https://en.wikipedia.org/wiki/Mathematics" xlink:title=" &lt;i&gt;&lt;u&gt;Mathematics&lt;/u&gt;&lt;/i&gt; ">
<polygon fill="lightyellow" stroke="black" points="886,-351 789,-351 789,-315 886,-315 886,-351"/>
<text text-anchor="start" x="797" y="-328.57" font-family="Times New Roman,serif" font-size="14.00"> </text>
<text text-anchor="start" x="800.75" y="-328.57" font-family="Times New Roman,serif" font-style="italic" text-decoration="underline" font-size="14.00">Mathematics</text>
<text text-anchor="start" x="874.25" y="-328.57" font-family="Times New Roman,serif" font-size="14.00"> </text>
</a>
</g>
</g>
<!-- Math&#45;&gt;Mathematics -->
<g id="edge8" class="edge">
<title>Math&#45;&gt;Mathematics</title>
<path fill="none" stroke="black" d="M537.29,-352.06C591.72,-348.59 706.65,-341.27 777.16,-336.78"/>
<polygon fill="black" stroke="black" points="777.24,-340.28 786.99,-336.15 776.79,-333.3 777.24,-340.28"/>
<text text-anchor="middle" x="651.75" y="-350.45" font-family="Times New Roman,serif" font-size="14.00">current knowledge</text>
</g>
<!-- Algorithm -->
<g id="node31" class="node">
<title>Algorithm</title>
<g id="a_node31"><a xlink:href="https://en.wikipedia.org/wiki/Algorithm" xlink:title=" &lt;i&gt;&lt;u&gt;Algorithm&lt;/u&gt;&lt;/i&gt; ">
<polygon fill="lightyellow" stroke="black" points="877.75,-297 797.25,-297 797.25,-261 877.75,-261 877.75,-297"/>
<text text-anchor="start" x="805.25" y="-274.57" font-family="Times New Roman,serif" font-size="14.00"> </text>
<text text-anchor="start" x="809" y="-274.57" font-family="Times New Roman,serif" font-style="italic" text-decoration="underline" font-size="14.00">Algorithm</text>
<text text-anchor="start" x="866" y="-274.57" font-family="Times New Roman,serif" font-size="14.00"> </text>
</a>
</g>
</g>
<!-- Math&#45;&gt;Algorithm -->
<g id="edge9" class="edge">
<title>Math&#45;&gt;Algorithm</title>
<path fill="none" stroke="black" d="M537.31,-340.71C553.45,-334.08 573.78,-326.4 592.5,-321.25 658.12,-303.2 735.89,-291.32 785.69,-284.88"/>
<polygon fill="black" stroke="black" points="786.12,-288.35 795.61,-283.62 785.25,-281.41 786.12,-288.35"/>
<text text-anchor="middle" x="651.75" y="-323.45" font-family="Times New Roman,serif" font-size="14.00">perform computation</text>
</g>
<!-- MathematicalModel -->
<g id="node32" class="node">
<title>MathematicalModel</title>
<g id="a_node32"><a xlink:href="https://en.wikipedia.org/wiki/Mathematical_model" xlink:title=" &lt;i&gt;&lt;u&gt;Mathematical Model&lt;/u&gt;&lt;/i&gt; ">
<polygon fill="lightyellow" stroke="black" points="908.88,-405 766.12,-405 766.12,-369 908.88,-369 908.88,-405"/>
<text text-anchor="start" x="774.12" y="-382.57" font-family="Times New Roman,serif" font-size="14.00"> </text>
<text text-anchor="start" x="777.88" y="-382.57" font-family="Times New Roman,serif" font-style="italic" text-decoration="underline" font-size="14.00">Mathematical Model</text>
<text text-anchor="start" x="897.12" y="-382.57" font-family="Times New Roman,serif" font-size="14.00"> </text>
</a>
</g>
</g>
<!-- Math&#45;&gt;MathematicalModel -->
<g id="edge10" class="edge">
<title>Math&#45;&gt;MathematicalModel</title>
<path fill="none" stroke="black" d="M537.36,-358.2C553.69,-360.38 574.17,-363 592.5,-365 646.31,-370.88 706.91,-376.35 754.26,-380.37"/>
<polygon fill="black" stroke="black" points="753.93,-383.85 764.18,-381.2 754.51,-376.87 753.93,-383.85"/>
<text text-anchor="middle" x="651.75" y="-378.45" font-family="Times New Roman,serif" font-size="14.00">perform computation</text>
</g>
<!-- WikiPhilosophy -->
<g id="node30" class="node">
<title>WikiPhilosophy</title>
<g id="a_node30"><a xlink:href="https://en.wikipedia.org/wiki/Philosophy" xlink:title=" &lt;i&gt;&lt;u&gt;Philosophy&lt;/u&gt;&lt;/i&gt; ">
<polygon fill="lightyellow" stroke="black" points="881.12,-243 793.88,-243 793.88,-207 881.12,-207 881.12,-243"/>
<text text-anchor="start" x="801.88" y="-220.57" font-family="Times New Roman,serif" font-size="14.00"> </text>
<text text-anchor="start" x="805.62" y="-220.57" font-family="Times New Roman,serif" font-style="italic" text-decoration="underline" font-size="14.00">Philosophy</text>
<text text-anchor="start" x="869.38" y="-220.57" font-family="Times New Roman,serif" font-size="14.00"> </text>
</a>
</g>
</g>
<!-- Philosophy&#45;&gt;WikiPhilosophy -->
<g id="edge15" class="edge">
<title>Philosophy&#45;&gt;WikiPhilosophy</title>
<path fill="none" stroke="black" d="M549.82,-275.48C558.36,-271.34 566.99,-266.48 574.5,-261 584.09,-254 581.8,-246.41 592.5,-241.25 652.59,-212.29 730.83,-212.76 782.31,-217.44"/>
<polygon fill="black" stroke="black" points="781.7,-220.89 792,-218.41 782.4,-213.93 781.7,-220.89"/>
<text text-anchor="middle" x="651.75" y="-243.45" font-family="Times New Roman,serif" font-size="14.00">current knowledge</text>
</g>
<!-- VoiceToBird -->
<g id="node18" class="node">
<title>VoiceToBird</title>
<ellipse fill="lightblue" stroke="black" cx="1204.99" cy="-940" rx="61.04" ry="18"/>
<ellipse fill="none" stroke="black" cx="1204.99" cy="-940" rx="65.04" ry="22"/>
<text text-anchor="middle" x="1204.99" y="-934.58" font-family="Times New Roman,serif" font-size="14.00">Voice to Bird</text>
</g>
<!-- SoundToMath&#45;&gt;VoiceToBird -->
<g id="edge35" class="edge">
<title>SoundToMath&#45;&gt;VoiceToBird</title>
<path fill="none" stroke="black" d="M891.64,-913.51C954.6,-918.85 1059.84,-927.77 1130.55,-933.77"/>
<polygon fill="black" stroke="black" points="1129.82,-937.22 1140.08,-934.58 1130.41,-930.25 1129.82,-937.22"/>
<text text-anchor="middle" x="1028.5" y="-931.45" font-family="Times New Roman,serif" font-size="14.00">is parent to</text>
</g>
<!-- VoiceToSong -->
<g id="node19" class="node">
<title>VoiceToSong</title>
<ellipse fill="lightblue" stroke="black" cx="1204.99" cy="-878" rx="64.54" ry="18"/>
<ellipse fill="none" stroke="black" cx="1204.99" cy="-878" rx="68.54" ry="22"/>
<text text-anchor="middle" x="1204.99" y="-872.58" font-family="Times New Roman,serif" font-size="14.00">Voice to Song</text>
</g>
<!-- SoundToMath&#45;&gt;VoiceToSong -->
<g id="edge36" class="edge">
<title>SoundToMath&#45;&gt;VoiceToSong</title>
<path fill="none" stroke="black" d="M891.64,-904.49C953.66,-899.23 1056.7,-890.49 1127.36,-884.5"/>
<polygon fill="black" stroke="black" points="1127.23,-888.02 1136.9,-883.69 1126.64,-881.05 1127.23,-888.02"/>
<text text-anchor="middle" x="1028.5" y="-900.45" font-family="Times New Roman,serif" font-size="14.00">is parent to</text>
</g>
<!-- LanguageTranslation -->
<g id="node20" class="node">
<title>LanguageTranslation</title>
<ellipse fill="lightblue" stroke="black" cx="1204.99" cy="-816" rx="89.99" ry="18"/>
<ellipse fill="none" stroke="black" cx="1204.99" cy="-816" rx="93.99" ry="22"/>
<text text-anchor="middle" x="1204.99" y="-810.58" font-family="Times New Roman,serif" font-size="14.00">Language Translation</text>
</g>
<!-- SoundToMath&#45;&gt;LanguageTranslation -->
<g id="edge37" class="edge">
<title>SoundToMath&#45;&gt;LanguageTranslation</title>
<path fill="none" stroke="black" d="M891.76,-896.09C909.31,-891.19 928.74,-885.06 946,-878 954.42,-874.55 955.47,-871.42 964,-868.25 1011.83,-850.5 1067.36,-837.93 1112.96,-829.57"/>
<polygon fill="black" stroke="black" points="1113.31,-833.07 1122.53,-827.86 1112.07,-826.18 1113.31,-833.07"/>
<text text-anchor="middle" x="1028.5" y="-870.45" font-family="Times New Roman,serif" font-size="14.00">is parent to</text>
</g>
<!-- SpeechToText -->
<g id="node21" class="node">
<title>SpeechToText</title>
<ellipse fill="lightblue" stroke="black" cx="1204.99" cy="-1064" rx="64.04" ry="18"/>
<ellipse fill="none" stroke="black" cx="1204.99" cy="-1064" rx="68.04" ry="22"/>
<text text-anchor="middle" x="1204.99" y="-1058.58" font-family="Times New Roman,serif" font-size="14.00">Speech to text</text>
</g>
<!-- SoundToMath&#45;&gt;SpeechToText -->
<g id="edge34" class="edge">
<title>SoundToMath&#45;&gt;SpeechToText</title>
<path fill="none" stroke="black" d="M891.82,-913.62C911.12,-917.83 931.66,-925.63 946,-940 966.57,-960.62 943.11,-982.71 964,-1003 1006.6,-1044.36 1073.08,-1058.85 1125.28,-1063.42"/>
<polygon fill="black" stroke="black" points="1124.78,-1066.89 1135.02,-1064.16 1125.31,-1059.91 1124.78,-1066.89"/>
<text text-anchor="middle" x="1028.5" y="-1060.45" font-family="Times New Roman,serif" font-size="14.00">is parent to</text>
</g>
<!-- FeatureY -->
<g id="node23" class="node">
<title>FeatureY</title>
<ellipse fill="lightblue" stroke="black" cx="1204.99" cy="-1002" rx="47.07" ry="18"/>
<ellipse fill="none" stroke="black" cx="1204.99" cy="-1002" rx="51.07" ry="22"/>
<text text-anchor="middle" x="1204.99" y="-996.58" font-family="Times New Roman,serif" font-size="14.00">Feature Y</text>
</g>
<!-- SoundToMath&#45;&gt;FeatureY -->
<g id="edge38" class="edge">
<title>SoundToMath&#45;&gt;FeatureY</title>
<path fill="none" stroke="black" d="M891.91,-922.32C909.37,-927.23 928.72,-933.25 946,-940 954.33,-943.25 955.57,-946.01 964,-949 1024.07,-970.28 1095.74,-984.77 1145.03,-993.15"/>
<polygon fill="black" stroke="black" points="1144.19,-996.56 1154.63,-994.75 1145.34,-989.66 1144.19,-996.56"/>
<text text-anchor="middle" x="1028.5" y="-985.45" font-family="Times New Roman,serif" font-size="14.00">enables</text>
</g>
<!-- TextGeneration -->
<g id="node13" class="node">
<title>TextGeneration</title>
<polygon fill="lightblue" stroke="black" points="1256.11,-772 1153.86,-772 1153.86,-736 1256.11,-736 1256.11,-772"/>
<polygon fill="none" stroke="black" points="1260.11,-776 1149.86,-776 1149.86,-732 1260.11,-732 1260.11,-776"/>
<text text-anchor="middle" x="1204.99" y="-748.58" font-family="Times New Roman,serif" font-size="14.00">Text generation</text>
</g>
<!-- ImageGeneration -->
<g id="node14" class="node">
<title>ImageGeneration</title>
<polygon fill="lightblue" stroke="black" points="1260.24,-710 1149.74,-710 1149.74,-674 1260.24,-674 1260.24,-710"/>
<polygon fill="none" stroke="black" points="1264.24,-714 1145.74,-714 1145.74,-670 1264.24,-670 1264.24,-714"/>
<text text-anchor="middle" x="1204.99" y="-686.58" font-family="Times New Roman,serif" font-size="14.00">Image generation</text>
</g>
<!-- VideoGeneration -->
<g id="node15" class="node">
<title>VideoGeneration</title>
<polygon fill="lightblue" stroke="black" points="1260.24,-648 1149.74,-648 1149.74,-612 1260.24,-612 1260.24,-648"/>
<polygon fill="none" stroke="black" points="1264.24,-652 1145.74,-652 1145.74,-608 1264.24,-608 1264.24,-652"/>
<text text-anchor="middle" x="1204.99" y="-624.58" font-family="Times New Roman,serif" font-size="14.00">Video generation</text>
</g>
<!-- GenerativeCapability&#45;&gt;TextGeneration -->
<g id="edge30" class="edge">
<title>GenerativeCapability&#45;&gt;TextGeneration</title>
<path fill="none" stroke="black" d="M909.4,-729.01C975.69,-734.64 1073.88,-742.96 1138.39,-748.44"/>
<polygon fill="black" stroke="black" points="1137.87,-751.9 1148.13,-749.26 1138.46,-744.93 1137.87,-751.9"/>
<text text-anchor="middle" x="1028.5" y="-745.45" font-family="Times New Roman,serif" font-size="14.00">is parent to</text>
</g>
<!-- GenerativeCapability&#45;&gt;ImageGeneration -->
<g id="edge31" class="edge">
<title>GenerativeCapability&#45;&gt;ImageGeneration</title>
<path fill="none" stroke="black" d="M909.4,-716.99C974.22,-711.49 1069.55,-703.4 1134.06,-697.93"/>
<polygon fill="black" stroke="black" points="1134.15,-701.44 1143.82,-697.1 1133.56,-694.46 1134.15,-701.44"/>
<text text-anchor="middle" x="1028.5" y="-714.45" font-family="Times New Roman,serif" font-size="14.00">is parent to</text>
</g>
<!-- GenerativeCapability&#45;&gt;VideoGeneration -->
<g id="edge32" class="edge">
<title>GenerativeCapability&#45;&gt;VideoGeneration</title>
<path fill="none" stroke="black" d="M909.5,-704.88C921.83,-701.07 934.41,-696.75 946,-692 954.42,-688.55 955.47,-685.42 964,-682.25 1019.63,-661.6 1085.69,-647.96 1134.41,-639.81"/>
<polygon fill="black" stroke="black" points="1134.67,-643.32 1143.97,-638.25 1133.54,-636.41 1134.67,-643.32"/>
<text text-anchor="middle" x="1028.5" y="-684.45" font-family="Times New Roman,serif" font-size="14.00">is parent to</text>
</g>
<!-- SoftwareFeature -->
<g id="node41" class="node">
<title>SoftwareFeature</title>
<g id="a_node41"><a xlink:href="https://en.wikipedia.org/wiki/Software_feature" xlink:title=" &lt;i&gt;&lt;u&gt;Software Feature&lt;/u&gt;&lt;/i&gt; ">
<ellipse fill="lightyellow" stroke="black" cx="837.5" cy="-171" rx="81.5" ry="18"/>
<text text-anchor="start" x="784.25" y="-166.57" font-family="Times New Roman,serif" font-size="14.00"> </text>
<text text-anchor="start" x="788" y="-166.57" font-family="Times New Roman,serif" font-style="italic" text-decoration="underline" font-size="14.00">Software Feature</text>
<text text-anchor="start" x="887" y="-166.57" font-family="Times New Roman,serif" font-size="14.00"> </text>
</a>
</g>
</g>
<!-- Software&#45;&gt;SoftwareFeature -->
<g id="edge22" class="edge">
<title>Software&#45;&gt;SoftwareFeature</title>
<path fill="none" stroke="black" d="M543.09,-179.01C591.23,-177.7 677.98,-175.33 744.71,-173.51"/>
<polygon fill="black" stroke="black" points="744.67,-177.01 754.57,-173.24 744.48,-170.01 744.67,-177.01"/>
<text text-anchor="middle" x="651.75" y="-179.45" font-family="Times New Roman,serif" font-size="14.00">has one or many</text>
</g>
<!-- Device&#45;&gt;ComputeUnit -->
<g id="edge23" class="edge">
<title>Device&#45;&gt;ComputeUnit</title>
<path fill="none" stroke="black" d="M537,-72C590.6,-72 703.52,-72 774.37,-72"/>
<polygon fill="black" stroke="black" points="774.28,-75.5 784.28,-72 774.28,-68.5 774.28,-75.5"/>
<text text-anchor="middle" x="651.75" y="-74.45" font-family="Times New Roman,serif" font-size="14.00">has one or many</text>
</g>
<!-- CPU -->
<g id="node27" class="node">
<title>CPU</title>
<g id="a_node27"><a xlink:href="https://en.wikipedia.org/wiki/Central_processing_unit" xlink:title=" &lt;i&gt;&lt;u&gt;CPU&lt;/u&gt;&lt;/i&gt; ">
<polygon fill="lightyellow" stroke="black" points="532.88,-36 478.88,-36 478.88,0 532.88,0 532.88,-36"/>
<text text-anchor="start" x="487.5" y="-13.57" font-family="Times New Roman,serif" font-size="14.00"> </text>
<text text-anchor="start" x="491.25" y="-13.57" font-family="Times New Roman,serif" font-style="italic" text-decoration="underline" font-size="14.00">CPU</text>
<text text-anchor="start" x="520.5" y="-13.57" font-family="Times New Roman,serif" font-size="14.00"> </text>
</a>
</g>
</g>
<!-- CPU&#45;&gt;ComputeUnit -->
<g id="edge24" class="edge">
<title>CPU&#45;&gt;ComputeUnit</title>
<path fill="none" stroke="black" d="M533.29,-22.33C585.28,-30.84 702.1,-49.98 774.61,-61.86"/>
<polygon fill="black" stroke="black" points="773.92,-65.29 784.36,-63.46 775.05,-58.39 773.92,-65.29"/>
<text text-anchor="middle" x="651.75" y="-54.45" font-family="Times New Roman,serif" font-size="14.00">is instance of</text>
</g>
<!-- GPU -->
<g id="node28" class="node">
<title>GPU</title>
<g id="a_node28"><a xlink:href="https://en.wikipedia.org/wiki/Graphics_processing_unit" xlink:title=" &lt;i&gt;&lt;u&gt;GPU&lt;/u&gt;&lt;/i&gt; ">
<polygon fill="lightyellow" stroke="black" points="532.88,-144 478.88,-144 478.88,-108 532.88,-108 532.88,-144"/>
<text text-anchor="start" x="487.12" y="-121.58" font-family="Times New Roman,serif" font-size="14.00"> </text>
<text text-anchor="start" x="490.88" y="-121.58" font-family="Times New Roman,serif" font-style="italic" text-decoration="underline" font-size="14.00">GPU</text>
<text text-anchor="start" x="520.88" y="-121.58" font-family="Times New Roman,serif" font-size="14.00"> </text>
</a>
</g>
</g>
<!-- GPU&#45;&gt;ComputeUnit -->
<g id="edge25" class="edge">
<title>GPU&#45;&gt;ComputeUnit</title>
<path fill="none" stroke="black" d="M533.29,-121.67C585.28,-113.16 702.1,-94.02 774.61,-82.14"/>
<polygon fill="black" stroke="black" points="775.05,-85.61 784.36,-80.54 773.92,-78.71 775.05,-85.61"/>
<text text-anchor="middle" x="651.75" y="-113.45" font-family="Times New Roman,serif" font-size="14.00">is instance of</text>
</g>
<!-- EuclideanSpace -->
<g id="node33" class="node">
<title>EuclideanSpace</title>
<g id="a_node33"><a xlink:href="https://en.wikipedia.org/wiki/Euclidean_space" xlink:title=" &lt;i&gt;&lt;u&gt;Euclidean Space&lt;/u&gt;&lt;/i&gt; ">
<polygon fill="lightyellow" stroke="black" points="1265.11,-432 1144.86,-432 1144.86,-396 1265.11,-396 1265.11,-432"/>
<text text-anchor="start" x="1152.86" y="-409.57" font-family="Times New Roman,serif" font-size="14.00"> </text>
<text text-anchor="start" x="1156.61" y="-409.57" font-family="Times New Roman,serif" font-style="italic" text-decoration="underline" font-size="14.00">Euclidean Space</text>
<text text-anchor="start" x="1253.36" y="-409.57" font-family="Times New Roman,serif" font-size="14.00"> </text>
</a>
</g>
</g>
<!-- Mathematics&#45;&gt;EuclideanSpace -->
<g id="edge12" class="edge">
<title>Mathematics&#45;&gt;EuclideanSpace</title>
<path fill="none" stroke="black" d="M886.33,-341.76C905.32,-346.07 927.1,-352.07 946,-360 954.65,-363.63 955.24,-367.67 964,-371 1018.77,-391.8 1084.46,-402.68 1133.26,-408.28"/>
<polygon fill="black" stroke="black" points="1132.83,-411.75 1143.15,-409.37 1133.59,-404.8 1132.83,-411.75"/>
<text text-anchor="middle" x="1028.5" y="-404.45" font-family="Times New Roman,serif" font-size="14.00">used by neural networs</text>
</g>
<!-- ActivationFunction -->
<g id="node34" class="node">
<title>ActivationFunction</title>
<g id="a_node34"><a xlink:href="https://en.wikipedia.org/wiki/Activation_function" xlink:title=" &lt;i&gt;&lt;u&gt;Activation Function&lt;/u&gt;&lt;/i&gt; ">
<polygon fill="lightyellow" stroke="black" points="1272.99,-378 1136.99,-378 1136.99,-342 1272.99,-342 1272.99,-378"/>
<text text-anchor="start" x="1144.99" y="-355.57" font-family="Times New Roman,serif" font-size="14.00"> </text>
<text text-anchor="start" x="1148.74" y="-355.57" font-family="Times New Roman,serif" font-style="italic" text-decoration="underline" font-size="14.00">Activation Function</text>
<text text-anchor="start" x="1261.24" y="-355.57" font-family="Times New Roman,serif" font-size="14.00"> </text>
</a>
</g>
</g>
<!-- Mathematics&#45;&gt;ActivationFunction -->
<g id="edge11" class="edge">
<title>Mathematics&#45;&gt;ActivationFunction</title>
<path fill="none" stroke="black" d="M886.28,-336.53C946.98,-341.01 1052.58,-348.81 1125.26,-354.18"/>
<polygon fill="black" stroke="black" points="1124.89,-357.67 1135.12,-354.91 1125.4,-350.69 1124.89,-357.67"/>
<text text-anchor="middle" x="1028.5" y="-353.45" font-family="Times New Roman,serif" font-size="14.00">used by neural networs</text>
</g>
<!-- AffineTransformation -->
<g id="node35" class="node">
<title>AffineTransformation</title>
<g id="a_node35"><a xlink:href="https://en.wikipedia.org/wiki/Affine_transformation" xlink:title=" &lt;i&gt;&lt;u&gt;Affine Transformation&lt;/u&gt;&lt;/i&gt; ">
<polygon fill="lightyellow" stroke="black" points="1279.74,-324 1130.24,-324 1130.24,-288 1279.74,-288 1279.74,-324"/>
<text text-anchor="start" x="1138.24" y="-301.57" font-family="Times New Roman,serif" font-size="14.00"> </text>
<text text-anchor="start" x="1141.99" y="-301.57" font-family="Times New Roman,serif" font-style="italic" text-decoration="underline" font-size="14.00">Affine Transformation</text>
<text text-anchor="start" x="1267.99" y="-301.57" font-family="Times New Roman,serif" font-size="14.00"> </text>
</a>
</g>
</g>
<!-- Mathematics&#45;&gt;AffineTransformation -->
<g id="edge13" class="edge">
<title>Mathematics&#45;&gt;AffineTransformation</title>
<path fill="none" stroke="black" d="M886.46,-328.69C909.84,-326.64 938.38,-324.21 964,-322.25 1015.24,-318.32 1072.68,-314.41 1118.51,-311.42"/>
<polygon fill="black" stroke="black" points="1118.64,-314.91 1128.4,-310.77 1118.19,-307.93 1118.64,-314.91"/>
<text text-anchor="middle" x="1028.5" y="-324.45" font-family="Times New Roman,serif" font-size="14.00">used by neural networs</text>
</g>
<!-- ChainRule -->
<g id="node36" class="node">
<title>ChainRule</title>
<g id="a_node36"><a xlink:href="https://en.wikipedia.org/wiki/Chain_rule" xlink:title=" &lt;i&gt;&lt;u&gt;Chain Rule&lt;/u&gt;&lt;/i&gt; ">
<polygon fill="lightyellow" stroke="black" points="1249.74,-270 1160.24,-270 1160.24,-234 1249.74,-234 1249.74,-270"/>
<text text-anchor="start" x="1168.24" y="-247.57" font-family="Times New Roman,serif" font-size="14.00"> </text>
<text text-anchor="start" x="1171.99" y="-247.57" font-family="Times New Roman,serif" font-style="italic" text-decoration="underline" font-size="14.00">Chain Rule</text>
<text text-anchor="start" x="1237.99" y="-247.57" font-family="Times New Roman,serif" font-size="14.00"> </text>
</a>
</g>
</g>
<!-- Mathematics&#45;&gt;ChainRule -->
<g id="edge14" class="edge">
<title>Mathematics&#45;&gt;ChainRule</title>
<path fill="none" stroke="black" d="M886.35,-324.95C905.45,-320.73 927.29,-314.61 946,-306 954.91,-301.9 954.94,-297.01 964,-293.25 1024.14,-268.3 1098.77,-258.44 1148.69,-254.55"/>
<polygon fill="black" stroke="black" points="1148.66,-258.06 1158.38,-253.85 1148.16,-251.08 1148.66,-258.06"/>
<text text-anchor="middle" x="1028.5" y="-295.45" font-family="Times New Roman,serif" font-size="14.00">used by neural networs</text>
</g>
</g>
</svg>
