<?xml version="1.0" encoding="UTF-8" standalone="no"?>
<!DOCTYPE svg PUBLIC "-//W3C//DTD SVG 1.1//EN"
 "http://www.w3.org/Graphics/SVG/1.1/DTD/svg11.dtd">
<!-- Generated by graphviz version 12.2.1 (20241206.2353)
 -->
<!-- Title: Intelligent Application Pages: 1 -->
<svg width="523pt" height="334pt"
 viewBox="0.00 0.00 523.33 333.50" xmlns="http://www.w3.org/2000/svg" xmlns:xlink="http://www.w3.org/1999/xlink">
<g id="graph0" class="graph" transform="scale(1 1) rotate(0) translate(4 329.5)">
<title>Intelligent Application</title>
<polygon fill="white" stroke="none" points="-4,4 -4,-329.5 519.33,-329.5 519.33,4 -4,4"/>
<!-- ComputationallyIntelligent -->
<g id="node1" class="node">
<title>ComputationallyIntelligent</title>
<polygon fill="lightblue" stroke="black" points="177.5,-128.5 4,-128.5 4,-92.5 177.5,-92.5 177.5,-128.5"/>
<polygon fill="none" stroke="black" points="181.5,-132.5 0,-132.5 0,-88.5 181.5,-88.5 181.5,-132.5"/>
<text text-anchor="start" x="12" y="-106.45" font-family="Times New Roman,serif" font-size="14.00"> </text>
<text text-anchor="start" x="15.75" y="-106.45" font-family="Times New Roman,serif" font-style="italic" font-size="14.00">Computationally Intelligent</text>
<text text-anchor="start" x="165.75" y="-106.45" font-family="Times New Roman,serif" font-size="14.00"> </text>
</g>
<!-- TuringTest -->
<g id="node5" class="node">
<title>TuringTest</title>
<g id="a_node5"><a xlink:href="https://en.wikipedia.org/wiki/Turing_test" xlink:title=" &lt;i&gt;&lt;u&gt;Turing Test&lt;/u&gt;&lt;/i&gt; ">
<polygon fill="lightyellow" stroke="black" points="133.25,-36 48.25,-36 48.25,0 133.25,0 133.25,-36"/>
<text text-anchor="start" x="56.25" y="-13.95" font-family="Times New Roman,serif" font-size="14.00"> </text>
<text text-anchor="start" x="60" y="-13.95" font-family="Times New Roman,serif" font-style="italic" text-decoration="underline" font-size="14.00">Turing Test</text>
<text text-anchor="start" x="121.5" y="-13.95" font-family="Times New Roman,serif" font-size="14.00"> </text>
</a>
</g>
</g>
<!-- ComputationallyIntelligent&#45;&gt;TuringTest -->
<g id="edge3" class="edge">
<title>ComputationallyIntelligent&#45;&gt;TuringTest</title>
<path fill="none" stroke="black" d="M90.75,-88.05C90.75,-75.97 90.75,-60.71 90.75,-47.62"/>
<polygon fill="black" stroke="black" points="94.25,-47.87 90.75,-37.87 87.25,-47.87 94.25,-47.87"/>
<text text-anchor="middle" x="144.75" y="-57.2" font-family="Times New Roman,serif" font-size="14.00">passes in some area</text>
</g>
<!-- IntelligentFeature -->
<g id="node2" class="node">
<title>IntelligentFeature</title>
<polygon fill="lightblue" stroke="black" points="237.5,-225 112,-225 112,-189 237.5,-189 237.5,-225"/>
<polygon fill="none" stroke="black" points="241.5,-229 108,-229 108,-185 241.5,-185 241.5,-229"/>
<text text-anchor="start" x="120" y="-202.95" font-family="Times New Roman,serif" font-size="14.00"> </text>
<text text-anchor="start" x="123.75" y="-202.95" font-family="Times New Roman,serif" font-style="italic" font-size="14.00">Intelligent Feature</text>
<text text-anchor="start" x="225.75" y="-202.95" font-family="Times New Roman,serif" font-size="14.00"> </text>
</g>
<!-- IntelligentFeature&#45;&gt;ComputationallyIntelligent -->
<g id="edge2" class="edge">
<title>IntelligentFeature&#45;&gt;ComputationallyIntelligent</title>
<path fill="none" stroke="black" d="M155.69,-184.56C144.3,-171.75 129.68,-155.29 117.19,-141.24"/>
<polygon fill="black" stroke="black" points="120,-139.14 110.74,-133.99 114.77,-143.79 120,-139.14"/>
<text text-anchor="middle" x="142.28" y="-153.7" font-family="Times New Roman,serif" font-size="14.00">is</text>
</g>
<!-- SoftwareFeature -->
<g id="node6" class="node">
<title>SoftwareFeature</title>
<g id="a_node6"><a xlink:href="https://en.wikipedia.org/wiki/Software_feature" xlink:title=" &lt;i&gt;&lt;u&gt;Software Feature&lt;/u&gt;&lt;/i&gt; ">
<polygon fill="lightyellow" stroke="black" points="317.75,-128.5 199.75,-128.5 199.75,-92.5 317.75,-92.5 317.75,-128.5"/>
<text text-anchor="start" x="207.75" y="-106.45" font-family="Times New Roman,serif" font-size="14.00"> </text>
<text text-anchor="start" x="211.5" y="-106.45" font-family="Times New Roman,serif" font-style="italic" text-decoration="underline" font-size="14.00">Software Feature</text>
<text text-anchor="start" x="306" y="-106.45" font-family="Times New Roman,serif" font-size="14.00"> </text>
</a>
</g>
</g>
<!-- IntelligentFeature&#45;&gt;SoftwareFeature -->
<g id="edge6" class="edge">
<title>IntelligentFeature&#45;&gt;SoftwareFeature</title>
<path fill="none" stroke="black" d="M193.81,-184.56C206.35,-170.44 222.84,-151.9 236.06,-137.03"/>
<polygon fill="black" stroke="black" points="238.38,-139.69 242.4,-129.89 233.14,-135.04 238.38,-139.69"/>
<text text-anchor="middle" x="231.15" y="-153.7" font-family="Times New Roman,serif" font-size="14.00">is a</text>
</g>
<!-- IntelligentApplication -->
<g id="node3" class="node">
<title>IntelligentApplication</title>
<polygon fill="lightblue" stroke="black" points="397.25,-321.5 252.25,-321.5 252.25,-285.5 397.25,-285.5 397.25,-321.5"/>
<polygon fill="none" stroke="black" points="401.25,-325.5 248.25,-325.5 248.25,-281.5 401.25,-281.5 401.25,-325.5"/>
<text text-anchor="start" x="260.25" y="-299.45" font-family="Times New Roman,serif" font-size="14.00"> </text>
<text text-anchor="start" x="264" y="-299.45" font-family="Times New Roman,serif" font-style="italic" font-size="14.00">Intelligent Application</text>
<text text-anchor="start" x="385.5" y="-299.45" font-family="Times New Roman,serif" font-size="14.00"> </text>
</g>
<!-- IntelligentApplication&#45;&gt;IntelligentFeature -->
<g id="edge1" class="edge">
<title>IntelligentApplication&#45;&gt;IntelligentFeature</title>
<path fill="none" stroke="black" d="M269.89,-281.05C258.84,-275.88 247.54,-269.97 237.5,-263.5 225.77,-255.95 214.03,-246.26 203.92,-237.11"/>
<polygon fill="black" stroke="black" points="206.31,-234.55 196.61,-230.29 201.54,-239.67 206.31,-234.55"/>
<text text-anchor="middle" x="279.12" y="-250.2" font-family="Times New Roman,serif" font-size="14.00">has at least one</text>
</g>
<!-- ComputerProgram -->
<g id="node7" class="node">
<title>ComputerProgram</title>
<g id="a_node7"><a xlink:href="https://en.wikipedia.org/wiki/Computer_program" xlink:title=" &lt;i&gt;&lt;u&gt;Computer Program&lt;/u&gt;&lt;/i&gt; ">
<polygon fill="lightyellow" stroke="black" points="389.75,-225 259.75,-225 259.75,-189 389.75,-189 389.75,-225"/>
<text text-anchor="start" x="267.75" y="-202.95" font-family="Times New Roman,serif" font-size="14.00"> </text>
<text text-anchor="start" x="271.5" y="-202.95" font-family="Times New Roman,serif" font-style="italic" text-decoration="underline" font-size="14.00">Computer Program</text>
<text text-anchor="start" x="378" y="-202.95" font-family="Times New Roman,serif" font-size="14.00"> </text>
</a>
</g>
</g>
<!-- IntelligentApplication&#45;&gt;ComputerProgram -->
<g id="edge4" class="edge">
<title>IntelligentApplication&#45;&gt;ComputerProgram</title>
<path fill="none" stroke="black" d="M324.75,-281.06C324.75,-267.87 324.75,-250.81 324.75,-236.49"/>
<polygon fill="black" stroke="black" points="328.25,-236.77 324.75,-226.77 321.25,-236.77 328.25,-236.77"/>
<text text-anchor="middle" x="334.12" y="-250.2" font-family="Times New Roman,serif" font-size="14.00">is a</text>
</g>
<!-- Device -->
<g id="node8" class="node">
<title>Device</title>
<g id="a_node8"><a xlink:href="https://en.wikipedia.org/wiki/Device" xlink:title=" &lt;i&gt;&lt;u&gt;Device&lt;/u&gt;&lt;/i&gt; ">
<polygon fill="lightyellow" stroke="black" points="469.25,-225 408.25,-225 408.25,-189 469.25,-189 469.25,-225"/>
<text text-anchor="start" x="416.25" y="-202.95" font-family="Times New Roman,serif" font-size="14.00"> </text>
<text text-anchor="start" x="420" y="-202.95" font-family="Times New Roman,serif" font-style="italic" text-decoration="underline" font-size="14.00">Device</text>
<text text-anchor="start" x="457.5" y="-202.95" font-family="Times New Roman,serif" font-size="14.00"> </text>
</a>
</g>
</g>
<!-- IntelligentApplication&#45;&gt;Device -->
<g id="edge5" class="edge">
<title>IntelligentApplication&#45;&gt;Device</title>
<path fill="none" stroke="black" d="M350.62,-281.06C368.12,-266.55 391.27,-247.36 409.45,-232.29"/>
<polygon fill="black" stroke="black" points="411.3,-235.3 416.76,-226.22 406.83,-229.91 411.3,-235.3"/>
<text text-anchor="middle" x="451.95" y="-250.2" font-family="Times New Roman,serif" font-size="14.00">can be accessed from a</text>
</g>
<!-- Wikipedia -->
<g id="node4" class="node">
<title>Wikipedia</title>
<g id="a_node4"><a xlink:href="https://en.wikipedia.org/" xlink:title=" &lt;i&gt;&lt;u&gt;Wikipedia&lt;/u&gt;&lt;/i&gt; ">
<polygon fill="lightyellow" stroke="black" points="497.88,-321.5 419.62,-321.5 419.62,-285.5 497.88,-285.5 497.88,-321.5"/>
<text text-anchor="start" x="427.62" y="-299.45" font-family="Times New Roman,serif" font-size="14.00"> </text>
<text text-anchor="start" x="431.38" y="-299.45" font-family="Times New Roman,serif" font-style="italic" text-decoration="underline" font-size="14.00">Wikipedia</text>
<text text-anchor="start" x="486.12" y="-299.45" font-family="Times New Roman,serif" font-size="14.00"> </text>
</a>
</g>
</g>
</g>
</svg>
