<?xml version="1.0" encoding="UTF-8" standalone="no"?>
<!DOCTYPE svg PUBLIC "-//W3C//DTD SVG 1.1//EN"
 "http://www.w3.org/Graphics/SVG/1.1/DTD/svg11.dtd">
<!-- Generated by graphviz version 12.2.1 (20241206.2353)
 -->
<!-- Title: Intelligent Application Pages: 1 -->
<svg width="995pt" height="230pt"
 viewBox="0.00 0.00 994.75 230.00" xmlns="http://www.w3.org/2000/svg" xmlns:xlink="http://www.w3.org/1999/xlink">
<g id="graph0" class="graph" transform="scale(1 1) rotate(0) translate(4 226)">
<title>Intelligent Application</title>
<polygon fill="white" stroke="none" points="-4,4 -4,-226 990.75,-226 990.75,4 -4,4"/>
<!-- Model -->
<g id="node1" class="node">
<title>Model</title>
<polygon fill="lightblue" stroke="black" points="449.75,-122 311.5,-122 311.5,-86 449.75,-86 449.75,-122"/>
<polygon fill="none" stroke="black" points="453.75,-126 307.5,-126 307.5,-82 453.75,-82 453.75,-126"/>
<text text-anchor="start" x="319.5" y="-99.95" font-family="Times New Roman,serif" font-size="14.00"> </text>
<text text-anchor="start" x="323.25" y="-99.95" font-family="Times New Roman,serif" font-style="italic" font-size="14.00">Mathematical Model</text>
<text text-anchor="start" x="438" y="-99.95" font-family="Times New Roman,serif" font-size="14.00"> </text>
</g>
<!-- MathematicalTool -->
<g id="node2" class="node">
<title>MathematicalTool</title>
<polygon fill="lightblue" stroke="black" points="744.62,-218 617.62,-218 617.62,-182 744.62,-182 744.62,-218"/>
<polygon fill="none" stroke="black" points="748.62,-222 613.62,-222 613.62,-178 748.62,-178 748.62,-222"/>
<text text-anchor="start" x="625.62" y="-195.95" font-family="Times New Roman,serif" font-size="14.00"> </text>
<text text-anchor="start" x="629.38" y="-195.95" font-family="Times New Roman,serif" font-style="italic" font-size="14.00">Mathematical Tool</text>
<text text-anchor="start" x="732.88" y="-195.95" font-family="Times New Roman,serif" font-size="14.00"> </text>
</g>
<!-- Model&#45;&gt;MathematicalTool -->
<g id="edge1" class="edge">
<title>Model&#45;&gt;MathematicalTool</title>
<path fill="none" stroke="black" d="M423.01,-126.46C438.06,-134.02 455.39,-142.04 471.75,-148 513.93,-163.37 562.52,-175.78 602.17,-184.62"/>
<polygon fill="black" stroke="black" points="601.37,-188.03 611.89,-186.75 602.87,-181.19 601.37,-188.03"/>
<text text-anchor="middle" x="532.88" y="-184.86" font-family="Times New Roman,serif" font-size="14.00">can use</text>
</g>
<!-- Algorithm -->
<g id="node4" class="node">
<title>Algorithm</title>
<polygon fill="lightblue" stroke="black" points="720.25,-156 642,-156 642,-120 720.25,-120 720.25,-156"/>
<polygon fill="none" stroke="black" points="724.25,-160 638,-160 638,-116 724.25,-116 724.25,-160"/>
<text text-anchor="start" x="650" y="-133.95" font-family="Times New Roman,serif" font-size="14.00"> </text>
<text text-anchor="start" x="653.75" y="-133.95" font-family="Times New Roman,serif" font-style="italic" font-size="14.00">Algorithm</text>
<text text-anchor="start" x="708.5" y="-133.95" font-family="Times New Roman,serif" font-size="14.00"> </text>
</g>
<!-- Model&#45;&gt;Algorithm -->
<g id="edge2" class="edge">
<title>Model&#45;&gt;Algorithm</title>
<path fill="none" stroke="black" d="M453.88,-112.23C506.96,-118.28 577.94,-126.36 626.13,-131.85"/>
<polygon fill="black" stroke="black" points="625.73,-135.33 636.07,-132.98 626.53,-128.37 625.73,-135.33"/>
<text text-anchor="middle" x="532.88" y="-131.15" font-family="Times New Roman,serif" font-size="14.00">can use</text>
</g>
<!-- Graph -->
<g id="node6" class="node">
<title>Graph</title>
<polygon fill="lightblue" stroke="black" points="708.12,-94 654.12,-94 654.12,-58 708.12,-58 708.12,-94"/>
<polygon fill="none" stroke="black" points="712.12,-98 650.12,-98 650.12,-54 712.12,-54 712.12,-98"/>
<text text-anchor="middle" x="681.12" y="-70.95" font-family="Times New Roman,serif" font-size="14.00">Graph</text>
</g>
<!-- Model&#45;&gt;Graph -->
<g id="edge3" class="edge">
<title>Model&#45;&gt;Graph</title>
<path fill="none" stroke="black" d="M453.83,-90.86C459.88,-89.98 465.91,-89.17 471.75,-88.5 529.22,-81.86 596.03,-78.64 638.19,-77.16"/>
<polygon fill="black" stroke="black" points="638.27,-80.66 648.15,-76.82 638.04,-73.66 638.27,-80.66"/>
<text text-anchor="middle" x="532.88" y="-91.7" font-family="Times New Roman,serif" font-size="14.00">structure</text>
</g>
<!-- MathematicalModel -->
<g id="node10" class="node">
<title>MathematicalModel</title>
<g id="a_node10"><a xlink:href="https://en.wikipedia.org/wiki/Mathematical_model" xlink:title=" &lt;i&gt;&lt;u&gt;Mathematical Model&lt;/u&gt;&lt;/i&gt; ">
<polygon fill="lightyellow" stroke="black" points="750.25,-36 612,-36 612,0 750.25,0 750.25,-36"/>
<text text-anchor="start" x="620" y="-13.95" font-family="Times New Roman,serif" font-size="14.00"> </text>
<text text-anchor="start" x="623.75" y="-13.95" font-family="Times New Roman,serif" font-style="italic" text-decoration="underline" font-size="14.00">Mathematical Model</text>
<text text-anchor="start" x="738.5" y="-13.95" font-family="Times New Roman,serif" font-size="14.00"> </text>
</a>
</g>
</g>
<!-- Model&#45;&gt;MathematicalModel -->
<g id="edge7" class="edge">
<title>Model&#45;&gt;MathematicalModel</title>
<path fill="none" stroke="black" d="M437.9,-81.61C443.36,-78.91 448.73,-76.02 453.75,-73 462.55,-67.7 462.43,-62.83 471.75,-58.5 511.99,-39.8 560.47,-29.73 600.54,-24.31"/>
<polygon fill="black" stroke="black" points="600.89,-27.79 610.37,-23.06 600.01,-20.85 600.89,-27.79"/>
<text text-anchor="middle" x="532.88" y="-61.7" font-family="Times New Roman,serif" font-size="14.00">ALMOST EXACTLY</text>
</g>
<!-- MathematicalArchitecture -->
<g id="node3" class="node">
<title>MathematicalArchitecture</title>
<polygon fill="lightblue" stroke="black" points="181.25,-80 11.5,-80 11.5,-44 181.25,-44 181.25,-80"/>
<polygon fill="none" stroke="black" points="185.25,-84 7.5,-84 7.5,-40 185.25,-40 185.25,-84"/>
<text text-anchor="start" x="19.5" y="-57.95" font-family="Times New Roman,serif" font-size="14.00"> </text>
<text text-anchor="start" x="23.25" y="-57.95" font-family="Times New Roman,serif" font-style="italic" font-size="14.00">Mathematical Architecture</text>
<text text-anchor="start" x="169.5" y="-57.95" font-family="Times New Roman,serif" font-size="14.00"> </text>
</g>
<!-- MathematicalArchitecture&#45;&gt;Model -->
<g id="edge4" class="edge">
<title>MathematicalArchitecture&#45;&gt;Model</title>
<path fill="none" stroke="black" d="M185.52,-75.12C220.84,-80.37 261.34,-86.4 296.18,-91.58"/>
<polygon fill="black" stroke="black" points="295.37,-95 305.78,-93.01 296.4,-88.08 295.37,-95"/>
<text text-anchor="middle" x="250.12" y="-93.61" font-family="Times New Roman,serif" font-size="14.00">instance of</text>
</g>
<!-- TrainingMethod -->
<g id="node5" class="node">
<title>TrainingMethod</title>
<polygon fill="lightblue" stroke="black" points="435.12,-60 326.12,-60 326.12,-24 435.12,-24 435.12,-60"/>
<polygon fill="none" stroke="black" points="439.12,-64 322.12,-64 322.12,-20 439.12,-20 439.12,-64"/>
<text text-anchor="middle" x="380.62" y="-36.95" font-family="Times New Roman,serif" font-size="14.00">Training Method</text>
</g>
<!-- MathematicalArchitecture&#45;&gt;TrainingMethod -->
<g id="edge5" class="edge">
<title>MathematicalArchitecture&#45;&gt;TrainingMethod</title>
<path fill="none" stroke="black" d="M185.52,-55.75C225.83,-52.9 272.89,-49.56 310.57,-46.89"/>
<polygon fill="black" stroke="black" points="310.71,-50.39 320.44,-46.19 310.22,-43.41 310.71,-50.39"/>
<text text-anchor="middle" x="250.12" y="-56.99" font-family="Times New Roman,serif" font-size="14.00">train with data</text>
</g>
<!-- WikiAlgorithm -->
<g id="node9" class="node">
<title>WikiAlgorithm</title>
<g id="a_node9"><a xlink:href="https://en.wikipedia.org/wiki/Algorithm" xlink:title=" &lt;i&gt;&lt;u&gt;Algorithm&lt;/u&gt;&lt;/i&gt; ">
<polygon fill="lightyellow" stroke="black" points="986.75,-156 908.5,-156 908.5,-120 986.75,-120 986.75,-156"/>
<text text-anchor="start" x="916.5" y="-133.95" font-family="Times New Roman,serif" font-size="14.00"> </text>
<text text-anchor="start" x="920.25" y="-133.95" font-family="Times New Roman,serif" font-style="italic" text-decoration="underline" font-size="14.00">Algorithm</text>
<text text-anchor="start" x="975" y="-133.95" font-family="Times New Roman,serif" font-size="14.00"> </text>
</a>
</g>
</g>
<!-- Algorithm&#45;&gt;WikiAlgorithm -->
<g id="edge6" class="edge">
<title>Algorithm&#45;&gt;WikiAlgorithm</title>
<path fill="none" stroke="black" d="M724.62,-138C771.53,-138 846.97,-138 896.68,-138"/>
<polygon fill="black" stroke="black" points="896.59,-141.5 906.59,-138 896.59,-134.5 896.59,-141.5"/>
<text text-anchor="middle" x="829.38" y="-141.2" font-family="Times New Roman,serif" font-size="14.00">ALMOST EXACTLY</text>
</g>
<!-- WikiGraph -->
<g id="node11" class="node">
<title>WikiGraph</title>
<g id="a_node11"><a xlink:href="https://en.wikipedia.org/wiki/Graph_(discrete_mathematics)" xlink:title=" &lt;i&gt;&lt;u&gt;Graph&lt;/u&gt;&lt;/i&gt; ">
<polygon fill="lightyellow" stroke="black" points="977,-94 918.25,-94 918.25,-58 977,-58 977,-94"/>
<text text-anchor="start" x="926.25" y="-71.95" font-family="Times New Roman,serif" font-size="14.00"> </text>
<text text-anchor="start" x="930" y="-71.95" font-family="Times New Roman,serif" font-style="italic" text-decoration="underline" font-size="14.00">Graph</text>
<text text-anchor="start" x="965.25" y="-71.95" font-family="Times New Roman,serif" font-size="14.00"> </text>
</a>
</g>
</g>
<!-- Graph&#45;&gt;WikiGraph -->
<g id="edge8" class="edge">
<title>Graph&#45;&gt;WikiGraph</title>
<path fill="none" stroke="black" d="M712.47,-76C760.28,-76 853.18,-76 906.47,-76"/>
<polygon fill="black" stroke="black" points="906.33,-79.5 916.33,-76 906.33,-72.5 906.33,-79.5"/>
<text text-anchor="middle" x="829.38" y="-79.2" font-family="Times New Roman,serif" font-size="14.00">ALMOST EXACTLY</text>
</g>
<!-- Wikipedia -->
<g id="node7" class="node">
<title>Wikipedia</title>
<g id="a_node7"><a xlink:href="https://en.wikipedia.org/" xlink:title=" &lt;i&gt;&lt;u&gt;Concept Defined in Wikipedia&lt;/u&gt;&lt;/i&gt; ">
<polygon fill="lightyellow" stroke="black" points="190.25,-138 2.5,-138 2.5,-102 190.25,-102 190.25,-138"/>
<text text-anchor="start" x="10.5" y="-115.95" font-family="Times New Roman,serif" font-size="14.00"> </text>
<text text-anchor="start" x="14.25" y="-115.95" font-family="Times New Roman,serif" font-style="italic" text-decoration="underline" font-size="14.00">Concept Defined in Wikipedia</text>
<text text-anchor="start" x="178.5" y="-115.95" font-family="Times New Roman,serif" font-size="14.00"> </text>
</a>
</g>
</g>
<!-- This Paper -->
<g id="node8" class="node">
<title>This Paper</title>
<polygon fill="lightblue" stroke="black" points="188.75,-196 4,-196 4,-160 188.75,-160 188.75,-196"/>
<polygon fill="none" stroke="black" points="192.75,-200 0,-200 0,-156 192.75,-156 192.75,-200"/>
<text text-anchor="start" x="12" y="-173.95" font-family="Times New Roman,serif" font-size="14.00"> </text>
<text text-anchor="start" x="15.75" y="-173.95" font-family="Times New Roman,serif" font-style="italic" font-size="14.00">Concept defined in this paper</text>
<text text-anchor="start" x="177" y="-173.95" font-family="Times New Roman,serif" font-size="14.00"> </text>
</g>
</g>
</svg>
