<?xml version="1.0" encoding="UTF-8" standalone="no"?>
<!DOCTYPE svg PUBLIC "-//W3C//DTD SVG 1.1//EN"
 "http://www.w3.org/Graphics/SVG/1.1/DTD/svg11.dtd">
<!-- Generated by graphviz version 12.2.1 (20241206.2353)
 -->
<!-- Title: Intelligent Application Pages: 1 -->
<svg width="665pt" height="176pt"
 viewBox="0.00 0.00 665.00 176.00" xmlns="http://www.w3.org/2000/svg" xmlns:xlink="http://www.w3.org/1999/xlink">
<g id="graph0" class="graph" transform="scale(1 1) rotate(0) translate(4 172)">
<title>Intelligent Application</title>
<polygon fill="white" stroke="none" points="-4,4 -4,-172 661,-172 661,4 -4,4"/>
<!-- Model -->
<g id="node1" class="node">
<title>Model</title>
<polygon fill="lightblue" stroke="black" points="434.75,-102 296.5,-102 296.5,-66 434.75,-66 434.75,-102"/>
<polygon fill="none" stroke="black" points="438.75,-106 292.5,-106 292.5,-62 438.75,-62 438.75,-106"/>
<text text-anchor="start" x="304.5" y="-79.95" font-family="Times New Roman,serif" font-size="14.00"> </text>
<text text-anchor="start" x="308.25" y="-79.95" font-family="Times New Roman,serif" font-style="italic" font-size="14.00">Mathematical Model</text>
<text text-anchor="start" x="423" y="-79.95" font-family="Times New Roman,serif" font-size="14.00"> </text>
</g>
<!-- MathematicalTool -->
<g id="node2" class="node">
<title>MathematicalTool</title>
<polygon fill="lightblue" stroke="black" points="653,-164 526,-164 526,-128 653,-128 653,-164"/>
<polygon fill="none" stroke="black" points="657,-168 522,-168 522,-124 657,-124 657,-168"/>
<text text-anchor="start" x="534" y="-141.95" font-family="Times New Roman,serif" font-size="14.00"> </text>
<text text-anchor="start" x="537.75" y="-141.95" font-family="Times New Roman,serif" font-style="italic" font-size="14.00">Mathematical Tool</text>
<text text-anchor="start" x="641.25" y="-141.95" font-family="Times New Roman,serif" font-size="14.00"> </text>
</g>
<!-- Model&#45;&gt;MathematicalTool -->
<g id="edge1" class="edge">
<title>Model&#45;&gt;MathematicalTool</title>
<path fill="none" stroke="black" d="M438.97,-104.22C461.89,-110.62 487.33,-117.73 510.63,-124.24"/>
<polygon fill="black" stroke="black" points="509.49,-127.55 520.06,-126.88 511.37,-120.81 509.49,-127.55"/>
<text text-anchor="middle" x="480.38" y="-125.58" font-family="Times New Roman,serif" font-size="14.00">can use</text>
</g>
<!-- Algorithm -->
<g id="node4" class="node">
<title>Algorithm</title>
<polygon fill="lightblue" stroke="black" points="628.62,-102 550.38,-102 550.38,-66 628.62,-66 628.62,-102"/>
<polygon fill="none" stroke="black" points="632.62,-106 546.38,-106 546.38,-62 632.62,-62 632.62,-106"/>
<text text-anchor="start" x="558.38" y="-79.95" font-family="Times New Roman,serif" font-size="14.00"> </text>
<text text-anchor="start" x="562.12" y="-79.95" font-family="Times New Roman,serif" font-style="italic" font-size="14.00">Algorithm</text>
<text text-anchor="start" x="616.88" y="-79.95" font-family="Times New Roman,serif" font-size="14.00"> </text>
</g>
<!-- Model&#45;&gt;Algorithm -->
<g id="edge2" class="edge">
<title>Model&#45;&gt;Algorithm</title>
<path fill="none" stroke="black" d="M438.97,-84C470.09,-84 505.84,-84 534.58,-84"/>
<polygon fill="black" stroke="black" points="534.51,-87.5 544.51,-84 534.51,-80.5 534.51,-87.5"/>
<text text-anchor="middle" x="480.38" y="-87.2" font-family="Times New Roman,serif" font-size="14.00">can use</text>
</g>
<!-- Graph -->
<g id="node6" class="node">
<title>Graph</title>
<polygon fill="lightblue" stroke="black" points="616.5,-40 562.5,-40 562.5,-4 616.5,-4 616.5,-40"/>
<polygon fill="none" stroke="black" points="620.5,-44 558.5,-44 558.5,0 620.5,0 620.5,-44"/>
<text text-anchor="middle" x="589.5" y="-16.95" font-family="Times New Roman,serif" font-size="14.00">Graph</text>
</g>
<!-- Model&#45;&gt;Graph -->
<g id="edge3" class="edge">
<title>Model&#45;&gt;Graph</title>
<path fill="none" stroke="black" d="M438.97,-63.78C474.85,-53.76 516.89,-42.01 547.24,-33.53"/>
<polygon fill="black" stroke="black" points="548.11,-36.92 556.8,-30.86 546.23,-30.18 548.11,-36.92"/>
<text text-anchor="middle" x="480.38" y="-61.75" font-family="Times New Roman,serif" font-size="14.00">structure</text>
</g>
<!-- MathematicalArchitecture -->
<g id="node3" class="node">
<title>MathematicalArchitecture</title>
<polygon fill="lightblue" stroke="black" points="173.75,-60 4,-60 4,-24 173.75,-24 173.75,-60"/>
<polygon fill="none" stroke="black" points="177.75,-64 0,-64 0,-20 177.75,-20 177.75,-64"/>
<text text-anchor="start" x="12" y="-37.95" font-family="Times New Roman,serif" font-size="14.00"> </text>
<text text-anchor="start" x="15.75" y="-37.95" font-family="Times New Roman,serif" font-style="italic" font-size="14.00">Mathematical Architecture</text>
<text text-anchor="start" x="162" y="-37.95" font-family="Times New Roman,serif" font-size="14.00"> </text>
</g>
<!-- MathematicalArchitecture&#45;&gt;Model -->
<g id="edge4" class="edge">
<title>MathematicalArchitecture&#45;&gt;Model</title>
<path fill="none" stroke="black" d="M177.94,-55.46C210.94,-60.51 248.31,-66.22 280.9,-71.2"/>
<polygon fill="black" stroke="black" points="280.3,-74.65 290.72,-72.7 281.36,-67.73 280.3,-74.65"/>
<text text-anchor="middle" x="235.12" y="-72.42" font-family="Times New Roman,serif" font-size="14.00">instance of</text>
</g>
<!-- TrainingMethod -->
<g id="node5" class="node">
<title>TrainingMethod</title>
<polygon fill="lightblue" stroke="black" points="420.12,-40 311.12,-40 311.12,-4 420.12,-4 420.12,-40"/>
<polygon fill="none" stroke="black" points="424.12,-44 307.12,-44 307.12,0 424.12,0 424.12,-44"/>
<text text-anchor="middle" x="365.62" y="-16.95" font-family="Times New Roman,serif" font-size="14.00">Training Method</text>
</g>
<!-- MathematicalArchitecture&#45;&gt;TrainingMethod -->
<g id="edge5" class="edge">
<title>MathematicalArchitecture&#45;&gt;TrainingMethod</title>
<path fill="none" stroke="black" d="M177.94,-35.59C216.04,-32.82 259.97,-29.62 295.65,-27.02"/>
<polygon fill="black" stroke="black" points="295.69,-30.53 305.41,-26.31 295.18,-23.55 295.69,-30.53"/>
<text text-anchor="middle" x="235.12" y="-36.99" font-family="Times New Roman,serif" font-size="14.00">train with data</text>
</g>
</g>
</svg>
