<?xml version="1.0" encoding="UTF-8" standalone="no"?>
<!DOCTYPE svg PUBLIC "-//W3C//DTD SVG 1.1//EN"
 "http://www.w3.org/Graphics/SVG/1.1/DTD/svg11.dtd">
<!-- Generated by graphviz version 12.2.1 (20241206.2353)
 -->
<!-- Title: Intelligent Application Pages: 1 -->
<svg width="412pt" height="342pt"
 viewBox="0.00 0.00 412.12 341.50" xmlns="http://www.w3.org/2000/svg" xmlns:xlink="http://www.w3.org/1999/xlink">
<g id="graph0" class="graph" transform="scale(1 1) rotate(0) translate(4 337.5)">
<title>Intelligent Application</title>
<polygon fill="white" stroke="none" points="-4,4 -4,-337.5 408.12,-337.5 408.12,4 -4,4"/>
<!-- DeepLearningArchitecture -->
<g id="node1" class="node">
<title>DeepLearningArchitecture</title>
<polygon fill="lightblue" stroke="black" points="231,-233 55.25,-233 55.25,-197 231,-197 231,-233"/>
<polygon fill="none" stroke="black" points="235,-237 51.25,-237 51.25,-193 235,-193 235,-237"/>
<text text-anchor="start" x="63.25" y="-210.95" font-family="Times New Roman,serif" font-size="14.00"> </text>
<text text-anchor="start" x="67" y="-210.95" font-family="Times New Roman,serif" font-style="italic" font-size="14.00">Deep Learning Architecture</text>
<text text-anchor="start" x="219.25" y="-210.95" font-family="Times New Roman,serif" font-size="14.00"> </text>
</g>
<!-- Model -->
<g id="node2" class="node">
<title>Model</title>
<polygon fill="lightblue" stroke="black" points="208.25,-136.5 70,-136.5 70,-100.5 208.25,-100.5 208.25,-136.5"/>
<polygon fill="none" stroke="black" points="212.25,-140.5 66,-140.5 66,-96.5 212.25,-96.5 212.25,-140.5"/>
<text text-anchor="start" x="78" y="-114.45" font-family="Times New Roman,serif" font-size="14.00"> </text>
<text text-anchor="start" x="81.75" y="-114.45" font-family="Times New Roman,serif" font-style="italic" font-size="14.00">Mathematical Model</text>
<text text-anchor="start" x="196.5" y="-114.45" font-family="Times New Roman,serif" font-size="14.00"> </text>
</g>
<!-- DeepLearningArchitecture&#45;&gt;Model -->
<g id="edge4" class="edge">
<title>DeepLearningArchitecture&#45;&gt;Model</title>
<path fill="none" stroke="black" d="M142.22,-192.56C141.71,-180.59 141.07,-165.45 140.5,-152.06"/>
<polygon fill="black" stroke="black" points="144.01,-152.21 140.09,-142.37 137.02,-152.51 144.01,-152.21"/>
<text text-anchor="middle" x="150.74" y="-161.7" font-family="Times New Roman,serif" font-size="14.00">is a</text>
</g>
<!-- MathematicalFunction -->
<g id="node3" class="node">
<title>MathematicalFunction</title>
<polygon fill="lightblue" stroke="black" points="376,-40 224.25,-40 224.25,-4 376,-4 376,-40"/>
<polygon fill="none" stroke="black" points="380,-44 220.25,-44 220.25,0 380,0 380,-44"/>
<text text-anchor="start" x="232.25" y="-17.95" font-family="Times New Roman,serif" font-size="14.00"> </text>
<text text-anchor="start" x="236" y="-17.95" font-family="Times New Roman,serif" font-style="italic" font-size="14.00">Mathematical Function</text>
<text text-anchor="start" x="364.25" y="-17.95" font-family="Times New Roman,serif" font-size="14.00"> </text>
</g>
<!-- Model&#45;&gt;MathematicalFunction -->
<g id="edge1" class="edge">
<title>Model&#45;&gt;MathematicalFunction</title>
<path fill="none" stroke="black" d="M212.48,-109.89C235.73,-104.32 260.06,-94.78 278.12,-78.5 285,-72.3 289.76,-63.68 293.03,-55.07"/>
<polygon fill="black" stroke="black" points="296.29,-56.4 295.99,-45.8 289.62,-54.27 296.29,-56.4"/>
<text text-anchor="middle" x="323.64" y="-65.2" font-family="Times New Roman,serif" font-size="14.00">collection of</text>
</g>
<!-- Algorithm -->
<g id="node5" class="node">
<title>Algorithm</title>
<polygon fill="lightblue" stroke="black" points="82.25,-40 4,-40 4,-4 82.25,-4 82.25,-40"/>
<polygon fill="none" stroke="black" points="86.25,-44 0,-44 0,0 86.25,0 86.25,-44"/>
<text text-anchor="start" x="12" y="-17.95" font-family="Times New Roman,serif" font-size="14.00"> </text>
<text text-anchor="start" x="15.75" y="-17.95" font-family="Times New Roman,serif" font-style="italic" font-size="14.00">Algorithm</text>
<text text-anchor="start" x="70.5" y="-17.95" font-family="Times New Roman,serif" font-size="14.00"> </text>
</g>
<!-- Model&#45;&gt;Algorithm -->
<g id="edge2" class="edge">
<title>Model&#45;&gt;Algorithm</title>
<path fill="none" stroke="black" d="M113.12,-96.18C106.61,-90.58 99.75,-84.44 93.62,-78.5 85.37,-70.49 76.8,-61.4 69.11,-52.93"/>
<polygon fill="black" stroke="black" points="71.76,-50.64 62.49,-45.52 66.55,-55.31 71.76,-50.64"/>
<text text-anchor="middle" x="113.88" y="-65.2" font-family="Times New Roman,serif" font-size="14.00">can use</text>
</g>
<!-- Graph -->
<g id="node7" class="node">
<title>Graph</title>
<polygon fill="lightblue" stroke="black" points="164.12,-40 110.12,-40 110.12,-4 164.12,-4 164.12,-40"/>
<polygon fill="none" stroke="black" points="168.12,-44 106.12,-44 106.12,0 168.12,0 168.12,-44"/>
<text text-anchor="middle" x="137.12" y="-16.95" font-family="Times New Roman,serif" font-size="14.00">Graph</text>
</g>
<!-- Model&#45;&gt;Graph -->
<g id="edge3" class="edge">
<title>Model&#45;&gt;Graph</title>
<path fill="none" stroke="black" d="M138.67,-96.06C138.42,-84.09 138.1,-68.95 137.81,-55.56"/>
<polygon fill="black" stroke="black" points="141.32,-55.8 137.61,-45.87 134.32,-55.94 141.32,-55.8"/>
<text text-anchor="middle" x="207.99" y="-65.2" font-family="Times New Roman,serif" font-size="14.00">Functions connected with</text>
</g>
<!-- DeepLearningAlgorithm -->
<g id="node4" class="node">
<title>DeepLearningAlgorithm</title>
<polygon fill="lightblue" stroke="black" points="224.62,-329.5 61.62,-329.5 61.62,-293.5 224.62,-293.5 224.62,-329.5"/>
<polygon fill="none" stroke="black" points="228.62,-333.5 57.62,-333.5 57.62,-289.5 228.62,-289.5 228.62,-333.5"/>
<text text-anchor="start" x="69.62" y="-307.45" font-family="Times New Roman,serif" font-size="14.00"> </text>
<text text-anchor="start" x="73.38" y="-307.45" font-family="Times New Roman,serif" font-style="italic" font-size="14.00">Deep Learning Algorithm</text>
<text text-anchor="start" x="212.88" y="-307.45" font-family="Times New Roman,serif" font-size="14.00"> </text>
</g>
<!-- DeepLearningAlgorithm&#45;&gt;DeepLearningArchitecture -->
<g id="edge5" class="edge">
<title>DeepLearningAlgorithm&#45;&gt;DeepLearningArchitecture</title>
<path fill="none" stroke="black" d="M143.12,-289.06C143.12,-277.09 143.12,-261.95 143.12,-248.56"/>
<polygon fill="black" stroke="black" points="146.63,-248.87 143.13,-238.87 139.63,-248.87 146.63,-248.87"/>
<text text-anchor="middle" x="183.62" y="-258.2" font-family="Times New Roman,serif" font-size="14.00">has instance of</text>
</g>
<!-- DeepLearningAlgorithm&#45;&gt;Algorithm -->
<g id="edge7" class="edge">
<title>DeepLearningAlgorithm&#45;&gt;Algorithm</title>
<path fill="none" stroke="black" d="M96.31,-289.02C75.72,-276.91 53.64,-259.61 42.12,-237 12.41,-178.62 24.1,-99.13 34.26,-55.31"/>
<polygon fill="black" stroke="black" points="37.64,-56.22 36.62,-45.67 30.84,-54.55 37.64,-56.22"/>
<text text-anchor="middle" x="37.33" y="-161.7" font-family="Times New Roman,serif" font-size="14.00">is an</text>
</g>
<!-- TrainingMethod -->
<g id="node6" class="node">
<title>TrainingMethod</title>
<polygon fill="lightblue" stroke="black" points="365.62,-233 256.62,-233 256.62,-197 365.62,-197 365.62,-233"/>
<polygon fill="none" stroke="black" points="369.62,-237 252.62,-237 252.62,-193 369.62,-193 369.62,-237"/>
<text text-anchor="middle" x="311.12" y="-209.95" font-family="Times New Roman,serif" font-size="14.00">Training Method</text>
</g>
<!-- DeepLearningAlgorithm&#45;&gt;TrainingMethod -->
<g id="edge6" class="edge">
<title>DeepLearningAlgorithm&#45;&gt;TrainingMethod</title>
<path fill="none" stroke="black" d="M193.23,-289.12C204.86,-283.71 217.07,-277.68 228.12,-271.5 243,-263.18 258.69,-253.07 272.38,-243.77"/>
<polygon fill="black" stroke="black" points="274,-246.9 280.25,-238.34 270.03,-241.13 274,-246.9"/>
<text text-anchor="middle" x="293.34" y="-258.2" font-family="Times New Roman,serif" font-size="14.00">train with data</text>
</g>
<!-- Dataset -->
<g id="node8" class="node">
<title>Dataset</title>
<polygon fill="lightblue" stroke="black" points="339.38,-136.5 282.88,-136.5 282.88,-100.5 339.38,-100.5 339.38,-136.5"/>
<polygon fill="none" stroke="black" points="343.38,-140.5 278.88,-140.5 278.88,-96.5 343.38,-96.5 343.38,-140.5"/>
<text text-anchor="middle" x="311.12" y="-113.45" font-family="Times New Roman,serif" font-size="14.00">Dataset</text>
</g>
<!-- TrainingMethod&#45;&gt;Dataset -->
<g id="edge8" class="edge">
<title>TrainingMethod&#45;&gt;Dataset</title>
<path fill="none" stroke="black" d="M311.12,-192.56C311.12,-180.59 311.12,-165.45 311.12,-152.06"/>
<polygon fill="black" stroke="black" points="314.63,-152.37 311.13,-142.37 307.63,-152.37 314.63,-152.37"/>
<text text-anchor="middle" x="357.62" y="-161.7" font-family="Times New Roman,serif" font-size="14.00">uses or generates</text>
</g>
</g>
</svg>
