<?xml version="1.0" encoding="UTF-8" standalone="no"?>
<!DOCTYPE svg PUBLIC "-//W3C//DTD SVG 1.1//EN"
 "http://www.w3.org/Graphics/SVG/1.1/DTD/svg11.dtd">
<!-- Generated by graphviz version 12.2.1 (20241206.2353)
 -->
<!-- Title: Intelligent Application Pages: 1 -->
<svg width="1854pt" height="504pt"
 viewBox="0.00 0.00 1853.75 504.00" xmlns="http://www.w3.org/2000/svg" xmlns:xlink="http://www.w3.org/1999/xlink">
<g id="graph0" class="graph" transform="scale(1 1) rotate(0) translate(4 500)">
<title>Intelligent Application</title>
<polygon fill="white" stroke="none" points="-4,4 -4,-500 1849.75,-500 1849.75,4 -4,4"/>
<!-- Model -->
<g id="node1" class="node">
<title>Model</title>
<polygon fill="lightblue" stroke="black" points="760.38,-176 622.12,-176 622.12,-140 760.38,-140 760.38,-176"/>
<polygon fill="none" stroke="black" points="764.38,-180 618.12,-180 618.12,-136 764.38,-136 764.38,-180"/>
<text text-anchor="start" x="630.12" y="-153.95" font-family="Times New Roman,serif" font-size="14.00"> </text>
<text text-anchor="start" x="633.88" y="-153.95" font-family="Times New Roman,serif" font-style="italic" font-size="14.00">Mathematical Model</text>
<text text-anchor="start" x="748.62" y="-153.95" font-family="Times New Roman,serif" font-size="14.00"> </text>
</g>
<!-- MathematicalTool -->
<g id="node2" class="node">
<title>MathematicalTool</title>
<polygon fill="lightblue" stroke="black" points="1107.5,-326 980.5,-326 980.5,-290 1107.5,-290 1107.5,-326"/>
<polygon fill="none" stroke="black" points="1111.5,-330 976.5,-330 976.5,-286 1111.5,-286 1111.5,-330"/>
<text text-anchor="start" x="988.5" y="-303.95" font-family="Times New Roman,serif" font-size="14.00"> </text>
<text text-anchor="start" x="992.25" y="-303.95" font-family="Times New Roman,serif" font-style="italic" font-size="14.00">Mathematical Tool</text>
<text text-anchor="start" x="1095.75" y="-303.95" font-family="Times New Roman,serif" font-size="14.00"> </text>
</g>
<!-- Model&#45;&gt;MathematicalTool -->
<g id="edge1" class="edge">
<title>Model&#45;&gt;MathematicalTool</title>
<path fill="none" stroke="black" d="M764.81,-171.64C773.54,-173.17 782.34,-174.66 790.75,-176 825.63,-181.57 921.53,-174.39 948.25,-197.5 970.11,-216.41 948.84,-236.92 966.25,-260 971.76,-267.31 978.73,-273.77 986.22,-279.4"/>
<polygon fill="black" stroke="black" points="983.73,-281.93 993.94,-284.76 987.72,-276.18 983.73,-281.93"/>
<text text-anchor="middle" x="869.5" y="-200.7" font-family="Times New Roman,serif" font-size="14.00">can use</text>
</g>
<!-- Algorithm -->
<g id="node4" class="node">
<title>Algorithm</title>
<polygon fill="lightblue" stroke="black" points="1083.12,-416 1004.88,-416 1004.88,-380 1083.12,-380 1083.12,-416"/>
<polygon fill="none" stroke="black" points="1087.12,-420 1000.88,-420 1000.88,-376 1087.12,-376 1087.12,-420"/>
<text text-anchor="start" x="1012.88" y="-393.95" font-family="Times New Roman,serif" font-size="14.00"> </text>
<text text-anchor="start" x="1016.62" y="-393.95" font-family="Times New Roman,serif" font-style="italic" font-size="14.00">Algorithm</text>
<text text-anchor="start" x="1071.38" y="-393.95" font-family="Times New Roman,serif" font-size="14.00"> </text>
</g>
<!-- Model&#45;&gt;Algorithm -->
<g id="edge2" class="edge">
<title>Model&#45;&gt;Algorithm</title>
<path fill="none" stroke="black" d="M736.63,-180.44C749.6,-188.65 762.91,-198.94 772.75,-211 786.37,-227.69 774.32,-242.07 790.75,-256 845.42,-302.33 894.17,-243.49 948.25,-290.5 965.6,-305.58 952.6,-320.5 966.25,-339 974.51,-350.2 985.46,-360.33 996.49,-368.91"/>
<polygon fill="black" stroke="black" points="994.38,-371.7 1004.5,-374.84 998.55,-366.08 994.38,-371.7"/>
<text text-anchor="middle" x="869.5" y="-293.7" font-family="Times New Roman,serif" font-size="14.00">can use</text>
</g>
<!-- Graph -->
<g id="node6" class="node">
<title>Graph</title>
<polygon fill="lightblue" stroke="black" points="1071,-186 1017,-186 1017,-150 1071,-150 1071,-186"/>
<polygon fill="none" stroke="black" points="1075,-190 1013,-190 1013,-146 1075,-146 1075,-190"/>
<text text-anchor="middle" x="1044" y="-162.95" font-family="Times New Roman,serif" font-size="14.00">Graph</text>
</g>
<!-- Model&#45;&gt;Graph -->
<g id="edge3" class="edge">
<title>Model&#45;&gt;Graph</title>
<path fill="none" stroke="black" d="M764.85,-156.81C816.12,-156.37 886.43,-156.55 948.25,-159.5 965.81,-160.34 985.15,-161.95 1001.75,-163.54"/>
<polygon fill="black" stroke="black" points="1000.94,-166.98 1011.24,-164.49 1001.64,-160.02 1000.94,-166.98"/>
<text text-anchor="middle" x="869.5" y="-162.7" font-family="Times New Roman,serif" font-size="14.00">structure</text>
</g>
<!-- MathematicalModel -->
<g id="node10" class="node">
<title>MathematicalModel</title>
<g id="a_node10"><a xlink:href="https://en.wikipedia.org/wiki/Mathematical_model" xlink:title=" &lt;i&gt;&lt;u&gt;Mathematical Model&lt;/u&gt;&lt;/i&gt; ">
<polygon fill="lightyellow" stroke="black" points="1278,-141 1139.75,-141 1139.75,-105 1278,-105 1278,-141"/>
<text text-anchor="start" x="1147.75" y="-118.95" font-family="Times New Roman,serif" font-size="14.00"> </text>
<text text-anchor="start" x="1151.5" y="-118.95" font-family="Times New Roman,serif" font-style="italic" text-decoration="underline" font-size="14.00">Mathematical Model</text>
<text text-anchor="start" x="1266.25" y="-118.95" font-family="Times New Roman,serif" font-size="14.00"> </text>
</a>
</g>
</g>
<!-- Model&#45;&gt;MathematicalModel -->
<g id="edge7" class="edge">
<title>Model&#45;&gt;MathematicalModel</title>
<path fill="none" stroke="black" d="M764.61,-140.64C773.38,-139 782.24,-137.56 790.75,-136.5 907.44,-122 1043.82,-120.46 1128.02,-121.27"/>
<polygon fill="black" stroke="black" points="1127.75,-124.77 1137.78,-121.38 1127.82,-117.77 1127.75,-124.77"/>
<text text-anchor="middle" x="869.5" y="-139.7" font-family="Times New Roman,serif" font-size="14.00">ALMOST EXACTLY</text>
</g>
<!-- MathematicalArchitecture -->
<g id="node3" class="node">
<title>MathematicalArchitecture</title>
<polygon fill="lightblue" stroke="black" points="491,-133 321.25,-133 321.25,-97 491,-97 491,-133"/>
<polygon fill="none" stroke="black" points="495,-137 317.25,-137 317.25,-93 495,-93 495,-137"/>
<text text-anchor="start" x="329.25" y="-110.95" font-family="Times New Roman,serif" font-size="14.00"> </text>
<text text-anchor="start" x="333" y="-110.95" font-family="Times New Roman,serif" font-style="italic" font-size="14.00">Mathematical Architecture</text>
<text text-anchor="start" x="479.25" y="-110.95" font-family="Times New Roman,serif" font-size="14.00"> </text>
</g>
<!-- MathematicalArchitecture&#45;&gt;Model -->
<g id="edge4" class="edge">
<title>MathematicalArchitecture&#45;&gt;Model</title>
<path fill="none" stroke="black" d="M495.16,-128.37C530.75,-133.78 571.64,-139.99 606.76,-145.32"/>
<polygon fill="black" stroke="black" points="606.04,-148.75 616.45,-146.79 607.09,-141.83 606.04,-148.75"/>
<text text-anchor="middle" x="552.38" y="-146.06" font-family="Times New Roman,serif" font-size="14.00">instance of</text>
</g>
<!-- TrainingMethod -->
<g id="node5" class="node">
<title>TrainingMethod</title>
<polygon fill="lightblue" stroke="black" points="745.75,-90 636.75,-90 636.75,-54 745.75,-54 745.75,-90"/>
<polygon fill="none" stroke="black" points="749.75,-94 632.75,-94 632.75,-50 749.75,-50 749.75,-94"/>
<text text-anchor="middle" x="691.25" y="-66.95" font-family="Times New Roman,serif" font-size="14.00">Training Method</text>
</g>
<!-- MathematicalArchitecture&#45;&gt;TrainingMethod -->
<g id="edge5" class="edge">
<title>MathematicalArchitecture&#45;&gt;TrainingMethod</title>
<path fill="none" stroke="black" d="M495.16,-101.63C535.93,-95.44 583.66,-88.19 621.7,-82.41"/>
<polygon fill="black" stroke="black" points="621.81,-85.93 631.17,-80.97 620.76,-79.01 621.81,-85.93"/>
<text text-anchor="middle" x="552.38" y="-101.82" font-family="Times New Roman,serif" font-size="14.00">train with data</text>
</g>
<!-- WikiAlgorithm -->
<g id="node9" class="node">
<title>WikiAlgorithm</title>
<g id="a_node9"><a xlink:href="https://en.wikipedia.org/wiki/Algorithm" xlink:title=" &lt;i&gt;&lt;u&gt;Algorithm&lt;/u&gt;&lt;/i&gt; ">
<polygon fill="lightyellow" stroke="black" points="1374.25,-363 1296,-363 1296,-327 1374.25,-327 1374.25,-363"/>
<text text-anchor="start" x="1304" y="-340.95" font-family="Times New Roman,serif" font-size="14.00"> </text>
<text text-anchor="start" x="1307.75" y="-340.95" font-family="Times New Roman,serif" font-style="italic" text-decoration="underline" font-size="14.00">Algorithm</text>
<text text-anchor="start" x="1362.5" y="-340.95" font-family="Times New Roman,serif" font-size="14.00"> </text>
</a>
</g>
</g>
<!-- Algorithm&#45;&gt;WikiAlgorithm -->
<g id="edge6" class="edge">
<title>Algorithm&#45;&gt;WikiAlgorithm</title>
<path fill="none" stroke="black" d="M1087.35,-390.24C1139.88,-380.61 1229.29,-364.22 1284.84,-354.03"/>
<polygon fill="black" stroke="black" points="1285.13,-357.54 1294.33,-352.29 1283.86,-350.66 1285.13,-357.54"/>
<text text-anchor="middle" x="1208.88" y="-382.54" font-family="Times New Roman,serif" font-size="14.00">ALMOST EXACTLY</text>
</g>
<!-- SupervisedLearning -->
<g id="node24" class="node">
<title>SupervisedLearning</title>
<g id="a_node24"><a xlink:href="https://en.wikipedia.org/wiki/Supervised_learning" xlink:title=" &lt;i&gt;&lt;u&gt;SupervisedLearning&lt;/u&gt;&lt;/i&gt; ">
<polygon fill="lightyellow" stroke="black" points="1110.12,-90 977.88,-90 977.88,-54 1110.12,-54 1110.12,-90"/>
<text text-anchor="start" x="985.88" y="-67.95" font-family="Times New Roman,serif" font-size="14.00"> </text>
<text text-anchor="start" x="989.62" y="-67.95" font-family="Times New Roman,serif" font-style="italic" text-decoration="underline" font-size="14.00">SupervisedLearning</text>
<text text-anchor="start" x="1098.38" y="-67.95" font-family="Times New Roman,serif" font-size="14.00"> </text>
</a>
</g>
</g>
<!-- TrainingMethod&#45;&gt;SupervisedLearning -->
<g id="edge22" class="edge">
<title>TrainingMethod&#45;&gt;SupervisedLearning</title>
<path fill="none" stroke="black" d="M750.17,-72C809.18,-72 901.03,-72 966.11,-72"/>
<polygon fill="black" stroke="black" points="966.02,-75.5 976.02,-72 966.02,-68.5 966.02,-75.5"/>
<text text-anchor="middle" x="869.5" y="-75.2" font-family="Times New Roman,serif" font-size="14.00">EXACT connection</text>
</g>
<!-- ReinforcementLearning -->
<g id="node25" class="node">
<title>ReinforcementLearning</title>
<g id="a_node25"><a xlink:href="https://en.wikipedia.org/wiki/Reinforcement_learning" xlink:title=" &lt;i&gt;&lt;u&gt;Reinforcement Learning&lt;/u&gt;&lt;/i&gt; ">
<polygon fill="lightyellow" stroke="black" points="1121.75,-36 966.25,-36 966.25,0 1121.75,0 1121.75,-36"/>
<text text-anchor="start" x="974.25" y="-13.95" font-family="Times New Roman,serif" font-size="14.00"> </text>
<text text-anchor="start" x="978" y="-13.95" font-family="Times New Roman,serif" font-style="italic" text-decoration="underline" font-size="14.00">Reinforcement Learning</text>
<text text-anchor="start" x="1110" y="-13.95" font-family="Times New Roman,serif" font-size="14.00"> </text>
</a>
</g>
</g>
<!-- TrainingMethod&#45;&gt;ReinforcementLearning -->
<g id="edge23" class="edge">
<title>TrainingMethod&#45;&gt;ReinforcementLearning</title>
<path fill="none" stroke="black" d="M750.19,-59.21C763.48,-56.48 777.58,-53.74 790.75,-51.5 844.88,-42.29 905.9,-34.12 954.37,-28.16"/>
<polygon fill="black" stroke="black" points="954.77,-31.64 964.28,-26.95 953.93,-24.69 954.77,-31.64"/>
<text text-anchor="middle" x="869.5" y="-54.7" font-family="Times New Roman,serif" font-size="14.00">EXACT connection</text>
</g>
<!-- WikiGraph -->
<g id="node11" class="node">
<title>WikiGraph</title>
<g id="a_node11"><a xlink:href="https://en.wikipedia.org/wiki/Graph_(discrete_mathematics)" xlink:title=" &lt;i&gt;&lt;u&gt;Graph&lt;/u&gt;&lt;/i&gt; ">
<polygon fill="lightyellow" stroke="black" points="1364.5,-202 1305.75,-202 1305.75,-166 1364.5,-166 1364.5,-202"/>
<text text-anchor="start" x="1313.75" y="-179.95" font-family="Times New Roman,serif" font-size="14.00"> </text>
<text text-anchor="start" x="1317.5" y="-179.95" font-family="Times New Roman,serif" font-style="italic" text-decoration="underline" font-size="14.00">Graph</text>
<text text-anchor="start" x="1352.75" y="-179.95" font-family="Times New Roman,serif" font-size="14.00"> </text>
</a>
</g>
</g>
<!-- Graph&#45;&gt;WikiGraph -->
<g id="edge8" class="edge">
<title>Graph&#45;&gt;WikiGraph</title>
<path fill="none" stroke="black" d="M1075.32,-165.83C1119.94,-163.17 1205.8,-160.09 1278,-169.5 1283.33,-170.2 1288.88,-171.23 1294.33,-172.44"/>
<polygon fill="black" stroke="black" points="1293.25,-175.78 1303.79,-174.74 1294.9,-168.97 1293.25,-175.78"/>
<text text-anchor="middle" x="1208.88" y="-172.7" font-family="Times New Roman,serif" font-size="14.00">ALMOST EXACTLY</text>
</g>
<!-- Wikipedia -->
<g id="node7" class="node">
<title>Wikipedia</title>
<g id="a_node7"><a xlink:href="https://en.wikipedia.org/" xlink:title=" &lt;i&gt;&lt;u&gt;Concept Defined in Wikipedia&lt;/u&gt;&lt;/i&gt; ">
<polygon fill="lightyellow" stroke="black" points="190.25,-214 2.5,-214 2.5,-178 190.25,-178 190.25,-214"/>
<text text-anchor="start" x="10.5" y="-191.95" font-family="Times New Roman,serif" font-size="14.00"> </text>
<text text-anchor="start" x="14.25" y="-191.95" font-family="Times New Roman,serif" font-style="italic" text-decoration="underline" font-size="14.00">Concept Defined in Wikipedia</text>
<text text-anchor="start" x="178.5" y="-191.95" font-family="Times New Roman,serif" font-size="14.00"> </text>
</a>
</g>
</g>
<!-- This Paper -->
<g id="node8" class="node">
<title>This Paper</title>
<polygon fill="lightblue" stroke="black" points="188.75,-272 4,-272 4,-236 188.75,-236 188.75,-272"/>
<polygon fill="none" stroke="black" points="192.75,-276 0,-276 0,-232 192.75,-232 192.75,-276"/>
<text text-anchor="start" x="12" y="-249.95" font-family="Times New Roman,serif" font-size="14.00"> </text>
<text text-anchor="start" x="15.75" y="-249.95" font-family="Times New Roman,serif" font-style="italic" font-size="14.00">Concept defined in this paper</text>
<text text-anchor="start" x="177" y="-249.95" font-family="Times New Roman,serif" font-size="14.00"> </text>
</g>
<!-- Mathematics -->
<g id="node12" class="node">
<title>Mathematics</title>
<g id="a_node12"><a xlink:href="https://en.wikipedia.org/wiki/Mathematics" xlink:title=" &lt;i&gt;&lt;u&gt;Mathematics&lt;/u&gt;&lt;/i&gt; ">
<polygon fill="lightyellow" stroke="black" points="1540.25,-258 1446.25,-258 1446.25,-222 1540.25,-222 1540.25,-258"/>
<text text-anchor="start" x="1454.25" y="-235.95" font-family="Times New Roman,serif" font-size="14.00"> </text>
<text text-anchor="start" x="1458" y="-235.95" font-family="Times New Roman,serif" font-style="italic" text-decoration="underline" font-size="14.00">Mathematics</text>
<text text-anchor="start" x="1528.5" y="-235.95" font-family="Times New Roman,serif" font-size="14.00"> </text>
</a>
</g>
</g>
<!-- WikiAlgorithm&#45;&gt;Mathematics -->
<g id="edge13" class="edge">
<title>WikiAlgorithm&#45;&gt;Mathematics</title>
<path fill="none" stroke="black" d="M1363.32,-326.71C1388.8,-309.58 1427.08,-283.83 1455.31,-264.84"/>
<polygon fill="black" stroke="black" points="1457.24,-267.76 1463.59,-259.28 1453.34,-261.95 1457.24,-267.76"/>
<text text-anchor="middle" x="1410.25" y="-308.19" font-family="Times New Roman,serif" font-size="14.00">part of</text>
</g>
<!-- MathematicalModel&#45;&gt;Mathematics -->
<g id="edge14" class="edge">
<title>MathematicalModel&#45;&gt;Mathematics</title>
<path fill="none" stroke="black" d="M1278.12,-121.35C1308.59,-122.83 1344.29,-127.72 1374.25,-140.5 1412.28,-156.73 1447.33,-189.54 1469.18,-213.05"/>
<polygon fill="black" stroke="black" points="1466.56,-215.37 1475.87,-220.42 1471.75,-210.67 1466.56,-215.37"/>
<text text-anchor="middle" x="1335.12" y="-143.7" font-family="Times New Roman,serif" font-size="14.00">part of</text>
</g>
<!-- EuclideanSpace -->
<g id="node14" class="node">
<title>EuclideanSpace</title>
<g id="a_node14"><a xlink:href="https://en.wikipedia.org/wiki/Euclidean_space" xlink:title=" &lt;i&gt;&lt;u&gt;Euclidean Space&lt;/u&gt;&lt;/i&gt; ">
<polygon fill="lightyellow" stroke="black" points="1831.12,-339 1716.88,-339 1716.88,-303 1831.12,-303 1831.12,-339"/>
<text text-anchor="start" x="1724.88" y="-316.95" font-family="Times New Roman,serif" font-size="14.00"> </text>
<text text-anchor="start" x="1728.62" y="-316.95" font-family="Times New Roman,serif" font-style="italic" text-decoration="underline" font-size="14.00">Euclidean Space</text>
<text text-anchor="start" x="1819.38" y="-316.95" font-family="Times New Roman,serif" font-size="14.00"> </text>
</a>
</g>
</g>
<!-- Mathematics&#45;&gt;EuclideanSpace -->
<g id="edge16" class="edge">
<title>Mathematics&#45;&gt;EuclideanSpace</title>
<path fill="none" stroke="black" d="M1519.63,-258.33C1530.97,-265.75 1544.79,-273.77 1558.25,-279 1605.72,-297.42 1662.34,-308.07 1705.53,-314.03"/>
<polygon fill="black" stroke="black" points="1704.89,-317.47 1715.26,-315.32 1705.81,-310.53 1704.89,-317.47"/>
<text text-anchor="middle" x="1621.25" y="-314" font-family="Times New Roman,serif" font-size="14.00">used by neural networs</text>
</g>
<!-- ActivationFunction -->
<g id="node15" class="node">
<title>ActivationFunction</title>
<g id="a_node15"><a xlink:href="https://en.wikipedia.org/wiki/Activation_function" xlink:title=" &lt;i&gt;&lt;u&gt;Activation Function&lt;/u&gt;&lt;/i&gt; ">
<polygon fill="lightyellow" stroke="black" points="1839.75,-285 1708.25,-285 1708.25,-249 1839.75,-249 1839.75,-285"/>
<text text-anchor="start" x="1716.25" y="-262.95" font-family="Times New Roman,serif" font-size="14.00"> </text>
<text text-anchor="start" x="1720" y="-262.95" font-family="Times New Roman,serif" font-style="italic" text-decoration="underline" font-size="14.00">Activation Function</text>
<text text-anchor="start" x="1828" y="-262.95" font-family="Times New Roman,serif" font-size="14.00"> </text>
</a>
</g>
</g>
<!-- Mathematics&#45;&gt;ActivationFunction -->
<g id="edge15" class="edge">
<title>Mathematics&#45;&gt;ActivationFunction</title>
<path fill="none" stroke="black" d="M1540.59,-244.49C1582.96,-248.59 1646.44,-254.74 1696.36,-259.58"/>
<polygon fill="black" stroke="black" points="1695.96,-263.05 1706.25,-260.53 1696.63,-256.09 1695.96,-263.05"/>
<text text-anchor="middle" x="1621.25" y="-261.47" font-family="Times New Roman,serif" font-size="14.00">used by neural networs</text>
</g>
<!-- AffineTransformation -->
<g id="node16" class="node">
<title>AffineTransformation</title>
<g id="a_node16"><a xlink:href="https://en.wikipedia.org/wiki/Affine_transformation" xlink:title=" &lt;i&gt;&lt;u&gt;Affine Transformation&lt;/u&gt;&lt;/i&gt; ">
<polygon fill="lightyellow" stroke="black" points="1845.75,-231 1702.25,-231 1702.25,-195 1845.75,-195 1845.75,-231"/>
<text text-anchor="start" x="1710.25" y="-208.95" font-family="Times New Roman,serif" font-size="14.00"> </text>
<text text-anchor="start" x="1714" y="-208.95" font-family="Times New Roman,serif" font-style="italic" text-decoration="underline" font-size="14.00">Affine Transformation</text>
<text text-anchor="start" x="1834" y="-208.95" font-family="Times New Roman,serif" font-size="14.00"> </text>
</a>
</g>
</g>
<!-- Mathematics&#45;&gt;AffineTransformation -->
<g id="edge17" class="edge">
<title>Mathematics&#45;&gt;AffineTransformation</title>
<path fill="none" stroke="black" d="M1540.6,-229.4C1546.52,-228.29 1552.51,-227.28 1558.25,-226.5 1601.8,-220.57 1650.69,-217.24 1690.8,-215.37"/>
<polygon fill="black" stroke="black" points="1690.79,-218.87 1700.63,-214.94 1690.48,-211.88 1690.79,-218.87"/>
<text text-anchor="middle" x="1621.25" y="-229.7" font-family="Times New Roman,serif" font-size="14.00">used by neural networs</text>
</g>
<!-- ChainRule -->
<g id="node17" class="node">
<title>ChainRule</title>
<g id="a_node17"><a xlink:href="https://en.wikipedia.org/wiki/Chain_rule" xlink:title=" &lt;i&gt;&lt;u&gt;Chain Rule&lt;/u&gt;&lt;/i&gt; ">
<polygon fill="lightyellow" stroke="black" points="1816.5,-177 1731.5,-177 1731.5,-141 1816.5,-141 1816.5,-177"/>
<text text-anchor="start" x="1739.5" y="-154.95" font-family="Times New Roman,serif" font-size="14.00"> </text>
<text text-anchor="start" x="1743.25" y="-154.95" font-family="Times New Roman,serif" font-style="italic" text-decoration="underline" font-size="14.00">Chain Rule</text>
<text text-anchor="start" x="1804.75" y="-154.95" font-family="Times New Roman,serif" font-size="14.00"> </text>
</a>
</g>
</g>
<!-- Mathematics&#45;&gt;ChainRule -->
<g id="edge18" class="edge">
<title>Mathematics&#45;&gt;ChainRule</title>
<path fill="none" stroke="black" d="M1515.65,-221.55C1527.47,-212.32 1542.84,-201.8 1558.25,-195.5 1610.63,-174.09 1675.14,-165.24 1719.71,-161.58"/>
<polygon fill="black" stroke="black" points="1719.94,-165.07 1729.65,-160.83 1719.42,-158.09 1719.94,-165.07"/>
<text text-anchor="middle" x="1621.25" y="-198.7" font-family="Times New Roman,serif" font-size="14.00">used by neural networs</text>
</g>
<!-- DAG -->
<g id="node13" class="node">
<title>DAG</title>
<g id="a_node13"><a xlink:href="https://en.wikipedia.org/wiki/Directed_acyclic_graph" xlink:title=" &lt;i&gt;&lt;u&gt;Directed Acyclic Graph&lt;/u&gt;&lt;/i&gt; ">
<polygon fill="lightyellow" stroke="black" points="1120.25,-251 967.75,-251 967.75,-215 1120.25,-215 1120.25,-251"/>
<text text-anchor="start" x="975.75" y="-228.95" font-family="Times New Roman,serif" font-size="14.00"> </text>
<text text-anchor="start" x="979.5" y="-228.95" font-family="Times New Roman,serif" font-style="italic" text-decoration="underline" font-size="14.00">Directed Acyclic Graph</text>
<text text-anchor="start" x="1108.5" y="-228.95" font-family="Times New Roman,serif" font-size="14.00"> </text>
</a>
</g>
</g>
<!-- DAG&#45;&gt;WikiGraph -->
<g id="edge12" class="edge">
<title>DAG&#45;&gt;WikiGraph</title>
<path fill="none" stroke="black" d="M1115.69,-214.54C1123.78,-212.71 1131.92,-210.98 1139.75,-209.5 1192.75,-199.48 1254.62,-192.1 1294.07,-187.92"/>
<polygon fill="black" stroke="black" points="1294.22,-191.42 1303.81,-186.91 1293.5,-184.46 1294.22,-191.42"/>
<text text-anchor="middle" x="1208.88" y="-212.7" font-family="Times New Roman,serif" font-size="14.00">is subclass of</text>
</g>
<!-- DAG&#45;&gt;Mathematics -->
<g id="edge11" class="edge">
<title>DAG&#45;&gt;Mathematics</title>
<path fill="none" stroke="black" d="M1120.62,-234.18C1209.29,-235.57 1354.32,-237.84 1434.46,-239.1"/>
<polygon fill="black" stroke="black" points="1434.24,-242.59 1444.29,-239.25 1434.35,-235.59 1434.24,-242.59"/>
<text text-anchor="middle" x="1335.12" y="-241.28" font-family="Times New Roman,serif" font-size="14.00">part of</text>
</g>
<!-- DecisionTree -->
<g id="node18" class="node">
<title>DecisionTree</title>
<g id="a_node18"><a xlink:href="https://en.wikipedia.org/wiki/Decision_tree" xlink:title=" &lt;i&gt;&lt;u&gt;Decision Tree&lt;/u&gt;&lt;/i&gt; ">
<polygon fill="lightyellow" stroke="black" points="740.88,-416 641.62,-416 641.62,-380 740.88,-380 740.88,-416"/>
<text text-anchor="start" x="649.62" y="-393.95" font-family="Times New Roman,serif" font-size="14.00"> </text>
<text text-anchor="start" x="653.38" y="-393.95" font-family="Times New Roman,serif" font-style="italic" text-decoration="underline" font-size="14.00">Decision Tree</text>
<text text-anchor="start" x="729.12" y="-393.95" font-family="Times New Roman,serif" font-size="14.00"> </text>
</a>
</g>
</g>
<!-- DecisionTree&#45;&gt;MathematicalTool -->
<g id="edge19" class="edge">
<title>DecisionTree&#45;&gt;MathematicalTool</title>
<path fill="none" stroke="black" d="M728.31,-379.5C746.57,-370.9 769.36,-361.31 790.75,-355.5 858.82,-337.01 879.2,-350.38 948.25,-336 953.78,-334.85 959.45,-333.53 965.13,-332.11"/>
<polygon fill="black" stroke="black" points="965.8,-335.55 974.59,-329.64 964.03,-328.78 965.8,-335.55"/>
<text text-anchor="middle" x="869.5" y="-358.7" font-family="Times New Roman,serif" font-size="14.00">is an</text>
</g>
<!-- DecisionTree&#45;&gt;Algorithm -->
<g id="edge25" class="edge">
<title>DecisionTree&#45;&gt;Algorithm</title>
<path fill="none" stroke="black" d="M741.36,-408.78C757.06,-411.74 774.56,-414.53 790.75,-416 860.46,-422.32 878.56,-422.56 948.25,-416 961.79,-414.72 976.29,-412.45 989.76,-409.93"/>
<polygon fill="black" stroke="black" points="990.16,-413.42 999.31,-408.07 988.82,-406.55 990.16,-413.42"/>
<text text-anchor="middle" x="869.5" y="-424.03" font-family="Times New Roman,serif" font-size="14.00">can be used to implement an</text>
</g>
<!-- ArtificialNeuralNetwork -->
<g id="node19" class="node">
<title>ArtificialNeuralNetwork</title>
<g id="a_node19"><a xlink:href="https://en.wikipedia.org/wiki/Neural_network_(machine_learning)" xlink:title=" &lt;i&gt;&lt;u&gt;Artificial Neural Network&lt;/u&gt;&lt;/i&gt; ">
<polygon fill="lightyellow" stroke="black" points="772.75,-349 609.75,-349 609.75,-313 772.75,-313 772.75,-349"/>
<text text-anchor="start" x="617.75" y="-326.95" font-family="Times New Roman,serif" font-size="14.00"> </text>
<text text-anchor="start" x="621.5" y="-326.95" font-family="Times New Roman,serif" font-style="italic" text-decoration="underline" font-size="14.00">Artificial Neural Network</text>
<text text-anchor="start" x="761" y="-326.95" font-family="Times New Roman,serif" font-size="14.00"> </text>
</a>
</g>
</g>
<!-- ArtificialNeuralNetwork&#45;&gt;MathematicalTool -->
<g id="edge20" class="edge">
<title>ArtificialNeuralNetwork&#45;&gt;MathematicalTool</title>
<path fill="none" stroke="black" d="M773.1,-321.1C779.07,-320.51 785,-319.97 790.75,-319.5 849.02,-314.78 915.04,-311.85 964.92,-310.14"/>
<polygon fill="black" stroke="black" points="964.88,-313.64 974.75,-309.81 964.64,-306.64 964.88,-313.64"/>
<text text-anchor="middle" x="869.5" y="-322.7" font-family="Times New Roman,serif" font-size="14.00">is an</text>
</g>
<!-- ArtificialNeuralNetwork&#45;&gt;Algorithm -->
<g id="edge26" class="edge">
<title>ArtificialNeuralNetwork&#45;&gt;Algorithm</title>
<path fill="none" stroke="black" d="M724.93,-349.36C743.62,-358.97 767.84,-369.96 790.75,-376 826.92,-385.53 926.45,-392.11 989.13,-395.45"/>
<polygon fill="black" stroke="black" points="988.71,-398.94 998.87,-395.96 989.07,-391.95 988.71,-398.94"/>
<text text-anchor="middle" x="869.5" y="-396.02" font-family="Times New Roman,serif" font-size="14.00">can be used to implement an</text>
</g>
<!-- FourierTransform -->
<g id="node20" class="node">
<title>FourierTransform</title>
<g id="a_node20"><a xlink:href="https://en.wikipedia.org/wiki/Fourier_transform" xlink:title=" &lt;i&gt;&lt;u&gt;Fourier Transform&lt;/u&gt;&lt;/i&gt; ">
<polygon fill="lightyellow" stroke="black" points="754,-256 628.5,-256 628.5,-220 754,-220 754,-256"/>
<text text-anchor="start" x="636.5" y="-233.95" font-family="Times New Roman,serif" font-size="14.00"> </text>
<text text-anchor="start" x="640.25" y="-233.95" font-family="Times New Roman,serif" font-style="italic" text-decoration="underline" font-size="14.00">Fourier Transform</text>
<text text-anchor="start" x="742.25" y="-233.95" font-family="Times New Roman,serif" font-size="14.00"> </text>
</a>
</g>
</g>
<!-- FourierTransform&#45;&gt;MathematicalTool -->
<g id="edge21" class="edge">
<title>FourierTransform&#45;&gt;MathematicalTool</title>
<path fill="none" stroke="black" d="M754.24,-224.66C808.06,-216.19 886.79,-211.46 948.25,-239.5 959.28,-244.53 957.01,-252.15 966.25,-260 974.43,-266.95 983.7,-273.61 992.91,-279.63"/>
<polygon fill="black" stroke="black" points="990.83,-282.46 1001.15,-284.86 994.58,-276.55 990.83,-282.46"/>
<text text-anchor="middle" x="869.5" y="-242.7" font-family="Times New Roman,serif" font-size="14.00">is an</text>
</g>
<!-- Backpropagation -->
<g id="node21" class="node">
<title>Backpropagation</title>
<g id="a_node21"><a xlink:href="https://en.wikipedia.org/wiki/Backpropagation" xlink:title=" &lt;i&gt;&lt;u&gt;Backpropagation&lt;/u&gt;&lt;/i&gt; ">
<polygon fill="lightyellow" stroke="black" points="749.88,-496 632.62,-496 632.62,-460 749.88,-460 749.88,-496"/>
<text text-anchor="start" x="640.62" y="-473.95" font-family="Times New Roman,serif" font-size="14.00"> </text>
<text text-anchor="start" x="644.38" y="-473.95" font-family="Times New Roman,serif" font-style="italic" text-decoration="underline" font-size="14.00">Backpropagation</text>
<text text-anchor="start" x="738.12" y="-473.95" font-family="Times New Roman,serif" font-size="14.00"> </text>
</a>
</g>
</g>
<!-- Backpropagation&#45;&gt;Algorithm -->
<g id="edge24" class="edge">
<title>Backpropagation&#45;&gt;Algorithm</title>
<path fill="none" stroke="black" d="M750.18,-474.31C802.72,-469.87 881.88,-460.43 948.25,-441 962.2,-436.92 976.75,-431.15 990.13,-425.16"/>
<polygon fill="black" stroke="black" points="991.6,-428.34 999.21,-420.97 988.67,-421.98 991.6,-428.34"/>
<text text-anchor="middle" x="869.5" y="-473.48" font-family="Times New Roman,serif" font-size="14.00">is an</text>
</g>
<!-- Transformer -->
<g id="node22" class="node">
<title>Transformer</title>
<g id="a_node22"><a xlink:href="https://en.wikipedia.org/wiki/Transformer_(deep_learning_architecture)" xlink:title=" &lt;i&gt;&lt;u&gt;Transformer&lt;/u&gt;&lt;/i&gt; ">
<polygon fill="lightyellow" stroke="black" points="141.88,-160 50.88,-160 50.88,-124 141.88,-124 141.88,-160"/>
<text text-anchor="start" x="58.88" y="-137.95" font-family="Times New Roman,serif" font-size="14.00"> </text>
<text text-anchor="start" x="62.62" y="-137.95" font-family="Times New Roman,serif" font-style="italic" text-decoration="underline" font-size="14.00">Transformer</text>
<text text-anchor="start" x="130.12" y="-137.95" font-family="Times New Roman,serif" font-size="14.00"> </text>
</a>
</g>
</g>
<!-- Transformer&#45;&gt;MathematicalArchitecture -->
<g id="edge9" class="edge">
<title>Transformer&#45;&gt;MathematicalArchitecture</title>
<path fill="none" stroke="black" d="M142.12,-138.07C184.78,-134.33 250.49,-128.57 305.55,-123.74"/>
<polygon fill="black" stroke="black" points="305.6,-127.24 315.26,-122.88 304.99,-120.27 305.6,-127.24"/>
<text text-anchor="middle" x="255" y="-134.91" font-family="Times New Roman,serif" font-size="14.00">is an instance of</text>
</g>
<!-- AlexNet -->
<g id="node23" class="node">
<title>AlexNet</title>
<g id="a_node23"><a xlink:href="https://en.wikipedia.org/wiki/AlexNet" xlink:title=" &lt;i&gt;&lt;u&gt;AlexNet&lt;/u&gt;&lt;/i&gt; ">
<polygon fill="lightyellow" stroke="black" points="129.5,-106 63.25,-106 63.25,-70 129.5,-70 129.5,-106"/>
<text text-anchor="start" x="71.25" y="-83.95" font-family="Times New Roman,serif" font-size="14.00"> </text>
<text text-anchor="start" x="75" y="-83.95" font-family="Times New Roman,serif" font-style="italic" text-decoration="underline" font-size="14.00">AlexNet</text>
<text text-anchor="start" x="117.75" y="-83.95" font-family="Times New Roman,serif" font-size="14.00"> </text>
</a>
</g>
</g>
<!-- AlexNet&#45;&gt;MathematicalArchitecture -->
<g id="edge10" class="edge">
<title>AlexNet&#45;&gt;MathematicalArchitecture</title>
<path fill="none" stroke="black" d="M129.91,-90.48C169.82,-93.57 239.54,-99.1 299.25,-104.5 301.42,-104.7 303.62,-104.9 305.84,-105.1"/>
<polygon fill="black" stroke="black" points="305.24,-108.56 315.53,-106.01 305.9,-101.59 305.24,-108.56"/>
<text text-anchor="middle" x="255" y="-107.7" font-family="Times New Roman,serif" font-size="14.00">is an instance of</text>
</g>
</g>
</svg>
