<?xml version="1.0" encoding="UTF-8" standalone="no"?>
<!DOCTYPE svg PUBLIC "-//W3C//DTD SVG 1.1//EN"
 "http://www.w3.org/Graphics/SVG/1.1/DTD/svg11.dtd">
<!-- Generated by graphviz version 12.2.1 (20241206.2353)
 -->
<!-- Title: Intelligent Application Pages: 1 -->
<svg width="1967pt" height="532pt"
 viewBox="0.00 0.00 1966.75 532.00" xmlns="http://www.w3.org/2000/svg" xmlns:xlink="http://www.w3.org/1999/xlink">
<g id="graph0" class="graph" transform="scale(1 1) rotate(0) translate(4 528)">
<title>Intelligent Application</title>
<polygon fill="white" stroke="none" points="-4,4 -4,-528 1962.75,-528 1962.75,4 -4,4"/>
<!-- DeepLearningArchitecture -->
<g id="node1" class="node">
<title>DeepLearningArchitecture</title>
<polygon fill="lightblue" stroke="black" points="497,-87 321.25,-87 321.25,-51 497,-51 497,-87"/>
<polygon fill="none" stroke="black" points="501,-91 317.25,-91 317.25,-47 501,-47 501,-91"/>
<text text-anchor="start" x="329.25" y="-64.95" font-family="Times New Roman,serif" font-size="14.00"> </text>
<text text-anchor="start" x="333" y="-64.95" font-family="Times New Roman,serif" font-style="italic" font-size="14.00">Deep Learning Architecture</text>
<text text-anchor="start" x="485.25" y="-64.95" font-family="Times New Roman,serif" font-size="14.00"> </text>
</g>
<!-- Model -->
<g id="node2" class="node">
<title>Model</title>
<polygon fill="lightblue" stroke="black" points="795.62,-57 657.38,-57 657.38,-21 795.62,-21 795.62,-57"/>
<polygon fill="none" stroke="black" points="799.62,-61 653.38,-61 653.38,-17 799.62,-17 799.62,-61"/>
<text text-anchor="start" x="665.38" y="-34.95" font-family="Times New Roman,serif" font-size="14.00"> </text>
<text text-anchor="start" x="669.12" y="-34.95" font-family="Times New Roman,serif" font-style="italic" font-size="14.00">Mathematical Model</text>
<text text-anchor="start" x="783.88" y="-34.95" font-family="Times New Roman,serif" font-size="14.00"> </text>
</g>
<!-- DeepLearningArchitecture&#45;&gt;Model -->
<g id="edge4" class="edge">
<title>DeepLearningArchitecture&#45;&gt;Model</title>
<path fill="none" stroke="black" d="M501.34,-60.32C545.6,-56.11 598.4,-51.09 641.64,-46.98"/>
<polygon fill="black" stroke="black" points="641.86,-50.47 651.48,-46.04 641.2,-43.5 641.86,-50.47"/>
<text text-anchor="middle" x="573" y="-61.64" font-family="Times New Roman,serif" font-size="14.00">is a</text>
</g>
<!-- MathematicalFunction -->
<g id="node3" class="node">
<title>MathematicalFunction</title>
<polygon fill="lightblue" stroke="black" points="1157.25,-444 1005.5,-444 1005.5,-408 1157.25,-408 1157.25,-444"/>
<polygon fill="none" stroke="black" points="1161.25,-448 1001.5,-448 1001.5,-404 1161.25,-404 1161.25,-448"/>
<text text-anchor="start" x="1013.5" y="-421.95" font-family="Times New Roman,serif" font-size="14.00"> </text>
<text text-anchor="start" x="1017.25" y="-421.95" font-family="Times New Roman,serif" font-style="italic" font-size="14.00">Mathematical Function</text>
<text text-anchor="start" x="1145.5" y="-421.95" font-family="Times New Roman,serif" font-size="14.00"> </text>
</g>
<!-- Model&#45;&gt;MathematicalFunction -->
<g id="edge1" class="edge">
<title>Model&#45;&gt;MathematicalFunction</title>
<path fill="none" stroke="black" d="M799.64,-61.31C802.73,-63.89 805.56,-66.78 808,-70 833.5,-103.61 798.98,-226.6 826,-259 872.59,-314.86 926.49,-258.32 983.5,-303.5 996.44,-313.76 992,-322.49 1001.5,-336 1016.25,-356.99 1035.12,-378.67 1050.71,-395.49"/>
<polygon fill="black" stroke="black" points="1048.09,-397.81 1057.48,-402.71 1053.19,-393.02 1048.09,-397.81"/>
<text text-anchor="middle" x="904.75" y="-306.7" font-family="Times New Roman,serif" font-size="14.00">collection of</text>
</g>
<!-- Algorithm -->
<g id="node5" class="node">
<title>Algorithm</title>
<polygon fill="lightblue" stroke="black" points="1120.5,-323 1042.25,-323 1042.25,-287 1120.5,-287 1120.5,-323"/>
<polygon fill="none" stroke="black" points="1124.5,-327 1038.25,-327 1038.25,-283 1124.5,-283 1124.5,-327"/>
<text text-anchor="start" x="1050.25" y="-300.95" font-family="Times New Roman,serif" font-size="14.00"> </text>
<text text-anchor="start" x="1054" y="-300.95" font-family="Times New Roman,serif" font-style="italic" font-size="14.00">Algorithm</text>
<text text-anchor="start" x="1108.75" y="-300.95" font-family="Times New Roman,serif" font-size="14.00"> </text>
</g>
<!-- Model&#45;&gt;Algorithm -->
<g id="edge2" class="edge">
<title>Model&#45;&gt;Algorithm</title>
<path fill="none" stroke="black" d="M798.99,-61.26C802.3,-63.86 805.34,-66.76 808,-70 837.76,-106.26 793.98,-139.72 826,-174 875.18,-226.67 920.3,-177.89 983.5,-212.5 1011.75,-227.97 1037.79,-253.78 1055.74,-274.21"/>
<polygon fill="black" stroke="black" points="1053.01,-276.4 1062.17,-281.72 1058.33,-271.85 1053.01,-276.4"/>
<text text-anchor="middle" x="904.75" y="-215.7" font-family="Times New Roman,serif" font-size="14.00">can use</text>
</g>
<!-- Graph -->
<g id="node7" class="node">
<title>Graph</title>
<polygon fill="lightblue" stroke="black" points="1108.38,-57 1054.38,-57 1054.38,-21 1108.38,-21 1108.38,-57"/>
<polygon fill="none" stroke="black" points="1112.38,-61 1050.38,-61 1050.38,-17 1112.38,-17 1112.38,-61"/>
<text text-anchor="middle" x="1081.38" y="-33.95" font-family="Times New Roman,serif" font-size="14.00">Graph</text>
</g>
<!-- Model&#45;&gt;Graph -->
<g id="edge3" class="edge">
<title>Model&#45;&gt;Graph</title>
<path fill="none" stroke="black" d="M799.76,-39C871.82,-39 980,-39 1038.77,-39"/>
<polygon fill="black" stroke="black" points="1038.67,-42.5 1048.67,-39 1038.67,-35.5 1038.67,-42.5"/>
<text text-anchor="middle" x="904.75" y="-42.2" font-family="Times New Roman,serif" font-size="14.00">Functions connected with</text>
</g>
<!-- MathematicalModel -->
<g id="node12" class="node">
<title>MathematicalModel</title>
<g id="a_node12"><a xlink:href="https://en.wikipedia.org/wiki/Mathematical_model" xlink:title=" &lt;i&gt;&lt;u&gt;Mathematical Model&lt;/u&gt;&lt;/i&gt; ">
<polygon fill="lightyellow" stroke="black" points="1317.5,-181 1179.25,-181 1179.25,-145 1317.5,-145 1317.5,-181"/>
<text text-anchor="start" x="1187.25" y="-158.95" font-family="Times New Roman,serif" font-size="14.00"> </text>
<text text-anchor="start" x="1191" y="-158.95" font-family="Times New Roman,serif" font-style="italic" text-decoration="underline" font-size="14.00">Mathematical Model</text>
<text text-anchor="start" x="1305.75" y="-158.95" font-family="Times New Roman,serif" font-size="14.00"> </text>
</a>
</g>
</g>
<!-- Model&#45;&gt;MathematicalModel -->
<g id="edge10" class="edge">
<title>Model&#45;&gt;MathematicalModel</title>
<path fill="none" stroke="black" d="M789.63,-61.43C857.13,-85.52 960.79,-121.61 1001.5,-131 1056.25,-143.63 1119.1,-151.7 1167.54,-156.58"/>
<polygon fill="black" stroke="black" points="1167.11,-160.05 1177.4,-157.54 1167.79,-153.08 1167.11,-160.05"/>
<text text-anchor="middle" x="904.75" y="-129.19" font-family="Times New Roman,serif" font-size="14.00">ALMOST EXACTLY</text>
</g>
<!-- WikiFunction -->
<g id="node14" class="node">
<title>WikiFunction</title>
<g id="a_node14"><a xlink:href="https://en.wikipedia.org/wiki/Function_(mathematics)" xlink:title=" &lt;i&gt;&lt;u&gt;Mathematical Function&lt;/u&gt;&lt;/i&gt; ">
<polygon fill="lightyellow" stroke="black" points="1487.25,-444 1335.5,-444 1335.5,-408 1487.25,-408 1487.25,-444"/>
<text text-anchor="start" x="1343.5" y="-421.95" font-family="Times New Roman,serif" font-size="14.00"> </text>
<text text-anchor="start" x="1347.25" y="-421.95" font-family="Times New Roman,serif" font-style="italic" text-decoration="underline" font-size="14.00">Mathematical Function</text>
<text text-anchor="start" x="1475.5" y="-421.95" font-family="Times New Roman,serif" font-size="14.00"> </text>
</a>
</g>
</g>
<!-- MathematicalFunction&#45;&gt;WikiFunction -->
<g id="edge12" class="edge">
<title>MathematicalFunction&#45;&gt;WikiFunction</title>
<path fill="none" stroke="black" d="M1161.36,-426C1210.44,-426 1273.56,-426 1323.97,-426"/>
<polygon fill="black" stroke="black" points="1323.67,-429.5 1333.67,-426 1323.67,-422.5 1323.67,-429.5"/>
<text text-anchor="middle" x="1248.38" y="-429.2" font-family="Times New Roman,serif" font-size="14.00">ALMOST EXCATLY</text>
</g>
<!-- DeepLearningAlgorithm -->
<g id="node4" class="node">
<title>DeepLearningAlgorithm</title>
<polygon fill="lightblue" stroke="black" points="177.88,-177 14.88,-177 14.88,-141 177.88,-141 177.88,-177"/>
<polygon fill="none" stroke="black" points="181.88,-181 10.88,-181 10.88,-137 181.88,-137 181.88,-181"/>
<text text-anchor="start" x="22.88" y="-154.95" font-family="Times New Roman,serif" font-size="14.00"> </text>
<text text-anchor="start" x="26.62" y="-154.95" font-family="Times New Roman,serif" font-style="italic" font-size="14.00">Deep Learning Algorithm</text>
<text text-anchor="start" x="166.12" y="-154.95" font-family="Times New Roman,serif" font-size="14.00"> </text>
</g>
<!-- DeepLearningAlgorithm&#45;&gt;DeepLearningArchitecture -->
<g id="edge5" class="edge">
<title>DeepLearningAlgorithm&#45;&gt;DeepLearningArchitecture</title>
<path fill="none" stroke="black" d="M174.99,-136.52C219.01,-123.77 274.25,-107.77 319.91,-94.55"/>
<polygon fill="black" stroke="black" points="320.61,-97.99 329.24,-91.85 318.66,-91.27 320.61,-97.99"/>
<text text-anchor="middle" x="255" y="-127.91" font-family="Times New Roman,serif" font-size="14.00">has instance of</text>
</g>
<!-- DeepLearningAlgorithm&#45;&gt;Algorithm -->
<g id="edge7" class="edge">
<title>DeepLearningAlgorithm&#45;&gt;Algorithm</title>
<path fill="none" stroke="black" d="M167.33,-181.37C270.56,-213.21 470.34,-270.34 645,-294 724.75,-304.8 745.55,-296.94 826,-299 895.24,-300.77 975.08,-302.62 1026.57,-303.79"/>
<polygon fill="black" stroke="black" points="1026.48,-307.29 1036.55,-304.02 1026.63,-300.29 1026.48,-307.29"/>
<text text-anchor="middle" x="573" y="-293.91" font-family="Times New Roman,serif" font-size="14.00">is an</text>
</g>
<!-- TrainingMethod -->
<g id="node6" class="node">
<title>TrainingMethod</title>
<polygon fill="lightblue" stroke="black" points="463.62,-177 354.62,-177 354.62,-141 463.62,-141 463.62,-177"/>
<polygon fill="none" stroke="black" points="467.62,-181 350.62,-181 350.62,-137 467.62,-137 467.62,-181"/>
<text text-anchor="middle" x="409.12" y="-153.95" font-family="Times New Roman,serif" font-size="14.00">Training Method</text>
</g>
<!-- DeepLearningAlgorithm&#45;&gt;TrainingMethod -->
<g id="edge6" class="edge">
<title>DeepLearningAlgorithm&#45;&gt;TrainingMethod</title>
<path fill="none" stroke="black" d="M182.29,-159C231.49,-159 292.65,-159 338.91,-159"/>
<polygon fill="black" stroke="black" points="338.82,-162.5 348.82,-159 338.82,-155.5 338.82,-162.5"/>
<text text-anchor="middle" x="255" y="-162.2" font-family="Times New Roman,serif" font-size="14.00">train with data</text>
</g>
<!-- WikiAlgorithm -->
<g id="node11" class="node">
<title>WikiAlgorithm</title>
<g id="a_node11"><a xlink:href="https://en.wikipedia.org/wiki/Algorithm" xlink:title=" &lt;i&gt;&lt;u&gt;Algorithm&lt;/u&gt;&lt;/i&gt; ">
<polygon fill="lightyellow" stroke="black" points="1450.5,-258 1372.25,-258 1372.25,-222 1450.5,-222 1450.5,-258"/>
<text text-anchor="start" x="1380.25" y="-235.95" font-family="Times New Roman,serif" font-size="14.00"> </text>
<text text-anchor="start" x="1384" y="-235.95" font-family="Times New Roman,serif" font-style="italic" text-decoration="underline" font-size="14.00">Algorithm</text>
<text text-anchor="start" x="1438.75" y="-235.95" font-family="Times New Roman,serif" font-size="14.00"> </text>
</a>
</g>
</g>
<!-- Algorithm&#45;&gt;WikiAlgorithm -->
<g id="edge9" class="edge">
<title>Algorithm&#45;&gt;WikiAlgorithm</title>
<path fill="none" stroke="black" d="M1124.92,-296.57C1185.58,-284.55 1296.7,-262.53 1360.94,-249.8"/>
<polygon fill="black" stroke="black" points="1361.37,-253.28 1370.5,-247.9 1360.01,-246.41 1361.37,-253.28"/>
<text text-anchor="middle" x="1248.38" y="-288.99" font-family="Times New Roman,serif" font-size="14.00">ALMOST EXACTLY</text>
</g>
<!-- Dataset -->
<g id="node8" class="node">
<title>Dataset</title>
<polygon fill="lightblue" stroke="black" points="754.75,-119 698.25,-119 698.25,-83 754.75,-83 754.75,-119"/>
<polygon fill="none" stroke="black" points="758.75,-123 694.25,-123 694.25,-79 758.75,-79 758.75,-123"/>
<text text-anchor="middle" x="726.5" y="-95.95" font-family="Times New Roman,serif" font-size="14.00">Dataset</text>
</g>
<!-- TrainingMethod&#45;&gt;Dataset -->
<g id="edge8" class="edge">
<title>TrainingMethod&#45;&gt;Dataset</title>
<path fill="none" stroke="black" d="M468.03,-148.03C484.5,-144.92 502.45,-141.56 519,-138.5 575.66,-128.02 641.11,-116.18 682.88,-108.66"/>
<polygon fill="black" stroke="black" points="683.29,-112.14 692.51,-106.92 682.05,-105.25 683.29,-112.14"/>
<text text-anchor="middle" x="573" y="-141.7" font-family="Times New Roman,serif" font-size="14.00">uses or generates</text>
</g>
<!-- SupervisedLearning -->
<g id="node27" class="node">
<title>SupervisedLearning</title>
<g id="a_node27"><a xlink:href="https://en.wikipedia.org/wiki/Supervised_learning" xlink:title=" &lt;i&gt;&lt;u&gt;SupervisedLearning&lt;/u&gt;&lt;/i&gt; ">
<polygon fill="lightyellow" stroke="black" points="792.62,-231 660.38,-231 660.38,-195 792.62,-195 792.62,-231"/>
<text text-anchor="start" x="668.38" y="-208.95" font-family="Times New Roman,serif" font-size="14.00"> </text>
<text text-anchor="start" x="672.12" y="-208.95" font-family="Times New Roman,serif" font-style="italic" text-decoration="underline" font-size="14.00">SupervisedLearning</text>
<text text-anchor="start" x="780.88" y="-208.95" font-family="Times New Roman,serif" font-size="14.00"> </text>
</a>
</g>
</g>
<!-- TrainingMethod&#45;&gt;SupervisedLearning -->
<g id="edge26" class="edge">
<title>TrainingMethod&#45;&gt;SupervisedLearning</title>
<path fill="none" stroke="black" d="M467.98,-170.52C484.44,-173.7 502.41,-177.08 519,-180 561.96,-187.57 610.07,-195.31 649.05,-201.38"/>
<polygon fill="black" stroke="black" points="648.39,-204.82 658.81,-202.9 649.47,-197.9 648.39,-204.82"/>
<text text-anchor="middle" x="573" y="-200.95" font-family="Times New Roman,serif" font-size="14.00">EXACT connection</text>
</g>
<!-- ReinforcementLearning -->
<g id="node28" class="node">
<title>ReinforcementLearning</title>
<g id="a_node28"><a xlink:href="https://en.wikipedia.org/wiki/Reinforcement_learning" xlink:title=" &lt;i&gt;&lt;u&gt;Reinforcement Learning&lt;/u&gt;&lt;/i&gt; ">
<polygon fill="lightyellow" stroke="black" points="804.25,-177 648.75,-177 648.75,-141 804.25,-141 804.25,-177"/>
<text text-anchor="start" x="656.75" y="-154.95" font-family="Times New Roman,serif" font-size="14.00"> </text>
<text text-anchor="start" x="660.5" y="-154.95" font-family="Times New Roman,serif" font-style="italic" text-decoration="underline" font-size="14.00">Reinforcement Learning</text>
<text text-anchor="start" x="792.5" y="-154.95" font-family="Times New Roman,serif" font-size="14.00"> </text>
</a>
</g>
</g>
<!-- TrainingMethod&#45;&gt;ReinforcementLearning -->
<g id="edge27" class="edge">
<title>TrainingMethod&#45;&gt;ReinforcementLearning</title>
<path fill="none" stroke="black" d="M467.97,-159C515.28,-159 582.97,-159 637.08,-159"/>
<polygon fill="black" stroke="black" points="636.89,-162.5 646.89,-159 636.89,-155.5 636.89,-162.5"/>
<text text-anchor="middle" x="573" y="-162.2" font-family="Times New Roman,serif" font-size="14.00">EXACT connection</text>
</g>
<!-- WikiGraph -->
<g id="node13" class="node">
<title>WikiGraph</title>
<g id="a_node13"><a xlink:href="https://en.wikipedia.org/wiki/Graph_(discrete_mathematics)" xlink:title=" &lt;i&gt;&lt;u&gt;Graph&lt;/u&gt;&lt;/i&gt; ">
<polygon fill="lightyellow" stroke="black" points="1440.75,-66 1382,-66 1382,-30 1440.75,-30 1440.75,-66"/>
<text text-anchor="start" x="1390" y="-43.95" font-family="Times New Roman,serif" font-size="14.00"> </text>
<text text-anchor="start" x="1393.75" y="-43.95" font-family="Times New Roman,serif" font-style="italic" text-decoration="underline" font-size="14.00">Graph</text>
<text text-anchor="start" x="1429" y="-43.95" font-family="Times New Roman,serif" font-size="14.00"> </text>
</a>
</g>
</g>
<!-- Graph&#45;&gt;WikiGraph -->
<g id="edge11" class="edge">
<title>Graph&#45;&gt;WikiGraph</title>
<path fill="none" stroke="black" d="M1112.83,-38.47C1157.67,-37.86 1244.09,-37.31 1317.5,-40.5 1334.8,-41.25 1353.86,-42.69 1370.2,-44.1"/>
<polygon fill="black" stroke="black" points="1369.76,-47.58 1380.04,-44.98 1370.39,-40.6 1369.76,-47.58"/>
<text text-anchor="middle" x="1248.38" y="-43.7" font-family="Times New Roman,serif" font-size="14.00">ALMOST EXACTLY</text>
</g>
<!-- Wikipedia -->
<g id="node9" class="node">
<title>Wikipedia</title>
<g id="a_node9"><a xlink:href="https://en.wikipedia.org/" xlink:title=" &lt;i&gt;&lt;u&gt;Concept Defined in Wikipedia&lt;/u&gt;&lt;/i&gt; ">
<polygon fill="lightyellow" stroke="black" points="190.25,-235 2.5,-235 2.5,-199 190.25,-199 190.25,-235"/>
<text text-anchor="start" x="10.5" y="-212.95" font-family="Times New Roman,serif" font-size="14.00"> </text>
<text text-anchor="start" x="14.25" y="-212.95" font-family="Times New Roman,serif" font-style="italic" text-decoration="underline" font-size="14.00">Concept Defined in Wikipedia</text>
<text text-anchor="start" x="178.5" y="-212.95" font-family="Times New Roman,serif" font-size="14.00"> </text>
</a>
</g>
</g>
<!-- This Paper -->
<g id="node10" class="node">
<title>This Paper</title>
<polygon fill="lightblue" stroke="black" points="188.75,-293 4,-293 4,-257 188.75,-257 188.75,-293"/>
<polygon fill="none" stroke="black" points="192.75,-297 0,-297 0,-253 192.75,-253 192.75,-297"/>
<text text-anchor="start" x="12" y="-270.95" font-family="Times New Roman,serif" font-size="14.00"> </text>
<text text-anchor="start" x="15.75" y="-270.95" font-family="Times New Roman,serif" font-style="italic" font-size="14.00">Concept defined in this paper</text>
<text text-anchor="start" x="177" y="-270.95" font-family="Times New Roman,serif" font-size="14.00"> </text>
</g>
<!-- Mathematics -->
<g id="node15" class="node">
<title>Mathematics</title>
<g id="a_node15"><a xlink:href="https://en.wikipedia.org/wiki/Mathematics" xlink:title=" &lt;i&gt;&lt;u&gt;Mathematics&lt;/u&gt;&lt;/i&gt; ">
<polygon fill="lightyellow" stroke="black" points="1653.25,-182 1559.25,-182 1559.25,-146 1653.25,-146 1653.25,-182"/>
<text text-anchor="start" x="1567.25" y="-159.95" font-family="Times New Roman,serif" font-size="14.00"> </text>
<text text-anchor="start" x="1571" y="-159.95" font-family="Times New Roman,serif" font-style="italic" text-decoration="underline" font-size="14.00">Mathematics</text>
<text text-anchor="start" x="1641.5" y="-159.95" font-family="Times New Roman,serif" font-size="14.00"> </text>
</a>
</g>
</g>
<!-- WikiAlgorithm&#45;&gt;Mathematics -->
<g id="edge17" class="edge">
<title>WikiAlgorithm&#45;&gt;Mathematics</title>
<path fill="none" stroke="black" d="M1450.94,-224.8C1478.89,-213.79 1517.14,-198.72 1548.56,-186.34"/>
<polygon fill="black" stroke="black" points="1549.5,-189.73 1557.52,-182.81 1546.93,-183.22 1549.5,-189.73"/>
<text text-anchor="middle" x="1523.25" y="-205.2" font-family="Times New Roman,serif" font-size="14.00">part of</text>
</g>
<!-- MathematicalModel&#45;&gt;Mathematics -->
<g id="edge18" class="edge">
<title>MathematicalModel&#45;&gt;Mathematics</title>
<path fill="none" stroke="black" d="M1317.99,-163.19C1384.73,-163.38 1484.97,-163.66 1547.68,-163.84"/>
<polygon fill="black" stroke="black" points="1547.41,-167.34 1557.42,-163.87 1547.43,-160.34 1547.41,-167.34"/>
<text text-anchor="middle" x="1411.38" y="-166.85" font-family="Times New Roman,serif" font-size="14.00">part of</text>
</g>
<!-- EuclideanSpace -->
<g id="node17" class="node">
<title>EuclideanSpace</title>
<g id="a_node17"><a xlink:href="https://en.wikipedia.org/wiki/Euclidean_space" xlink:title=" &lt;i&gt;&lt;u&gt;Euclidean Space&lt;/u&gt;&lt;/i&gt; ">
<polygon fill="lightyellow" stroke="black" points="1944.12,-263 1829.88,-263 1829.88,-227 1944.12,-227 1944.12,-263"/>
<text text-anchor="start" x="1837.88" y="-240.95" font-family="Times New Roman,serif" font-size="14.00"> </text>
<text text-anchor="start" x="1841.62" y="-240.95" font-family="Times New Roman,serif" font-style="italic" text-decoration="underline" font-size="14.00">Euclidean Space</text>
<text text-anchor="start" x="1932.38" y="-240.95" font-family="Times New Roman,serif" font-size="14.00"> </text>
</a>
</g>
</g>
<!-- Mathematics&#45;&gt;EuclideanSpace -->
<g id="edge20" class="edge">
<title>Mathematics&#45;&gt;EuclideanSpace</title>
<path fill="none" stroke="black" d="M1632.63,-182.33C1643.97,-189.75 1657.79,-197.77 1671.25,-203 1718.72,-221.42 1775.34,-232.07 1818.53,-238.03"/>
<polygon fill="black" stroke="black" points="1817.89,-241.47 1828.26,-239.32 1818.81,-234.53 1817.89,-241.47"/>
<text text-anchor="middle" x="1734.25" y="-238" font-family="Times New Roman,serif" font-size="14.00">used by neural networs</text>
</g>
<!-- ActivationFunction -->
<g id="node18" class="node">
<title>ActivationFunction</title>
<g id="a_node18"><a xlink:href="https://en.wikipedia.org/wiki/Activation_function" xlink:title=" &lt;i&gt;&lt;u&gt;Activation Function&lt;/u&gt;&lt;/i&gt; ">
<polygon fill="lightyellow" stroke="black" points="1952.75,-209 1821.25,-209 1821.25,-173 1952.75,-173 1952.75,-209"/>
<text text-anchor="start" x="1829.25" y="-186.95" font-family="Times New Roman,serif" font-size="14.00"> </text>
<text text-anchor="start" x="1833" y="-186.95" font-family="Times New Roman,serif" font-style="italic" text-decoration="underline" font-size="14.00">Activation Function</text>
<text text-anchor="start" x="1941" y="-186.95" font-family="Times New Roman,serif" font-size="14.00"> </text>
</a>
</g>
</g>
<!-- Mathematics&#45;&gt;ActivationFunction -->
<g id="edge19" class="edge">
<title>Mathematics&#45;&gt;ActivationFunction</title>
<path fill="none" stroke="black" d="M1653.59,-168.49C1695.96,-172.59 1759.44,-178.74 1809.36,-183.58"/>
<polygon fill="black" stroke="black" points="1808.96,-187.05 1819.25,-184.53 1809.63,-180.09 1808.96,-187.05"/>
<text text-anchor="middle" x="1734.25" y="-185.47" font-family="Times New Roman,serif" font-size="14.00">used by neural networs</text>
</g>
<!-- AffineTransformation -->
<g id="node19" class="node">
<title>AffineTransformation</title>
<g id="a_node19"><a xlink:href="https://en.wikipedia.org/wiki/Affine_transformation" xlink:title=" &lt;i&gt;&lt;u&gt;Affine Transformation&lt;/u&gt;&lt;/i&gt; ">
<polygon fill="lightyellow" stroke="black" points="1958.75,-155 1815.25,-155 1815.25,-119 1958.75,-119 1958.75,-155"/>
<text text-anchor="start" x="1823.25" y="-132.95" font-family="Times New Roman,serif" font-size="14.00"> </text>
<text text-anchor="start" x="1827" y="-132.95" font-family="Times New Roman,serif" font-style="italic" text-decoration="underline" font-size="14.00">Affine Transformation</text>
<text text-anchor="start" x="1947" y="-132.95" font-family="Times New Roman,serif" font-size="14.00"> </text>
</a>
</g>
</g>
<!-- Mathematics&#45;&gt;AffineTransformation -->
<g id="edge21" class="edge">
<title>Mathematics&#45;&gt;AffineTransformation</title>
<path fill="none" stroke="black" d="M1653.6,-153.4C1659.52,-152.29 1665.51,-151.28 1671.25,-150.5 1714.8,-144.57 1763.69,-141.24 1803.8,-139.37"/>
<polygon fill="black" stroke="black" points="1803.79,-142.87 1813.63,-138.94 1803.48,-135.88 1803.79,-142.87"/>
<text text-anchor="middle" x="1734.25" y="-153.7" font-family="Times New Roman,serif" font-size="14.00">used by neural networs</text>
</g>
<!-- ChainRule -->
<g id="node20" class="node">
<title>ChainRule</title>
<g id="a_node20"><a xlink:href="https://en.wikipedia.org/wiki/Chain_rule" xlink:title=" &lt;i&gt;&lt;u&gt;Chain Rule&lt;/u&gt;&lt;/i&gt; ">
<polygon fill="lightyellow" stroke="black" points="1929.5,-101 1844.5,-101 1844.5,-65 1929.5,-65 1929.5,-101"/>
<text text-anchor="start" x="1852.5" y="-78.95" font-family="Times New Roman,serif" font-size="14.00"> </text>
<text text-anchor="start" x="1856.25" y="-78.95" font-family="Times New Roman,serif" font-style="italic" text-decoration="underline" font-size="14.00">Chain Rule</text>
<text text-anchor="start" x="1917.75" y="-78.95" font-family="Times New Roman,serif" font-size="14.00"> </text>
</a>
</g>
</g>
<!-- Mathematics&#45;&gt;ChainRule -->
<g id="edge22" class="edge">
<title>Mathematics&#45;&gt;ChainRule</title>
<path fill="none" stroke="black" d="M1628.65,-145.55C1640.47,-136.32 1655.84,-125.8 1671.25,-119.5 1723.63,-98.09 1788.14,-89.24 1832.71,-85.58"/>
<polygon fill="black" stroke="black" points="1832.94,-89.07 1842.65,-84.83 1832.42,-82.09 1832.94,-89.07"/>
<text text-anchor="middle" x="1734.25" y="-122.7" font-family="Times New Roman,serif" font-size="14.00">used by neural networs</text>
</g>
<!-- DAG -->
<g id="node16" class="node">
<title>DAG</title>
<g id="a_node16"><a xlink:href="https://en.wikipedia.org/wiki/Directed_acyclic_graph" xlink:title=" &lt;i&gt;&lt;u&gt;Directed Acyclic Graph&lt;/u&gt;&lt;/i&gt; ">
<polygon fill="lightyellow" stroke="black" points="1157.62,-122 1005.12,-122 1005.12,-86 1157.62,-86 1157.62,-122"/>
<text text-anchor="start" x="1013.12" y="-99.95" font-family="Times New Roman,serif" font-size="14.00"> </text>
<text text-anchor="start" x="1016.88" y="-99.95" font-family="Times New Roman,serif" font-style="italic" text-decoration="underline" font-size="14.00">Directed Acyclic Graph</text>
<text text-anchor="start" x="1145.88" y="-99.95" font-family="Times New Roman,serif" font-size="14.00"> </text>
</a>
</g>
</g>
<!-- DAG&#45;&gt;WikiGraph -->
<g id="edge16" class="edge">
<title>DAG&#45;&gt;WikiGraph</title>
<path fill="none" stroke="black" d="M1155.21,-85.52C1163.29,-83.71 1171.43,-81.99 1179.25,-80.5 1245.89,-67.76 1324.22,-57.79 1370.45,-52.41"/>
<polygon fill="black" stroke="black" points="1370.72,-55.9 1380.26,-51.28 1369.92,-48.94 1370.72,-55.9"/>
<text text-anchor="middle" x="1248.38" y="-83.7" font-family="Times New Roman,serif" font-size="14.00">is subclass of</text>
</g>
<!-- DAG&#45;&gt;Mathematics -->
<g id="edge15" class="edge">
<title>DAG&#45;&gt;Mathematics</title>
<path fill="none" stroke="black" d="M1157.97,-109.25C1239.46,-115.36 1372.9,-126.67 1487.25,-142.5 1506.99,-145.23 1528.45,-148.92 1547.6,-152.48"/>
<polygon fill="black" stroke="black" points="1546.92,-155.91 1557.39,-154.33 1548.21,-149.03 1546.92,-155.91"/>
<text text-anchor="middle" x="1411.38" y="-145.7" font-family="Times New Roman,serif" font-size="14.00">part of</text>
</g>
<!-- DecisionTree -->
<g id="node21" class="node">
<title>DecisionTree</title>
<g id="a_node21"><a xlink:href="https://en.wikipedia.org/wiki/Decision_tree" xlink:title=" &lt;i&gt;&lt;u&gt;Decision Tree&lt;/u&gt;&lt;/i&gt; ">
<polygon fill="lightyellow" stroke="black" points="776.12,-390 676.88,-390 676.88,-354 776.12,-354 776.12,-390"/>
<text text-anchor="start" x="684.88" y="-367.95" font-family="Times New Roman,serif" font-size="14.00"> </text>
<text text-anchor="start" x="688.62" y="-367.95" font-family="Times New Roman,serif" font-style="italic" text-decoration="underline" font-size="14.00">Decision Tree</text>
<text text-anchor="start" x="764.38" y="-367.95" font-family="Times New Roman,serif" font-size="14.00"> </text>
</a>
</g>
</g>
<!-- DecisionTree&#45;&gt;MathematicalFunction -->
<g id="edge23" class="edge">
<title>DecisionTree&#45;&gt;MathematicalFunction</title>
<path fill="none" stroke="black" d="M776.26,-370.4C828.25,-369.74 912.66,-371.71 983.5,-387.5 996.21,-390.33 1009.42,-394.61 1021.85,-399.3"/>
<polygon fill="black" stroke="black" points="1020.55,-402.55 1031.14,-402.95 1023.11,-396.04 1020.55,-402.55"/>
<text text-anchor="middle" x="904.75" y="-390.7" font-family="Times New Roman,serif" font-size="14.00">is an</text>
</g>
<!-- DecisionTree&#45;&gt;Algorithm -->
<g id="edge29" class="edge">
<title>DecisionTree&#45;&gt;Algorithm</title>
<path fill="none" stroke="black" d="M776.5,-360.82C792.27,-357.35 809.85,-353.62 826,-350.5 895.7,-337.04 913.67,-336.72 983.5,-324 997.6,-321.43 1012.83,-318.51 1026.94,-315.75"/>
<polygon fill="black" stroke="black" points="1027.36,-319.23 1036.5,-313.86 1026.01,-312.36 1027.36,-319.23"/>
<text text-anchor="middle" x="904.75" y="-353.7" font-family="Times New Roman,serif" font-size="14.00">can be used to implement an</text>
</g>
<!-- ArtificialNeuralNetwork -->
<g id="node22" class="node">
<title>ArtificialNeuralNetwork</title>
<g id="a_node22"><a xlink:href="https://en.wikipedia.org/wiki/Neural_network_(machine_learning)" xlink:title=" &lt;i&gt;&lt;u&gt;Artificial Neural Network&lt;/u&gt;&lt;/i&gt; ">
<polygon fill="lightyellow" stroke="black" points="808,-457 645,-457 645,-421 808,-421 808,-457"/>
<text text-anchor="start" x="653" y="-434.95" font-family="Times New Roman,serif" font-size="14.00"> </text>
<text text-anchor="start" x="656.75" y="-434.95" font-family="Times New Roman,serif" font-style="italic" text-decoration="underline" font-size="14.00">Artificial Neural Network</text>
<text text-anchor="start" x="796.25" y="-434.95" font-family="Times New Roman,serif" font-size="14.00"> </text>
</a>
</g>
</g>
<!-- ArtificialNeuralNetwork&#45;&gt;MathematicalFunction -->
<g id="edge24" class="edge">
<title>ArtificialNeuralNetwork&#45;&gt;MathematicalFunction</title>
<path fill="none" stroke="black" d="M808.38,-445.17C858.83,-447.88 925.07,-449.38 983.5,-444 985.67,-443.8 987.87,-443.58 990.08,-443.33"/>
<polygon fill="black" stroke="black" points="990.25,-446.83 999.74,-442.12 989.38,-439.89 990.25,-446.83"/>
<text text-anchor="middle" x="904.75" y="-450.82" font-family="Times New Roman,serif" font-size="14.00">is an</text>
</g>
<!-- ArtificialNeuralNetwork&#45;&gt;Algorithm -->
<g id="edge30" class="edge">
<title>ArtificialNeuralNetwork&#45;&gt;Algorithm</title>
<path fill="none" stroke="black" d="M808.37,-426.06C814.33,-425.17 820.26,-424.31 826,-423.5 895.85,-413.68 920.29,-435.3 983.5,-404 1014.56,-388.62 1041.36,-359.17 1058.84,-336.38"/>
<polygon fill="black" stroke="black" points="1061.47,-338.72 1064.62,-328.6 1055.85,-334.54 1061.47,-338.72"/>
<text text-anchor="middle" x="904.75" y="-426.7" font-family="Times New Roman,serif" font-size="14.00">can be used to implement an</text>
</g>
<!-- FourierTransform -->
<g id="node23" class="node">
<title>FourierTransform</title>
<g id="a_node23"><a xlink:href="https://en.wikipedia.org/wiki/Fourier_transform" xlink:title=" &lt;i&gt;&lt;u&gt;Fourier Transform&lt;/u&gt;&lt;/i&gt; ">
<polygon fill="lightyellow" stroke="black" points="789.25,-524 663.75,-524 663.75,-488 789.25,-488 789.25,-524"/>
<text text-anchor="start" x="671.75" y="-501.95" font-family="Times New Roman,serif" font-size="14.00"> </text>
<text text-anchor="start" x="675.5" y="-501.95" font-family="Times New Roman,serif" font-style="italic" text-decoration="underline" font-size="14.00">Fourier Transform</text>
<text text-anchor="start" x="777.5" y="-501.95" font-family="Times New Roman,serif" font-size="14.00"> </text>
</a>
</g>
</g>
<!-- FourierTransform&#45;&gt;MathematicalFunction -->
<g id="edge25" class="edge">
<title>FourierTransform&#45;&gt;MathematicalFunction</title>
<path fill="none" stroke="black" d="M789.49,-501.37C841.94,-496.38 918.69,-486.51 983.5,-468 997.27,-464.07 1011.66,-458.62 1025,-452.96"/>
<polygon fill="black" stroke="black" points="1026.3,-456.21 1034.06,-449 1023.5,-449.8 1026.3,-456.21"/>
<text text-anchor="middle" x="904.75" y="-500.64" font-family="Times New Roman,serif" font-size="14.00">is an</text>
</g>
<!-- Backpropagation -->
<g id="node24" class="node">
<title>Backpropagation</title>
<g id="a_node24"><a xlink:href="https://en.wikipedia.org/wiki/Backpropagation" xlink:title=" &lt;i&gt;&lt;u&gt;Backpropagation&lt;/u&gt;&lt;/i&gt; ">
<polygon fill="lightyellow" stroke="black" points="785.12,-285 667.88,-285 667.88,-249 785.12,-249 785.12,-285"/>
<text text-anchor="start" x="675.88" y="-262.95" font-family="Times New Roman,serif" font-size="14.00"> </text>
<text text-anchor="start" x="679.62" y="-262.95" font-family="Times New Roman,serif" font-style="italic" text-decoration="underline" font-size="14.00">Backpropagation</text>
<text text-anchor="start" x="773.38" y="-262.95" font-family="Times New Roman,serif" font-size="14.00"> </text>
</a>
</g>
</g>
<!-- Backpropagation&#45;&gt;Algorithm -->
<g id="edge28" class="edge">
<title>Backpropagation&#45;&gt;Algorithm</title>
<path fill="none" stroke="black" d="M785.62,-249.18C838.3,-235.88 917.55,-223.07 983.5,-242.5 1006.23,-249.19 1028.65,-263.06 1046.19,-276.03"/>
<polygon fill="black" stroke="black" points="1043.62,-278.48 1053.69,-281.77 1047.87,-272.92 1043.62,-278.48"/>
<text text-anchor="middle" x="904.75" y="-245.7" font-family="Times New Roman,serif" font-size="14.00">is an</text>
</g>
<!-- Transformer -->
<g id="node25" class="node">
<title>Transformer</title>
<g id="a_node25"><a xlink:href="https://en.wikipedia.org/wiki/Transformer_(deep_learning_architecture)" xlink:title=" &lt;i&gt;&lt;u&gt;Transformer&lt;/u&gt;&lt;/i&gt; ">
<polygon fill="lightyellow" stroke="black" points="141.88,-90 50.88,-90 50.88,-54 141.88,-54 141.88,-90"/>
<text text-anchor="start" x="58.88" y="-67.95" font-family="Times New Roman,serif" font-size="14.00"> </text>
<text text-anchor="start" x="62.62" y="-67.95" font-family="Times New Roman,serif" font-style="italic" text-decoration="underline" font-size="14.00">Transformer</text>
<text text-anchor="start" x="130.12" y="-67.95" font-family="Times New Roman,serif" font-size="14.00"> </text>
</a>
</g>
</g>
<!-- Transformer&#45;&gt;DeepLearningArchitecture -->
<g id="edge13" class="edge">
<title>Transformer&#45;&gt;DeepLearningArchitecture</title>
<path fill="none" stroke="black" d="M142.23,-71.57C184.76,-71.16 250.21,-70.52 305.53,-69.99"/>
<polygon fill="black" stroke="black" points="305.33,-73.49 315.29,-69.9 305.26,-66.49 305.33,-73.49"/>
<text text-anchor="middle" x="255" y="-74.06" font-family="Times New Roman,serif" font-size="14.00">is an instance of</text>
</g>
<!-- AlexNet -->
<g id="node26" class="node">
<title>AlexNet</title>
<g id="a_node26"><a xlink:href="https://en.wikipedia.org/wiki/AlexNet" xlink:title=" &lt;i&gt;&lt;u&gt;AlexNet&lt;/u&gt;&lt;/i&gt; ">
<polygon fill="lightyellow" stroke="black" points="129.5,-36 63.25,-36 63.25,0 129.5,0 129.5,-36"/>
<text text-anchor="start" x="71.25" y="-13.95" font-family="Times New Roman,serif" font-size="14.00"> </text>
<text text-anchor="start" x="75" y="-13.95" font-family="Times New Roman,serif" font-style="italic" text-decoration="underline" font-size="14.00">AlexNet</text>
<text text-anchor="start" x="117.75" y="-13.95" font-family="Times New Roman,serif" font-size="14.00"> </text>
</a>
</g>
</g>
<!-- AlexNet&#45;&gt;DeepLearningArchitecture -->
<g id="edge14" class="edge">
<title>AlexNet&#45;&gt;DeepLearningArchitecture</title>
<path fill="none" stroke="black" d="M129.93,-22.85C169.86,-28.85 239.6,-39.51 299.25,-49.5 301.42,-49.86 303.61,-50.23 305.81,-50.61"/>
<polygon fill="black" stroke="black" points="305.02,-54.02 315.47,-52.26 306.21,-47.12 305.02,-54.02"/>
<text text-anchor="middle" x="255" y="-52.7" font-family="Times New Roman,serif" font-size="14.00">is an instance of</text>
</g>
</g>
</svg>
