<?xml version="1.0" encoding="UTF-8" standalone="no"?>
<!DOCTYPE svg PUBLIC "-//W3C//DTD SVG 1.1//EN"
 "http://www.w3.org/Graphics/SVG/1.1/DTD/svg11.dtd">
<!-- Generated by graphviz version 12.2.1 (20241206.2353)
 -->
<!-- Title: Intelligent Application Pages: 1 -->
<svg width="693pt" height="430pt"
 viewBox="0.00 0.00 692.50 430.00" xmlns="http://www.w3.org/2000/svg" xmlns:xlink="http://www.w3.org/1999/xlink">
<g id="graph0" class="graph" transform="scale(1 1) rotate(0) translate(4 426)">
<title>Intelligent Application</title>
<polygon fill="white" stroke="none" points="-4,4 -4,-426 688.5,-426 688.5,4 -4,4"/>
<!-- DeepLearningArchitecture -->
<g id="node1" class="node">
<title>DeepLearningArchitecture</title>
<polygon fill="lightblue" stroke="black" points="271,-321.5 95.25,-321.5 95.25,-285.5 271,-285.5 271,-321.5"/>
<polygon fill="none" stroke="black" points="275,-325.5 91.25,-325.5 91.25,-281.5 275,-281.5 275,-325.5"/>
<text text-anchor="start" x="103.25" y="-299.45" font-family="Times New Roman,serif" font-size="14.00"> </text>
<text text-anchor="start" x="107" y="-299.45" font-family="Times New Roman,serif" font-style="italic" font-size="14.00">Deep Learning Architecture</text>
<text text-anchor="start" x="259.25" y="-299.45" font-family="Times New Roman,serif" font-size="14.00"> </text>
</g>
<!-- Model -->
<g id="node2" class="node">
<title>Model</title>
<polygon fill="lightblue" stroke="black" points="252.25,-225 114,-225 114,-189 252.25,-189 252.25,-225"/>
<polygon fill="none" stroke="black" points="256.25,-229 110,-229 110,-185 256.25,-185 256.25,-229"/>
<text text-anchor="start" x="122" y="-202.95" font-family="Times New Roman,serif" font-size="14.00"> </text>
<text text-anchor="start" x="125.75" y="-202.95" font-family="Times New Roman,serif" font-style="italic" font-size="14.00">Mathematical Model</text>
<text text-anchor="start" x="240.5" y="-202.95" font-family="Times New Roman,serif" font-size="14.00"> </text>
</g>
<!-- DeepLearningArchitecture&#45;&gt;Model -->
<g id="edge4" class="edge">
<title>DeepLearningArchitecture&#45;&gt;Model</title>
<path fill="none" stroke="black" d="M183.12,-281.06C183.12,-269.09 183.12,-253.95 183.12,-240.56"/>
<polygon fill="black" stroke="black" points="186.63,-240.87 183.13,-230.87 179.63,-240.87 186.63,-240.87"/>
<text text-anchor="middle" x="192.5" y="-250.2" font-family="Times New Roman,serif" font-size="14.00">is a</text>
</g>
<!-- MathematicalFunction -->
<g id="node3" class="node">
<title>MathematicalFunction</title>
<polygon fill="lightblue" stroke="black" points="583,-128.5 431.25,-128.5 431.25,-92.5 583,-92.5 583,-128.5"/>
<polygon fill="none" stroke="black" points="587,-132.5 427.25,-132.5 427.25,-88.5 587,-88.5 587,-132.5"/>
<text text-anchor="start" x="439.25" y="-106.45" font-family="Times New Roman,serif" font-size="14.00"> </text>
<text text-anchor="start" x="443" y="-106.45" font-family="Times New Roman,serif" font-style="italic" font-size="14.00">Mathematical Function</text>
<text text-anchor="start" x="571.25" y="-106.45" font-family="Times New Roman,serif" font-size="14.00"> </text>
</g>
<!-- Model&#45;&gt;MathematicalFunction -->
<g id="edge1" class="edge">
<title>Model&#45;&gt;MathematicalFunction</title>
<path fill="none" stroke="black" d="M256.58,-193.33C274.11,-190.45 292.76,-187.5 310.12,-185 374.84,-175.66 397.99,-196.91 456.12,-167 467.71,-161.04 477.99,-151.33 486.24,-141.68"/>
<polygon fill="black" stroke="black" points="488.76,-144.12 492.27,-134.13 483.29,-139.75 488.76,-144.12"/>
<text text-anchor="middle" x="511.52" y="-153.7" font-family="Times New Roman,serif" font-size="14.00">collection of</text>
</g>
<!-- Algorithm -->
<g id="node5" class="node">
<title>Algorithm</title>
<polygon fill="lightblue" stroke="black" points="102.25,-128.5 24,-128.5 24,-92.5 102.25,-92.5 102.25,-128.5"/>
<polygon fill="none" stroke="black" points="106.25,-132.5 20,-132.5 20,-88.5 106.25,-88.5 106.25,-132.5"/>
<text text-anchor="start" x="32" y="-106.45" font-family="Times New Roman,serif" font-size="14.00"> </text>
<text text-anchor="start" x="35.75" y="-106.45" font-family="Times New Roman,serif" font-style="italic" font-size="14.00">Algorithm</text>
<text text-anchor="start" x="90.5" y="-106.45" font-family="Times New Roman,serif" font-size="14.00"> </text>
</g>
<!-- Model&#45;&gt;Algorithm -->
<g id="edge2" class="edge">
<title>Model&#45;&gt;Algorithm</title>
<path fill="none" stroke="black" d="M155.9,-184.56C139.02,-171.27 117.15,-154.05 98.89,-139.66"/>
<polygon fill="black" stroke="black" points="101.46,-137.23 91.44,-133.8 97.13,-142.73 101.46,-137.23"/>
<text text-anchor="middle" x="150.56" y="-153.7" font-family="Times New Roman,serif" font-size="14.00">can use</text>
</g>
<!-- Graph -->
<g id="node7" class="node">
<title>Graph</title>
<polygon fill="lightblue" stroke="black" points="207.12,-128.5 153.12,-128.5 153.12,-92.5 207.12,-92.5 207.12,-128.5"/>
<polygon fill="none" stroke="black" points="211.12,-132.5 149.12,-132.5 149.12,-88.5 211.12,-88.5 211.12,-132.5"/>
<text text-anchor="middle" x="180.12" y="-105.45" font-family="Times New Roman,serif" font-size="14.00">Graph</text>
</g>
<!-- Model&#45;&gt;Graph -->
<g id="edge3" class="edge">
<title>Model&#45;&gt;Graph</title>
<path fill="none" stroke="black" d="M180.21,-184.58C179.55,-178.88 178.95,-172.72 178.62,-167 178.2,-159.61 178.17,-151.66 178.32,-144.15"/>
<polygon fill="black" stroke="black" points="181.81,-144.49 178.65,-134.37 174.82,-144.25 181.81,-144.49"/>
<text text-anchor="middle" x="248.38" y="-153.7" font-family="Times New Roman,serif" font-size="14.00">Functions connected with</text>
</g>
<!-- MathematicalModel -->
<g id="node12" class="node">
<title>MathematicalModel</title>
<g id="a_node12"><a xlink:href="https://en.wikipedia.org/wiki/Mathematical_model" xlink:title=" &lt;i&gt;&lt;u&gt;Mathematical Model&lt;/u&gt;&lt;/i&gt; ">
<polygon fill="lightyellow" stroke="black" points="409.25,-128.5 271,-128.5 271,-92.5 409.25,-92.5 409.25,-128.5"/>
<text text-anchor="start" x="279" y="-106.45" font-family="Times New Roman,serif" font-size="14.00"> </text>
<text text-anchor="start" x="282.75" y="-106.45" font-family="Times New Roman,serif" font-style="italic" text-decoration="underline" font-size="14.00">Mathematical Model</text>
<text text-anchor="start" x="397.5" y="-106.45" font-family="Times New Roman,serif" font-size="14.00"> </text>
</a>
</g>
</g>
<!-- Model&#45;&gt;MathematicalModel -->
<g id="edge10" class="edge">
<title>Model&#45;&gt;MathematicalModel</title>
<path fill="none" stroke="black" d="M256.49,-197.43C278.44,-191.77 301.15,-182.42 318.12,-167 325.96,-159.89 331.04,-149.63 334.32,-139.85"/>
<polygon fill="black" stroke="black" points="337.68,-140.86 337,-130.29 330.93,-138.97 337.68,-140.86"/>
<text text-anchor="middle" x="390.61" y="-153.7" font-family="Times New Roman,serif" font-size="14.00">ALMOST EXACTLY</text>
</g>
<!-- WikiFunction -->
<g id="node14" class="node">
<title>WikiFunction</title>
<g id="a_node14"><a xlink:href="https://en.wikipedia.org/wiki/Function_(mathematics)" xlink:title=" &lt;i&gt;&lt;u&gt;Mathematical Function&lt;/u&gt;&lt;/i&gt; ">
<polygon fill="lightyellow" stroke="black" points="583,-36 431.25,-36 431.25,0 583,0 583,-36"/>
<text text-anchor="start" x="439.25" y="-13.95" font-family="Times New Roman,serif" font-size="14.00"> </text>
<text text-anchor="start" x="443" y="-13.95" font-family="Times New Roman,serif" font-style="italic" text-decoration="underline" font-size="14.00">Mathematical Function</text>
<text text-anchor="start" x="571.25" y="-13.95" font-family="Times New Roman,serif" font-size="14.00"> </text>
</a>
</g>
</g>
<!-- MathematicalFunction&#45;&gt;WikiFunction -->
<g id="edge12" class="edge">
<title>MathematicalFunction&#45;&gt;WikiFunction</title>
<path fill="none" stroke="black" d="M507.12,-88.05C507.12,-75.97 507.12,-60.71 507.12,-47.62"/>
<polygon fill="black" stroke="black" points="510.63,-47.87 507.13,-37.87 503.63,-47.87 510.63,-47.87"/>
<text text-anchor="middle" x="567.5" y="-57.2" font-family="Times New Roman,serif" font-size="14.00">ALMOST EXCATLY</text>
</g>
<!-- DeepLearningAlgorithm -->
<g id="node4" class="node">
<title>DeepLearningAlgorithm</title>
<polygon fill="lightblue" stroke="black" points="264.62,-418 101.62,-418 101.62,-382 264.62,-382 264.62,-418"/>
<polygon fill="none" stroke="black" points="268.62,-422 97.62,-422 97.62,-378 268.62,-378 268.62,-422"/>
<text text-anchor="start" x="109.62" y="-395.95" font-family="Times New Roman,serif" font-size="14.00"> </text>
<text text-anchor="start" x="113.38" y="-395.95" font-family="Times New Roman,serif" font-style="italic" font-size="14.00">Deep Learning Algorithm</text>
<text text-anchor="start" x="252.88" y="-395.95" font-family="Times New Roman,serif" font-size="14.00"> </text>
</g>
<!-- DeepLearningAlgorithm&#45;&gt;DeepLearningArchitecture -->
<g id="edge5" class="edge">
<title>DeepLearningAlgorithm&#45;&gt;DeepLearningArchitecture</title>
<path fill="none" stroke="black" d="M183.12,-377.56C183.12,-365.59 183.12,-350.45 183.12,-337.06"/>
<polygon fill="black" stroke="black" points="186.63,-337.37 183.13,-327.37 179.63,-337.37 186.63,-337.37"/>
<text text-anchor="middle" x="223.62" y="-346.7" font-family="Times New Roman,serif" font-size="14.00">has instance of</text>
</g>
<!-- DeepLearningAlgorithm&#45;&gt;Algorithm -->
<g id="edge7" class="edge">
<title>DeepLearningAlgorithm&#45;&gt;Algorithm</title>
<path fill="none" stroke="black" d="M137.97,-377.52C117.37,-365.27 94.79,-347.86 82.12,-325.5 49.72,-268.26 52.94,-188.35 58.09,-144.15"/>
<polygon fill="black" stroke="black" points="61.53,-144.8 59.33,-134.44 54.59,-143.91 61.53,-144.8"/>
<text text-anchor="middle" x="73.04" y="-250.2" font-family="Times New Roman,serif" font-size="14.00">is an</text>
</g>
<!-- TrainingMethod -->
<g id="node6" class="node">
<title>TrainingMethod</title>
<polygon fill="lightblue" stroke="black" points="405.62,-321.5 296.62,-321.5 296.62,-285.5 405.62,-285.5 405.62,-321.5"/>
<polygon fill="none" stroke="black" points="409.62,-325.5 292.62,-325.5 292.62,-281.5 409.62,-281.5 409.62,-325.5"/>
<text text-anchor="middle" x="351.12" y="-298.45" font-family="Times New Roman,serif" font-size="14.00">Training Method</text>
</g>
<!-- DeepLearningAlgorithm&#45;&gt;TrainingMethod -->
<g id="edge6" class="edge">
<title>DeepLearningAlgorithm&#45;&gt;TrainingMethod</title>
<path fill="none" stroke="black" d="M233.23,-377.62C244.86,-372.21 257.07,-366.18 268.12,-360 283,-351.68 298.69,-341.57 312.38,-332.27"/>
<polygon fill="black" stroke="black" points="314,-335.4 320.25,-326.84 310.03,-329.63 314,-335.4"/>
<text text-anchor="middle" x="333.34" y="-346.7" font-family="Times New Roman,serif" font-size="14.00">train with data</text>
</g>
<!-- WikiAlgorithm -->
<g id="node11" class="node">
<title>WikiAlgorithm</title>
<g id="a_node11"><a xlink:href="https://en.wikipedia.org/wiki/Algorithm" xlink:title=" &lt;i&gt;&lt;u&gt;Algorithm&lt;/u&gt;&lt;/i&gt; ">
<polygon fill="lightyellow" stroke="black" points="78.25,-36 0,-36 0,0 78.25,0 78.25,-36"/>
<text text-anchor="start" x="8" y="-13.95" font-family="Times New Roman,serif" font-size="14.00"> </text>
<text text-anchor="start" x="11.75" y="-13.95" font-family="Times New Roman,serif" font-style="italic" text-decoration="underline" font-size="14.00">Algorithm</text>
<text text-anchor="start" x="66.5" y="-13.95" font-family="Times New Roman,serif" font-size="14.00"> </text>
</a>
</g>
</g>
<!-- Algorithm&#45;&gt;WikiAlgorithm -->
<g id="edge9" class="edge">
<title>Algorithm&#45;&gt;WikiAlgorithm</title>
<path fill="none" stroke="black" d="M57.44,-88.05C54.2,-75.84 50.1,-60.4 46.61,-47.22"/>
<polygon fill="black" stroke="black" points="50.06,-46.59 44.12,-37.82 43.3,-48.38 50.06,-46.59"/>
<text text-anchor="middle" x="113.69" y="-57.2" font-family="Times New Roman,serif" font-size="14.00">ALMOST EXACTLY</text>
</g>
<!-- Dataset -->
<g id="node8" class="node">
<title>Dataset</title>
<polygon fill="lightblue" stroke="black" points="379.38,-225 322.88,-225 322.88,-189 379.38,-189 379.38,-225"/>
<polygon fill="none" stroke="black" points="383.38,-229 318.88,-229 318.88,-185 383.38,-185 383.38,-229"/>
<text text-anchor="middle" x="351.12" y="-201.95" font-family="Times New Roman,serif" font-size="14.00">Dataset</text>
</g>
<!-- TrainingMethod&#45;&gt;Dataset -->
<g id="edge8" class="edge">
<title>TrainingMethod&#45;&gt;Dataset</title>
<path fill="none" stroke="black" d="M351.12,-281.06C351.12,-269.09 351.12,-253.95 351.12,-240.56"/>
<polygon fill="black" stroke="black" points="354.63,-240.87 351.13,-230.87 347.63,-240.87 354.63,-240.87"/>
<text text-anchor="middle" x="397.62" y="-250.2" font-family="Times New Roman,serif" font-size="14.00">uses or generates</text>
</g>
<!-- WikiGraph -->
<g id="node13" class="node">
<title>WikiGraph</title>
<g id="a_node13"><a xlink:href="https://en.wikipedia.org/wiki/Graph_(discrete_mathematics)" xlink:title=" &lt;i&gt;&lt;u&gt;Graph&lt;/u&gt;&lt;/i&gt; ">
<polygon fill="lightyellow" stroke="black" points="213.5,-36 154.75,-36 154.75,0 213.5,0 213.5,-36"/>
<text text-anchor="start" x="162.75" y="-13.95" font-family="Times New Roman,serif" font-size="14.00"> </text>
<text text-anchor="start" x="166.5" y="-13.95" font-family="Times New Roman,serif" font-style="italic" text-decoration="underline" font-size="14.00">Graph</text>
<text text-anchor="start" x="201.75" y="-13.95" font-family="Times New Roman,serif" font-size="14.00"> </text>
</a>
</g>
</g>
<!-- Graph&#45;&gt;WikiGraph -->
<g id="edge11" class="edge">
<title>Graph&#45;&gt;WikiGraph</title>
<path fill="none" stroke="black" d="M181.07,-88.05C181.61,-75.97 182.28,-60.71 182.86,-47.62"/>
<polygon fill="black" stroke="black" points="186.35,-48.01 183.29,-37.87 179.35,-47.7 186.35,-48.01"/>
<text text-anchor="middle" x="243.61" y="-57.2" font-family="Times New Roman,serif" font-size="14.00">ALMOST EXACTLY</text>
</g>
<!-- Wikipedia -->
<g id="node9" class="node">
<title>Wikipedia</title>
<g id="a_node9"><a xlink:href="https://en.wikipedia.org/" xlink:title=" &lt;i&gt;&lt;u&gt;Concept Defined in Wikipedia&lt;/u&gt;&lt;/i&gt; ">
<polygon fill="lightyellow" stroke="black" points="474,-418 286.25,-418 286.25,-382 474,-382 474,-418"/>
<text text-anchor="start" x="294.25" y="-395.95" font-family="Times New Roman,serif" font-size="14.00"> </text>
<text text-anchor="start" x="298" y="-395.95" font-family="Times New Roman,serif" font-style="italic" text-decoration="underline" font-size="14.00">Concept Defined in Wikipedia</text>
<text text-anchor="start" x="462.25" y="-395.95" font-family="Times New Roman,serif" font-size="14.00"> </text>
</a>
</g>
</g>
<!-- This Paper -->
<g id="node10" class="node">
<title>This Paper</title>
<polygon fill="lightblue" stroke="black" points="680.5,-418 495.75,-418 495.75,-382 680.5,-382 680.5,-418"/>
<polygon fill="none" stroke="black" points="684.5,-422 491.75,-422 491.75,-378 684.5,-378 684.5,-422"/>
<text text-anchor="start" x="503.75" y="-395.95" font-family="Times New Roman,serif" font-size="14.00"> </text>
<text text-anchor="start" x="507.5" y="-395.95" font-family="Times New Roman,serif" font-style="italic" font-size="14.00">Concept defined in this paper</text>
<text text-anchor="start" x="668.75" y="-395.95" font-family="Times New Roman,serif" font-size="14.00"> </text>
</g>
</g>
</svg>
